%TF.GenerationSoftware,KiCad,Pcbnew,9.0.8*%
%TF.CreationDate,2026-03-24T18:17:09+01:00*%
%TF.ProjectId,Datron 1281 Widerstand Option,44617472-6f6e-4203-9132-383120576964,1*%
%TF.SameCoordinates,Original*%
%TF.FileFunction,Paste,Top*%
%TF.FilePolarity,Positive*%
%FSLAX46Y46*%
G04 Gerber Fmt 4.6, Leading zero omitted, Abs format (unit mm)*
G04 Created by KiCad (PCBNEW 9.0.8) date 2026-03-24 18:17:09*
%MOMM*%
%LPD*%
G01*
G04 APERTURE LIST*
G04 Aperture macros list*
%AMRoundRect*
0 Rectangle with rounded corners*
0 $1 Rounding radius*
0 $2 $3 $4 $5 $6 $7 $8 $9 X,Y pos of 4 corners*
0 Add a 4 corners polygon primitive as box body*
4,1,4,$2,$3,$4,$5,$6,$7,$8,$9,$2,$3,0*
0 Add four circle primitives for the rounded corners*
1,1,$1+$1,$2,$3*
1,1,$1+$1,$4,$5*
1,1,$1+$1,$6,$7*
1,1,$1+$1,$8,$9*
0 Add four rect primitives between the rounded corners*
20,1,$1+$1,$2,$3,$4,$5,0*
20,1,$1+$1,$4,$5,$6,$7,0*
20,1,$1+$1,$6,$7,$8,$9,0*
20,1,$1+$1,$8,$9,$2,$3,0*%
G04 Aperture macros list end*
%ADD10RoundRect,0.075000X-0.910000X-0.225000X0.910000X-0.225000X0.910000X0.225000X-0.910000X0.225000X0*%
%ADD11RoundRect,0.250000X-0.262500X-0.450000X0.262500X-0.450000X0.262500X0.450000X-0.262500X0.450000X0*%
%ADD12RoundRect,0.250000X1.100000X-0.500000X1.100000X0.500000X-1.100000X0.500000X-1.100000X-0.500000X0*%
%ADD13RoundRect,0.250000X0.262500X0.450000X-0.262500X0.450000X-0.262500X-0.450000X0.262500X-0.450000X0*%
%ADD14RoundRect,0.250000X-0.400000X-0.600000X0.400000X-0.600000X0.400000X0.600000X-0.400000X0.600000X0*%
%ADD15RoundRect,0.150000X-0.150000X0.825000X-0.150000X-0.825000X0.150000X-0.825000X0.150000X0.825000X0*%
%ADD16RoundRect,0.250000X-0.475000X0.250000X-0.475000X-0.250000X0.475000X-0.250000X0.475000X0.250000X0*%
%ADD17RoundRect,0.250000X0.450000X-0.262500X0.450000X0.262500X-0.450000X0.262500X-0.450000X-0.262500X0*%
%ADD18RoundRect,0.250000X0.250000X0.475000X-0.250000X0.475000X-0.250000X-0.475000X0.250000X-0.475000X0*%
%ADD19RoundRect,0.150000X-0.825000X-0.150000X0.825000X-0.150000X0.825000X0.150000X-0.825000X0.150000X0*%
%ADD20RoundRect,0.250000X-0.250000X-0.475000X0.250000X-0.475000X0.250000X0.475000X-0.250000X0.475000X0*%
%ADD21RoundRect,0.250000X-0.450000X0.262500X-0.450000X-0.262500X0.450000X-0.262500X0.450000X0.262500X0*%
%ADD22RoundRect,0.250000X-1.100000X0.500000X-1.100000X-0.500000X1.100000X-0.500000X1.100000X0.500000X0*%
%ADD23RoundRect,0.250000X0.500000X1.100000X-0.500000X1.100000X-0.500000X-1.100000X0.500000X-1.100000X0*%
%ADD24RoundRect,0.250000X0.475000X-0.250000X0.475000X0.250000X-0.475000X0.250000X-0.475000X-0.250000X0*%
%ADD25RoundRect,0.250000X-1.000000X-0.650000X1.000000X-0.650000X1.000000X0.650000X-1.000000X0.650000X0*%
%ADD26RoundRect,0.150000X-0.150000X0.587500X-0.150000X-0.587500X0.150000X-0.587500X0.150000X0.587500X0*%
%ADD27RoundRect,0.150000X-1.050000X-0.150000X1.050000X-0.150000X1.050000X0.150000X-1.050000X0.150000X0*%
%ADD28RoundRect,0.075000X-0.225000X0.910000X-0.225000X-0.910000X0.225000X-0.910000X0.225000X0.910000X0*%
%ADD29RoundRect,0.250000X-0.600000X0.400000X-0.600000X-0.400000X0.600000X-0.400000X0.600000X0.400000X0*%
%ADD30RoundRect,0.250000X0.400000X0.600000X-0.400000X0.600000X-0.400000X-0.600000X0.400000X-0.600000X0*%
%ADD31RoundRect,0.250000X0.600000X-0.400000X0.600000X0.400000X-0.600000X0.400000X-0.600000X-0.400000X0*%
%ADD32RoundRect,0.150000X0.150000X-0.512500X0.150000X0.512500X-0.150000X0.512500X-0.150000X-0.512500X0*%
%ADD33RoundRect,0.250000X-1.000000X-0.900000X1.000000X-0.900000X1.000000X0.900000X-1.000000X0.900000X0*%
G04 APERTURE END LIST*
D10*
%TO.C,M202*%
X178500000Y-41275000D03*
X178500000Y-42545000D03*
X178500000Y-43815000D03*
X178500000Y-45085000D03*
X178500000Y-46355000D03*
X178500000Y-47625000D03*
X178500000Y-48895000D03*
X178500000Y-50165000D03*
X183450000Y-50165000D03*
X183450000Y-48895000D03*
X183450000Y-47625000D03*
X183450000Y-46355000D03*
X183450000Y-45085000D03*
X183450000Y-43815000D03*
X183450000Y-42545000D03*
X183450000Y-41275000D03*
%TD*%
D11*
%TO.C,R62*%
X139422500Y-43180000D03*
X141247500Y-43180000D03*
%TD*%
D12*
%TO.C,D12*%
X129540000Y-55740000D03*
X129540000Y-50940000D03*
%TD*%
D13*
%TO.C,R20*%
X168044500Y-92710000D03*
X166219500Y-92710000D03*
%TD*%
D14*
%TO.C,D10*%
X133279000Y-43180000D03*
X136779000Y-43180000D03*
%TD*%
D15*
%TO.C,U10*%
X144780000Y-90235000D03*
X143510000Y-90235000D03*
X142240000Y-90235000D03*
X140970000Y-90235000D03*
X140970000Y-95185000D03*
X142240000Y-95185000D03*
X143510000Y-95185000D03*
X144780000Y-95185000D03*
%TD*%
D11*
%TO.C,R65*%
X136247500Y-69850000D03*
X138072500Y-69850000D03*
%TD*%
D16*
%TO.C,C13*%
X207010000Y-100650000D03*
X207010000Y-102550000D03*
%TD*%
%TO.C,C14*%
X117475000Y-46040000D03*
X117475000Y-47940000D03*
%TD*%
D17*
%TO.C,R47*%
X206629000Y-67714500D03*
X206629000Y-65889500D03*
%TD*%
D11*
%TO.C,R76*%
X100052500Y-92710000D03*
X101877500Y-92710000D03*
%TD*%
D17*
%TO.C,R22*%
X268605000Y-46632500D03*
X268605000Y-44807500D03*
%TD*%
D18*
%TO.C,C22*%
X176210000Y-45085000D03*
X174310000Y-45085000D03*
%TD*%
D19*
%TO.C,U3*%
X264160000Y-89535000D03*
X264160000Y-90805000D03*
X264160000Y-92075000D03*
X264160000Y-93345000D03*
X264160000Y-94615000D03*
X264160000Y-95885000D03*
X264160000Y-97155000D03*
X269110000Y-97155000D03*
X269110000Y-95885000D03*
X269110000Y-94615000D03*
X269110000Y-93345000D03*
X269110000Y-92075000D03*
X269110000Y-90805000D03*
X269110000Y-89535000D03*
%TD*%
D20*
%TO.C,C21*%
X185740000Y-43815000D03*
X187640000Y-43815000D03*
%TD*%
D11*
%TO.C,R88*%
X96242500Y-87757000D03*
X98067500Y-87757000D03*
%TD*%
D18*
%TO.C,C8*%
X254315000Y-74168000D03*
X252415000Y-74168000D03*
%TD*%
D11*
%TO.C,R53*%
X252452500Y-78740000D03*
X254277500Y-78740000D03*
%TD*%
D10*
%TO.C,M201*%
X214060000Y-67945000D03*
X214060000Y-69215000D03*
X214060000Y-70485000D03*
X214060000Y-71755000D03*
X214060000Y-73025000D03*
X214060000Y-74295000D03*
X214060000Y-75565000D03*
X214060000Y-76835000D03*
X219010000Y-76835000D03*
X219010000Y-75565000D03*
X219010000Y-74295000D03*
X219010000Y-73025000D03*
X219010000Y-71755000D03*
X219010000Y-70485000D03*
X219010000Y-69215000D03*
X219010000Y-67945000D03*
%TD*%
D21*
%TO.C,R74*%
X125095000Y-94337500D03*
X125095000Y-96162500D03*
%TD*%
D17*
%TO.C,R71*%
X86233000Y-86002500D03*
X86233000Y-84177500D03*
%TD*%
%TO.C,R24*%
X221615000Y-40917500D03*
X221615000Y-39092500D03*
%TD*%
D16*
%TO.C,C23*%
X191770000Y-78425000D03*
X191770000Y-80325000D03*
%TD*%
D17*
%TO.C,R48*%
X208661000Y-67714500D03*
X208661000Y-65889500D03*
%TD*%
D11*
%TO.C,R46*%
X173331500Y-66294000D03*
X175156500Y-66294000D03*
%TD*%
D18*
%TO.C,C19*%
X211770000Y-71755000D03*
X209870000Y-71755000D03*
%TD*%
D12*
%TO.C,D7*%
X198755000Y-76060000D03*
X198755000Y-71260000D03*
%TD*%
D20*
%TO.C,C20*%
X185740000Y-46355000D03*
X187640000Y-46355000D03*
%TD*%
D11*
%TO.C,R87*%
X123674500Y-70358000D03*
X125499500Y-70358000D03*
%TD*%
D17*
%TO.C,R89*%
X106045000Y-67587500D03*
X106045000Y-65762500D03*
%TD*%
D13*
%TO.C,R37*%
X106322500Y-37465000D03*
X104497500Y-37465000D03*
%TD*%
D22*
%TO.C,D13*%
X135763000Y-63005000D03*
X135763000Y-67805000D03*
%TD*%
D17*
%TO.C,R35*%
X206375000Y-89177500D03*
X206375000Y-87352500D03*
%TD*%
%TO.C,R86*%
X121666000Y-70381500D03*
X121666000Y-68556500D03*
%TD*%
D23*
%TO.C,D4*%
X265925000Y-38100000D03*
X261125000Y-38100000D03*
%TD*%
D13*
%TO.C,R12*%
X243482500Y-46990000D03*
X241657500Y-46990000D03*
%TD*%
D22*
%TO.C,D8*%
X195580000Y-94120000D03*
X195580000Y-98920000D03*
%TD*%
D17*
%TO.C,R34*%
X208280000Y-89177500D03*
X208280000Y-87352500D03*
%TD*%
%TO.C,R83*%
X91440000Y-73025000D03*
X91440000Y-71200000D03*
%TD*%
D20*
%TO.C,C35*%
X168595000Y-73660000D03*
X170495000Y-73660000D03*
%TD*%
D24*
%TO.C,C51*%
X148717000Y-89850000D03*
X148717000Y-87950000D03*
%TD*%
D17*
%TO.C,R43*%
X175895000Y-85367500D03*
X175895000Y-83542500D03*
%TD*%
D11*
%TO.C,R77*%
X100052500Y-90170000D03*
X101877500Y-90170000D03*
%TD*%
D18*
%TO.C,C9*%
X268920000Y-87630000D03*
X267020000Y-87630000D03*
%TD*%
D25*
%TO.C,D5*%
X261525000Y-43815000D03*
X265525000Y-43815000D03*
%TD*%
D13*
%TO.C,R50*%
X254277500Y-68580000D03*
X252452500Y-68580000D03*
%TD*%
D16*
%TO.C,C33*%
X105410000Y-95570000D03*
X105410000Y-97470000D03*
%TD*%
D17*
%TO.C,R36*%
X204470000Y-89177500D03*
X204470000Y-87352500D03*
%TD*%
D19*
%TO.C,U4*%
X240160000Y-90170000D03*
X240160000Y-91440000D03*
X240160000Y-92710000D03*
X240160000Y-93980000D03*
X240160000Y-95250000D03*
X240160000Y-96520000D03*
X240160000Y-97790000D03*
X245110000Y-97790000D03*
X245110000Y-96520000D03*
X245110000Y-95250000D03*
X245110000Y-93980000D03*
X245110000Y-92710000D03*
X245110000Y-91440000D03*
X245110000Y-90170000D03*
%TD*%
D17*
%TO.C,R99*%
X142240000Y-87907500D03*
X142240000Y-86082500D03*
%TD*%
D11*
%TO.C,R23*%
X237847500Y-45085000D03*
X239672500Y-45085000D03*
%TD*%
%TO.C,R80*%
X124182500Y-86360000D03*
X126007500Y-86360000D03*
%TD*%
D16*
%TO.C,C42*%
X151130000Y-77155000D03*
X151130000Y-79055000D03*
%TD*%
D24*
%TO.C,C16*%
X118745000Y-36510000D03*
X118745000Y-34610000D03*
%TD*%
D20*
%TO.C,C18*%
X221300000Y-70485000D03*
X223200000Y-70485000D03*
%TD*%
D19*
%TO.C,U6*%
X229300000Y-64770000D03*
X229300000Y-66040000D03*
X229300000Y-67310000D03*
X229300000Y-68580000D03*
X229300000Y-69850000D03*
X229300000Y-71120000D03*
X229300000Y-72390000D03*
X234250000Y-72390000D03*
X234250000Y-71120000D03*
X234250000Y-69850000D03*
X234250000Y-68580000D03*
X234250000Y-67310000D03*
X234250000Y-66040000D03*
X234250000Y-64770000D03*
%TD*%
D17*
%TO.C,R57*%
X194945000Y-70762500D03*
X194945000Y-68937500D03*
%TD*%
%TO.C,R45*%
X177165000Y-66444500D03*
X177165000Y-64619500D03*
%TD*%
D11*
%TO.C,R26*%
X237847500Y-48895000D03*
X239672500Y-48895000D03*
%TD*%
D24*
%TO.C,C32*%
X118110000Y-90170000D03*
X118110000Y-88270000D03*
%TD*%
D11*
%TO.C,R73*%
X103862500Y-92710000D03*
X105687500Y-92710000D03*
%TD*%
D13*
%TO.C,R15*%
X243482500Y-52705000D03*
X241657500Y-52705000D03*
%TD*%
%TO.C,R59*%
X188872500Y-93980000D03*
X187047500Y-93980000D03*
%TD*%
D16*
%TO.C,C15*%
X120015000Y-46040000D03*
X120015000Y-47940000D03*
%TD*%
D13*
%TO.C,R63*%
X141247500Y-41275000D03*
X139422500Y-41275000D03*
%TD*%
D11*
%TO.C,R7*%
X252452500Y-63500000D03*
X254277500Y-63500000D03*
%TD*%
D15*
%TO.C,U5*%
X209550000Y-93410000D03*
X208280000Y-93410000D03*
X207010000Y-93410000D03*
X205740000Y-93410000D03*
X204470000Y-93410000D03*
X203200000Y-93410000D03*
X201930000Y-93410000D03*
X201930000Y-98360000D03*
X203200000Y-98360000D03*
X204470000Y-98360000D03*
X205740000Y-98360000D03*
X207010000Y-98360000D03*
X208280000Y-98360000D03*
X209550000Y-98360000D03*
%TD*%
D11*
%TO.C,R78*%
X96242500Y-90170000D03*
X98067500Y-90170000D03*
%TD*%
D17*
%TO.C,R91*%
X116840000Y-71397500D03*
X116840000Y-69572500D03*
%TD*%
D20*
%TO.C,C41*%
X158435000Y-81915000D03*
X160335000Y-81915000D03*
%TD*%
D11*
%TO.C,R16*%
X235942500Y-97155000D03*
X237767500Y-97155000D03*
%TD*%
D13*
%TO.C,R11*%
X243482500Y-45085000D03*
X241657500Y-45085000D03*
%TD*%
D17*
%TO.C,R32*%
X202565000Y-102512500D03*
X202565000Y-100687500D03*
%TD*%
%TO.C,R18*%
X241935000Y-101242500D03*
X241935000Y-99417500D03*
%TD*%
D26*
%TO.C,Q2*%
X105852000Y-42115500D03*
X103952000Y-42115500D03*
X104902000Y-43990500D03*
%TD*%
D17*
%TO.C,R85*%
X88265000Y-86002500D03*
X88265000Y-84177500D03*
%TD*%
%TO.C,R33*%
X212090000Y-89177500D03*
X212090000Y-87352500D03*
%TD*%
%TO.C,R30*%
X210185000Y-89177500D03*
X210185000Y-87352500D03*
%TD*%
D27*
%TO.C,U1*%
X221465000Y-43180000D03*
X221465000Y-44450000D03*
X221465000Y-45720000D03*
X221465000Y-46990000D03*
X221465000Y-48260000D03*
X221465000Y-49530000D03*
X221465000Y-50800000D03*
X221465000Y-52070000D03*
X227965000Y-52070000D03*
X227965000Y-50800000D03*
X227965000Y-49530000D03*
X227965000Y-48260000D03*
X227965000Y-46990000D03*
X227965000Y-45720000D03*
X227965000Y-44450000D03*
X227965000Y-43180000D03*
%TD*%
D19*
%TO.C,U2*%
X210315000Y-43180000D03*
X210315000Y-44450000D03*
X210315000Y-45720000D03*
X210315000Y-46990000D03*
X210315000Y-48260000D03*
X210315000Y-49530000D03*
X210315000Y-50800000D03*
X210315000Y-52070000D03*
X215265000Y-52070000D03*
X215265000Y-50800000D03*
X215265000Y-49530000D03*
X215265000Y-48260000D03*
X215265000Y-46990000D03*
X215265000Y-45720000D03*
X215265000Y-44450000D03*
X215265000Y-43180000D03*
%TD*%
D11*
%TO.C,R6*%
X252452500Y-66040000D03*
X254277500Y-66040000D03*
%TD*%
D13*
%TO.C,R61*%
X151939000Y-51435000D03*
X150114000Y-51435000D03*
%TD*%
D11*
%TO.C,R17*%
X235942500Y-95250000D03*
X237767500Y-95250000D03*
%TD*%
%TO.C,R44*%
X178792500Y-86360000D03*
X180617500Y-86360000D03*
%TD*%
D17*
%TO.C,R64*%
X129540000Y-59332500D03*
X129540000Y-57507500D03*
%TD*%
D20*
%TO.C,C31*%
X225110000Y-64389000D03*
X227010000Y-64389000D03*
%TD*%
D17*
%TO.C,R97*%
X121920000Y-51355000D03*
X121920000Y-49530000D03*
%TD*%
D13*
%TO.C,R96*%
X121205000Y-62865000D03*
X119380000Y-62865000D03*
%TD*%
%TO.C,R28*%
X232052500Y-43180000D03*
X230227500Y-43180000D03*
%TD*%
D20*
%TO.C,C12*%
X211140000Y-94615000D03*
X213040000Y-94615000D03*
%TD*%
D28*
%TO.C,M101*%
X122555000Y-38800000D03*
X121285000Y-38800000D03*
X120015000Y-38800000D03*
X118745000Y-38800000D03*
X117475000Y-38800000D03*
X116205000Y-38800000D03*
X114935000Y-38800000D03*
X113665000Y-38800000D03*
X113665000Y-43750000D03*
X114935000Y-43750000D03*
X116205000Y-43750000D03*
X117475000Y-43750000D03*
X118745000Y-43750000D03*
X120015000Y-43750000D03*
X121285000Y-43750000D03*
X122555000Y-43750000D03*
%TD*%
D11*
%TO.C,R51*%
X238482500Y-60960000D03*
X240307500Y-60960000D03*
%TD*%
D29*
%TO.C,D15*%
X124206000Y-53114000D03*
X124206000Y-56614000D03*
%TD*%
D11*
%TO.C,R27*%
X237847500Y-52705000D03*
X239672500Y-52705000D03*
%TD*%
D18*
%TO.C,C30*%
X233995000Y-62865000D03*
X232095000Y-62865000D03*
%TD*%
D13*
%TO.C,R13*%
X243482500Y-48895000D03*
X241657500Y-48895000D03*
%TD*%
D11*
%TO.C,R8*%
X252452500Y-60960000D03*
X254277500Y-60960000D03*
%TD*%
%TO.C,R90*%
X111482500Y-62865000D03*
X113307500Y-62865000D03*
%TD*%
D18*
%TO.C,C49*%
X148590000Y-95758000D03*
X146690000Y-95758000D03*
%TD*%
D13*
%TO.C,R4*%
X258087500Y-63500000D03*
X256262500Y-63500000D03*
%TD*%
D11*
%TO.C,R103*%
X146765000Y-101600000D03*
X148590000Y-101600000D03*
%TD*%
D21*
%TO.C,R31*%
X204470000Y-100687500D03*
X204470000Y-102512500D03*
%TD*%
D11*
%TO.C,R60*%
X173331500Y-53086000D03*
X175156500Y-53086000D03*
%TD*%
D13*
%TO.C,R5*%
X254277500Y-76200000D03*
X252452500Y-76200000D03*
%TD*%
%TO.C,R79*%
X126007500Y-88265000D03*
X124182500Y-88265000D03*
%TD*%
D21*
%TO.C,R92*%
X115570000Y-51157500D03*
X115570000Y-52982500D03*
%TD*%
D20*
%TO.C,C17*%
X221300000Y-73025000D03*
X223200000Y-73025000D03*
%TD*%
D13*
%TO.C,R10*%
X243482500Y-43180000D03*
X241657500Y-43180000D03*
%TD*%
D30*
%TO.C,D6*%
X106525000Y-40005000D03*
X103025000Y-40005000D03*
%TD*%
D31*
%TO.C,D1*%
X180467000Y-59662000D03*
X180467000Y-56162000D03*
%TD*%
D17*
%TO.C,R52*%
X243840000Y-101242500D03*
X243840000Y-99417500D03*
%TD*%
D21*
%TO.C,R101*%
X146685000Y-87987500D03*
X146685000Y-89812500D03*
%TD*%
D11*
%TO.C,R72*%
X103862500Y-90170000D03*
X105687500Y-90170000D03*
%TD*%
D32*
%TO.C,Q22*%
X117795000Y-53075000D03*
X119695000Y-53075000D03*
X118745000Y-50800000D03*
%TD*%
D13*
%TO.C,R14*%
X243482500Y-50800000D03*
X241657500Y-50800000D03*
%TD*%
%TO.C,R68*%
X72310000Y-86995000D03*
X70485000Y-86995000D03*
%TD*%
D23*
%TO.C,D17*%
X138290000Y-90170000D03*
X133490000Y-90170000D03*
%TD*%
D11*
%TO.C,R75*%
X114022500Y-101600000D03*
X115847500Y-101600000D03*
%TD*%
%TO.C,R58*%
X187047500Y-95885000D03*
X188872500Y-95885000D03*
%TD*%
D18*
%TO.C,C50*%
X138303000Y-87503000D03*
X136403000Y-87503000D03*
%TD*%
D11*
%TO.C,R25*%
X237847500Y-46990000D03*
X239672500Y-46990000D03*
%TD*%
D18*
%TO.C,C11*%
X214945000Y-41275000D03*
X213045000Y-41275000D03*
%TD*%
D20*
%TO.C,C34*%
X178755000Y-83820000D03*
X180655000Y-83820000D03*
%TD*%
D21*
%TO.C,R95*%
X120904000Y-65127500D03*
X120904000Y-66952500D03*
%TD*%
%TO.C,R67*%
X83185000Y-55602500D03*
X83185000Y-57427500D03*
%TD*%
D11*
%TO.C,R94*%
X117197500Y-64770000D03*
X119022500Y-64770000D03*
%TD*%
%TO.C,R19*%
X237847500Y-43180000D03*
X239672500Y-43180000D03*
%TD*%
D13*
%TO.C,R29*%
X232052500Y-45720000D03*
X230227500Y-45720000D03*
%TD*%
D23*
%TO.C,D16*%
X148450000Y-98425000D03*
X143650000Y-98425000D03*
%TD*%
D13*
%TO.C,R21*%
X270787500Y-42545000D03*
X268962500Y-42545000D03*
%TD*%
D17*
%TO.C,R93*%
X103505000Y-67587500D03*
X103505000Y-65762500D03*
%TD*%
D21*
%TO.C,R55*%
X232410000Y-74017500D03*
X232410000Y-75842500D03*
%TD*%
D15*
%TO.C,U9*%
X156845000Y-76965000D03*
X155575000Y-76965000D03*
X154305000Y-76965000D03*
X153035000Y-76965000D03*
X153035000Y-81915000D03*
X154305000Y-81915000D03*
X155575000Y-81915000D03*
X156845000Y-81915000D03*
%TD*%
D17*
%TO.C,R84*%
X87630000Y-73025000D03*
X87630000Y-71200000D03*
%TD*%
D21*
%TO.C,R56*%
X194945000Y-72747500D03*
X194945000Y-74572500D03*
%TD*%
D33*
%TO.C,D3*%
X260740000Y-50800000D03*
X265040000Y-50800000D03*
%TD*%
D11*
%TO.C,R98*%
X115292500Y-62865000D03*
X117117500Y-62865000D03*
%TD*%
D21*
%TO.C,R100*%
X146685000Y-91520000D03*
X146685000Y-93345000D03*
%TD*%
D32*
%TO.C,Q1*%
X268925000Y-40507500D03*
X270825000Y-40507500D03*
X269875000Y-38232500D03*
%TD*%
D31*
%TO.C,D2*%
X92075000Y-58265000D03*
X92075000Y-54765000D03*
%TD*%
D17*
%TO.C,R82*%
X140970000Y-80287500D03*
X140970000Y-78462500D03*
%TD*%
D21*
%TO.C,R102*%
X141605000Y-97512500D03*
X141605000Y-99337500D03*
%TD*%
D13*
%TO.C,R54*%
X226972500Y-66421000D03*
X225147500Y-66421000D03*
%TD*%
D12*
%TO.C,D9*%
X191770000Y-98920000D03*
X191770000Y-94120000D03*
%TD*%
D21*
%TO.C,R49*%
X229235000Y-98147500D03*
X229235000Y-99972500D03*
%TD*%
D18*
%TO.C,C10*%
X244790000Y-88265000D03*
X242890000Y-88265000D03*
%TD*%
D17*
%TO.C,R81*%
X137160000Y-80287500D03*
X137160000Y-78462500D03*
%TD*%
M02*
