%TF.GenerationSoftware,KiCad,Pcbnew,9.0.8*%
%TF.CreationDate,2026-03-24T18:17:10+01:00*%
%TF.ProjectId,Datron 1281 Widerstand Option,44617472-6f6e-4203-9132-383120576964,1*%
%TF.SameCoordinates,Original*%
%TF.FileFunction,Soldermask,Top*%
%TF.FilePolarity,Negative*%
%FSLAX46Y46*%
G04 Gerber Fmt 4.6, Leading zero omitted, Abs format (unit mm)*
G04 Created by KiCad (PCBNEW 9.0.8) date 2026-03-24 18:17:10*
%MOMM*%
%LPD*%
G01*
G04 APERTURE LIST*
G04 Aperture macros list*
%AMRoundRect*
0 Rectangle with rounded corners*
0 $1 Rounding radius*
0 $2 $3 $4 $5 $6 $7 $8 $9 X,Y pos of 4 corners*
0 Add a 4 corners polygon primitive as box body*
4,1,4,$2,$3,$4,$5,$6,$7,$8,$9,$2,$3,0*
0 Add four circle primitives for the rounded corners*
1,1,$1+$1,$2,$3*
1,1,$1+$1,$4,$5*
1,1,$1+$1,$6,$7*
1,1,$1+$1,$8,$9*
0 Add four rect primitives between the rounded corners*
20,1,$1+$1,$2,$3,$4,$5,0*
20,1,$1+$1,$4,$5,$6,$7,0*
20,1,$1+$1,$6,$7,$8,$9,0*
20,1,$1+$1,$8,$9,$2,$3,0*%
G04 Aperture macros list end*
%ADD10C,0.100000*%
%ADD11RoundRect,0.100500X-0.986500X-0.301500X0.986500X-0.301500X0.986500X0.301500X-0.986500X0.301500X0*%
%ADD12C,2.000000*%
%ADD13RoundRect,0.250000X-0.262500X-0.450000X0.262500X-0.450000X0.262500X0.450000X-0.262500X0.450000X0*%
%ADD14RoundRect,0.250000X1.100000X-0.500000X1.100000X0.500000X-1.100000X0.500000X-1.100000X-0.500000X0*%
%ADD15RoundRect,0.250000X0.262500X0.450000X-0.262500X0.450000X-0.262500X-0.450000X0.262500X-0.450000X0*%
%ADD16RoundRect,0.250000X-0.550000X-0.550000X0.550000X-0.550000X0.550000X0.550000X-0.550000X0.550000X0*%
%ADD17C,1.600000*%
%ADD18R,1.500000X1.050000*%
%ADD19O,1.500000X1.050000*%
%ADD20R,1.133000X1.133000*%
%ADD21C,1.133000*%
%ADD22RoundRect,0.249999X-0.850001X-0.850001X0.850001X-0.850001X0.850001X0.850001X-0.850001X0.850001X0*%
%ADD23C,2.200000*%
%ADD24RoundRect,0.250000X-0.400000X-0.600000X0.400000X-0.600000X0.400000X0.600000X-0.400000X0.600000X0*%
%ADD25C,1.365000*%
%ADD26RoundRect,0.150000X-0.150000X0.825000X-0.150000X-0.825000X0.150000X-0.825000X0.150000X0.825000X0*%
%ADD27C,1.550000*%
%ADD28O,1.600000X1.200000*%
%ADD29C,1.200000*%
%ADD30RoundRect,0.250000X-0.475000X0.250000X-0.475000X-0.250000X0.475000X-0.250000X0.475000X0.250000X0*%
%ADD31RoundRect,0.250000X0.450000X-0.262500X0.450000X0.262500X-0.450000X0.262500X-0.450000X-0.262500X0*%
%ADD32R,1.050000X1.500000*%
%ADD33O,1.050000X1.500000*%
%ADD34RoundRect,0.250000X0.250000X0.475000X-0.250000X0.475000X-0.250000X-0.475000X0.250000X-0.475000X0*%
%ADD35RoundRect,0.150000X-0.825000X-0.150000X0.825000X-0.150000X0.825000X0.150000X-0.825000X0.150000X0*%
%ADD36RoundRect,0.250000X-0.250000X-0.475000X0.250000X-0.475000X0.250000X0.475000X-0.250000X0.475000X0*%
%ADD37R,1.650000X1.650000*%
%ADD38C,1.650000*%
%ADD39R,1.295400X1.295400*%
%ADD40C,1.295400*%
%ADD41RoundRect,0.250001X-0.949999X-0.949999X0.949999X-0.949999X0.949999X0.949999X-0.949999X0.949999X0*%
%ADD42C,2.400000*%
%ADD43RoundRect,0.250000X-0.450000X0.262500X-0.450000X-0.262500X0.450000X-0.262500X0.450000X0.262500X0*%
%ADD44R,1.300000X1.300000*%
%ADD45C,1.300000*%
%ADD46RoundRect,0.250000X-1.100000X0.500000X-1.100000X-0.500000X1.100000X-0.500000X1.100000X0.500000X0*%
%ADD47RoundRect,0.250000X0.500000X1.100000X-0.500000X1.100000X-0.500000X-1.100000X0.500000X-1.100000X0*%
%ADD48RoundRect,0.250000X0.475000X-0.250000X0.475000X0.250000X-0.475000X0.250000X-0.475000X-0.250000X0*%
%ADD49RoundRect,0.250000X-1.000000X-0.650000X1.000000X-0.650000X1.000000X0.650000X-1.000000X0.650000X0*%
%ADD50O,2.000000X1.400000*%
%ADD51RoundRect,0.150000X-0.150000X0.587500X-0.150000X-0.587500X0.150000X-0.587500X0.150000X0.587500X0*%
%ADD52RoundRect,0.150000X-1.050000X-0.150000X1.050000X-0.150000X1.050000X0.150000X-1.050000X0.150000X0*%
%ADD53RoundRect,0.100500X-0.301500X0.986500X-0.301500X-0.986500X0.301500X-0.986500X0.301500X0.986500X0*%
%ADD54RoundRect,0.250000X-0.600000X0.400000X-0.600000X-0.400000X0.600000X-0.400000X0.600000X0.400000X0*%
%ADD55R,1.200000X1.200000*%
%ADD56R,1.950000X1.950000*%
%ADD57C,1.950000*%
%ADD58RoundRect,0.250000X0.400000X0.600000X-0.400000X0.600000X-0.400000X-0.600000X0.400000X-0.600000X0*%
%ADD59RoundRect,0.250000X0.600000X-0.400000X0.600000X0.400000X-0.600000X0.400000X-0.600000X-0.400000X0*%
%ADD60RoundRect,0.250000X0.950000X0.550000X-0.950000X0.550000X-0.950000X-0.550000X0.950000X-0.550000X0*%
%ADD61O,2.400000X1.600000*%
%ADD62RoundRect,0.250000X-0.550000X0.550000X-0.550000X-0.550000X0.550000X-0.550000X0.550000X0.550000X0*%
%ADD63RoundRect,0.150000X0.150000X-0.512500X0.150000X0.512500X-0.150000X0.512500X-0.150000X-0.512500X0*%
%ADD64O,1.200000X1.600000*%
%ADD65RoundRect,0.250000X-1.000000X-0.900000X1.000000X-0.900000X1.000000X0.900000X-1.000000X0.900000X0*%
%ADD66RoundRect,0.250000X-0.600000X-0.600000X0.600000X-0.600000X0.600000X0.600000X-0.600000X0.600000X0*%
%ADD67C,1.700000*%
G04 APERTURE END LIST*
D10*
X107668421Y-87594079D02*
X108567921Y-88493579D01*
X108578933Y-88510059D01*
X108578933Y-88510060D01*
X108582800Y-88529500D01*
X108582800Y-94363200D01*
X108578933Y-94382640D01*
X108567921Y-94399121D01*
X107681121Y-95285921D01*
X107664640Y-95296933D01*
X107645200Y-95300800D01*
X107632500Y-95300800D01*
X107613060Y-95296933D01*
X107585567Y-95269440D01*
X107585567Y-95230560D01*
X107613060Y-95203067D01*
X107622086Y-95201271D01*
X108481200Y-94342158D01*
X108481200Y-88550542D01*
X107596579Y-87665921D01*
X107585567Y-87649440D01*
X107585567Y-87610560D01*
X107613060Y-87583067D01*
X107651940Y-87583067D01*
X107668421Y-87594079D01*
G36*
X107668421Y-87594079D02*
G01*
X108567921Y-88493579D01*
X108578933Y-88510059D01*
X108578933Y-88510060D01*
X108582800Y-88529500D01*
X108582800Y-94363200D01*
X108578933Y-94382640D01*
X108567921Y-94399121D01*
X107681121Y-95285921D01*
X107664640Y-95296933D01*
X107645200Y-95300800D01*
X107632500Y-95300800D01*
X107613060Y-95296933D01*
X107585567Y-95269440D01*
X107585567Y-95230560D01*
X107613060Y-95203067D01*
X107622086Y-95201271D01*
X108481200Y-94342158D01*
X108481200Y-88550542D01*
X107596579Y-87665921D01*
X107585567Y-87649440D01*
X107585567Y-87610560D01*
X107613060Y-87583067D01*
X107651940Y-87583067D01*
X107668421Y-87594079D01*
G37*
X170199440Y-63323867D02*
X170226933Y-63351360D01*
X170226933Y-63390240D01*
X170199440Y-63417733D01*
X170180000Y-63421600D01*
X164386600Y-63421600D01*
X164386600Y-66473458D01*
X164800221Y-66887079D01*
X164811233Y-66903560D01*
X164815100Y-66923000D01*
X164815100Y-67310000D01*
X164811233Y-67329440D01*
X164783740Y-67356933D01*
X164744860Y-67356933D01*
X164717367Y-67329440D01*
X164713500Y-67310000D01*
X164713500Y-66944042D01*
X164299879Y-66530421D01*
X164288867Y-66513940D01*
X164285000Y-66494500D01*
X164285000Y-63370800D01*
X164288867Y-63351360D01*
X164316360Y-63323867D01*
X164335800Y-63320000D01*
X170180000Y-63320000D01*
X170199440Y-63323867D01*
G36*
X170199440Y-63323867D02*
G01*
X170226933Y-63351360D01*
X170226933Y-63390240D01*
X170199440Y-63417733D01*
X170180000Y-63421600D01*
X164386600Y-63421600D01*
X164386600Y-66473458D01*
X164800221Y-66887079D01*
X164811233Y-66903560D01*
X164815100Y-66923000D01*
X164815100Y-67310000D01*
X164811233Y-67329440D01*
X164783740Y-67356933D01*
X164744860Y-67356933D01*
X164717367Y-67329440D01*
X164713500Y-67310000D01*
X164713500Y-66944042D01*
X164299879Y-66530421D01*
X164288867Y-66513940D01*
X164285000Y-66494500D01*
X164285000Y-63370800D01*
X164288867Y-63351360D01*
X164316360Y-63323867D01*
X164335800Y-63320000D01*
X170180000Y-63320000D01*
X170199440Y-63323867D01*
G37*
X84494888Y-37062467D02*
X84511369Y-37073479D01*
X85107721Y-37669831D01*
X85118733Y-37686311D01*
X85118733Y-37686312D01*
X85122600Y-37705752D01*
X85122600Y-38494248D01*
X85118733Y-38513688D01*
X85118733Y-38513689D01*
X85107721Y-38530169D01*
X84511369Y-39126521D01*
X84494888Y-39137533D01*
X84475448Y-39141400D01*
X83164552Y-39141400D01*
X83145112Y-39137533D01*
X83128631Y-39126521D01*
X82514079Y-38511969D01*
X82503067Y-38495488D01*
X82499200Y-38476048D01*
X82499200Y-38455006D01*
X82600800Y-38455006D01*
X83185594Y-39039800D01*
X84454406Y-39039800D01*
X85021000Y-38473206D01*
X85021000Y-37726794D01*
X84454406Y-37160200D01*
X83185594Y-37160200D01*
X82600800Y-37744994D01*
X82600800Y-38455006D01*
X82499200Y-38455006D01*
X82499200Y-37744994D01*
X82499200Y-37723952D01*
X82503067Y-37704512D01*
X82514079Y-37688031D01*
X83128631Y-37073479D01*
X83145112Y-37062467D01*
X83164552Y-37058600D01*
X84475448Y-37058600D01*
X84494888Y-37062467D01*
G36*
X84494888Y-37062467D02*
G01*
X84511369Y-37073479D01*
X85107721Y-37669831D01*
X85118733Y-37686311D01*
X85118733Y-37686312D01*
X85122600Y-37705752D01*
X85122600Y-38494248D01*
X85118733Y-38513688D01*
X85118733Y-38513689D01*
X85107721Y-38530169D01*
X84511369Y-39126521D01*
X84494888Y-39137533D01*
X84475448Y-39141400D01*
X83164552Y-39141400D01*
X83145112Y-39137533D01*
X83128631Y-39126521D01*
X82514079Y-38511969D01*
X82503067Y-38495488D01*
X82499200Y-38476048D01*
X82499200Y-38455006D01*
X82600800Y-38455006D01*
X83185594Y-39039800D01*
X84454406Y-39039800D01*
X85021000Y-38473206D01*
X85021000Y-37726794D01*
X84454406Y-37160200D01*
X83185594Y-37160200D01*
X82600800Y-37744994D01*
X82600800Y-38455006D01*
X82499200Y-38455006D01*
X82499200Y-37744994D01*
X82499200Y-37723952D01*
X82503067Y-37704512D01*
X82514079Y-37688031D01*
X83128631Y-37073479D01*
X83145112Y-37062467D01*
X83164552Y-37058600D01*
X84475448Y-37058600D01*
X84494888Y-37062467D01*
G37*
X84520288Y-44707867D02*
X84536769Y-44718879D01*
X85107721Y-45289831D01*
X85118733Y-45306311D01*
X85118733Y-45306312D01*
X85122600Y-45325752D01*
X85122600Y-46114248D01*
X85118733Y-46133688D01*
X85107721Y-46150169D01*
X84550169Y-46707721D01*
X84533688Y-46718733D01*
X84514248Y-46722600D01*
X83125752Y-46722600D01*
X83106312Y-46718733D01*
X83106311Y-46718733D01*
X83089831Y-46707721D01*
X82514079Y-46131969D01*
X82503067Y-46115488D01*
X82499200Y-46096048D01*
X82499200Y-46075006D01*
X82600800Y-46075006D01*
X83146794Y-46621000D01*
X84493206Y-46621000D01*
X85021000Y-46093206D01*
X85021000Y-45346794D01*
X84479806Y-44805600D01*
X83160194Y-44805600D01*
X82600800Y-45364994D01*
X82600800Y-46075006D01*
X82499200Y-46075006D01*
X82499200Y-45364994D01*
X82499200Y-45343952D01*
X82503067Y-45324512D01*
X82514079Y-45308031D01*
X83103231Y-44718879D01*
X83119712Y-44707867D01*
X83139152Y-44704000D01*
X84500848Y-44704000D01*
X84520288Y-44707867D01*
G36*
X84520288Y-44707867D02*
G01*
X84536769Y-44718879D01*
X85107721Y-45289831D01*
X85118733Y-45306311D01*
X85118733Y-45306312D01*
X85122600Y-45325752D01*
X85122600Y-46114248D01*
X85118733Y-46133688D01*
X85107721Y-46150169D01*
X84550169Y-46707721D01*
X84533688Y-46718733D01*
X84514248Y-46722600D01*
X83125752Y-46722600D01*
X83106312Y-46718733D01*
X83106311Y-46718733D01*
X83089831Y-46707721D01*
X82514079Y-46131969D01*
X82503067Y-46115488D01*
X82499200Y-46096048D01*
X82499200Y-46075006D01*
X82600800Y-46075006D01*
X83146794Y-46621000D01*
X84493206Y-46621000D01*
X85021000Y-46093206D01*
X85021000Y-45346794D01*
X84479806Y-44805600D01*
X83160194Y-44805600D01*
X82600800Y-45364994D01*
X82600800Y-46075006D01*
X82499200Y-46075006D01*
X82499200Y-45364994D01*
X82499200Y-45343952D01*
X82503067Y-45324512D01*
X82514079Y-45308031D01*
X83103231Y-44718879D01*
X83119712Y-44707867D01*
X83139152Y-44704000D01*
X84500848Y-44704000D01*
X84520288Y-44707867D01*
G37*
X113480910Y-65612067D02*
X113497391Y-65623079D01*
X114132721Y-66258409D01*
X114143733Y-66274889D01*
X114143733Y-66274890D01*
X114147600Y-66294330D01*
X114147600Y-67135670D01*
X114143733Y-67155110D01*
X114143733Y-67155111D01*
X114132721Y-67171591D01*
X113450391Y-67853921D01*
X113433910Y-67864933D01*
X113414470Y-67868800D01*
X108160530Y-67868800D01*
X108141090Y-67864933D01*
X108124609Y-67853921D01*
X107497279Y-67226591D01*
X107486267Y-67210110D01*
X107482400Y-67190670D01*
X107482400Y-67169628D01*
X107584000Y-67169628D01*
X108181572Y-67767200D01*
X113393428Y-67767200D01*
X114046000Y-67114628D01*
X114046000Y-66315372D01*
X113440428Y-65709800D01*
X108214572Y-65709800D01*
X107584000Y-66340372D01*
X107584000Y-67169628D01*
X107482400Y-67169628D01*
X107482400Y-66340372D01*
X107482400Y-66319330D01*
X107486267Y-66299890D01*
X107497279Y-66283409D01*
X108157609Y-65623079D01*
X108174090Y-65612067D01*
X108193530Y-65608200D01*
X113461470Y-65608200D01*
X113480910Y-65612067D01*
G36*
X113480910Y-65612067D02*
G01*
X113497391Y-65623079D01*
X114132721Y-66258409D01*
X114143733Y-66274889D01*
X114143733Y-66274890D01*
X114147600Y-66294330D01*
X114147600Y-67135670D01*
X114143733Y-67155110D01*
X114143733Y-67155111D01*
X114132721Y-67171591D01*
X113450391Y-67853921D01*
X113433910Y-67864933D01*
X113414470Y-67868800D01*
X108160530Y-67868800D01*
X108141090Y-67864933D01*
X108124609Y-67853921D01*
X107497279Y-67226591D01*
X107486267Y-67210110D01*
X107482400Y-67190670D01*
X107482400Y-67169628D01*
X107584000Y-67169628D01*
X108181572Y-67767200D01*
X113393428Y-67767200D01*
X114046000Y-67114628D01*
X114046000Y-66315372D01*
X113440428Y-65709800D01*
X108214572Y-65709800D01*
X107584000Y-66340372D01*
X107584000Y-67169628D01*
X107482400Y-67169628D01*
X107482400Y-66340372D01*
X107482400Y-66319330D01*
X107486267Y-66299890D01*
X107497279Y-66283409D01*
X108157609Y-65623079D01*
X108174090Y-65612067D01*
X108193530Y-65608200D01*
X113461470Y-65608200D01*
X113480910Y-65612067D01*
G37*
X89456992Y-56066543D02*
X89473473Y-56077555D01*
X89977321Y-56581403D01*
X89988333Y-56597884D01*
X89992200Y-56617324D01*
X89992200Y-57277000D01*
X89988333Y-57296440D01*
X89988333Y-57332668D01*
X89977321Y-57349149D01*
X89473473Y-57852997D01*
X89456992Y-57864009D01*
X89437552Y-57867876D01*
X88728876Y-57867876D01*
X88709436Y-57864009D01*
X88692955Y-57852997D01*
X88203679Y-57363721D01*
X88192667Y-57347240D01*
X88188800Y-57327800D01*
X88188800Y-57116168D01*
X88185991Y-57111964D01*
X88182124Y-57092524D01*
X88182124Y-57075555D01*
X88283724Y-57075555D01*
X88286533Y-57079759D01*
X88286533Y-57079760D01*
X88290400Y-57099200D01*
X88290400Y-57306758D01*
X88749918Y-57766276D01*
X89416510Y-57766276D01*
X89893119Y-57289666D01*
X89890600Y-57277000D01*
X89890600Y-56638366D01*
X89416510Y-56164276D01*
X88752938Y-56164276D01*
X88283724Y-56633490D01*
X88283724Y-57075555D01*
X88182124Y-57075555D01*
X88182124Y-56633490D01*
X88182124Y-56612448D01*
X88185991Y-56593008D01*
X88197003Y-56576527D01*
X88695975Y-56077555D01*
X88712456Y-56066543D01*
X88731896Y-56062676D01*
X89437552Y-56062676D01*
X89456992Y-56066543D01*
X100358733Y-39071160D02*
X100362600Y-39090600D01*
X100362600Y-40261324D01*
X100358733Y-40280764D01*
X100358732Y-40280765D01*
X100347721Y-40297245D01*
X98445046Y-42199921D01*
X98428565Y-42210933D01*
X98409125Y-42214800D01*
X91770200Y-42214800D01*
X91759140Y-42212600D01*
X90528566Y-42212600D01*
X96978366Y-48662400D01*
X97756356Y-48662400D01*
X97775796Y-48666267D01*
X97792277Y-48677279D01*
X98642721Y-49527723D01*
X98653732Y-49544203D01*
X98653733Y-49544204D01*
X98657600Y-49563644D01*
X98657600Y-50190400D01*
X98653733Y-50209840D01*
X98626240Y-50237333D01*
X98587360Y-50237333D01*
X98559867Y-50209840D01*
X98556000Y-50190400D01*
X98556000Y-49584686D01*
X97735314Y-48764000D01*
X96957324Y-48764000D01*
X96937884Y-48760133D01*
X96921403Y-48749121D01*
X90370003Y-42197721D01*
X90358991Y-42181240D01*
X90358991Y-42142360D01*
X90386484Y-42114867D01*
X90405924Y-42111000D01*
X91768000Y-42111000D01*
X91779060Y-42113200D01*
X98388083Y-42113200D01*
X100261000Y-40240282D01*
X100261000Y-39090600D01*
X100264867Y-39071160D01*
X100292360Y-39043667D01*
X100331240Y-39043667D01*
X100358733Y-39071160D01*
G36*
X100358733Y-39071160D02*
G01*
X100362600Y-39090600D01*
X100362600Y-40261324D01*
X100358733Y-40280764D01*
X100358732Y-40280765D01*
X100347721Y-40297245D01*
X98445046Y-42199921D01*
X98428565Y-42210933D01*
X98409125Y-42214800D01*
X91770200Y-42214800D01*
X91759140Y-42212600D01*
X90528566Y-42212600D01*
X96978366Y-48662400D01*
X97756356Y-48662400D01*
X97775796Y-48666267D01*
X97792277Y-48677279D01*
X98642721Y-49527723D01*
X98653732Y-49544203D01*
X98653733Y-49544204D01*
X98657600Y-49563644D01*
X98657600Y-50190400D01*
X98653733Y-50209840D01*
X98626240Y-50237333D01*
X98587360Y-50237333D01*
X98559867Y-50209840D01*
X98556000Y-50190400D01*
X98556000Y-49584686D01*
X97735314Y-48764000D01*
X96957324Y-48764000D01*
X96937884Y-48760133D01*
X96921403Y-48749121D01*
X90370003Y-42197721D01*
X90358991Y-42181240D01*
X90358991Y-42142360D01*
X90386484Y-42114867D01*
X90405924Y-42111000D01*
X91768000Y-42111000D01*
X91779060Y-42113200D01*
X98388083Y-42113200D01*
X100261000Y-40240282D01*
X100261000Y-39090600D01*
X100264867Y-39071160D01*
X100292360Y-39043667D01*
X100331240Y-39043667D01*
X100358733Y-39071160D01*
G37*
X175958930Y-63323867D02*
X175975411Y-63334879D01*
X176184921Y-63544389D01*
X176195933Y-63560870D01*
X176199800Y-63580310D01*
X176199800Y-65278000D01*
X176195933Y-65297440D01*
X176168440Y-65324933D01*
X176149000Y-65328800D01*
X172516800Y-65328800D01*
X172516800Y-67542958D01*
X173901121Y-68927279D01*
X173912133Y-68943760D01*
X173916000Y-68963200D01*
X173916000Y-72197467D01*
X174660921Y-72942388D01*
X174671933Y-72958869D01*
X174675800Y-72978309D01*
X174675800Y-74930000D01*
X174671933Y-74949440D01*
X174644440Y-74976933D01*
X174605560Y-74976933D01*
X174578067Y-74949440D01*
X174574200Y-74930000D01*
X174574200Y-72999351D01*
X173829279Y-72254431D01*
X173818267Y-72237951D01*
X173818267Y-72237950D01*
X173814400Y-72218510D01*
X173814400Y-68984242D01*
X172430079Y-67599921D01*
X172419067Y-67583440D01*
X172415200Y-67564000D01*
X172415200Y-65278000D01*
X172419067Y-65258560D01*
X172446560Y-65231067D01*
X172466000Y-65227200D01*
X176098200Y-65227200D01*
X176098200Y-63601352D01*
X175918448Y-63421600D01*
X170180000Y-63421600D01*
X170160560Y-63417733D01*
X170133067Y-63390240D01*
X170133067Y-63351360D01*
X170160560Y-63323867D01*
X170180000Y-63320000D01*
X175939490Y-63320000D01*
X175958930Y-63323867D01*
G36*
X175958930Y-63323867D02*
G01*
X175975411Y-63334879D01*
X176184921Y-63544389D01*
X176195933Y-63560870D01*
X176199800Y-63580310D01*
X176199800Y-65278000D01*
X176195933Y-65297440D01*
X176168440Y-65324933D01*
X176149000Y-65328800D01*
X172516800Y-65328800D01*
X172516800Y-67542958D01*
X173901121Y-68927279D01*
X173912133Y-68943760D01*
X173916000Y-68963200D01*
X173916000Y-72197467D01*
X174660921Y-72942388D01*
X174671933Y-72958869D01*
X174675800Y-72978309D01*
X174675800Y-74930000D01*
X174671933Y-74949440D01*
X174644440Y-74976933D01*
X174605560Y-74976933D01*
X174578067Y-74949440D01*
X174574200Y-74930000D01*
X174574200Y-72999351D01*
X173829279Y-72254431D01*
X173818267Y-72237951D01*
X173818267Y-72237950D01*
X173814400Y-72218510D01*
X173814400Y-68984242D01*
X172430079Y-67599921D01*
X172419067Y-67583440D01*
X172415200Y-67564000D01*
X172415200Y-65278000D01*
X172419067Y-65258560D01*
X172446560Y-65231067D01*
X172466000Y-65227200D01*
X176098200Y-65227200D01*
X176098200Y-63601352D01*
X175918448Y-63421600D01*
X170180000Y-63421600D01*
X170160560Y-63417733D01*
X170133067Y-63390240D01*
X170133067Y-63351360D01*
X170160560Y-63323867D01*
X170180000Y-63320000D01*
X175939490Y-63320000D01*
X175958930Y-63323867D01*
G37*
X80664440Y-70456267D02*
X80691933Y-70483760D01*
X80691933Y-70522640D01*
X80664440Y-70550133D01*
X80645000Y-70554000D01*
X80147529Y-70554000D01*
X79400400Y-71301129D01*
X79400400Y-74422000D01*
X79396533Y-74441440D01*
X79396533Y-74441441D01*
X79385521Y-74457921D01*
X79383321Y-74460121D01*
X79366840Y-74471133D01*
X79347400Y-74475000D01*
X76511315Y-74475000D01*
X76491875Y-74471133D01*
X76475394Y-74460121D01*
X75954673Y-73939400D01*
X70095327Y-73939400D01*
X69509000Y-74525727D01*
X69509000Y-75334273D01*
X70080727Y-75906000D01*
X72974200Y-75906000D01*
X72993640Y-75909867D01*
X73021133Y-75937360D01*
X73021133Y-75976240D01*
X72993640Y-76003733D01*
X72974200Y-76007600D01*
X70059685Y-76007600D01*
X70040245Y-76003733D01*
X70040244Y-76003733D01*
X70023764Y-75992721D01*
X69422279Y-75391236D01*
X69411267Y-75374755D01*
X69407400Y-75355315D01*
X69407400Y-74504685D01*
X69411267Y-74485245D01*
X69422279Y-74468764D01*
X70038364Y-73852679D01*
X70054845Y-73841667D01*
X70074285Y-73837800D01*
X75975715Y-73837800D01*
X75995155Y-73841667D01*
X76011636Y-73852679D01*
X76532357Y-74373400D01*
X79298800Y-74373400D01*
X79298800Y-71280087D01*
X79302667Y-71260647D01*
X79313679Y-71244166D01*
X80090566Y-70467279D01*
X80107046Y-70456267D01*
X80107047Y-70456267D01*
X80126487Y-70452400D01*
X80645000Y-70452400D01*
X80664440Y-70456267D01*
G36*
X80664440Y-70456267D02*
G01*
X80691933Y-70483760D01*
X80691933Y-70522640D01*
X80664440Y-70550133D01*
X80645000Y-70554000D01*
X80147529Y-70554000D01*
X79400400Y-71301129D01*
X79400400Y-74422000D01*
X79396533Y-74441440D01*
X79396533Y-74441441D01*
X79385521Y-74457921D01*
X79383321Y-74460121D01*
X79366840Y-74471133D01*
X79347400Y-74475000D01*
X76511315Y-74475000D01*
X76491875Y-74471133D01*
X76475394Y-74460121D01*
X75954673Y-73939400D01*
X70095327Y-73939400D01*
X69509000Y-74525727D01*
X69509000Y-75334273D01*
X70080727Y-75906000D01*
X72974200Y-75906000D01*
X72993640Y-75909867D01*
X73021133Y-75937360D01*
X73021133Y-75976240D01*
X72993640Y-76003733D01*
X72974200Y-76007600D01*
X70059685Y-76007600D01*
X70040245Y-76003733D01*
X70040244Y-76003733D01*
X70023764Y-75992721D01*
X69422279Y-75391236D01*
X69411267Y-75374755D01*
X69407400Y-75355315D01*
X69407400Y-74504685D01*
X69411267Y-74485245D01*
X69422279Y-74468764D01*
X70038364Y-73852679D01*
X70054845Y-73841667D01*
X70074285Y-73837800D01*
X75975715Y-73837800D01*
X75995155Y-73841667D01*
X76011636Y-73852679D01*
X76532357Y-74373400D01*
X79298800Y-74373400D01*
X79298800Y-71280087D01*
X79302667Y-71260647D01*
X79313679Y-71244166D01*
X80090566Y-70467279D01*
X80107046Y-70456267D01*
X80107047Y-70456267D01*
X80126487Y-70452400D01*
X80645000Y-70452400D01*
X80664440Y-70456267D01*
G37*
X103503333Y-76332960D02*
X103507200Y-76352400D01*
X103507200Y-78218972D01*
X103503333Y-78238412D01*
X103503333Y-78238413D01*
X103492321Y-78254893D01*
X102704000Y-79043214D01*
X102704000Y-79706786D01*
X103492321Y-80495107D01*
X103503333Y-80511587D01*
X103503333Y-80511588D01*
X103507200Y-80531028D01*
X103507200Y-81857890D01*
X103503333Y-81877330D01*
X103503332Y-81877331D01*
X103492321Y-81893811D01*
X99877011Y-85509121D01*
X99860530Y-85520133D01*
X99841090Y-85524000D01*
X89232400Y-85524000D01*
X89212960Y-85520133D01*
X89212959Y-85520133D01*
X89196479Y-85509121D01*
X89194279Y-85506921D01*
X89183267Y-85490440D01*
X89179400Y-85471000D01*
X89179400Y-83734662D01*
X88734879Y-83290141D01*
X88723867Y-83273660D01*
X88720000Y-83254220D01*
X88720000Y-82016600D01*
X88723867Y-81997160D01*
X88751360Y-81969667D01*
X88790240Y-81969667D01*
X88817733Y-81997160D01*
X88821600Y-82016600D01*
X88821600Y-83233178D01*
X89266121Y-83677699D01*
X89277133Y-83694180D01*
X89281000Y-83713620D01*
X89281000Y-85422400D01*
X99820048Y-85422400D01*
X103405600Y-81836848D01*
X103405600Y-80552070D01*
X102617279Y-79763749D01*
X102606267Y-79747268D01*
X102602400Y-79727828D01*
X102602400Y-79022172D01*
X102606267Y-79002732D01*
X102617279Y-78986251D01*
X103405600Y-78197930D01*
X103405600Y-76352400D01*
X103409467Y-76332960D01*
X103436960Y-76305467D01*
X103475840Y-76305467D01*
X103503333Y-76332960D01*
G36*
X103503333Y-76332960D02*
G01*
X103507200Y-76352400D01*
X103507200Y-78218972D01*
X103503333Y-78238412D01*
X103503333Y-78238413D01*
X103492321Y-78254893D01*
X102704000Y-79043214D01*
X102704000Y-79706786D01*
X103492321Y-80495107D01*
X103503333Y-80511587D01*
X103503333Y-80511588D01*
X103507200Y-80531028D01*
X103507200Y-81857890D01*
X103503333Y-81877330D01*
X103503332Y-81877331D01*
X103492321Y-81893811D01*
X99877011Y-85509121D01*
X99860530Y-85520133D01*
X99841090Y-85524000D01*
X89232400Y-85524000D01*
X89212960Y-85520133D01*
X89212959Y-85520133D01*
X89196479Y-85509121D01*
X89194279Y-85506921D01*
X89183267Y-85490440D01*
X89179400Y-85471000D01*
X89179400Y-83734662D01*
X88734879Y-83290141D01*
X88723867Y-83273660D01*
X88720000Y-83254220D01*
X88720000Y-82016600D01*
X88723867Y-81997160D01*
X88751360Y-81969667D01*
X88790240Y-81969667D01*
X88817733Y-81997160D01*
X88821600Y-82016600D01*
X88821600Y-83233178D01*
X89266121Y-83677699D01*
X89277133Y-83694180D01*
X89281000Y-83713620D01*
X89281000Y-85422400D01*
X99820048Y-85422400D01*
X103405600Y-81836848D01*
X103405600Y-80552070D01*
X102617279Y-79763749D01*
X102606267Y-79747268D01*
X102602400Y-79727828D01*
X102602400Y-79022172D01*
X102606267Y-79002732D01*
X102617279Y-78986251D01*
X103405600Y-78197930D01*
X103405600Y-76352400D01*
X103409467Y-76332960D01*
X103436960Y-76305467D01*
X103475840Y-76305467D01*
X103503333Y-76332960D01*
G37*
X87917115Y-42114867D02*
X87933596Y-42125879D01*
X95717721Y-49910003D01*
X95728732Y-49926483D01*
X95728733Y-49926484D01*
X95732600Y-49945924D01*
X95732600Y-50702758D01*
X95739121Y-50709279D01*
X95750133Y-50725759D01*
X95750133Y-50725760D01*
X95754000Y-50745200D01*
X95754000Y-50745314D01*
X96574686Y-51566000D01*
X97735314Y-51566000D01*
X98556000Y-50745314D01*
X98556000Y-50190400D01*
X98559867Y-50170960D01*
X98587360Y-50143467D01*
X98626240Y-50143467D01*
X98653733Y-50170960D01*
X98657600Y-50190400D01*
X98657600Y-50766356D01*
X98653733Y-50785796D01*
X98653732Y-50785797D01*
X98642721Y-50802277D01*
X97792277Y-51652721D01*
X97775796Y-51663733D01*
X97756356Y-51667600D01*
X96553644Y-51667600D01*
X96534204Y-51663733D01*
X96534203Y-51663732D01*
X96517723Y-51652721D01*
X95667279Y-50802277D01*
X95656267Y-50785796D01*
X95652400Y-50766356D01*
X95652400Y-50766242D01*
X95645879Y-50759721D01*
X95634867Y-50743240D01*
X95631000Y-50723800D01*
X95631000Y-49966966D01*
X87876633Y-42212600D01*
X75139555Y-42212600D01*
X74789434Y-42562721D01*
X74772953Y-42573733D01*
X74753513Y-42577600D01*
X70307200Y-42577600D01*
X70287760Y-42573733D01*
X70260267Y-42546240D01*
X70260267Y-42507360D01*
X70287760Y-42479867D01*
X70307200Y-42476000D01*
X74732471Y-42476000D01*
X75082592Y-42125879D01*
X75099073Y-42114867D01*
X75118513Y-42111000D01*
X87897675Y-42111000D01*
X87917115Y-42114867D01*
G36*
X87917115Y-42114867D02*
G01*
X87933596Y-42125879D01*
X95717721Y-49910003D01*
X95728732Y-49926483D01*
X95728733Y-49926484D01*
X95732600Y-49945924D01*
X95732600Y-50702758D01*
X95739121Y-50709279D01*
X95750133Y-50725759D01*
X95750133Y-50725760D01*
X95754000Y-50745200D01*
X95754000Y-50745314D01*
X96574686Y-51566000D01*
X97735314Y-51566000D01*
X98556000Y-50745314D01*
X98556000Y-50190400D01*
X98559867Y-50170960D01*
X98587360Y-50143467D01*
X98626240Y-50143467D01*
X98653733Y-50170960D01*
X98657600Y-50190400D01*
X98657600Y-50766356D01*
X98653733Y-50785796D01*
X98653732Y-50785797D01*
X98642721Y-50802277D01*
X97792277Y-51652721D01*
X97775796Y-51663733D01*
X97756356Y-51667600D01*
X96553644Y-51667600D01*
X96534204Y-51663733D01*
X96534203Y-51663732D01*
X96517723Y-51652721D01*
X95667279Y-50802277D01*
X95656267Y-50785796D01*
X95652400Y-50766356D01*
X95652400Y-50766242D01*
X95645879Y-50759721D01*
X95634867Y-50743240D01*
X95631000Y-50723800D01*
X95631000Y-49966966D01*
X87876633Y-42212600D01*
X75139555Y-42212600D01*
X74789434Y-42562721D01*
X74772953Y-42573733D01*
X74753513Y-42577600D01*
X70307200Y-42577600D01*
X70287760Y-42573733D01*
X70260267Y-42546240D01*
X70260267Y-42507360D01*
X70287760Y-42479867D01*
X70307200Y-42476000D01*
X74732471Y-42476000D01*
X75082592Y-42125879D01*
X75099073Y-42114867D01*
X75118513Y-42111000D01*
X87897675Y-42111000D01*
X87917115Y-42114867D01*
G37*
X81182953Y-70456267D02*
X81199434Y-70467279D01*
X81932721Y-71200566D01*
X81943733Y-71217046D01*
X81943733Y-71217047D01*
X81947600Y-71236487D01*
X81947600Y-83263400D01*
X87378158Y-83263400D01*
X87708400Y-82933158D01*
X87708400Y-81189870D01*
X87447279Y-80928749D01*
X87436267Y-80912268D01*
X87432400Y-80892828D01*
X87432400Y-80187172D01*
X87436267Y-80167732D01*
X87447279Y-80151251D01*
X87946251Y-79652279D01*
X87962732Y-79641267D01*
X87982172Y-79637400D01*
X88687828Y-79637400D01*
X88707268Y-79641267D01*
X88723749Y-79652279D01*
X89222721Y-80151251D01*
X89233733Y-80167732D01*
X89237600Y-80187172D01*
X89237600Y-80892828D01*
X89233733Y-80912268D01*
X89222721Y-80928749D01*
X88821600Y-81329870D01*
X88821600Y-82016600D01*
X88817733Y-82036040D01*
X88790240Y-82063533D01*
X88751360Y-82063533D01*
X88723867Y-82036040D01*
X88720000Y-82016600D01*
X88720000Y-81308828D01*
X88723867Y-81289388D01*
X88734879Y-81272907D01*
X89136000Y-80871786D01*
X89136000Y-80208214D01*
X88666786Y-79739000D01*
X88003214Y-79739000D01*
X87534000Y-80208214D01*
X87534000Y-80871786D01*
X87795121Y-81132907D01*
X87806133Y-81149388D01*
X87810000Y-81168828D01*
X87810000Y-82954200D01*
X87806133Y-82973640D01*
X87795121Y-82990121D01*
X87435121Y-83350121D01*
X87418640Y-83361133D01*
X87399200Y-83365000D01*
X81896800Y-83365000D01*
X81877360Y-83361133D01*
X81849867Y-83333640D01*
X81846000Y-83314200D01*
X81846000Y-71257529D01*
X81142471Y-70554000D01*
X80645000Y-70554000D01*
X80625560Y-70550133D01*
X80598067Y-70522640D01*
X80598067Y-70483760D01*
X80625560Y-70456267D01*
X80645000Y-70452400D01*
X81163513Y-70452400D01*
X81182953Y-70456267D01*
G36*
X81182953Y-70456267D02*
G01*
X81199434Y-70467279D01*
X81932721Y-71200566D01*
X81943733Y-71217046D01*
X81943733Y-71217047D01*
X81947600Y-71236487D01*
X81947600Y-83263400D01*
X87378158Y-83263400D01*
X87708400Y-82933158D01*
X87708400Y-81189870D01*
X87447279Y-80928749D01*
X87436267Y-80912268D01*
X87432400Y-80892828D01*
X87432400Y-80187172D01*
X87436267Y-80167732D01*
X87447279Y-80151251D01*
X87946251Y-79652279D01*
X87962732Y-79641267D01*
X87982172Y-79637400D01*
X88687828Y-79637400D01*
X88707268Y-79641267D01*
X88723749Y-79652279D01*
X89222721Y-80151251D01*
X89233733Y-80167732D01*
X89237600Y-80187172D01*
X89237600Y-80892828D01*
X89233733Y-80912268D01*
X89222721Y-80928749D01*
X88821600Y-81329870D01*
X88821600Y-82016600D01*
X88817733Y-82036040D01*
X88790240Y-82063533D01*
X88751360Y-82063533D01*
X88723867Y-82036040D01*
X88720000Y-82016600D01*
X88720000Y-81308828D01*
X88723867Y-81289388D01*
X88734879Y-81272907D01*
X89136000Y-80871786D01*
X89136000Y-80208214D01*
X88666786Y-79739000D01*
X88003214Y-79739000D01*
X87534000Y-80208214D01*
X87534000Y-80871786D01*
X87795121Y-81132907D01*
X87806133Y-81149388D01*
X87810000Y-81168828D01*
X87810000Y-82954200D01*
X87806133Y-82973640D01*
X87795121Y-82990121D01*
X87435121Y-83350121D01*
X87418640Y-83361133D01*
X87399200Y-83365000D01*
X81896800Y-83365000D01*
X81877360Y-83361133D01*
X81849867Y-83333640D01*
X81846000Y-83314200D01*
X81846000Y-71257529D01*
X81142471Y-70554000D01*
X80645000Y-70554000D01*
X80625560Y-70550133D01*
X80598067Y-70522640D01*
X80598067Y-70483760D01*
X80625560Y-70456267D01*
X80645000Y-70452400D01*
X81163513Y-70452400D01*
X81182953Y-70456267D01*
G37*
X55137821Y-74703352D02*
X55174446Y-74718523D01*
X55202477Y-74746554D01*
X55217648Y-74783179D01*
X55219600Y-74803000D01*
X55219600Y-89941400D01*
X63627000Y-89941400D01*
X63646821Y-89943352D01*
X63683446Y-89958523D01*
X63711477Y-89986554D01*
X63726648Y-90023179D01*
X63728600Y-90043000D01*
X63728600Y-91948000D01*
X63726648Y-91967821D01*
X63711477Y-92004446D01*
X63698842Y-92019842D01*
X59634842Y-96083842D01*
X59619446Y-96096477D01*
X59582821Y-96111648D01*
X59563000Y-96113600D01*
X49022000Y-96113600D01*
X49002179Y-96111648D01*
X48965554Y-96096478D01*
X48950158Y-96083842D01*
X42121916Y-89255600D01*
X31750000Y-89255600D01*
X31730179Y-89253648D01*
X31693554Y-89238477D01*
X31665523Y-89210446D01*
X31650352Y-89173821D01*
X31648400Y-89154000D01*
X31648400Y-89052400D01*
X31851600Y-89052400D01*
X42164000Y-89052400D01*
X42183821Y-89054352D01*
X42220446Y-89069523D01*
X42235842Y-89082158D01*
X49064084Y-95910400D01*
X59520916Y-95910400D01*
X63525400Y-91905916D01*
X63525400Y-90144600D01*
X55118000Y-90144600D01*
X55098179Y-90142648D01*
X55061554Y-90127477D01*
X55033523Y-90099446D01*
X55018352Y-90062821D01*
X55016400Y-90043000D01*
X55016400Y-74904600D01*
X44365084Y-74904600D01*
X40838842Y-78430842D01*
X40823446Y-78443477D01*
X40786821Y-78458648D01*
X40767000Y-78460600D01*
X31851600Y-78460600D01*
X31851600Y-89052400D01*
X31648400Y-89052400D01*
X31648400Y-78460600D01*
X31648400Y-78359000D01*
X31650352Y-78339179D01*
X31665523Y-78302554D01*
X31693554Y-78274523D01*
X31730179Y-78259352D01*
X31750000Y-78257400D01*
X40724916Y-78257400D01*
X44251158Y-74731158D01*
X44266553Y-74718523D01*
X44277280Y-74714079D01*
X44303179Y-74703352D01*
X44323000Y-74701400D01*
X55118000Y-74701400D01*
X55137821Y-74703352D01*
G36*
X55137821Y-74703352D02*
G01*
X55174446Y-74718523D01*
X55202477Y-74746554D01*
X55217648Y-74783179D01*
X55219600Y-74803000D01*
X55219600Y-89941400D01*
X63627000Y-89941400D01*
X63646821Y-89943352D01*
X63683446Y-89958523D01*
X63711477Y-89986554D01*
X63726648Y-90023179D01*
X63728600Y-90043000D01*
X63728600Y-91948000D01*
X63726648Y-91967821D01*
X63711477Y-92004446D01*
X63698842Y-92019842D01*
X59634842Y-96083842D01*
X59619446Y-96096477D01*
X59582821Y-96111648D01*
X59563000Y-96113600D01*
X49022000Y-96113600D01*
X49002179Y-96111648D01*
X48965554Y-96096478D01*
X48950158Y-96083842D01*
X42121916Y-89255600D01*
X31750000Y-89255600D01*
X31730179Y-89253648D01*
X31693554Y-89238477D01*
X31665523Y-89210446D01*
X31650352Y-89173821D01*
X31648400Y-89154000D01*
X31648400Y-89052400D01*
X31851600Y-89052400D01*
X42164000Y-89052400D01*
X42183821Y-89054352D01*
X42220446Y-89069523D01*
X42235842Y-89082158D01*
X49064084Y-95910400D01*
X59520916Y-95910400D01*
X63525400Y-91905916D01*
X63525400Y-90144600D01*
X55118000Y-90144600D01*
X55098179Y-90142648D01*
X55061554Y-90127477D01*
X55033523Y-90099446D01*
X55018352Y-90062821D01*
X55016400Y-90043000D01*
X55016400Y-74904600D01*
X44365084Y-74904600D01*
X40838842Y-78430842D01*
X40823446Y-78443477D01*
X40786821Y-78458648D01*
X40767000Y-78460600D01*
X31851600Y-78460600D01*
X31851600Y-89052400D01*
X31648400Y-89052400D01*
X31648400Y-78460600D01*
X31648400Y-78359000D01*
X31650352Y-78339179D01*
X31665523Y-78302554D01*
X31693554Y-78274523D01*
X31730179Y-78259352D01*
X31750000Y-78257400D01*
X40724916Y-78257400D01*
X44251158Y-74731158D01*
X44266553Y-74718523D01*
X44277280Y-74714079D01*
X44303179Y-74703352D01*
X44323000Y-74701400D01*
X55118000Y-74701400D01*
X55137821Y-74703352D01*
G37*
X65870927Y-42114867D02*
X65887408Y-42125879D01*
X66237529Y-42476000D01*
X70307200Y-42476000D01*
X70326640Y-42479867D01*
X70354133Y-42507360D01*
X70354133Y-42546240D01*
X70326640Y-42573733D01*
X70307200Y-42577600D01*
X66216487Y-42577600D01*
X66197047Y-42573733D01*
X66180566Y-42562721D01*
X65830445Y-42212600D01*
X57224042Y-42212600D01*
X56134000Y-43302642D01*
X56134000Y-44708358D01*
X57478042Y-46052400D01*
X65381800Y-46052400D01*
X65401240Y-46056267D01*
X65417721Y-46067279D01*
X68410521Y-49060079D01*
X68421533Y-49076559D01*
X68421533Y-49076560D01*
X68425400Y-49096000D01*
X68425400Y-80643048D01*
X71045752Y-83263400D01*
X79279958Y-83263400D01*
X79298800Y-83244558D01*
X79298800Y-75488800D01*
X76530157Y-75488800D01*
X76026236Y-75992721D01*
X76009755Y-76003733D01*
X75990315Y-76007600D01*
X72974200Y-76007600D01*
X72954760Y-76003733D01*
X72927267Y-75976240D01*
X72927267Y-75937360D01*
X72954760Y-75909867D01*
X72974200Y-75906000D01*
X75969273Y-75906000D01*
X76475394Y-75399879D01*
X76491874Y-75388867D01*
X76505135Y-75388867D01*
X76513515Y-75387200D01*
X79349600Y-75387200D01*
X79369040Y-75391067D01*
X79396533Y-75418560D01*
X79400400Y-75438000D01*
X79400400Y-83265600D01*
X79396533Y-83285040D01*
X79385521Y-83301521D01*
X79336921Y-83350121D01*
X79320440Y-83361133D01*
X79301000Y-83365000D01*
X71024710Y-83365000D01*
X71005270Y-83361133D01*
X70988789Y-83350121D01*
X68338679Y-80700011D01*
X68327667Y-80683530D01*
X68323800Y-80664090D01*
X68323800Y-49117042D01*
X65360758Y-46154000D01*
X57457000Y-46154000D01*
X57437560Y-46150133D01*
X57421079Y-46139121D01*
X56047279Y-44765321D01*
X56036267Y-44748840D01*
X56032400Y-44729400D01*
X56032400Y-43281600D01*
X56036267Y-43262160D01*
X56047279Y-43245679D01*
X57167079Y-42125879D01*
X57183559Y-42114867D01*
X57183560Y-42114867D01*
X57203000Y-42111000D01*
X65851487Y-42111000D01*
X65870927Y-42114867D01*
G36*
X65870927Y-42114867D02*
G01*
X65887408Y-42125879D01*
X66237529Y-42476000D01*
X70307200Y-42476000D01*
X70326640Y-42479867D01*
X70354133Y-42507360D01*
X70354133Y-42546240D01*
X70326640Y-42573733D01*
X70307200Y-42577600D01*
X66216487Y-42577600D01*
X66197047Y-42573733D01*
X66180566Y-42562721D01*
X65830445Y-42212600D01*
X57224042Y-42212600D01*
X56134000Y-43302642D01*
X56134000Y-44708358D01*
X57478042Y-46052400D01*
X65381800Y-46052400D01*
X65401240Y-46056267D01*
X65417721Y-46067279D01*
X68410521Y-49060079D01*
X68421533Y-49076559D01*
X68421533Y-49076560D01*
X68425400Y-49096000D01*
X68425400Y-80643048D01*
X71045752Y-83263400D01*
X79279958Y-83263400D01*
X79298800Y-83244558D01*
X79298800Y-75488800D01*
X76530157Y-75488800D01*
X76026236Y-75992721D01*
X76009755Y-76003733D01*
X75990315Y-76007600D01*
X72974200Y-76007600D01*
X72954760Y-76003733D01*
X72927267Y-75976240D01*
X72927267Y-75937360D01*
X72954760Y-75909867D01*
X72974200Y-75906000D01*
X75969273Y-75906000D01*
X76475394Y-75399879D01*
X76491874Y-75388867D01*
X76505135Y-75388867D01*
X76513515Y-75387200D01*
X79349600Y-75387200D01*
X79369040Y-75391067D01*
X79396533Y-75418560D01*
X79400400Y-75438000D01*
X79400400Y-83265600D01*
X79396533Y-83285040D01*
X79385521Y-83301521D01*
X79336921Y-83350121D01*
X79320440Y-83361133D01*
X79301000Y-83365000D01*
X71024710Y-83365000D01*
X71005270Y-83361133D01*
X70988789Y-83350121D01*
X68338679Y-80700011D01*
X68327667Y-80683530D01*
X68323800Y-80664090D01*
X68323800Y-49117042D01*
X65360758Y-46154000D01*
X57457000Y-46154000D01*
X57437560Y-46150133D01*
X57421079Y-46139121D01*
X56047279Y-44765321D01*
X56036267Y-44748840D01*
X56032400Y-44729400D01*
X56032400Y-43281600D01*
X56036267Y-43262160D01*
X56047279Y-43245679D01*
X57167079Y-42125879D01*
X57183559Y-42114867D01*
X57183560Y-42114867D01*
X57203000Y-42111000D01*
X65851487Y-42111000D01*
X65870927Y-42114867D01*
G37*
X158083578Y-55276422D02*
X158785921Y-55978766D01*
X158796933Y-55995247D01*
X158800800Y-56014687D01*
X158800800Y-57048648D01*
X164060551Y-62308400D01*
X176685000Y-62308400D01*
X176704440Y-62312267D01*
X176720921Y-62323279D01*
X179486921Y-65089279D01*
X179497933Y-65105760D01*
X179501800Y-65125200D01*
X179501800Y-74273958D01*
X180236242Y-75008400D01*
X193878200Y-75008400D01*
X193878200Y-73787000D01*
X193882067Y-73767560D01*
X193909560Y-73740067D01*
X193929000Y-73736200D01*
X195961000Y-73736200D01*
X195980440Y-73740067D01*
X196007933Y-73767560D01*
X196011800Y-73787000D01*
X196011800Y-76352648D01*
X197080552Y-77421400D01*
X201786448Y-77421400D01*
X202732400Y-76475448D01*
X202732400Y-75724330D01*
X202736267Y-75704890D01*
X202747279Y-75688409D01*
X203363409Y-75072279D01*
X203379889Y-75061267D01*
X203379890Y-75061267D01*
X203399330Y-75057400D01*
X203835000Y-75057400D01*
X203854440Y-75061267D01*
X203881933Y-75088760D01*
X203881933Y-75127640D01*
X203854440Y-75155133D01*
X203835000Y-75159000D01*
X203420372Y-75159000D01*
X202834000Y-75745372D01*
X202834000Y-76496490D01*
X202830133Y-76515930D01*
X202830133Y-76515931D01*
X202819121Y-76532411D01*
X201843411Y-77508121D01*
X201826930Y-77519133D01*
X201807490Y-77523000D01*
X197059510Y-77523000D01*
X197040070Y-77519133D01*
X197023589Y-77508121D01*
X195925079Y-76409611D01*
X195914067Y-76393130D01*
X195910200Y-76373690D01*
X195910200Y-73837800D01*
X193979800Y-73837800D01*
X193979800Y-75059200D01*
X193975933Y-75078640D01*
X193948440Y-75106133D01*
X193929000Y-75110000D01*
X180215200Y-75110000D01*
X180195760Y-75106133D01*
X180179279Y-75095121D01*
X179415079Y-74330921D01*
X179404067Y-74314440D01*
X179400200Y-74295000D01*
X179400200Y-65146242D01*
X176663958Y-62410000D01*
X164039509Y-62410000D01*
X164020069Y-62406133D01*
X164020068Y-62406133D01*
X164003588Y-62395121D01*
X158714079Y-57105611D01*
X158703067Y-57089130D01*
X158699200Y-57069690D01*
X158699200Y-56035728D01*
X158011736Y-55348264D01*
X158000724Y-55331783D01*
X158000724Y-55292902D01*
X158028217Y-55265410D01*
X158067098Y-55265410D01*
X158083578Y-55276422D01*
G36*
X158083578Y-55276422D02*
G01*
X158785921Y-55978766D01*
X158796933Y-55995247D01*
X158800800Y-56014687D01*
X158800800Y-57048648D01*
X164060551Y-62308400D01*
X176685000Y-62308400D01*
X176704440Y-62312267D01*
X176720921Y-62323279D01*
X179486921Y-65089279D01*
X179497933Y-65105760D01*
X179501800Y-65125200D01*
X179501800Y-74273958D01*
X180236242Y-75008400D01*
X193878200Y-75008400D01*
X193878200Y-73787000D01*
X193882067Y-73767560D01*
X193909560Y-73740067D01*
X193929000Y-73736200D01*
X195961000Y-73736200D01*
X195980440Y-73740067D01*
X196007933Y-73767560D01*
X196011800Y-73787000D01*
X196011800Y-76352648D01*
X197080552Y-77421400D01*
X201786448Y-77421400D01*
X202732400Y-76475448D01*
X202732400Y-75724330D01*
X202736267Y-75704890D01*
X202747279Y-75688409D01*
X203363409Y-75072279D01*
X203379889Y-75061267D01*
X203379890Y-75061267D01*
X203399330Y-75057400D01*
X203835000Y-75057400D01*
X203854440Y-75061267D01*
X203881933Y-75088760D01*
X203881933Y-75127640D01*
X203854440Y-75155133D01*
X203835000Y-75159000D01*
X203420372Y-75159000D01*
X202834000Y-75745372D01*
X202834000Y-76496490D01*
X202830133Y-76515930D01*
X202830133Y-76515931D01*
X202819121Y-76532411D01*
X201843411Y-77508121D01*
X201826930Y-77519133D01*
X201807490Y-77523000D01*
X197059510Y-77523000D01*
X197040070Y-77519133D01*
X197023589Y-77508121D01*
X195925079Y-76409611D01*
X195914067Y-76393130D01*
X195910200Y-76373690D01*
X195910200Y-73837800D01*
X193979800Y-73837800D01*
X193979800Y-75059200D01*
X193975933Y-75078640D01*
X193948440Y-75106133D01*
X193929000Y-75110000D01*
X180215200Y-75110000D01*
X180195760Y-75106133D01*
X180179279Y-75095121D01*
X179415079Y-74330921D01*
X179404067Y-74314440D01*
X179400200Y-74295000D01*
X179400200Y-65146242D01*
X176663958Y-62410000D01*
X164039509Y-62410000D01*
X164020069Y-62406133D01*
X164020068Y-62406133D01*
X164003588Y-62395121D01*
X158714079Y-57105611D01*
X158703067Y-57089130D01*
X158699200Y-57069690D01*
X158699200Y-56035728D01*
X158011736Y-55348264D01*
X158000724Y-55331783D01*
X158000724Y-55292902D01*
X158028217Y-55265410D01*
X158067098Y-55265410D01*
X158083578Y-55276422D01*
G37*
X77377995Y-33559467D02*
X77394476Y-33570479D01*
X80078521Y-36254524D01*
X80089533Y-36271005D01*
X80093400Y-36290445D01*
X80093400Y-37432400D01*
X80089533Y-37451840D01*
X80089533Y-37451841D01*
X80078521Y-37468321D01*
X79378321Y-38168521D01*
X79361840Y-38179533D01*
X79342400Y-38183400D01*
X78200445Y-38183400D01*
X78181005Y-38179533D01*
X78164524Y-38168521D01*
X74766403Y-34770400D01*
X35430594Y-34770400D01*
X30960400Y-39240594D01*
X30960400Y-68709406D01*
X32128594Y-69877600D01*
X33809558Y-69877600D01*
X34365679Y-69321479D01*
X34382160Y-69310467D01*
X34401600Y-69306600D01*
X35392068Y-69306600D01*
X35411508Y-69310467D01*
X35427989Y-69321479D01*
X36088521Y-69982011D01*
X36099533Y-69998491D01*
X36099533Y-69998492D01*
X36103400Y-70017932D01*
X36103400Y-70952068D01*
X36099533Y-70971508D01*
X36099533Y-70971509D01*
X36088521Y-70987989D01*
X35412589Y-71663921D01*
X35396108Y-71674933D01*
X35376668Y-71678800D01*
X34473332Y-71678800D01*
X34453892Y-71674933D01*
X34437411Y-71663921D01*
X33865890Y-71092400D01*
X31646448Y-71092400D01*
X31627008Y-71088533D01*
X31610527Y-71077521D01*
X29760479Y-69227472D01*
X29749467Y-69210991D01*
X29745600Y-69191551D01*
X29745600Y-69170509D01*
X29847200Y-69170509D01*
X31667490Y-70990800D01*
X33886932Y-70990800D01*
X33906372Y-70994667D01*
X33922853Y-71005679D01*
X34494374Y-71577200D01*
X35355626Y-71577200D01*
X36001800Y-70931026D01*
X36001800Y-70038974D01*
X35371026Y-69408200D01*
X34422642Y-69408200D01*
X33866521Y-69964321D01*
X33850040Y-69975333D01*
X33830600Y-69979200D01*
X32107552Y-69979200D01*
X32088112Y-69975333D01*
X32071631Y-69964321D01*
X30873679Y-68766369D01*
X30862667Y-68749888D01*
X30858800Y-68730448D01*
X30858800Y-39219552D01*
X30862667Y-39200112D01*
X30873679Y-39183631D01*
X35373631Y-34683679D01*
X35390111Y-34672667D01*
X35390112Y-34672667D01*
X35409552Y-34668800D01*
X74787445Y-34668800D01*
X74806885Y-34672667D01*
X74823366Y-34683679D01*
X78221487Y-38081800D01*
X79321358Y-38081800D01*
X79991800Y-37411358D01*
X79991800Y-36311487D01*
X77337513Y-33657200D01*
X34969491Y-33657200D01*
X29847200Y-38779490D01*
X29847200Y-69170509D01*
X29745600Y-69170509D01*
X29745600Y-38779490D01*
X29745600Y-38758448D01*
X29749467Y-38739008D01*
X29760479Y-38722527D01*
X34912528Y-33570479D01*
X34929009Y-33559467D01*
X34948449Y-33555600D01*
X77358555Y-33555600D01*
X77377995Y-33559467D01*
X100099433Y-92690560D02*
X100103300Y-92710000D01*
X100103300Y-98845874D01*
X100099433Y-98865314D01*
X100088421Y-98881795D01*
X99021095Y-99949121D01*
X99004614Y-99960133D01*
X98985174Y-99964000D01*
X98090372Y-99964000D01*
X97459800Y-100594572D01*
X97459800Y-101422200D01*
X97455933Y-101441640D01*
X97455933Y-101441641D01*
X97444921Y-101458121D01*
X96528321Y-102374721D01*
X96511840Y-102385733D01*
X96492400Y-102389600D01*
X90885426Y-102389600D01*
X90865986Y-102385733D01*
X90849505Y-102374721D01*
X89955879Y-101481095D01*
X89944867Y-101464614D01*
X89941000Y-101445174D01*
X89941000Y-100550372D01*
X89339628Y-99949000D01*
X88540372Y-99949000D01*
X87939000Y-100550372D01*
X87939000Y-101379628D01*
X88525372Y-101966000D01*
X89420174Y-101966000D01*
X89439614Y-101969867D01*
X89456095Y-101980879D01*
X90571616Y-103096400D01*
X99599958Y-103096400D01*
X102230900Y-100465458D01*
X102230900Y-93661800D01*
X102234767Y-93642360D01*
X102262260Y-93614867D01*
X102281700Y-93611000D01*
X106044300Y-93611000D01*
X106063740Y-93614867D01*
X106080221Y-93625879D01*
X107668421Y-95214079D01*
X107679433Y-95230560D01*
X107679433Y-95269441D01*
X107651941Y-95296933D01*
X107613060Y-95296933D01*
X107596579Y-95285921D01*
X106023258Y-93712600D01*
X102332500Y-93712600D01*
X102332500Y-100486500D01*
X102328633Y-100505940D01*
X102328633Y-100505941D01*
X102317621Y-100522421D01*
X99656921Y-103183121D01*
X99640440Y-103194133D01*
X99621000Y-103198000D01*
X90550574Y-103198000D01*
X90531134Y-103194133D01*
X90514653Y-103183121D01*
X89399132Y-102067600D01*
X88504330Y-102067600D01*
X88484890Y-102063733D01*
X88484889Y-102063733D01*
X88468409Y-102052721D01*
X87852279Y-101436591D01*
X87841267Y-101420110D01*
X87837400Y-101400670D01*
X87837400Y-100529330D01*
X87841267Y-100509890D01*
X87852279Y-100493409D01*
X88483409Y-99862279D01*
X88499890Y-99851267D01*
X88519330Y-99847400D01*
X89360670Y-99847400D01*
X89380110Y-99851267D01*
X89396591Y-99862279D01*
X90027721Y-100493409D01*
X90038733Y-100509890D01*
X90042600Y-100529330D01*
X90042600Y-101424132D01*
X90906468Y-102288000D01*
X96471358Y-102288000D01*
X97358200Y-101401158D01*
X97358200Y-100573530D01*
X97362067Y-100554090D01*
X97373079Y-100537609D01*
X98033409Y-99877279D01*
X98049890Y-99866267D01*
X98069330Y-99862400D01*
X98964132Y-99862400D01*
X100001700Y-98824832D01*
X100001700Y-92710000D01*
X100005567Y-92690560D01*
X100033060Y-92663067D01*
X100071940Y-92663067D01*
X100099433Y-92690560D01*
G36*
X100099433Y-92690560D02*
G01*
X100103300Y-92710000D01*
X100103300Y-98845874D01*
X100099433Y-98865314D01*
X100088421Y-98881795D01*
X99021095Y-99949121D01*
X99004614Y-99960133D01*
X98985174Y-99964000D01*
X98090372Y-99964000D01*
X97459800Y-100594572D01*
X97459800Y-101422200D01*
X97455933Y-101441640D01*
X97455933Y-101441641D01*
X97444921Y-101458121D01*
X96528321Y-102374721D01*
X96511840Y-102385733D01*
X96492400Y-102389600D01*
X90885426Y-102389600D01*
X90865986Y-102385733D01*
X90849505Y-102374721D01*
X89955879Y-101481095D01*
X89944867Y-101464614D01*
X89941000Y-101445174D01*
X89941000Y-100550372D01*
X89339628Y-99949000D01*
X88540372Y-99949000D01*
X87939000Y-100550372D01*
X87939000Y-101379628D01*
X88525372Y-101966000D01*
X89420174Y-101966000D01*
X89439614Y-101969867D01*
X89456095Y-101980879D01*
X90571616Y-103096400D01*
X99599958Y-103096400D01*
X102230900Y-100465458D01*
X102230900Y-93661800D01*
X102234767Y-93642360D01*
X102262260Y-93614867D01*
X102281700Y-93611000D01*
X106044300Y-93611000D01*
X106063740Y-93614867D01*
X106080221Y-93625879D01*
X107668421Y-95214079D01*
X107679433Y-95230560D01*
X107679433Y-95269441D01*
X107651941Y-95296933D01*
X107613060Y-95296933D01*
X107596579Y-95285921D01*
X106023258Y-93712600D01*
X102332500Y-93712600D01*
X102332500Y-100486500D01*
X102328633Y-100505940D01*
X102328633Y-100505941D01*
X102317621Y-100522421D01*
X99656921Y-103183121D01*
X99640440Y-103194133D01*
X99621000Y-103198000D01*
X90550574Y-103198000D01*
X90531134Y-103194133D01*
X90514653Y-103183121D01*
X89399132Y-102067600D01*
X88504330Y-102067600D01*
X88484890Y-102063733D01*
X88484889Y-102063733D01*
X88468409Y-102052721D01*
X87852279Y-101436591D01*
X87841267Y-101420110D01*
X87837400Y-101400670D01*
X87837400Y-100529330D01*
X87841267Y-100509890D01*
X87852279Y-100493409D01*
X88483409Y-99862279D01*
X88499890Y-99851267D01*
X88519330Y-99847400D01*
X89360670Y-99847400D01*
X89380110Y-99851267D01*
X89396591Y-99862279D01*
X90027721Y-100493409D01*
X90038733Y-100509890D01*
X90042600Y-100529330D01*
X90042600Y-101424132D01*
X90906468Y-102288000D01*
X96471358Y-102288000D01*
X97358200Y-101401158D01*
X97358200Y-100573530D01*
X97362067Y-100554090D01*
X97373079Y-100537609D01*
X98033409Y-99877279D01*
X98049890Y-99866267D01*
X98069330Y-99862400D01*
X98964132Y-99862400D01*
X100001700Y-98824832D01*
X100001700Y-92710000D01*
X100005567Y-92690560D01*
X100033060Y-92663067D01*
X100071940Y-92663067D01*
X100099433Y-92690560D01*
G37*
X185370240Y-48296267D02*
X185386721Y-48307279D01*
X190786842Y-53707400D01*
X191282828Y-53707400D01*
X191302268Y-53711267D01*
X191318749Y-53722279D01*
X191649870Y-54053400D01*
X192379600Y-54053400D01*
X192380700Y-54053618D01*
X192381800Y-54053400D01*
X198670130Y-54053400D01*
X199001251Y-53722279D01*
X199017732Y-53711267D01*
X199037172Y-53707400D01*
X199742828Y-53707400D01*
X199762268Y-53711267D01*
X199778749Y-53722279D01*
X200277721Y-54221251D01*
X200288733Y-54237732D01*
X200292600Y-54257172D01*
X200292600Y-54977400D01*
X200288733Y-54996840D01*
X200288733Y-54996841D01*
X200277721Y-55013321D01*
X199793321Y-55497721D01*
X199776840Y-55508733D01*
X199757400Y-55512600D01*
X199037172Y-55512600D01*
X199017732Y-55508733D01*
X199001251Y-55497721D01*
X198670130Y-55166600D01*
X191649870Y-55166600D01*
X191318749Y-55497721D01*
X191302268Y-55508733D01*
X191282828Y-55512600D01*
X190577172Y-55512600D01*
X190557732Y-55508733D01*
X190541251Y-55497721D01*
X190042279Y-54998749D01*
X190031267Y-54982268D01*
X190027400Y-54962828D01*
X190027400Y-54543552D01*
X184981448Y-49497600D01*
X182402556Y-49497600D01*
X182383116Y-49493733D01*
X182366635Y-49482721D01*
X182177279Y-49293365D01*
X182166267Y-49276884D01*
X182162400Y-49257444D01*
X182162400Y-49236402D01*
X182264000Y-49236402D01*
X182423598Y-49396000D01*
X185002490Y-49396000D01*
X185021930Y-49399867D01*
X185038411Y-49410879D01*
X190114121Y-54486589D01*
X190125133Y-54503070D01*
X190129000Y-54522510D01*
X190129000Y-54941786D01*
X190598214Y-55411000D01*
X191261786Y-55411000D01*
X191592907Y-55079879D01*
X191609388Y-55068867D01*
X191628828Y-55065000D01*
X198691172Y-55065000D01*
X198710612Y-55068867D01*
X198727093Y-55079879D01*
X199058214Y-55411000D01*
X199736358Y-55411000D01*
X200191000Y-54956358D01*
X200191000Y-54278214D01*
X199721786Y-53809000D01*
X199058214Y-53809000D01*
X198727093Y-54140121D01*
X198710612Y-54151133D01*
X198691172Y-54155000D01*
X192381800Y-54155000D01*
X192380700Y-54154781D01*
X192379600Y-54155000D01*
X191628828Y-54155000D01*
X191609388Y-54151133D01*
X191592907Y-54140121D01*
X191261786Y-53809000D01*
X190765800Y-53809000D01*
X190746360Y-53805133D01*
X190746359Y-53805132D01*
X190729879Y-53794121D01*
X185329758Y-48394000D01*
X182423598Y-48394000D01*
X182264000Y-48553598D01*
X182264000Y-49236402D01*
X182162400Y-49236402D01*
X182162400Y-48553598D01*
X182162400Y-48532556D01*
X182166267Y-48513116D01*
X182177279Y-48496635D01*
X182366635Y-48307279D01*
X182383116Y-48296267D01*
X182402556Y-48292400D01*
X185350800Y-48292400D01*
X185370240Y-48296267D01*
G36*
X185370240Y-48296267D02*
G01*
X185386721Y-48307279D01*
X190786842Y-53707400D01*
X191282828Y-53707400D01*
X191302268Y-53711267D01*
X191318749Y-53722279D01*
X191649870Y-54053400D01*
X192379600Y-54053400D01*
X192380700Y-54053618D01*
X192381800Y-54053400D01*
X198670130Y-54053400D01*
X199001251Y-53722279D01*
X199017732Y-53711267D01*
X199037172Y-53707400D01*
X199742828Y-53707400D01*
X199762268Y-53711267D01*
X199778749Y-53722279D01*
X200277721Y-54221251D01*
X200288733Y-54237732D01*
X200292600Y-54257172D01*
X200292600Y-54977400D01*
X200288733Y-54996840D01*
X200288733Y-54996841D01*
X200277721Y-55013321D01*
X199793321Y-55497721D01*
X199776840Y-55508733D01*
X199757400Y-55512600D01*
X199037172Y-55512600D01*
X199017732Y-55508733D01*
X199001251Y-55497721D01*
X198670130Y-55166600D01*
X191649870Y-55166600D01*
X191318749Y-55497721D01*
X191302268Y-55508733D01*
X191282828Y-55512600D01*
X190577172Y-55512600D01*
X190557732Y-55508733D01*
X190541251Y-55497721D01*
X190042279Y-54998749D01*
X190031267Y-54982268D01*
X190027400Y-54962828D01*
X190027400Y-54543552D01*
X184981448Y-49497600D01*
X182402556Y-49497600D01*
X182383116Y-49493733D01*
X182366635Y-49482721D01*
X182177279Y-49293365D01*
X182166267Y-49276884D01*
X182162400Y-49257444D01*
X182162400Y-49236402D01*
X182264000Y-49236402D01*
X182423598Y-49396000D01*
X185002490Y-49396000D01*
X185021930Y-49399867D01*
X185038411Y-49410879D01*
X190114121Y-54486589D01*
X190125133Y-54503070D01*
X190129000Y-54522510D01*
X190129000Y-54941786D01*
X190598214Y-55411000D01*
X191261786Y-55411000D01*
X191592907Y-55079879D01*
X191609388Y-55068867D01*
X191628828Y-55065000D01*
X198691172Y-55065000D01*
X198710612Y-55068867D01*
X198727093Y-55079879D01*
X199058214Y-55411000D01*
X199736358Y-55411000D01*
X200191000Y-54956358D01*
X200191000Y-54278214D01*
X199721786Y-53809000D01*
X199058214Y-53809000D01*
X198727093Y-54140121D01*
X198710612Y-54151133D01*
X198691172Y-54155000D01*
X192381800Y-54155000D01*
X192380700Y-54154781D01*
X192379600Y-54155000D01*
X191628828Y-54155000D01*
X191609388Y-54151133D01*
X191592907Y-54140121D01*
X191261786Y-53809000D01*
X190765800Y-53809000D01*
X190746360Y-53805133D01*
X190746359Y-53805132D01*
X190729879Y-53794121D01*
X185329758Y-48394000D01*
X182423598Y-48394000D01*
X182264000Y-48553598D01*
X182264000Y-49236402D01*
X182162400Y-49236402D01*
X182162400Y-48553598D01*
X182162400Y-48532556D01*
X182166267Y-48513116D01*
X182177279Y-48496635D01*
X182366635Y-48307279D01*
X182383116Y-48296267D01*
X182402556Y-48292400D01*
X185350800Y-48292400D01*
X185370240Y-48296267D01*
G37*
X101337268Y-71491267D02*
X101353749Y-71502279D01*
X103122721Y-73271251D01*
X103133733Y-73287731D01*
X103133733Y-73287732D01*
X103137600Y-73307172D01*
X103137600Y-73775448D01*
X104506121Y-75143969D01*
X104517133Y-75160449D01*
X104517133Y-75160450D01*
X104521000Y-75179890D01*
X104521000Y-82274710D01*
X104517133Y-82294150D01*
X104517133Y-82294151D01*
X104506121Y-82310631D01*
X100296030Y-86520721D01*
X100279549Y-86531733D01*
X100260109Y-86535600D01*
X96822600Y-86535600D01*
X96822600Y-86836178D01*
X97042721Y-87056299D01*
X97053733Y-87072779D01*
X97053733Y-87072780D01*
X97057600Y-87092220D01*
X97057600Y-88421780D01*
X97053733Y-88441220D01*
X97053733Y-88441221D01*
X97042721Y-88457701D01*
X96799100Y-88701322D01*
X96799100Y-89167400D01*
X106023258Y-89167400D01*
X107596579Y-87594079D01*
X107613060Y-87583067D01*
X107651941Y-87583067D01*
X107679433Y-87610559D01*
X107679433Y-87649440D01*
X107668421Y-87665921D01*
X106080221Y-89254121D01*
X106063740Y-89265133D01*
X106044300Y-89269000D01*
X96748300Y-89269000D01*
X96728860Y-89265133D01*
X96701367Y-89237640D01*
X96697500Y-89218200D01*
X96697500Y-88680280D01*
X96701367Y-88660840D01*
X96712379Y-88644359D01*
X96956000Y-88400738D01*
X96956000Y-87113262D01*
X96735879Y-86893141D01*
X96724867Y-86876660D01*
X96721000Y-86857220D01*
X96721000Y-86484800D01*
X96724867Y-86465360D01*
X96752360Y-86437867D01*
X96771800Y-86434000D01*
X100239067Y-86434000D01*
X104419400Y-82253667D01*
X104419400Y-75200932D01*
X103050879Y-73832411D01*
X103039867Y-73815930D01*
X103036000Y-73796490D01*
X103036000Y-73328214D01*
X101296786Y-71589000D01*
X100179215Y-71589000D01*
X99710000Y-72058215D01*
X99710000Y-72721785D01*
X100179215Y-73191000D01*
X100612172Y-73191000D01*
X100631612Y-73194867D01*
X100648093Y-73205879D01*
X101903214Y-74461000D01*
X102371490Y-74461000D01*
X102390930Y-74464867D01*
X102407411Y-74475879D01*
X103492321Y-75560789D01*
X103503332Y-75577269D01*
X103503333Y-75577270D01*
X103507200Y-75596710D01*
X103507200Y-76352400D01*
X103503333Y-76371840D01*
X103475840Y-76399333D01*
X103436960Y-76399333D01*
X103409467Y-76371840D01*
X103405600Y-76352400D01*
X103405600Y-75617752D01*
X102350448Y-74562600D01*
X101882172Y-74562600D01*
X101862732Y-74558733D01*
X101862731Y-74558733D01*
X101846251Y-74547721D01*
X100591130Y-73292600D01*
X100158173Y-73292600D01*
X100138733Y-73288733D01*
X100138732Y-73288733D01*
X100122252Y-73277721D01*
X99623279Y-72778748D01*
X99612267Y-72762267D01*
X99608400Y-72742827D01*
X99608400Y-72037173D01*
X99612267Y-72017733D01*
X99623279Y-72001252D01*
X100122252Y-71502279D01*
X100138732Y-71491267D01*
X100138733Y-71491267D01*
X100158173Y-71487400D01*
X101317828Y-71487400D01*
X101337268Y-71491267D01*
G36*
X101337268Y-71491267D02*
G01*
X101353749Y-71502279D01*
X103122721Y-73271251D01*
X103133733Y-73287731D01*
X103133733Y-73287732D01*
X103137600Y-73307172D01*
X103137600Y-73775448D01*
X104506121Y-75143969D01*
X104517133Y-75160449D01*
X104517133Y-75160450D01*
X104521000Y-75179890D01*
X104521000Y-82274710D01*
X104517133Y-82294150D01*
X104517133Y-82294151D01*
X104506121Y-82310631D01*
X100296030Y-86520721D01*
X100279549Y-86531733D01*
X100260109Y-86535600D01*
X96822600Y-86535600D01*
X96822600Y-86836178D01*
X97042721Y-87056299D01*
X97053733Y-87072779D01*
X97053733Y-87072780D01*
X97057600Y-87092220D01*
X97057600Y-88421780D01*
X97053733Y-88441220D01*
X97053733Y-88441221D01*
X97042721Y-88457701D01*
X96799100Y-88701322D01*
X96799100Y-89167400D01*
X106023258Y-89167400D01*
X107596579Y-87594079D01*
X107613060Y-87583067D01*
X107651941Y-87583067D01*
X107679433Y-87610559D01*
X107679433Y-87649440D01*
X107668421Y-87665921D01*
X106080221Y-89254121D01*
X106063740Y-89265133D01*
X106044300Y-89269000D01*
X96748300Y-89269000D01*
X96728860Y-89265133D01*
X96701367Y-89237640D01*
X96697500Y-89218200D01*
X96697500Y-88680280D01*
X96701367Y-88660840D01*
X96712379Y-88644359D01*
X96956000Y-88400738D01*
X96956000Y-87113262D01*
X96735879Y-86893141D01*
X96724867Y-86876660D01*
X96721000Y-86857220D01*
X96721000Y-86484800D01*
X96724867Y-86465360D01*
X96752360Y-86437867D01*
X96771800Y-86434000D01*
X100239067Y-86434000D01*
X104419400Y-82253667D01*
X104419400Y-75200932D01*
X103050879Y-73832411D01*
X103039867Y-73815930D01*
X103036000Y-73796490D01*
X103036000Y-73328214D01*
X101296786Y-71589000D01*
X100179215Y-71589000D01*
X99710000Y-72058215D01*
X99710000Y-72721785D01*
X100179215Y-73191000D01*
X100612172Y-73191000D01*
X100631612Y-73194867D01*
X100648093Y-73205879D01*
X101903214Y-74461000D01*
X102371490Y-74461000D01*
X102390930Y-74464867D01*
X102407411Y-74475879D01*
X103492321Y-75560789D01*
X103503332Y-75577269D01*
X103503333Y-75577270D01*
X103507200Y-75596710D01*
X103507200Y-76352400D01*
X103503333Y-76371840D01*
X103475840Y-76399333D01*
X103436960Y-76399333D01*
X103409467Y-76371840D01*
X103405600Y-76352400D01*
X103405600Y-75617752D01*
X102350448Y-74562600D01*
X101882172Y-74562600D01*
X101862732Y-74558733D01*
X101862731Y-74558733D01*
X101846251Y-74547721D01*
X100591130Y-73292600D01*
X100158173Y-73292600D01*
X100138733Y-73288733D01*
X100138732Y-73288733D01*
X100122252Y-73277721D01*
X99623279Y-72778748D01*
X99612267Y-72762267D01*
X99608400Y-72742827D01*
X99608400Y-72037173D01*
X99612267Y-72017733D01*
X99623279Y-72001252D01*
X100122252Y-71502279D01*
X100138732Y-71491267D01*
X100138733Y-71491267D01*
X100158173Y-71487400D01*
X101317828Y-71487400D01*
X101337268Y-71491267D01*
G37*
X215126884Y-73696267D02*
X215143365Y-73707279D01*
X215427921Y-73991835D01*
X215438933Y-74008316D01*
X215442800Y-74027756D01*
X215442800Y-74562244D01*
X215438933Y-74581684D01*
X215427921Y-74598165D01*
X215143365Y-74882721D01*
X215126884Y-74893733D01*
X215107444Y-74897600D01*
X212898000Y-74897600D01*
X212878560Y-74893733D01*
X212862079Y-74882721D01*
X212703958Y-74724600D01*
X205877946Y-74724600D01*
X204937600Y-75664946D01*
X204937600Y-76595670D01*
X204933733Y-76615110D01*
X204933733Y-76615111D01*
X204922721Y-76631591D01*
X204302391Y-77251921D01*
X204285910Y-77262933D01*
X204266470Y-77266800D01*
X203602042Y-77266800D01*
X202349121Y-78519721D01*
X202332640Y-78530733D01*
X202313200Y-78534600D01*
X196640491Y-78534600D01*
X196621051Y-78530733D01*
X196621050Y-78530733D01*
X196604570Y-78519721D01*
X194206449Y-76121600D01*
X177147052Y-76121600D01*
X174238731Y-79029921D01*
X174222250Y-79040933D01*
X174202810Y-79044800D01*
X168910000Y-79044800D01*
X168890560Y-79040933D01*
X168874079Y-79029921D01*
X167985079Y-78140921D01*
X167974067Y-78124440D01*
X167970200Y-78105000D01*
X167970200Y-76835000D01*
X167974067Y-76815560D01*
X167985079Y-76799079D01*
X168874079Y-75910079D01*
X168890560Y-75899067D01*
X168910000Y-75895200D01*
X173587958Y-75895200D01*
X174589079Y-74894079D01*
X174605560Y-74883067D01*
X174644441Y-74883067D01*
X174671933Y-74910559D01*
X174671933Y-74949440D01*
X174660921Y-74965921D01*
X173644921Y-75981921D01*
X173628440Y-75992933D01*
X173609000Y-75996800D01*
X168931042Y-75996800D01*
X168071800Y-76856042D01*
X168071800Y-78083958D01*
X168931042Y-78943200D01*
X174181768Y-78943200D01*
X177090089Y-76034879D01*
X177106569Y-76023867D01*
X177106570Y-76023867D01*
X177126010Y-76020000D01*
X194227491Y-76020000D01*
X194246931Y-76023867D01*
X194263412Y-76034879D01*
X196661533Y-78433000D01*
X202292158Y-78433000D01*
X203545079Y-77180079D01*
X203561560Y-77169067D01*
X203581000Y-77165200D01*
X204245428Y-77165200D01*
X204836000Y-76574628D01*
X204836000Y-75643904D01*
X204839867Y-75624464D01*
X204850879Y-75607983D01*
X205820983Y-74637879D01*
X205837463Y-74626867D01*
X205837464Y-74626867D01*
X205856904Y-74623000D01*
X212725000Y-74623000D01*
X212744440Y-74626867D01*
X212760921Y-74637879D01*
X212919042Y-74796000D01*
X215086402Y-74796000D01*
X215341200Y-74541202D01*
X215341200Y-74048798D01*
X215086402Y-73794000D01*
X212919042Y-73794000D01*
X212760921Y-73952121D01*
X212744440Y-73963133D01*
X212725000Y-73967000D01*
X205564138Y-73967000D01*
X204387017Y-75144121D01*
X204370536Y-75155133D01*
X204351096Y-75159000D01*
X203835000Y-75159000D01*
X203815560Y-75155133D01*
X203788067Y-75127640D01*
X203788067Y-75088760D01*
X203815560Y-75061267D01*
X203835000Y-75057400D01*
X204330054Y-75057400D01*
X205507175Y-73880279D01*
X205523656Y-73869267D01*
X205543096Y-73865400D01*
X212703958Y-73865400D01*
X212862079Y-73707279D01*
X212878560Y-73696267D01*
X212898000Y-73692400D01*
X215107444Y-73692400D01*
X215126884Y-73696267D01*
G36*
X215126884Y-73696267D02*
G01*
X215143365Y-73707279D01*
X215427921Y-73991835D01*
X215438933Y-74008316D01*
X215442800Y-74027756D01*
X215442800Y-74562244D01*
X215438933Y-74581684D01*
X215427921Y-74598165D01*
X215143365Y-74882721D01*
X215126884Y-74893733D01*
X215107444Y-74897600D01*
X212898000Y-74897600D01*
X212878560Y-74893733D01*
X212862079Y-74882721D01*
X212703958Y-74724600D01*
X205877946Y-74724600D01*
X204937600Y-75664946D01*
X204937600Y-76595670D01*
X204933733Y-76615110D01*
X204933733Y-76615111D01*
X204922721Y-76631591D01*
X204302391Y-77251921D01*
X204285910Y-77262933D01*
X204266470Y-77266800D01*
X203602042Y-77266800D01*
X202349121Y-78519721D01*
X202332640Y-78530733D01*
X202313200Y-78534600D01*
X196640491Y-78534600D01*
X196621051Y-78530733D01*
X196621050Y-78530733D01*
X196604570Y-78519721D01*
X194206449Y-76121600D01*
X177147052Y-76121600D01*
X174238731Y-79029921D01*
X174222250Y-79040933D01*
X174202810Y-79044800D01*
X168910000Y-79044800D01*
X168890560Y-79040933D01*
X168874079Y-79029921D01*
X167985079Y-78140921D01*
X167974067Y-78124440D01*
X167970200Y-78105000D01*
X167970200Y-76835000D01*
X167974067Y-76815560D01*
X167985079Y-76799079D01*
X168874079Y-75910079D01*
X168890560Y-75899067D01*
X168910000Y-75895200D01*
X173587958Y-75895200D01*
X174589079Y-74894079D01*
X174605560Y-74883067D01*
X174644441Y-74883067D01*
X174671933Y-74910559D01*
X174671933Y-74949440D01*
X174660921Y-74965921D01*
X173644921Y-75981921D01*
X173628440Y-75992933D01*
X173609000Y-75996800D01*
X168931042Y-75996800D01*
X168071800Y-76856042D01*
X168071800Y-78083958D01*
X168931042Y-78943200D01*
X174181768Y-78943200D01*
X177090089Y-76034879D01*
X177106569Y-76023867D01*
X177106570Y-76023867D01*
X177126010Y-76020000D01*
X194227491Y-76020000D01*
X194246931Y-76023867D01*
X194263412Y-76034879D01*
X196661533Y-78433000D01*
X202292158Y-78433000D01*
X203545079Y-77180079D01*
X203561560Y-77169067D01*
X203581000Y-77165200D01*
X204245428Y-77165200D01*
X204836000Y-76574628D01*
X204836000Y-75643904D01*
X204839867Y-75624464D01*
X204850879Y-75607983D01*
X205820983Y-74637879D01*
X205837463Y-74626867D01*
X205837464Y-74626867D01*
X205856904Y-74623000D01*
X212725000Y-74623000D01*
X212744440Y-74626867D01*
X212760921Y-74637879D01*
X212919042Y-74796000D01*
X215086402Y-74796000D01*
X215341200Y-74541202D01*
X215341200Y-74048798D01*
X215086402Y-73794000D01*
X212919042Y-73794000D01*
X212760921Y-73952121D01*
X212744440Y-73963133D01*
X212725000Y-73967000D01*
X205564138Y-73967000D01*
X204387017Y-75144121D01*
X204370536Y-75155133D01*
X204351096Y-75159000D01*
X203835000Y-75159000D01*
X203815560Y-75155133D01*
X203788067Y-75127640D01*
X203788067Y-75088760D01*
X203815560Y-75061267D01*
X203835000Y-75057400D01*
X204330054Y-75057400D01*
X205507175Y-73880279D01*
X205523656Y-73869267D01*
X205543096Y-73865400D01*
X212703958Y-73865400D01*
X212862079Y-73707279D01*
X212878560Y-73696267D01*
X212898000Y-73692400D01*
X215107444Y-73692400D01*
X215126884Y-73696267D01*
G37*
X121621940Y-37418067D02*
X121638421Y-37429079D01*
X121872721Y-37663379D01*
X121883733Y-37679859D01*
X121883733Y-37679860D01*
X121887600Y-37699300D01*
X121887600Y-40194158D01*
X121903842Y-40210400D01*
X122832448Y-40210400D01*
X123623656Y-39419193D01*
X123640136Y-39408182D01*
X123640137Y-39408181D01*
X123659577Y-39404314D01*
X125319843Y-39404314D01*
X125431964Y-39292193D01*
X125448444Y-39281181D01*
X125448445Y-39281181D01*
X125467885Y-39277314D01*
X125992115Y-39277314D01*
X126011555Y-39281181D01*
X126028036Y-39292193D01*
X126398721Y-39662878D01*
X126409733Y-39679359D01*
X126413600Y-39698799D01*
X126413600Y-40223029D01*
X126409733Y-40242469D01*
X126398721Y-40258950D01*
X126028036Y-40629635D01*
X126011555Y-40640647D01*
X125992115Y-40644514D01*
X125467885Y-40644514D01*
X125448445Y-40640647D01*
X125448444Y-40640647D01*
X125431964Y-40629635D01*
X125319843Y-40517514D01*
X124099638Y-40517514D01*
X123308430Y-41308721D01*
X123291949Y-41319733D01*
X123272509Y-41323600D01*
X121515552Y-41323600D01*
X120617600Y-42221552D01*
X120617600Y-44797444D01*
X120613733Y-44816884D01*
X120613733Y-44816885D01*
X120602721Y-44833365D01*
X120437043Y-44999043D01*
X120420565Y-45010052D01*
X120420563Y-45010055D01*
X120415787Y-45010055D01*
X120403121Y-45022721D01*
X120386640Y-45033733D01*
X120367200Y-45037600D01*
X119652556Y-45037600D01*
X119633116Y-45033733D01*
X119616635Y-45022721D01*
X119427279Y-44833365D01*
X119416267Y-44816884D01*
X119412400Y-44797444D01*
X119412400Y-44776402D01*
X119514000Y-44776402D01*
X119673598Y-44936000D01*
X120346158Y-44936000D01*
X120360079Y-44922079D01*
X120376559Y-44911067D01*
X120381335Y-44911067D01*
X120516000Y-44776402D01*
X120516000Y-42200510D01*
X120519867Y-42181070D01*
X120530879Y-42164589D01*
X121458589Y-41236879D01*
X121475069Y-41225867D01*
X121475070Y-41225867D01*
X121494510Y-41222000D01*
X123251467Y-41222000D01*
X124042675Y-40430793D01*
X124059155Y-40419782D01*
X124059156Y-40419781D01*
X124078596Y-40415914D01*
X125340885Y-40415914D01*
X125360325Y-40419781D01*
X125376806Y-40430793D01*
X125488927Y-40542914D01*
X125971073Y-40542914D01*
X126312000Y-40201987D01*
X126312000Y-39719841D01*
X125971073Y-39378914D01*
X125488927Y-39378914D01*
X125376806Y-39491035D01*
X125360325Y-39502047D01*
X125340885Y-39505914D01*
X123680619Y-39505914D01*
X122889411Y-40297121D01*
X122872930Y-40308133D01*
X122853490Y-40312000D01*
X121882800Y-40312000D01*
X121863360Y-40308133D01*
X121846879Y-40297121D01*
X121800879Y-40251121D01*
X121789867Y-40234640D01*
X121786000Y-40215200D01*
X121786000Y-37720342D01*
X121581458Y-37515800D01*
X121041798Y-37515800D01*
X120784000Y-37773598D01*
X120784000Y-40556800D01*
X120780133Y-40576240D01*
X120780133Y-40576241D01*
X120769121Y-40592721D01*
X119514000Y-41847842D01*
X119514000Y-44776402D01*
X119412400Y-44776402D01*
X119412400Y-41847842D01*
X119412400Y-41826800D01*
X119416267Y-41807360D01*
X119427279Y-41790879D01*
X120682400Y-40535758D01*
X120682400Y-37752556D01*
X120686267Y-37733116D01*
X120697279Y-37716635D01*
X120984835Y-37429079D01*
X121001316Y-37418067D01*
X121020756Y-37414200D01*
X121602500Y-37414200D01*
X121621940Y-37418067D01*
G36*
X121621940Y-37418067D02*
G01*
X121638421Y-37429079D01*
X121872721Y-37663379D01*
X121883733Y-37679859D01*
X121883733Y-37679860D01*
X121887600Y-37699300D01*
X121887600Y-40194158D01*
X121903842Y-40210400D01*
X122832448Y-40210400D01*
X123623656Y-39419193D01*
X123640136Y-39408182D01*
X123640137Y-39408181D01*
X123659577Y-39404314D01*
X125319843Y-39404314D01*
X125431964Y-39292193D01*
X125448444Y-39281181D01*
X125448445Y-39281181D01*
X125467885Y-39277314D01*
X125992115Y-39277314D01*
X126011555Y-39281181D01*
X126028036Y-39292193D01*
X126398721Y-39662878D01*
X126409733Y-39679359D01*
X126413600Y-39698799D01*
X126413600Y-40223029D01*
X126409733Y-40242469D01*
X126398721Y-40258950D01*
X126028036Y-40629635D01*
X126011555Y-40640647D01*
X125992115Y-40644514D01*
X125467885Y-40644514D01*
X125448445Y-40640647D01*
X125448444Y-40640647D01*
X125431964Y-40629635D01*
X125319843Y-40517514D01*
X124099638Y-40517514D01*
X123308430Y-41308721D01*
X123291949Y-41319733D01*
X123272509Y-41323600D01*
X121515552Y-41323600D01*
X120617600Y-42221552D01*
X120617600Y-44797444D01*
X120613733Y-44816884D01*
X120613733Y-44816885D01*
X120602721Y-44833365D01*
X120437043Y-44999043D01*
X120420565Y-45010052D01*
X120420563Y-45010055D01*
X120415787Y-45010055D01*
X120403121Y-45022721D01*
X120386640Y-45033733D01*
X120367200Y-45037600D01*
X119652556Y-45037600D01*
X119633116Y-45033733D01*
X119616635Y-45022721D01*
X119427279Y-44833365D01*
X119416267Y-44816884D01*
X119412400Y-44797444D01*
X119412400Y-44776402D01*
X119514000Y-44776402D01*
X119673598Y-44936000D01*
X120346158Y-44936000D01*
X120360079Y-44922079D01*
X120376559Y-44911067D01*
X120381335Y-44911067D01*
X120516000Y-44776402D01*
X120516000Y-42200510D01*
X120519867Y-42181070D01*
X120530879Y-42164589D01*
X121458589Y-41236879D01*
X121475069Y-41225867D01*
X121475070Y-41225867D01*
X121494510Y-41222000D01*
X123251467Y-41222000D01*
X124042675Y-40430793D01*
X124059155Y-40419782D01*
X124059156Y-40419781D01*
X124078596Y-40415914D01*
X125340885Y-40415914D01*
X125360325Y-40419781D01*
X125376806Y-40430793D01*
X125488927Y-40542914D01*
X125971073Y-40542914D01*
X126312000Y-40201987D01*
X126312000Y-39719841D01*
X125971073Y-39378914D01*
X125488927Y-39378914D01*
X125376806Y-39491035D01*
X125360325Y-39502047D01*
X125340885Y-39505914D01*
X123680619Y-39505914D01*
X122889411Y-40297121D01*
X122872930Y-40308133D01*
X122853490Y-40312000D01*
X121882800Y-40312000D01*
X121863360Y-40308133D01*
X121846879Y-40297121D01*
X121800879Y-40251121D01*
X121789867Y-40234640D01*
X121786000Y-40215200D01*
X121786000Y-37720342D01*
X121581458Y-37515800D01*
X121041798Y-37515800D01*
X120784000Y-37773598D01*
X120784000Y-40556800D01*
X120780133Y-40576240D01*
X120780133Y-40576241D01*
X120769121Y-40592721D01*
X119514000Y-41847842D01*
X119514000Y-44776402D01*
X119412400Y-44776402D01*
X119412400Y-41847842D01*
X119412400Y-41826800D01*
X119416267Y-41807360D01*
X119427279Y-41790879D01*
X120682400Y-40535758D01*
X120682400Y-37752556D01*
X120686267Y-37733116D01*
X120697279Y-37716635D01*
X120984835Y-37429079D01*
X121001316Y-37418067D01*
X121020756Y-37414200D01*
X121602500Y-37414200D01*
X121621940Y-37418067D01*
G37*
X158080110Y-44136267D02*
X158096591Y-44147279D01*
X159202721Y-45253409D01*
X159213733Y-45269889D01*
X159213733Y-45269890D01*
X159217600Y-45289330D01*
X159217600Y-46160670D01*
X159213733Y-46180110D01*
X159213733Y-46180111D01*
X159202721Y-46196591D01*
X158586591Y-46812721D01*
X158570110Y-46823733D01*
X158550670Y-46827600D01*
X153904242Y-46827600D01*
X152958800Y-47773042D01*
X152958800Y-53699958D01*
X153818042Y-54559200D01*
X157345314Y-54559200D01*
X157364754Y-54563067D01*
X157381235Y-54574079D01*
X158083578Y-55276422D01*
X158094590Y-55292903D01*
X158094590Y-55331783D01*
X158067097Y-55359276D01*
X158028217Y-55359276D01*
X158011736Y-55348264D01*
X157324272Y-54660800D01*
X153797000Y-54660800D01*
X153777560Y-54656933D01*
X153761079Y-54645921D01*
X152872079Y-53756921D01*
X152861067Y-53740440D01*
X152857200Y-53721000D01*
X152857200Y-47752000D01*
X152861067Y-47732560D01*
X152872079Y-47716079D01*
X153847279Y-46740879D01*
X153863759Y-46729867D01*
X153863760Y-46729867D01*
X153883200Y-46726000D01*
X158529628Y-46726000D01*
X159116000Y-46139628D01*
X159116000Y-45310372D01*
X158039628Y-44234000D01*
X143971532Y-44234000D01*
X142081411Y-46124121D01*
X142064930Y-46135133D01*
X142045490Y-46139000D01*
X139982504Y-46139000D01*
X139484000Y-46637504D01*
X139484000Y-51970786D01*
X140035253Y-52522039D01*
X140698825Y-52522039D01*
X141168039Y-52052825D01*
X141168039Y-51584549D01*
X141171906Y-51565109D01*
X141182918Y-51548628D01*
X141969667Y-50761879D01*
X141986147Y-50750867D01*
X141986148Y-50750867D01*
X142005588Y-50747000D01*
X148270467Y-50747000D01*
X148634388Y-50383079D01*
X148650868Y-50372067D01*
X148650869Y-50372067D01*
X148670309Y-50368200D01*
X151003000Y-50368200D01*
X151022440Y-50372067D01*
X151049933Y-50399560D01*
X151053800Y-50419000D01*
X151053800Y-54523586D01*
X152862253Y-56332039D01*
X155577526Y-56332039D01*
X155596966Y-56335906D01*
X155613447Y-56346918D01*
X156982529Y-57716000D01*
X157980397Y-57716000D01*
X157988061Y-57710879D01*
X158026942Y-57710879D01*
X158026944Y-57710881D01*
X158043422Y-57721891D01*
X163360121Y-63038589D01*
X163371133Y-63055069D01*
X163371133Y-63055070D01*
X163375000Y-63074510D01*
X163375000Y-66494500D01*
X163371133Y-66513940D01*
X163360121Y-66530421D01*
X162946500Y-66944042D01*
X162946500Y-67675958D01*
X163464042Y-68193500D01*
X164195958Y-68193500D01*
X164713500Y-67675958D01*
X164713500Y-67310000D01*
X164717367Y-67290560D01*
X164744860Y-67263067D01*
X164783740Y-67263067D01*
X164811233Y-67290560D01*
X164815100Y-67310000D01*
X164815100Y-67697000D01*
X164811233Y-67716440D01*
X164811233Y-67716441D01*
X164800221Y-67732921D01*
X164252921Y-68280221D01*
X164236440Y-68291233D01*
X164217000Y-68295100D01*
X163443000Y-68295100D01*
X163423560Y-68291233D01*
X163423559Y-68291233D01*
X163407079Y-68280221D01*
X162859779Y-67732921D01*
X162848767Y-67716440D01*
X162844900Y-67697000D01*
X162844900Y-66923000D01*
X162848767Y-66903560D01*
X162859779Y-66887079D01*
X163273400Y-66473458D01*
X163273400Y-63095552D01*
X157995447Y-57817600D01*
X156961487Y-57817600D01*
X156942047Y-57813733D01*
X156942046Y-57813733D01*
X156925566Y-57802721D01*
X155556484Y-56433639D01*
X152841211Y-56433639D01*
X152821771Y-56429772D01*
X152805290Y-56418760D01*
X150967079Y-54580549D01*
X150956067Y-54564068D01*
X150952200Y-54544628D01*
X150952200Y-50469800D01*
X148691351Y-50469800D01*
X148327430Y-50833721D01*
X148310949Y-50844733D01*
X148291509Y-50848600D01*
X142026630Y-50848600D01*
X141269639Y-51605591D01*
X141269639Y-52073867D01*
X141265772Y-52093307D01*
X141254760Y-52109788D01*
X140755788Y-52608760D01*
X140739307Y-52619772D01*
X140719867Y-52623639D01*
X140014211Y-52623639D01*
X139994771Y-52619772D01*
X139978290Y-52608760D01*
X139397279Y-52027749D01*
X139386267Y-52011268D01*
X139382400Y-51991828D01*
X139382400Y-46616462D01*
X139386267Y-46597022D01*
X139397279Y-46580541D01*
X139925541Y-46052279D01*
X139942021Y-46041267D01*
X139942022Y-46041267D01*
X139961462Y-46037400D01*
X142024448Y-46037400D01*
X143914569Y-44147279D01*
X143931050Y-44136267D01*
X143950490Y-44132400D01*
X158060670Y-44132400D01*
X158080110Y-44136267D01*
G36*
X158080110Y-44136267D02*
G01*
X158096591Y-44147279D01*
X159202721Y-45253409D01*
X159213733Y-45269889D01*
X159213733Y-45269890D01*
X159217600Y-45289330D01*
X159217600Y-46160670D01*
X159213733Y-46180110D01*
X159213733Y-46180111D01*
X159202721Y-46196591D01*
X158586591Y-46812721D01*
X158570110Y-46823733D01*
X158550670Y-46827600D01*
X153904242Y-46827600D01*
X152958800Y-47773042D01*
X152958800Y-53699958D01*
X153818042Y-54559200D01*
X157345314Y-54559200D01*
X157364754Y-54563067D01*
X157381235Y-54574079D01*
X158083578Y-55276422D01*
X158094590Y-55292903D01*
X158094590Y-55331783D01*
X158067097Y-55359276D01*
X158028217Y-55359276D01*
X158011736Y-55348264D01*
X157324272Y-54660800D01*
X153797000Y-54660800D01*
X153777560Y-54656933D01*
X153761079Y-54645921D01*
X152872079Y-53756921D01*
X152861067Y-53740440D01*
X152857200Y-53721000D01*
X152857200Y-47752000D01*
X152861067Y-47732560D01*
X152872079Y-47716079D01*
X153847279Y-46740879D01*
X153863759Y-46729867D01*
X153863760Y-46729867D01*
X153883200Y-46726000D01*
X158529628Y-46726000D01*
X159116000Y-46139628D01*
X159116000Y-45310372D01*
X158039628Y-44234000D01*
X143971532Y-44234000D01*
X142081411Y-46124121D01*
X142064930Y-46135133D01*
X142045490Y-46139000D01*
X139982504Y-46139000D01*
X139484000Y-46637504D01*
X139484000Y-51970786D01*
X140035253Y-52522039D01*
X140698825Y-52522039D01*
X141168039Y-52052825D01*
X141168039Y-51584549D01*
X141171906Y-51565109D01*
X141182918Y-51548628D01*
X141969667Y-50761879D01*
X141986147Y-50750867D01*
X141986148Y-50750867D01*
X142005588Y-50747000D01*
X148270467Y-50747000D01*
X148634388Y-50383079D01*
X148650868Y-50372067D01*
X148650869Y-50372067D01*
X148670309Y-50368200D01*
X151003000Y-50368200D01*
X151022440Y-50372067D01*
X151049933Y-50399560D01*
X151053800Y-50419000D01*
X151053800Y-54523586D01*
X152862253Y-56332039D01*
X155577526Y-56332039D01*
X155596966Y-56335906D01*
X155613447Y-56346918D01*
X156982529Y-57716000D01*
X157980397Y-57716000D01*
X157988061Y-57710879D01*
X158026942Y-57710879D01*
X158026944Y-57710881D01*
X158043422Y-57721891D01*
X163360121Y-63038589D01*
X163371133Y-63055069D01*
X163371133Y-63055070D01*
X163375000Y-63074510D01*
X163375000Y-66494500D01*
X163371133Y-66513940D01*
X163360121Y-66530421D01*
X162946500Y-66944042D01*
X162946500Y-67675958D01*
X163464042Y-68193500D01*
X164195958Y-68193500D01*
X164713500Y-67675958D01*
X164713500Y-67310000D01*
X164717367Y-67290560D01*
X164744860Y-67263067D01*
X164783740Y-67263067D01*
X164811233Y-67290560D01*
X164815100Y-67310000D01*
X164815100Y-67697000D01*
X164811233Y-67716440D01*
X164811233Y-67716441D01*
X164800221Y-67732921D01*
X164252921Y-68280221D01*
X164236440Y-68291233D01*
X164217000Y-68295100D01*
X163443000Y-68295100D01*
X163423560Y-68291233D01*
X163423559Y-68291233D01*
X163407079Y-68280221D01*
X162859779Y-67732921D01*
X162848767Y-67716440D01*
X162844900Y-67697000D01*
X162844900Y-66923000D01*
X162848767Y-66903560D01*
X162859779Y-66887079D01*
X163273400Y-66473458D01*
X163273400Y-63095552D01*
X157995447Y-57817600D01*
X156961487Y-57817600D01*
X156942047Y-57813733D01*
X156942046Y-57813733D01*
X156925566Y-57802721D01*
X155556484Y-56433639D01*
X152841211Y-56433639D01*
X152821771Y-56429772D01*
X152805290Y-56418760D01*
X150967079Y-54580549D01*
X150956067Y-54564068D01*
X150952200Y-54544628D01*
X150952200Y-50469800D01*
X148691351Y-50469800D01*
X148327430Y-50833721D01*
X148310949Y-50844733D01*
X148291509Y-50848600D01*
X142026630Y-50848600D01*
X141269639Y-51605591D01*
X141269639Y-52073867D01*
X141265772Y-52093307D01*
X141254760Y-52109788D01*
X140755788Y-52608760D01*
X140739307Y-52619772D01*
X140719867Y-52623639D01*
X140014211Y-52623639D01*
X139994771Y-52619772D01*
X139978290Y-52608760D01*
X139397279Y-52027749D01*
X139386267Y-52011268D01*
X139382400Y-51991828D01*
X139382400Y-46616462D01*
X139386267Y-46597022D01*
X139397279Y-46580541D01*
X139925541Y-46052279D01*
X139942021Y-46041267D01*
X139942022Y-46041267D01*
X139961462Y-46037400D01*
X142024448Y-46037400D01*
X143914569Y-44147279D01*
X143931050Y-44136267D01*
X143950490Y-44132400D01*
X158060670Y-44132400D01*
X158080110Y-44136267D01*
G37*
X88182840Y-57890467D02*
X88199321Y-57901479D01*
X88702445Y-58404603D01*
X88713457Y-58421084D01*
X88717324Y-58440524D01*
X88717324Y-59550103D01*
X88713457Y-59569543D01*
X88702445Y-59586024D01*
X88371324Y-59917145D01*
X88371324Y-61031476D01*
X88367457Y-61050916D01*
X88356445Y-61067397D01*
X81947600Y-67476242D01*
X81947600Y-68473513D01*
X81943733Y-68492953D01*
X81943733Y-68492954D01*
X81932721Y-68509434D01*
X81199434Y-69242721D01*
X81182953Y-69253733D01*
X81163513Y-69257600D01*
X80129552Y-69257600D01*
X78995430Y-70391721D01*
X78978949Y-70402733D01*
X78959509Y-70406600D01*
X76602042Y-70406600D01*
X76095921Y-70912721D01*
X76079440Y-70923733D01*
X76060000Y-70927600D01*
X75139685Y-70927600D01*
X75120245Y-70923733D01*
X75120244Y-70923733D01*
X75103764Y-70912721D01*
X74597643Y-70406600D01*
X73255552Y-70406600D01*
X71591955Y-72070197D01*
X71591955Y-72785960D01*
X71588088Y-72805400D01*
X71588087Y-72805401D01*
X71577076Y-72821881D01*
X70946236Y-73452721D01*
X70929755Y-73463733D01*
X70910315Y-73467600D01*
X70059685Y-73467600D01*
X70040245Y-73463733D01*
X70040244Y-73463733D01*
X70023764Y-73452721D01*
X69422279Y-72851236D01*
X69411267Y-72834755D01*
X69407400Y-72815315D01*
X69407400Y-72794273D01*
X69509000Y-72794273D01*
X70080727Y-73366000D01*
X70889273Y-73366000D01*
X71490355Y-72764918D01*
X71490355Y-72049155D01*
X71494222Y-72029715D01*
X71505234Y-72013234D01*
X73198589Y-70319879D01*
X73215070Y-70308867D01*
X73234510Y-70305000D01*
X74618685Y-70305000D01*
X74638125Y-70308867D01*
X74654606Y-70319879D01*
X75160727Y-70826000D01*
X76038958Y-70826000D01*
X76545079Y-70319879D01*
X76561559Y-70308867D01*
X76561560Y-70308867D01*
X76581000Y-70305000D01*
X78938467Y-70305000D01*
X80081577Y-69161891D01*
X80098051Y-69150883D01*
X80098055Y-69150880D01*
X80098056Y-69150879D01*
X80117495Y-69150879D01*
X80136936Y-69150878D01*
X80136937Y-69150879D01*
X80136938Y-69150879D01*
X80136939Y-69150880D01*
X80144602Y-69156000D01*
X81142471Y-69156000D01*
X81846000Y-68452471D01*
X81846000Y-67455200D01*
X81849867Y-67435760D01*
X81860879Y-67419279D01*
X88269724Y-61010434D01*
X88269724Y-59896103D01*
X88273591Y-59876663D01*
X88284603Y-59860182D01*
X88615724Y-59529061D01*
X88615724Y-58461566D01*
X88142358Y-57988200D01*
X87473242Y-57988200D01*
X87013724Y-58447718D01*
X87013724Y-59529061D01*
X87344845Y-59860182D01*
X87355857Y-59876663D01*
X87359724Y-59896103D01*
X87359724Y-60575766D01*
X87355857Y-60595206D01*
X87355857Y-60595207D01*
X87344845Y-60611687D01*
X81217266Y-66739266D01*
X81200785Y-66750278D01*
X81199911Y-66750278D01*
X81181200Y-66754000D01*
X80147529Y-66754000D01*
X79444000Y-67457529D01*
X79444000Y-68455394D01*
X79449121Y-68463058D01*
X79449121Y-68463060D01*
X79449122Y-68463061D01*
X79449122Y-68473513D01*
X79449123Y-68501939D01*
X79449122Y-68501940D01*
X79449122Y-68501942D01*
X79438110Y-68518422D01*
X78578611Y-69377921D01*
X78562130Y-69388933D01*
X78542690Y-69392800D01*
X76581000Y-69392800D01*
X76561560Y-69388933D01*
X76545079Y-69377921D01*
X76041158Y-68874000D01*
X75160727Y-68874000D01*
X74654606Y-69380121D01*
X74638125Y-69391133D01*
X74618685Y-69395000D01*
X74170200Y-69395000D01*
X74159140Y-69392800D01*
X72781242Y-69392800D01*
X70774921Y-71399121D01*
X70758440Y-71410133D01*
X70739000Y-71414000D01*
X70080727Y-71414000D01*
X69509000Y-71985727D01*
X69509000Y-72794273D01*
X69407400Y-72794273D01*
X69407400Y-71985727D01*
X69407400Y-71964685D01*
X69411267Y-71945245D01*
X69422279Y-71928764D01*
X70023764Y-71327279D01*
X70040244Y-71316267D01*
X70040245Y-71316267D01*
X70059685Y-71312400D01*
X70717958Y-71312400D01*
X72724279Y-69306079D01*
X72740759Y-69295068D01*
X72740760Y-69295067D01*
X72760200Y-69291200D01*
X74168000Y-69291200D01*
X74179060Y-69293400D01*
X74597643Y-69293400D01*
X75103764Y-68787279D01*
X75120244Y-68776267D01*
X75120245Y-68776267D01*
X75139685Y-68772400D01*
X76062200Y-68772400D01*
X76081640Y-68776267D01*
X76098121Y-68787279D01*
X76602042Y-69291200D01*
X78521648Y-69291200D01*
X79342400Y-68470448D01*
X79342400Y-67436487D01*
X79346267Y-67417047D01*
X79357279Y-67400566D01*
X80090566Y-66667279D01*
X80107046Y-66656267D01*
X80107047Y-66656267D01*
X80126487Y-66652400D01*
X81160448Y-66652400D01*
X87258124Y-60554724D01*
X87258124Y-59917145D01*
X86927003Y-59586024D01*
X86915991Y-59569543D01*
X86912124Y-59550103D01*
X86912124Y-58426676D01*
X86915991Y-58407236D01*
X86927003Y-58390755D01*
X87416279Y-57901479D01*
X87432760Y-57890467D01*
X87452200Y-57886600D01*
X88163400Y-57886600D01*
X88182840Y-57890467D01*
X99773688Y-37101267D02*
X99790169Y-37112279D01*
X100347721Y-37669831D01*
X100358733Y-37686312D01*
X100362600Y-37705752D01*
X100362600Y-39090600D01*
X100358733Y-39110040D01*
X100331240Y-39137533D01*
X100292360Y-39137533D01*
X100264867Y-39110040D01*
X100261000Y-39090600D01*
X100261000Y-37726794D01*
X99733206Y-37199000D01*
X98386794Y-37199000D01*
X97859000Y-37726794D01*
X97859000Y-40251800D01*
X97857571Y-40258983D01*
X97857571Y-40273679D01*
X97857568Y-40273681D01*
X97846559Y-40290159D01*
X97712597Y-40424121D01*
X97696116Y-40435133D01*
X97676676Y-40439000D01*
X75148100Y-40439000D01*
X75128660Y-40435133D01*
X75112179Y-40424121D01*
X74769258Y-40081200D01*
X74760713Y-40081200D01*
X74741273Y-40077333D01*
X74741272Y-40077333D01*
X74736284Y-40074000D01*
X73733715Y-40074000D01*
X73728727Y-40077333D01*
X73709287Y-40081200D01*
X67260713Y-40081200D01*
X67241273Y-40077333D01*
X67241272Y-40077333D01*
X67236284Y-40074000D01*
X66237529Y-40074000D01*
X65887408Y-40424121D01*
X65870927Y-40435133D01*
X65851487Y-40439000D01*
X51250642Y-40439000D01*
X48463200Y-43226442D01*
X48463200Y-45440600D01*
X48459333Y-45460040D01*
X48448321Y-45476521D01*
X44540721Y-49384121D01*
X44524240Y-49395133D01*
X44504800Y-49399000D01*
X44504686Y-49399000D01*
X43684000Y-50219686D01*
X43684000Y-50219800D01*
X43680133Y-50239240D01*
X43669121Y-50255721D01*
X39736121Y-54188721D01*
X39719640Y-54199733D01*
X39700200Y-54203600D01*
X32105600Y-54203600D01*
X32105600Y-64109600D01*
X47627200Y-64109600D01*
X47646640Y-64113467D01*
X47674133Y-64140960D01*
X47678000Y-64160400D01*
X47678000Y-71624098D01*
X48390902Y-72337000D01*
X54138273Y-72337000D01*
X54951000Y-71524273D01*
X54951000Y-62617442D01*
X52643679Y-60310121D01*
X52632667Y-60293640D01*
X52628800Y-60274200D01*
X52628800Y-56108600D01*
X52632667Y-56089160D01*
X52643679Y-56072679D01*
X55590079Y-53126279D01*
X55606560Y-53115267D01*
X55626000Y-53111400D01*
X61087000Y-53111400D01*
X61106440Y-53115267D01*
X61122921Y-53126279D01*
X62723121Y-54726479D01*
X62734133Y-54742960D01*
X62738000Y-54762400D01*
X62738000Y-56412462D01*
X62734133Y-56431902D01*
X62723121Y-56448383D01*
X62014000Y-57157504D01*
X62014000Y-57862496D01*
X62395121Y-58243617D01*
X62406133Y-58260098D01*
X62410000Y-58279538D01*
X62410000Y-60750490D01*
X62406133Y-60769930D01*
X62406133Y-60769931D01*
X62395121Y-60786411D01*
X61817411Y-61364121D01*
X61800930Y-61375133D01*
X61781490Y-61379000D01*
X61242504Y-61379000D01*
X60744000Y-61877504D01*
X60744000Y-62416490D01*
X60740133Y-62435930D01*
X60729121Y-62452411D01*
X60547411Y-62634121D01*
X60530930Y-62645133D01*
X60511490Y-62649000D01*
X59474000Y-62649000D01*
X59474000Y-64351000D01*
X61176000Y-64351000D01*
X61176000Y-63313510D01*
X61179867Y-63294070D01*
X61190879Y-63277589D01*
X61372589Y-63095879D01*
X61389070Y-63084867D01*
X61408510Y-63081000D01*
X61947496Y-63081000D01*
X62707417Y-62321079D01*
X62723898Y-62310067D01*
X62743338Y-62306200D01*
X63673690Y-62306200D01*
X63693130Y-62310067D01*
X63709611Y-62321079D01*
X66586121Y-65197589D01*
X66597132Y-65214069D01*
X66597133Y-65214070D01*
X66601000Y-65233510D01*
X66601000Y-81388158D01*
X70201242Y-84988400D01*
X78077391Y-84988400D01*
X78096831Y-84992267D01*
X78096832Y-84992267D01*
X78113312Y-85003279D01*
X79567532Y-86457500D01*
X85309720Y-86457500D01*
X85329160Y-86461367D01*
X85345641Y-86472379D01*
X85589262Y-86716000D01*
X88908738Y-86716000D01*
X89175859Y-86448879D01*
X89192339Y-86437867D01*
X89192340Y-86437867D01*
X89211780Y-86434000D01*
X95478200Y-86434000D01*
X95497640Y-86437867D01*
X95525133Y-86465360D01*
X95529000Y-86484800D01*
X95529000Y-90813738D01*
X96002862Y-91287600D01*
X100076000Y-91287600D01*
X100095440Y-91291467D01*
X100122933Y-91318960D01*
X100126800Y-91338400D01*
X100126800Y-92686500D01*
X100122933Y-92705940D01*
X100111921Y-92722421D01*
X100088421Y-92745921D01*
X100071940Y-92756933D01*
X100033060Y-92756933D01*
X100005567Y-92729440D01*
X100005567Y-92690560D01*
X100016579Y-92674079D01*
X100025200Y-92665458D01*
X100025200Y-91389200D01*
X95981820Y-91389200D01*
X95962380Y-91385333D01*
X95962379Y-91385333D01*
X95945899Y-91374321D01*
X95442279Y-90870701D01*
X95431267Y-90854220D01*
X95427400Y-90834780D01*
X95427400Y-86535600D01*
X89232822Y-86535600D01*
X88965701Y-86802721D01*
X88949220Y-86813733D01*
X88929780Y-86817600D01*
X85568220Y-86817600D01*
X85548780Y-86813733D01*
X85548779Y-86813733D01*
X85532299Y-86802721D01*
X85288678Y-86559100D01*
X79546490Y-86559100D01*
X79527050Y-86555233D01*
X79527049Y-86555232D01*
X79510569Y-86544221D01*
X78056349Y-85090000D01*
X70180200Y-85090000D01*
X70160760Y-85086133D01*
X70160759Y-85086133D01*
X70144279Y-85075121D01*
X66514279Y-81445121D01*
X66503267Y-81428640D01*
X66499400Y-81409200D01*
X66499400Y-65254552D01*
X63652648Y-62407800D01*
X62764380Y-62407800D01*
X62004459Y-63167721D01*
X61987978Y-63178733D01*
X61968538Y-63182600D01*
X61429552Y-63182600D01*
X61277600Y-63334552D01*
X61277600Y-64401800D01*
X61273733Y-64421240D01*
X61246240Y-64448733D01*
X61226800Y-64452600D01*
X59423200Y-64452600D01*
X59403760Y-64448733D01*
X59376267Y-64421240D01*
X59372400Y-64401800D01*
X59372400Y-62598200D01*
X59376267Y-62578760D01*
X59403760Y-62551267D01*
X59423200Y-62547400D01*
X60490448Y-62547400D01*
X60642400Y-62395448D01*
X60642400Y-61856462D01*
X60646267Y-61837022D01*
X60657279Y-61820541D01*
X61185541Y-61292279D01*
X61202021Y-61281267D01*
X61202022Y-61281267D01*
X61221462Y-61277400D01*
X61760448Y-61277400D01*
X62308400Y-60729448D01*
X62308400Y-58300580D01*
X61927279Y-57919459D01*
X61916267Y-57902978D01*
X61912400Y-57883538D01*
X61912400Y-57136462D01*
X61916267Y-57117022D01*
X61927279Y-57100541D01*
X62636400Y-56391420D01*
X62636400Y-54783442D01*
X61065958Y-53213000D01*
X55647042Y-53213000D01*
X52730400Y-56129642D01*
X52730400Y-60253158D01*
X55037721Y-62560479D01*
X55048733Y-62576960D01*
X55052600Y-62596400D01*
X55052600Y-71545315D01*
X55048733Y-71564755D01*
X55037721Y-71581236D01*
X54195236Y-72423721D01*
X54178755Y-72434733D01*
X54159315Y-72438600D01*
X48369860Y-72438600D01*
X48350420Y-72434733D01*
X48333939Y-72423721D01*
X47591279Y-71681061D01*
X47580267Y-71664580D01*
X47576400Y-71645140D01*
X47576400Y-64211200D01*
X32054800Y-64211200D01*
X32035360Y-64207333D01*
X32007867Y-64179840D01*
X32004000Y-64160400D01*
X32004000Y-54152800D01*
X32007867Y-54133360D01*
X32035360Y-54105867D01*
X32054800Y-54102000D01*
X39679158Y-54102000D01*
X43582400Y-50198758D01*
X43582400Y-50198644D01*
X43586267Y-50179204D01*
X43597279Y-50162723D01*
X44447723Y-49312279D01*
X44464203Y-49301268D01*
X44464204Y-49301267D01*
X44483644Y-49297400D01*
X44483758Y-49297400D01*
X48361600Y-45419558D01*
X48361600Y-43205400D01*
X48365467Y-43185960D01*
X48376479Y-43169479D01*
X51193679Y-40352279D01*
X51210159Y-40341268D01*
X51210160Y-40341267D01*
X51229600Y-40337400D01*
X65830445Y-40337400D01*
X66180566Y-39987279D01*
X66197047Y-39976267D01*
X66216487Y-39972400D01*
X67253513Y-39972400D01*
X67272953Y-39976267D01*
X67277941Y-39979600D01*
X73692058Y-39979600D01*
X73697046Y-39976267D01*
X73697047Y-39976267D01*
X73716487Y-39972400D01*
X74753513Y-39972400D01*
X74772953Y-39976267D01*
X74777941Y-39979600D01*
X74790300Y-39979600D01*
X74809740Y-39983467D01*
X74826221Y-39994479D01*
X75169142Y-40337400D01*
X97655634Y-40337400D01*
X97757400Y-40235634D01*
X97757400Y-37705752D01*
X97761267Y-37686312D01*
X97772279Y-37669831D01*
X98329831Y-37112279D01*
X98346312Y-37101267D01*
X98365752Y-37097400D01*
X99754248Y-37097400D01*
X99773688Y-37101267D01*
G36*
X99773688Y-37101267D02*
G01*
X99790169Y-37112279D01*
X100347721Y-37669831D01*
X100358733Y-37686312D01*
X100362600Y-37705752D01*
X100362600Y-39090600D01*
X100358733Y-39110040D01*
X100331240Y-39137533D01*
X100292360Y-39137533D01*
X100264867Y-39110040D01*
X100261000Y-39090600D01*
X100261000Y-37726794D01*
X99733206Y-37199000D01*
X98386794Y-37199000D01*
X97859000Y-37726794D01*
X97859000Y-40251800D01*
X97857571Y-40258983D01*
X97857571Y-40273679D01*
X97857568Y-40273681D01*
X97846559Y-40290159D01*
X97712597Y-40424121D01*
X97696116Y-40435133D01*
X97676676Y-40439000D01*
X75148100Y-40439000D01*
X75128660Y-40435133D01*
X75112179Y-40424121D01*
X74769258Y-40081200D01*
X74760713Y-40081200D01*
X74741273Y-40077333D01*
X74741272Y-40077333D01*
X74736284Y-40074000D01*
X73733715Y-40074000D01*
X73728727Y-40077333D01*
X73709287Y-40081200D01*
X67260713Y-40081200D01*
X67241273Y-40077333D01*
X67241272Y-40077333D01*
X67236284Y-40074000D01*
X66237529Y-40074000D01*
X65887408Y-40424121D01*
X65870927Y-40435133D01*
X65851487Y-40439000D01*
X51250642Y-40439000D01*
X48463200Y-43226442D01*
X48463200Y-45440600D01*
X48459333Y-45460040D01*
X48448321Y-45476521D01*
X44540721Y-49384121D01*
X44524240Y-49395133D01*
X44504800Y-49399000D01*
X44504686Y-49399000D01*
X43684000Y-50219686D01*
X43684000Y-50219800D01*
X43680133Y-50239240D01*
X43669121Y-50255721D01*
X39736121Y-54188721D01*
X39719640Y-54199733D01*
X39700200Y-54203600D01*
X32105600Y-54203600D01*
X32105600Y-64109600D01*
X47627200Y-64109600D01*
X47646640Y-64113467D01*
X47674133Y-64140960D01*
X47678000Y-64160400D01*
X47678000Y-71624098D01*
X48390902Y-72337000D01*
X54138273Y-72337000D01*
X54951000Y-71524273D01*
X54951000Y-62617442D01*
X52643679Y-60310121D01*
X52632667Y-60293640D01*
X52628800Y-60274200D01*
X52628800Y-56108600D01*
X52632667Y-56089160D01*
X52643679Y-56072679D01*
X55590079Y-53126279D01*
X55606560Y-53115267D01*
X55626000Y-53111400D01*
X61087000Y-53111400D01*
X61106440Y-53115267D01*
X61122921Y-53126279D01*
X62723121Y-54726479D01*
X62734133Y-54742960D01*
X62738000Y-54762400D01*
X62738000Y-56412462D01*
X62734133Y-56431902D01*
X62723121Y-56448383D01*
X62014000Y-57157504D01*
X62014000Y-57862496D01*
X62395121Y-58243617D01*
X62406133Y-58260098D01*
X62410000Y-58279538D01*
X62410000Y-60750490D01*
X62406133Y-60769930D01*
X62406133Y-60769931D01*
X62395121Y-60786411D01*
X61817411Y-61364121D01*
X61800930Y-61375133D01*
X61781490Y-61379000D01*
X61242504Y-61379000D01*
X60744000Y-61877504D01*
X60744000Y-62416490D01*
X60740133Y-62435930D01*
X60729121Y-62452411D01*
X60547411Y-62634121D01*
X60530930Y-62645133D01*
X60511490Y-62649000D01*
X59474000Y-62649000D01*
X59474000Y-64351000D01*
X61176000Y-64351000D01*
X61176000Y-63313510D01*
X61179867Y-63294070D01*
X61190879Y-63277589D01*
X61372589Y-63095879D01*
X61389070Y-63084867D01*
X61408510Y-63081000D01*
X61947496Y-63081000D01*
X62707417Y-62321079D01*
X62723898Y-62310067D01*
X62743338Y-62306200D01*
X63673690Y-62306200D01*
X63693130Y-62310067D01*
X63709611Y-62321079D01*
X66586121Y-65197589D01*
X66597132Y-65214069D01*
X66597133Y-65214070D01*
X66601000Y-65233510D01*
X66601000Y-81388158D01*
X70201242Y-84988400D01*
X78077391Y-84988400D01*
X78096831Y-84992267D01*
X78096832Y-84992267D01*
X78113312Y-85003279D01*
X79567532Y-86457500D01*
X85309720Y-86457500D01*
X85329160Y-86461367D01*
X85345641Y-86472379D01*
X85589262Y-86716000D01*
X88908738Y-86716000D01*
X89175859Y-86448879D01*
X89192339Y-86437867D01*
X89192340Y-86437867D01*
X89211780Y-86434000D01*
X95478200Y-86434000D01*
X95497640Y-86437867D01*
X95525133Y-86465360D01*
X95529000Y-86484800D01*
X95529000Y-90813738D01*
X96002862Y-91287600D01*
X100076000Y-91287600D01*
X100095440Y-91291467D01*
X100122933Y-91318960D01*
X100126800Y-91338400D01*
X100126800Y-92686500D01*
X100122933Y-92705940D01*
X100111921Y-92722421D01*
X100088421Y-92745921D01*
X100071940Y-92756933D01*
X100033060Y-92756933D01*
X100005567Y-92729440D01*
X100005567Y-92690560D01*
X100016579Y-92674079D01*
X100025200Y-92665458D01*
X100025200Y-91389200D01*
X95981820Y-91389200D01*
X95962380Y-91385333D01*
X95962379Y-91385333D01*
X95945899Y-91374321D01*
X95442279Y-90870701D01*
X95431267Y-90854220D01*
X95427400Y-90834780D01*
X95427400Y-86535600D01*
X89232822Y-86535600D01*
X88965701Y-86802721D01*
X88949220Y-86813733D01*
X88929780Y-86817600D01*
X85568220Y-86817600D01*
X85548780Y-86813733D01*
X85548779Y-86813733D01*
X85532299Y-86802721D01*
X85288678Y-86559100D01*
X79546490Y-86559100D01*
X79527050Y-86555233D01*
X79527049Y-86555232D01*
X79510569Y-86544221D01*
X78056349Y-85090000D01*
X70180200Y-85090000D01*
X70160760Y-85086133D01*
X70160759Y-85086133D01*
X70144279Y-85075121D01*
X66514279Y-81445121D01*
X66503267Y-81428640D01*
X66499400Y-81409200D01*
X66499400Y-65254552D01*
X63652648Y-62407800D01*
X62764380Y-62407800D01*
X62004459Y-63167721D01*
X61987978Y-63178733D01*
X61968538Y-63182600D01*
X61429552Y-63182600D01*
X61277600Y-63334552D01*
X61277600Y-64401800D01*
X61273733Y-64421240D01*
X61246240Y-64448733D01*
X61226800Y-64452600D01*
X59423200Y-64452600D01*
X59403760Y-64448733D01*
X59376267Y-64421240D01*
X59372400Y-64401800D01*
X59372400Y-62598200D01*
X59376267Y-62578760D01*
X59403760Y-62551267D01*
X59423200Y-62547400D01*
X60490448Y-62547400D01*
X60642400Y-62395448D01*
X60642400Y-61856462D01*
X60646267Y-61837022D01*
X60657279Y-61820541D01*
X61185541Y-61292279D01*
X61202021Y-61281267D01*
X61202022Y-61281267D01*
X61221462Y-61277400D01*
X61760448Y-61277400D01*
X62308400Y-60729448D01*
X62308400Y-58300580D01*
X61927279Y-57919459D01*
X61916267Y-57902978D01*
X61912400Y-57883538D01*
X61912400Y-57136462D01*
X61916267Y-57117022D01*
X61927279Y-57100541D01*
X62636400Y-56391420D01*
X62636400Y-54783442D01*
X61065958Y-53213000D01*
X55647042Y-53213000D01*
X52730400Y-56129642D01*
X52730400Y-60253158D01*
X55037721Y-62560479D01*
X55048733Y-62576960D01*
X55052600Y-62596400D01*
X55052600Y-71545315D01*
X55048733Y-71564755D01*
X55037721Y-71581236D01*
X54195236Y-72423721D01*
X54178755Y-72434733D01*
X54159315Y-72438600D01*
X48369860Y-72438600D01*
X48350420Y-72434733D01*
X48333939Y-72423721D01*
X47591279Y-71681061D01*
X47580267Y-71664580D01*
X47576400Y-71645140D01*
X47576400Y-64211200D01*
X32054800Y-64211200D01*
X32035360Y-64207333D01*
X32007867Y-64179840D01*
X32004000Y-64160400D01*
X32004000Y-54152800D01*
X32007867Y-54133360D01*
X32035360Y-54105867D01*
X32054800Y-54102000D01*
X39679158Y-54102000D01*
X43582400Y-50198758D01*
X43582400Y-50198644D01*
X43586267Y-50179204D01*
X43597279Y-50162723D01*
X44447723Y-49312279D01*
X44464203Y-49301268D01*
X44464204Y-49301267D01*
X44483644Y-49297400D01*
X44483758Y-49297400D01*
X48361600Y-45419558D01*
X48361600Y-43205400D01*
X48365467Y-43185960D01*
X48376479Y-43169479D01*
X51193679Y-40352279D01*
X51210159Y-40341268D01*
X51210160Y-40341267D01*
X51229600Y-40337400D01*
X65830445Y-40337400D01*
X66180566Y-39987279D01*
X66197047Y-39976267D01*
X66216487Y-39972400D01*
X67253513Y-39972400D01*
X67272953Y-39976267D01*
X67277941Y-39979600D01*
X73692058Y-39979600D01*
X73697046Y-39976267D01*
X73697047Y-39976267D01*
X73716487Y-39972400D01*
X74753513Y-39972400D01*
X74772953Y-39976267D01*
X74777941Y-39979600D01*
X74790300Y-39979600D01*
X74809740Y-39983467D01*
X74826221Y-39994479D01*
X75169142Y-40337400D01*
X97655634Y-40337400D01*
X97757400Y-40235634D01*
X97757400Y-37705752D01*
X97761267Y-37686312D01*
X97772279Y-37669831D01*
X98329831Y-37112279D01*
X98346312Y-37101267D01*
X98365752Y-37097400D01*
X99754248Y-37097400D01*
X99773688Y-37101267D01*
G37*
D11*
%TO.C,M202*%
X178500000Y-41275000D03*
X178500000Y-42545000D03*
X178500000Y-43815000D03*
X178500000Y-45085000D03*
X178500000Y-46355000D03*
X178500000Y-47625000D03*
X178500000Y-48895000D03*
X178500000Y-50165000D03*
X183450000Y-50165000D03*
X183450000Y-48895000D03*
X183450000Y-47625000D03*
X183450000Y-46355000D03*
X183450000Y-45085000D03*
X183450000Y-43815000D03*
X183450000Y-42545000D03*
X183450000Y-41275000D03*
%TD*%
D12*
%TO.C,TP103*%
X73660000Y-59690000D03*
%TD*%
D13*
%TO.C,R62*%
X139422500Y-43180000D03*
X141247500Y-43180000D03*
%TD*%
D14*
%TO.C,D12*%
X129540000Y-55740000D03*
X129540000Y-50940000D03*
%TD*%
D15*
%TO.C,R20*%
X168044500Y-92710000D03*
X166219500Y-92710000D03*
%TD*%
D16*
%TO.C,C2*%
X206689888Y-62230000D03*
D17*
X208689888Y-62230000D03*
%TD*%
D18*
%TO.C,D14*%
X95885000Y-73660000D03*
D19*
X95885000Y-76200000D03*
%TD*%
D12*
%TO.C,TH1*%
X51435000Y-88780000D03*
X51435000Y-81280000D03*
%TD*%
D20*
%TO.C,IC1*%
X180975000Y-73501000D03*
D21*
X178435000Y-73501000D03*
X175895000Y-73501000D03*
X173355000Y-73501000D03*
X173355000Y-81439000D03*
X175895000Y-81439000D03*
X178435000Y-81439000D03*
X180975000Y-81439000D03*
%TD*%
D22*
%TO.C,D20*%
X154940000Y-86360000D03*
D23*
X165100000Y-86360000D03*
%TD*%
D24*
%TO.C,D10*%
X133279000Y-43180000D03*
X136779000Y-43180000D03*
%TD*%
D25*
%TO.C,R40*%
X170180000Y-58039000D03*
X170180000Y-54229000D03*
%TD*%
D16*
%TO.C,C5*%
X134299888Y-47625000D03*
D17*
X136299888Y-47625000D03*
%TD*%
D26*
%TO.C,U10*%
X144780000Y-90235000D03*
X143510000Y-90235000D03*
X142240000Y-90235000D03*
X140970000Y-90235000D03*
X140970000Y-95185000D03*
X142240000Y-95185000D03*
X143510000Y-95185000D03*
X144780000Y-95185000D03*
%TD*%
D17*
%TO.C,C37*%
X113665000Y-74930000D03*
X108665000Y-74930000D03*
%TD*%
D27*
%TO.C,RL105*%
X70485000Y-64770000D03*
X70485000Y-69850000D03*
X70485000Y-72390000D03*
X70485000Y-74930000D03*
X75565000Y-74930000D03*
X75565000Y-72390000D03*
X75565000Y-69850000D03*
X75565000Y-64770000D03*
%TD*%
D13*
%TO.C,R65*%
X136247500Y-69850000D03*
X138072500Y-69850000D03*
%TD*%
D28*
%TO.C,Q19*%
X100965000Y-79375000D03*
D29*
X102235000Y-80645000D03*
X103505000Y-79375000D03*
X102235000Y-78105000D03*
%TD*%
D30*
%TO.C,C13*%
X207010000Y-100650000D03*
X207010000Y-102550000D03*
%TD*%
%TO.C,C14*%
X117475000Y-46040000D03*
X117475000Y-47940000D03*
%TD*%
D25*
%TO.C,R1*%
X193040000Y-64770000D03*
X193040000Y-60960000D03*
%TD*%
D17*
%TO.C,C29*%
X203835000Y-76160000D03*
X203835000Y-71160000D03*
%TD*%
D31*
%TO.C,R47*%
X206629000Y-67714500D03*
X206629000Y-65889500D03*
%TD*%
D32*
%TO.C,Q6*%
X110490000Y-52705000D03*
D33*
X111760000Y-52705000D03*
X113030000Y-52705000D03*
%TD*%
D13*
%TO.C,R76*%
X100052500Y-92710000D03*
X101877500Y-92710000D03*
%TD*%
D31*
%TO.C,R22*%
X268605000Y-46632500D03*
X268605000Y-44807500D03*
%TD*%
D34*
%TO.C,C22*%
X176210000Y-45085000D03*
X174310000Y-45085000D03*
%TD*%
D35*
%TO.C,U3*%
X264160000Y-89535000D03*
X264160000Y-90805000D03*
X264160000Y-92075000D03*
X264160000Y-93345000D03*
X264160000Y-94615000D03*
X264160000Y-95885000D03*
X264160000Y-97155000D03*
X269110000Y-97155000D03*
X269110000Y-95885000D03*
X269110000Y-94615000D03*
X269110000Y-93345000D03*
X269110000Y-92075000D03*
X269110000Y-90805000D03*
X269110000Y-89535000D03*
%TD*%
D36*
%TO.C,C21*%
X185740000Y-43815000D03*
X187640000Y-43815000D03*
%TD*%
D37*
%TO.C,J41*%
X34925000Y-67945000D03*
D38*
X34925000Y-70485000D03*
X34925000Y-73025000D03*
%TD*%
D13*
%TO.C,R88*%
X96242500Y-87757000D03*
X98067500Y-87757000D03*
%TD*%
D39*
%TO.C,U8*%
X107632500Y-82550000D03*
D40*
X107632500Y-85090000D03*
X107632500Y-87630000D03*
X107632500Y-90170000D03*
X107632500Y-92710000D03*
X107632500Y-95250000D03*
X107632500Y-97790000D03*
X115887500Y-97790000D03*
X115887500Y-95250000D03*
X115887500Y-92710000D03*
X115887500Y-90170000D03*
X115887500Y-87630000D03*
X115887500Y-85090000D03*
X115887500Y-82550000D03*
%TD*%
D41*
%TO.C,D18*%
X168910000Y-97790000D03*
D42*
X181610000Y-97790000D03*
%TD*%
D34*
%TO.C,C8*%
X254315000Y-74168000D03*
X252415000Y-74168000D03*
%TD*%
D13*
%TO.C,R53*%
X252452500Y-78740000D03*
X254277500Y-78740000D03*
%TD*%
D11*
%TO.C,M201*%
X214060000Y-67945000D03*
X214060000Y-69215000D03*
X214060000Y-70485000D03*
X214060000Y-71755000D03*
X214060000Y-73025000D03*
X214060000Y-74295000D03*
X214060000Y-75565000D03*
X214060000Y-76835000D03*
X219010000Y-76835000D03*
X219010000Y-75565000D03*
X219010000Y-74295000D03*
X219010000Y-73025000D03*
X219010000Y-71755000D03*
X219010000Y-70485000D03*
X219010000Y-69215000D03*
X219010000Y-67945000D03*
%TD*%
D43*
%TO.C,R74*%
X125095000Y-94337500D03*
X125095000Y-96162500D03*
%TD*%
D17*
%TO.C,C45*%
X129540000Y-72390000D03*
X129540000Y-82390000D03*
%TD*%
D31*
%TO.C,R71*%
X86233000Y-86002500D03*
X86233000Y-84177500D03*
%TD*%
%TO.C,R24*%
X221615000Y-40917500D03*
X221615000Y-39092500D03*
%TD*%
D30*
%TO.C,C23*%
X191770000Y-78425000D03*
X191770000Y-80325000D03*
%TD*%
D44*
%TO.C,Q9*%
X141605000Y-48768000D03*
D45*
X140335000Y-46990000D03*
X141605000Y-45085000D03*
%TD*%
D31*
%TO.C,R48*%
X208661000Y-67714500D03*
X208661000Y-65889500D03*
%TD*%
D17*
%TO.C,C40*%
X121285000Y-93305000D03*
X121285000Y-88305000D03*
%TD*%
D13*
%TO.C,R46*%
X173331500Y-66294000D03*
X175156500Y-66294000D03*
%TD*%
D41*
%TO.C,D19*%
X168910000Y-102235000D03*
D42*
X181610000Y-102235000D03*
%TD*%
D34*
%TO.C,C19*%
X211770000Y-71755000D03*
X209870000Y-71755000D03*
%TD*%
D14*
%TO.C,D7*%
X198755000Y-76060000D03*
X198755000Y-71260000D03*
%TD*%
D32*
%TO.C,Q20*%
X102235000Y-53065000D03*
D33*
X103505000Y-53065000D03*
X104775000Y-53065000D03*
%TD*%
D44*
%TO.C,Q15*%
X60325000Y-57510000D03*
D45*
X61595000Y-56240000D03*
X62865000Y-57510000D03*
%TD*%
D12*
%TO.C,TP203*%
X169545000Y-77470000D03*
%TD*%
D41*
%TO.C,D11*%
X84455000Y-50165000D03*
D42*
X97155000Y-50165000D03*
%TD*%
D36*
%TO.C,C20*%
X185740000Y-46355000D03*
X187640000Y-46355000D03*
%TD*%
D13*
%TO.C,R87*%
X123674500Y-70358000D03*
X125499500Y-70358000D03*
%TD*%
D31*
%TO.C,R89*%
X106045000Y-67587500D03*
X106045000Y-65762500D03*
%TD*%
D15*
%TO.C,R37*%
X106322500Y-37465000D03*
X104497500Y-37465000D03*
%TD*%
D29*
%TO.C,Q5*%
X88335000Y-76940000D03*
X87835000Y-78740000D03*
X88335000Y-80540000D03*
X90735000Y-80540000D03*
X91235000Y-78740000D03*
X90735000Y-76940000D03*
%TD*%
D46*
%TO.C,D13*%
X135763000Y-63005000D03*
X135763000Y-67805000D03*
%TD*%
D12*
%TO.C,TP304*%
X252730000Y-85090000D03*
%TD*%
D31*
%TO.C,R35*%
X206375000Y-89177500D03*
X206375000Y-87352500D03*
%TD*%
%TO.C,R86*%
X121666000Y-70381500D03*
X121666000Y-68556500D03*
%TD*%
D47*
%TO.C,D4*%
X265925000Y-38100000D03*
X261125000Y-38100000D03*
%TD*%
D18*
%TO.C,Q23*%
X153395000Y-100330000D03*
D19*
X153395000Y-99060000D03*
X153395000Y-97790000D03*
%TD*%
D15*
%TO.C,R12*%
X243482500Y-46990000D03*
X241657500Y-46990000D03*
%TD*%
D46*
%TO.C,D8*%
X195580000Y-94120000D03*
X195580000Y-98920000D03*
%TD*%
D12*
%TO.C,TH3*%
X74235000Y-41275000D03*
X66735000Y-41275000D03*
%TD*%
D31*
%TO.C,R34*%
X208280000Y-89177500D03*
X208280000Y-87352500D03*
%TD*%
D17*
%TO.C,C28*%
X220980000Y-95845000D03*
X220980000Y-90845000D03*
%TD*%
D25*
%TO.C,R39*%
X163830000Y-67310000D03*
X163830000Y-44450000D03*
%TD*%
D31*
%TO.C,R83*%
X91440000Y-73025000D03*
X91440000Y-71200000D03*
%TD*%
D36*
%TO.C,C35*%
X168595000Y-73660000D03*
X170495000Y-73660000D03*
%TD*%
D48*
%TO.C,C51*%
X148717000Y-89850000D03*
X148717000Y-87950000D03*
%TD*%
D31*
%TO.C,R43*%
X175895000Y-85367500D03*
X175895000Y-83542500D03*
%TD*%
D13*
%TO.C,R77*%
X100052500Y-90170000D03*
X101877500Y-90170000D03*
%TD*%
D34*
%TO.C,C9*%
X268920000Y-87630000D03*
X267020000Y-87630000D03*
%TD*%
D44*
%TO.C,Q12*%
X146685000Y-54610000D03*
D45*
X145415000Y-53340000D03*
X146685000Y-52070000D03*
%TD*%
D49*
%TO.C,D5*%
X261525000Y-43815000D03*
X265525000Y-43815000D03*
%TD*%
D15*
%TO.C,R50*%
X254277500Y-68580000D03*
X252452500Y-68580000D03*
%TD*%
D17*
%TO.C,C24*%
X186015000Y-69850000D03*
X181015000Y-69850000D03*
%TD*%
%TO.C,C36*%
X113665000Y-78105000D03*
X108665000Y-78105000D03*
%TD*%
D30*
%TO.C,C33*%
X105410000Y-95570000D03*
X105410000Y-97470000D03*
%TD*%
D16*
%TO.C,C3*%
X189544888Y-86360000D03*
D17*
X191544888Y-86360000D03*
%TD*%
D16*
%TO.C,C1*%
X170815000Y-92710000D03*
D17*
X172815000Y-92710000D03*
%TD*%
D50*
%TO.C,RL104*%
X99060000Y-38100000D03*
X96520000Y-38100000D03*
X86360000Y-38100000D03*
X83820000Y-38100000D03*
X83820000Y-45720000D03*
X86360000Y-45720000D03*
X96520000Y-45720000D03*
X99060000Y-45720000D03*
%TD*%
D17*
%TO.C,C43*%
X143510000Y-81835000D03*
X143510000Y-76835000D03*
%TD*%
D31*
%TO.C,R36*%
X204470000Y-89177500D03*
X204470000Y-87352500D03*
%TD*%
D35*
%TO.C,U4*%
X240160000Y-90170000D03*
X240160000Y-91440000D03*
X240160000Y-92710000D03*
X240160000Y-93980000D03*
X240160000Y-95250000D03*
X240160000Y-96520000D03*
X240160000Y-97790000D03*
X245110000Y-97790000D03*
X245110000Y-96520000D03*
X245110000Y-95250000D03*
X245110000Y-93980000D03*
X245110000Y-92710000D03*
X245110000Y-91440000D03*
X245110000Y-90170000D03*
%TD*%
D27*
%TO.C,RL101*%
X59055000Y-71120000D03*
X53975000Y-71120000D03*
X51435000Y-71120000D03*
X48895000Y-71120000D03*
X48895000Y-76200000D03*
X51435000Y-76200000D03*
X53975000Y-76200000D03*
X59055000Y-76200000D03*
%TD*%
D37*
%TO.C,J40*%
X34925000Y-50165000D03*
D38*
X34925000Y-52705000D03*
X34925000Y-55245000D03*
X34925000Y-57785000D03*
X34925000Y-60325000D03*
X34925000Y-62865000D03*
%TD*%
D31*
%TO.C,R99*%
X142240000Y-87907500D03*
X142240000Y-86082500D03*
%TD*%
D12*
%TO.C,R70*%
X80645000Y-83820000D03*
X80645000Y-80020000D03*
%TD*%
D28*
%TO.C,Q18*%
X100711000Y-72390000D03*
D29*
X102235000Y-73660000D03*
X103505000Y-72390000D03*
X102235000Y-71120000D03*
%TD*%
D13*
%TO.C,R23*%
X237847500Y-45085000D03*
X239672500Y-45085000D03*
%TD*%
D44*
%TO.C,Q16*%
X60325000Y-63500000D03*
D45*
X61595000Y-62230000D03*
X62865000Y-63500000D03*
%TD*%
D13*
%TO.C,R80*%
X124182500Y-86360000D03*
X126007500Y-86360000D03*
%TD*%
D12*
%TO.C,TP303*%
X142240000Y-71120000D03*
%TD*%
D30*
%TO.C,C42*%
X151130000Y-77155000D03*
X151130000Y-79055000D03*
%TD*%
D48*
%TO.C,C16*%
X118745000Y-36510000D03*
X118745000Y-34610000D03*
%TD*%
D36*
%TO.C,C18*%
X221300000Y-70485000D03*
X223200000Y-70485000D03*
%TD*%
D35*
%TO.C,U6*%
X229300000Y-64770000D03*
X229300000Y-66040000D03*
X229300000Y-67310000D03*
X229300000Y-68580000D03*
X229300000Y-69850000D03*
X229300000Y-71120000D03*
X229300000Y-72390000D03*
X234250000Y-72390000D03*
X234250000Y-71120000D03*
X234250000Y-69850000D03*
X234250000Y-68580000D03*
X234250000Y-67310000D03*
X234250000Y-66040000D03*
X234250000Y-64770000D03*
%TD*%
D31*
%TO.C,R57*%
X194945000Y-70762500D03*
X194945000Y-68937500D03*
%TD*%
%TO.C,R45*%
X177165000Y-66444500D03*
X177165000Y-64619500D03*
%TD*%
D13*
%TO.C,R26*%
X237847500Y-48895000D03*
X239672500Y-48895000D03*
%TD*%
D48*
%TO.C,C32*%
X118110000Y-90170000D03*
X118110000Y-88270000D03*
%TD*%
D13*
%TO.C,R73*%
X103862500Y-92710000D03*
X105687500Y-92710000D03*
%TD*%
D12*
%TO.C,TP202*%
X157480000Y-56515000D03*
%TD*%
%TO.C,TP201*%
X224790000Y-78867000D03*
%TD*%
D17*
%TO.C,C46*%
X123190000Y-72470000D03*
X123190000Y-82470000D03*
%TD*%
D15*
%TO.C,R15*%
X243482500Y-52705000D03*
X241657500Y-52705000D03*
%TD*%
D28*
%TO.C,Q13*%
X142526039Y-52991039D03*
D29*
X140367039Y-51721039D03*
X139097039Y-52991039D03*
X140367039Y-54261039D03*
%TD*%
D15*
%TO.C,R59*%
X188872500Y-93980000D03*
X187047500Y-93980000D03*
%TD*%
D30*
%TO.C,C15*%
X120015000Y-46040000D03*
X120015000Y-47940000D03*
%TD*%
D15*
%TO.C,R63*%
X141247500Y-41275000D03*
X139422500Y-41275000D03*
%TD*%
D13*
%TO.C,R7*%
X252452500Y-63500000D03*
X254277500Y-63500000D03*
%TD*%
D26*
%TO.C,U5*%
X209550000Y-93410000D03*
X208280000Y-93410000D03*
X207010000Y-93410000D03*
X205740000Y-93410000D03*
X204470000Y-93410000D03*
X203200000Y-93410000D03*
X201930000Y-93410000D03*
X201930000Y-98360000D03*
X203200000Y-98360000D03*
X204470000Y-98360000D03*
X205740000Y-98360000D03*
X207010000Y-98360000D03*
X208280000Y-98360000D03*
X209550000Y-98360000D03*
%TD*%
D13*
%TO.C,R78*%
X96242500Y-90170000D03*
X98067500Y-90170000D03*
%TD*%
D31*
%TO.C,R91*%
X116840000Y-71397500D03*
X116840000Y-69572500D03*
%TD*%
D36*
%TO.C,C41*%
X158435000Y-81915000D03*
X160335000Y-81915000D03*
%TD*%
D13*
%TO.C,R16*%
X235942500Y-97155000D03*
X237767500Y-97155000D03*
%TD*%
D32*
%TO.C,Q3*%
X186055000Y-78465000D03*
D33*
X187325000Y-78465000D03*
X188595000Y-78465000D03*
%TD*%
D15*
%TO.C,R11*%
X243482500Y-45085000D03*
X241657500Y-45085000D03*
%TD*%
D31*
%TO.C,R32*%
X202565000Y-102512500D03*
X202565000Y-100687500D03*
%TD*%
%TO.C,R18*%
X241935000Y-101242500D03*
X241935000Y-99417500D03*
%TD*%
D51*
%TO.C,Q2*%
X105852000Y-42115500D03*
X103952000Y-42115500D03*
X104902000Y-43990500D03*
%TD*%
D31*
%TO.C,R85*%
X88265000Y-86002500D03*
X88265000Y-84177500D03*
%TD*%
D12*
%TO.C,TP305*%
X218440000Y-60325000D03*
%TD*%
D25*
%TO.C,R38*%
X205105000Y-39370000D03*
X205105000Y-43180000D03*
%TD*%
D31*
%TO.C,R33*%
X212090000Y-89177500D03*
X212090000Y-87352500D03*
%TD*%
%TO.C,R30*%
X210185000Y-89177500D03*
X210185000Y-87352500D03*
%TD*%
D52*
%TO.C,U1*%
X221465000Y-43180000D03*
X221465000Y-44450000D03*
X221465000Y-45720000D03*
X221465000Y-46990000D03*
X221465000Y-48260000D03*
X221465000Y-49530000D03*
X221465000Y-50800000D03*
X221465000Y-52070000D03*
X227965000Y-52070000D03*
X227965000Y-50800000D03*
X227965000Y-49530000D03*
X227965000Y-48260000D03*
X227965000Y-46990000D03*
X227965000Y-45720000D03*
X227965000Y-44450000D03*
X227965000Y-43180000D03*
%TD*%
D16*
%TO.C,C7*%
X95564888Y-55245000D03*
D17*
X97564888Y-55245000D03*
%TD*%
D35*
%TO.C,U2*%
X210315000Y-43180000D03*
X210315000Y-44450000D03*
X210315000Y-45720000D03*
X210315000Y-46990000D03*
X210315000Y-48260000D03*
X210315000Y-49530000D03*
X210315000Y-50800000D03*
X210315000Y-52070000D03*
X215265000Y-52070000D03*
X215265000Y-50800000D03*
X215265000Y-49530000D03*
X215265000Y-48260000D03*
X215265000Y-46990000D03*
X215265000Y-45720000D03*
X215265000Y-44450000D03*
X215265000Y-43180000D03*
%TD*%
D13*
%TO.C,R6*%
X252452500Y-66040000D03*
X254277500Y-66040000D03*
%TD*%
D15*
%TO.C,R61*%
X151939000Y-51435000D03*
X150114000Y-51435000D03*
%TD*%
D13*
%TO.C,R17*%
X235942500Y-95250000D03*
X237767500Y-95250000D03*
%TD*%
%TO.C,R44*%
X178792500Y-86360000D03*
X180617500Y-86360000D03*
%TD*%
D31*
%TO.C,R64*%
X129540000Y-59332500D03*
X129540000Y-57507500D03*
%TD*%
D36*
%TO.C,C31*%
X225110000Y-64389000D03*
X227010000Y-64389000D03*
%TD*%
D31*
%TO.C,R97*%
X121920000Y-51355000D03*
X121920000Y-49530000D03*
%TD*%
D15*
%TO.C,R96*%
X121205000Y-62865000D03*
X119380000Y-62865000D03*
%TD*%
D37*
%TO.C,J42*%
X34945000Y-80010000D03*
D38*
X34945000Y-82550000D03*
X34945000Y-85090000D03*
X34945000Y-87630000D03*
%TD*%
D17*
%TO.C,C44*%
X134620000Y-76875000D03*
X134620000Y-81875000D03*
%TD*%
D27*
%TO.C,RL103*%
X59615000Y-39114785D03*
X54535000Y-39114785D03*
X51995000Y-39114785D03*
X49455000Y-39114785D03*
X49455000Y-44194785D03*
X51995000Y-44194785D03*
X54535000Y-44194785D03*
X59615000Y-44194785D03*
%TD*%
D15*
%TO.C,R28*%
X232052500Y-43180000D03*
X230227500Y-43180000D03*
%TD*%
D36*
%TO.C,C12*%
X211140000Y-94615000D03*
X213040000Y-94615000D03*
%TD*%
D12*
%TO.C,TP302*%
X202565000Y-66675000D03*
%TD*%
D53*
%TO.C,M101*%
X122555000Y-38800000D03*
X121285000Y-38800000D03*
X120015000Y-38800000D03*
X118745000Y-38800000D03*
X117475000Y-38800000D03*
X116205000Y-38800000D03*
X114935000Y-38800000D03*
X113665000Y-38800000D03*
X113665000Y-43750000D03*
X114935000Y-43750000D03*
X116205000Y-43750000D03*
X117475000Y-43750000D03*
X118745000Y-43750000D03*
X120015000Y-43750000D03*
X121285000Y-43750000D03*
X122555000Y-43750000D03*
%TD*%
D13*
%TO.C,R51*%
X238482500Y-60960000D03*
X240307500Y-60960000D03*
%TD*%
D44*
%TO.C,Q10*%
X151257000Y-48768000D03*
D45*
X149987000Y-46990000D03*
X151257000Y-45085000D03*
%TD*%
D54*
%TO.C,D15*%
X124206000Y-53114000D03*
X124206000Y-56614000D03*
%TD*%
D13*
%TO.C,R27*%
X237847500Y-52705000D03*
X239672500Y-52705000D03*
%TD*%
D34*
%TO.C,C30*%
X233995000Y-62865000D03*
X232095000Y-62865000D03*
%TD*%
D12*
%TO.C,TP301*%
X257175000Y-77470000D03*
%TD*%
D15*
%TO.C,R13*%
X243482500Y-48895000D03*
X241657500Y-48895000D03*
%TD*%
D17*
%TO.C,C38*%
X88940000Y-100965000D03*
X93940000Y-100965000D03*
%TD*%
D28*
%TO.C,Q7*%
X154083039Y-55531039D03*
D29*
X151924039Y-54261039D03*
X150654039Y-55531039D03*
X151924039Y-56801039D03*
%TD*%
D13*
%TO.C,R8*%
X252452500Y-60960000D03*
X254277500Y-60960000D03*
%TD*%
%TO.C,R90*%
X111482500Y-62865000D03*
X113307500Y-62865000D03*
%TD*%
D34*
%TO.C,C49*%
X148590000Y-95758000D03*
X146690000Y-95758000D03*
%TD*%
D15*
%TO.C,R4*%
X258087500Y-63500000D03*
X256262500Y-63500000D03*
%TD*%
D55*
%TO.C,RL201*%
X190930000Y-39370000D03*
D29*
X190930000Y-41910000D03*
X190930000Y-52070000D03*
X190930000Y-54610000D03*
X199390000Y-54610000D03*
X199390000Y-52070000D03*
X199390000Y-41910000D03*
X199390000Y-39370000D03*
%TD*%
D18*
%TO.C,Q4*%
X120375000Y-99060000D03*
D19*
X120375000Y-97790000D03*
X120375000Y-96520000D03*
%TD*%
D13*
%TO.C,R103*%
X146765000Y-101600000D03*
X148590000Y-101600000D03*
%TD*%
D56*
%TO.C,RL102*%
X82550000Y-91440000D03*
D57*
X77470000Y-91440000D03*
X72390000Y-91440000D03*
X67310000Y-91440000D03*
X62230000Y-91440000D03*
X57150000Y-91440000D03*
X57150000Y-99060000D03*
X62230000Y-99060000D03*
X67310000Y-99060000D03*
X72390000Y-99060000D03*
X77470000Y-99060000D03*
X82550000Y-99060000D03*
%TD*%
D43*
%TO.C,R31*%
X204470000Y-100687500D03*
X204470000Y-102512500D03*
%TD*%
D13*
%TO.C,R60*%
X173331500Y-53086000D03*
X175156500Y-53086000D03*
%TD*%
D15*
%TO.C,R5*%
X254277500Y-76200000D03*
X252452500Y-76200000D03*
%TD*%
D28*
%TO.C,Q17*%
X110039724Y-58420000D03*
D29*
X111309724Y-59690000D03*
X112579724Y-58420000D03*
X111309724Y-57150000D03*
%TD*%
D17*
%TO.C,C47*%
X108585000Y-66755000D03*
X108585000Y-71755000D03*
%TD*%
D15*
%TO.C,R79*%
X126007500Y-88265000D03*
X124182500Y-88265000D03*
%TD*%
D12*
%TO.C,TP102*%
X177165000Y-90805000D03*
%TD*%
D25*
%TO.C,R3*%
X205105000Y-51435000D03*
X205105000Y-55245000D03*
%TD*%
D17*
%TO.C,C25*%
X189190000Y-73025000D03*
X184190000Y-73025000D03*
%TD*%
D43*
%TO.C,R92*%
X115570000Y-51157500D03*
X115570000Y-52982500D03*
%TD*%
D36*
%TO.C,C17*%
X221300000Y-73025000D03*
X223200000Y-73025000D03*
%TD*%
D18*
%TO.C,D21*%
X159745000Y-95885000D03*
D19*
X159745000Y-93345000D03*
%TD*%
D15*
%TO.C,R10*%
X243482500Y-43180000D03*
X241657500Y-43180000D03*
%TD*%
D25*
%TO.C,R2*%
X198120000Y-64770000D03*
X198120000Y-60960000D03*
%TD*%
D58*
%TO.C,D6*%
X106525000Y-40005000D03*
X103025000Y-40005000D03*
%TD*%
D59*
%TO.C,D1*%
X180467000Y-59662000D03*
X180467000Y-56162000D03*
%TD*%
D60*
%TO.C,U7*%
X250190000Y-81280000D03*
D61*
X250190000Y-78740000D03*
X250190000Y-76200000D03*
X250190000Y-73660000D03*
X250190000Y-71120000D03*
X250190000Y-68580000D03*
X250190000Y-66040000D03*
X250190000Y-63500000D03*
X250190000Y-60960000D03*
X242570000Y-60960000D03*
X242570000Y-63500000D03*
X242570000Y-66040000D03*
X242570000Y-68580000D03*
X242570000Y-71120000D03*
X242570000Y-73660000D03*
X242570000Y-76200000D03*
X242570000Y-78740000D03*
X242570000Y-81280000D03*
%TD*%
D17*
%TO.C,R9*%
X158115000Y-45725000D03*
X158115000Y-50805000D03*
%TD*%
%TO.C,C27*%
X229235000Y-90845000D03*
X229235000Y-95845000D03*
%TD*%
D31*
%TO.C,R52*%
X243840000Y-101242500D03*
X243840000Y-99417500D03*
%TD*%
D43*
%TO.C,R101*%
X146685000Y-87987500D03*
X146685000Y-89812500D03*
%TD*%
D29*
%TO.C,VR1*%
X130810000Y-65405000D03*
X128270000Y-65405000D03*
X125730000Y-65405000D03*
%TD*%
D13*
%TO.C,R72*%
X103862500Y-90170000D03*
X105687500Y-90170000D03*
%TD*%
D17*
%TO.C,C26*%
X177125000Y-69850000D03*
X172125000Y-69850000D03*
%TD*%
D12*
%TO.C,TP101*%
X78740000Y-36830000D03*
%TD*%
D62*
%TO.C,C4*%
X184785000Y-83820000D03*
D17*
X184785000Y-85820000D03*
%TD*%
D63*
%TO.C,Q22*%
X117795000Y-53075000D03*
X119695000Y-53075000D03*
X118745000Y-50800000D03*
%TD*%
D15*
%TO.C,R14*%
X243482500Y-50800000D03*
X241657500Y-50800000D03*
%TD*%
%TO.C,R68*%
X72310000Y-86995000D03*
X70485000Y-86995000D03*
%TD*%
D47*
%TO.C,D17*%
X138290000Y-90170000D03*
X133490000Y-90170000D03*
%TD*%
D13*
%TO.C,R75*%
X114022500Y-101600000D03*
X115847500Y-101600000D03*
%TD*%
D64*
%TO.C,Q14*%
X87814724Y-58997276D03*
D29*
X89084724Y-56965276D03*
X87814724Y-55695276D03*
X86544724Y-56965276D03*
%TD*%
D13*
%TO.C,R58*%
X187047500Y-95885000D03*
X188872500Y-95885000D03*
%TD*%
D34*
%TO.C,C50*%
X138303000Y-87503000D03*
X136403000Y-87503000D03*
%TD*%
D13*
%TO.C,R25*%
X237847500Y-46990000D03*
X239672500Y-46990000D03*
%TD*%
D34*
%TO.C,C11*%
X214945000Y-41275000D03*
X213045000Y-41275000D03*
%TD*%
D36*
%TO.C,C34*%
X178755000Y-83820000D03*
X180655000Y-83820000D03*
%TD*%
D12*
%TO.C,TH2*%
X43815000Y-81340000D03*
X43815000Y-88840000D03*
%TD*%
D43*
%TO.C,R95*%
X120904000Y-65127500D03*
X120904000Y-66952500D03*
%TD*%
D12*
%TO.C,R69*%
X80645000Y-71755000D03*
X80645000Y-67955000D03*
%TD*%
D43*
%TO.C,R67*%
X83185000Y-55602500D03*
X83185000Y-57427500D03*
%TD*%
D13*
%TO.C,R94*%
X117197500Y-64770000D03*
X119022500Y-64770000D03*
%TD*%
%TO.C,R19*%
X237847500Y-43180000D03*
X239672500Y-43180000D03*
%TD*%
D15*
%TO.C,R29*%
X232052500Y-45720000D03*
X230227500Y-45720000D03*
%TD*%
D12*
%TO.C,TH4*%
X43875000Y-62865000D03*
X51375000Y-62865000D03*
%TD*%
D42*
%TO.C,R66*%
X65405000Y-50800000D03*
X45085000Y-50800000D03*
%TD*%
D47*
%TO.C,D16*%
X148450000Y-98425000D03*
X143650000Y-98425000D03*
%TD*%
D17*
%TO.C,C48*%
X113030000Y-66715000D03*
X113030000Y-71715000D03*
%TD*%
D15*
%TO.C,R21*%
X270787500Y-42545000D03*
X268962500Y-42545000D03*
%TD*%
D31*
%TO.C,R93*%
X103505000Y-67587500D03*
X103505000Y-65762500D03*
%TD*%
D43*
%TO.C,R55*%
X232410000Y-74017500D03*
X232410000Y-75842500D03*
%TD*%
D26*
%TO.C,U9*%
X156845000Y-76965000D03*
X155575000Y-76965000D03*
X154305000Y-76965000D03*
X153035000Y-76965000D03*
X153035000Y-81915000D03*
X154305000Y-81915000D03*
X155575000Y-81915000D03*
X156845000Y-81915000D03*
%TD*%
D31*
%TO.C,R84*%
X87630000Y-73025000D03*
X87630000Y-71200000D03*
%TD*%
D17*
%TO.C,C39*%
X98505000Y-100965000D03*
X103505000Y-100965000D03*
%TD*%
D43*
%TO.C,R56*%
X194945000Y-72747500D03*
X194945000Y-74572500D03*
%TD*%
D28*
%TO.C,Q21*%
X117475000Y-58420000D03*
D29*
X118745000Y-59690000D03*
X120015000Y-58420000D03*
X118745000Y-57150000D03*
%TD*%
D28*
%TO.C,Q8*%
X176980276Y-57219276D03*
D29*
X175710276Y-55949276D03*
X174440276Y-57219276D03*
X175710276Y-58489276D03*
%TD*%
D65*
%TO.C,D3*%
X260740000Y-50800000D03*
X265040000Y-50800000D03*
%TD*%
D13*
%TO.C,R98*%
X115292500Y-62865000D03*
X117117500Y-62865000D03*
%TD*%
D44*
%TO.C,Q11*%
X146431000Y-48768000D03*
D45*
X145161000Y-46990000D03*
X146431000Y-45085000D03*
%TD*%
D43*
%TO.C,R100*%
X146685000Y-91520000D03*
X146685000Y-93345000D03*
%TD*%
D63*
%TO.C,Q1*%
X268925000Y-40507500D03*
X270825000Y-40507500D03*
X269875000Y-38232500D03*
%TD*%
D66*
%TO.C,J53*%
X262890000Y-59055000D03*
D67*
X265430000Y-59055000D03*
X262890000Y-61595000D03*
X265430000Y-61595000D03*
X262890000Y-64135000D03*
X265430000Y-64135000D03*
X262890000Y-66675000D03*
X265430000Y-66675000D03*
X262890000Y-69215000D03*
X265430000Y-69215000D03*
X262890000Y-71755000D03*
X265430000Y-71755000D03*
X262890000Y-74295000D03*
X265430000Y-74295000D03*
X262890000Y-76835000D03*
X265430000Y-76835000D03*
%TD*%
D59*
%TO.C,D2*%
X92075000Y-58265000D03*
X92075000Y-54765000D03*
%TD*%
D31*
%TO.C,R82*%
X140970000Y-80287500D03*
X140970000Y-78462500D03*
%TD*%
D43*
%TO.C,R102*%
X141605000Y-97512500D03*
X141605000Y-99337500D03*
%TD*%
D15*
%TO.C,R54*%
X226972500Y-66421000D03*
X225147500Y-66421000D03*
%TD*%
D14*
%TO.C,D9*%
X191770000Y-98920000D03*
X191770000Y-94120000D03*
%TD*%
D43*
%TO.C,R49*%
X229235000Y-98147500D03*
X229235000Y-99972500D03*
%TD*%
D34*
%TO.C,C10*%
X244790000Y-88265000D03*
X242890000Y-88265000D03*
%TD*%
D31*
%TO.C,R81*%
X137160000Y-80287500D03*
X137160000Y-78462500D03*
%TD*%
D16*
%TO.C,C6*%
X139379888Y-66040000D03*
D17*
X141379888Y-66040000D03*
%TD*%
D25*
%TO.C,R41*%
X170180000Y-44450000D03*
X170180000Y-48260000D03*
%TD*%
M02*
