M48
; DRILL file {KiCad 9.0.8} date 2026-03-24T18:17:12+0100
; FORMAT={-:-/ absolute / metric / decimal}
; #@! TF.CreationDate,2026-03-24T18:17:12+01:00
; #@! TF.GenerationSoftware,Kicad,Pcbnew,9.0.8
; #@! TF.FileFunction,Plated,1,2,PTH
FMAT,2
METRIC
; #@! TA.AperFunction,Plated,PTH,ViaDrill
T1C0.300
; #@! TA.AperFunction,Plated,PTH,ViaDrill
T2C0.381
; #@! TA.AperFunction,Plated,PTH,ComponentDrill
T3C0.600
; #@! TA.AperFunction,Plated,PTH,ViaDrill
T4C0.635
; #@! TA.AperFunction,Plated,PTH,ComponentDrill
T5C0.700
; #@! TA.AperFunction,Plated,PTH,ComponentDrill
T6C0.720
; #@! TA.AperFunction,Plated,PTH,ComponentDrill
T7C0.733
; #@! TA.AperFunction,Plated,PTH,ComponentDrill
T8C0.740
; #@! TA.AperFunction,Plated,PTH,ComponentDrill
T9C0.750
; #@! TA.AperFunction,Plated,PTH,ComponentDrill
T10C0.770
; #@! TA.AperFunction,Plated,PTH,ComponentDrill
T11C0.787
; #@! TA.AperFunction,Plated,PTH,ComponentDrill
T12C0.800
; #@! TA.AperFunction,Plated,PTH,ComponentDrill
T13C0.840
; #@! TA.AperFunction,Plated,PTH,ComponentDrill
T14C1.000
; #@! TA.AperFunction,Plated,PTH,ComponentDrill
T15C1.100
; #@! TA.AperFunction,Plated,PTH,ComponentDrill
T16C1.200
; #@! TA.AperFunction,Plated,PTH,ComponentDrill
T17C1.300
%
G90
G05
T1
X270.51Y-46.99
T2
X58.369Y-63.525
X61.849Y-73.406
X63.424Y-55.601
X64.414Y-44.195
X70.333Y-43.307
X72.898Y-68.58
X72.974Y-76.987
X73.914Y-82.682
X73.914Y-85.671
X73.939Y-67.691
X76.53Y-39.141
X78.156Y-87.046
X80.645Y-66.04
X80.645Y-69.901
X81.026Y-36.83
X81.61Y-38.151
X81.686Y-45.72
X82.35Y-62.484
X83.185Y-63.5
X89.51Y-59.538
X89.51Y-82.042
X89.916Y-53.467
X89.941Y-58.344
X90.703Y-100.99
X93.091Y-67.691
X94.361Y-84.201
X95.885Y-67.437
X96.749Y-101.016
X98.933Y-84.455
X99.416Y-50.19
X101.067Y-39.091
X102.565Y-76.352
X103.378Y-62.484
X103.505Y-59.944
X103.505Y-63.808
X103.505Y-65.763
X104.521Y-34.417
X104.902Y-43.942
X106.322Y-34.417
X106.68Y-45.72
X107.188Y-50.868
X107.188Y-54.483
X108.966Y-55.88
X109.287Y-46.295
X109.982Y-86.36
X110.011Y-59.63
X110.287Y-68.555
X110.795Y-91.415
X110.807Y-79.947
X110.871Y-81.026
X111.506Y-55.85
X111.887Y-103.759
X112.395Y-39.624
X113.665Y-43.75
X114.022Y-101.6
X115.189Y-41.402
X115.57Y-52.982
X115.697Y-65.024
X116.205Y-38.8
X116.84Y-69.572
X116.96Y-50.531
X117.197Y-64.77
X117.348Y-102.743
X117.475Y-38.8
X117.475Y-47.94
X118.11Y-90.17
X119.888Y-47.94
X120.015Y-38.8
X120.051Y-36.274
X120.269Y-37.211
X120.523Y-71.882
X120.523Y-90.043
X122.047Y-46.228
X123.063Y-58.166
X124.714Y-61.793
X124.935Y-36.99
X125.73Y-39.961
X127.0Y-46.228
X129.159Y-87.376
X129.54Y-47.879
X129.54Y-61.793
X130.367Y-35.841
X130.795Y-88.9
X131.191Y-35.306
X133.49Y-90.17
X134.366Y-50.546
X134.493Y-56.769
X136.017Y-60.452
X136.248Y-69.85
X136.403Y-87.503
X137.287Y-54.991
X138.176Y-57.604
X138.303Y-59.055
X138.557Y-51.435
X139.446Y-45.212
X140.97Y-84.328
X143.002Y-43.688
X143.51Y-51.43
X143.945Y-59.617
X144.272Y-80.137
X146.558Y-59.563
X146.685Y-87.987
X146.812Y-74.295
X148.45Y-98.425
X148.59Y-95.758
X149.606Y-77.089
X152.019Y-61.793
X152.019Y-102.87
X153.733Y-78.422
X154.14Y-53.899
X155.13Y-79.819
X158.298Y-65.984
X158.496Y-78.867
X158.496Y-80.591
X160.401Y-73.66
X165.608Y-67.31
X166.15Y-89.12
X167.513Y-59.182
X168.595Y-73.66
X169.646Y-75.331
X170.356Y-83.234
X170.495Y-73.66
X171.704Y-40.106
X172.212Y-94.361
X172.905Y-36.412
X174.106Y-36.184
X174.31Y-45.085
X175.133Y-34.628
X175.514Y-39.116
X175.641Y-74.93
X176.022Y-50.673
X176.276Y-45.085
X177.546Y-51.054
X178.5Y-50.165
X178.714Y-69.19
X178.838Y-39.9
X178.88Y-37.783
X178.954Y-38.746
X180.467Y-56.162
X180.467Y-66.04
X180.617Y-86.36
X180.655Y-83.82
X181.991Y-82.64
X183.45Y-42.545
X183.45Y-50.165
X183.515Y-45.085
X183.896Y-67.564
X184.658Y-51.181
X184.658Y-60.706
X185.674Y-82.423
X186.055Y-41.275
X186.111Y-37.095
X186.563Y-89.662
X187.047Y-93.98
X187.047Y-95.885
X187.198Y-90.551
X187.64Y-43.815
X187.833Y-91.313
X187.96Y-39.37
X192.329Y-53.442
X192.405Y-101.423
X193.04Y-78.486
X194.818Y-50.927
X194.945Y-68.938
X197.485Y-43.18
X197.866Y-86.233
X197.866Y-89.535
X199.492Y-100.66
X200.543Y-98.298
X201.295Y-48.768
X203.2Y-98.36
X203.835Y-74.422
X204.47Y-89.177
X204.47Y-98.36
X204.47Y-102.512
X205.867Y-76.2
X205.994Y-48.768
X206.977Y-102.583
X207.01Y-100.65
X207.391Y-40.513
X208.28Y-41.402
X208.28Y-89.177
X208.661Y-46.99
X208.661Y-67.715
X208.737Y-81.28
X209.296Y-100.584
X209.801Y-36.103
X209.9Y-71.785
X210.185Y-89.177
X210.315Y-43.18
X210.315Y-44.45
X210.315Y-45.72
X210.315Y-48.26
X210.315Y-49.53
X210.693Y-40.44
X210.693Y-41.402
X211.034Y-36.077
X211.14Y-94.615
X211.455Y-84.709
X211.799Y-83.022
X211.836Y-36.609
X211.836Y-39.605
X212.09Y-87.352
X212.09Y-89.177
X213.04Y-94.615
X213.045Y-41.275
X213.106Y-51.689
X213.721Y-47.977
X214.978Y-41.308
X215.265Y-49.53
X216.154Y-69.215
X217.043Y-70.866
X217.043Y-74.803
X218.469Y-38.258
X218.567Y-51.689
X219.01Y-67.945
X219.01Y-69.215
X219.01Y-74.295
X220.98Y-93.726
X221.465Y-48.26
X221.615Y-39.093
X224.218Y-49.628
X224.917Y-47.879
X226.314Y-41.403
X227.965Y-41.656
X228.927Y-41.656
X229.3Y-69.85
X229.3Y-72.39
X230.378Y-39.878
X230.505Y-48.006
X230.505Y-49.911
X231.775Y-67.945
X232.029Y-41.529
X232.029Y-51.816
X232.401Y-69.948
X233.934Y-41.91
X233.934Y-48.006
X234.188Y-56.515
X234.25Y-64.77
X234.315Y-72.39
X234.431Y-102.5
X234.569Y-49.784
X235.077Y-41.91
X235.439Y-102.508
X236.955Y-85.925
X237.236Y-82.583
X237.71Y-86.521
X237.847Y-43.18
X237.847Y-45.085
X237.847Y-46.99
X237.847Y-48.895
X237.847Y-52.705
X238.482Y-60.96
X238.76Y-83.366
X239.429Y-84.802
X240.16Y-90.17
X240.16Y-92.71
X240.16Y-101.092
X241.657Y-43.18
X241.657Y-45.085
X241.657Y-46.99
X241.657Y-48.895
X241.657Y-50.8
X241.657Y-52.705
X241.681Y-88.265
X241.935Y-101.242
X242.57Y-94.615
X243.332Y-91.567
X243.84Y-101.242
X245.028Y-43.617
X245.11Y-95.25
X245.11Y-97.79
X248.031Y-97.917
X248.383Y-52.705
X248.793Y-91.494
X249.301Y-46.99
X249.301Y-54.356
X249.936Y-88.138
X254.277Y-78.74
X254.315Y-74.168
X254.508Y-88.138
X255.27Y-59.055
X256.262Y-63.5
X257.937Y-66.04
X258.889Y-101.155
X258.953Y-102.743
X259.461Y-42.98
X259.461Y-67.945
X259.715Y-103.378
X262.636Y-88.138
X265.04Y-50.8
X265.811Y-97.282
X266.954Y-90.805
X266.954Y-93.98
X267.02Y-87.63
X267.081Y-46.99
X268.92Y-87.63
X270.787Y-42.545
X271.907Y-85.598
T3
X87.835Y-78.74
X88.335Y-76.94
X88.335Y-80.54
X90.735Y-76.94
X90.735Y-80.54
X91.235Y-78.74
T4
X78.613Y-54.61
X96.066Y-61.214
X138.072Y-69.85
X144.018Y-64.77
X196.85Y-81.28
X207.608Y-84.708
X232.811Y-81.28
X242.062Y-56.515
X249.301Y-56.515
X259.769Y-74.422
X259.769Y-86.741
X260.74Y-50.8
X265.43Y-79.756
X265.525Y-43.815
X268.806Y-72.845
T5
X86.545Y-56.965
X87.815Y-55.695
X87.815Y-58.997
X89.085Y-56.965
X100.711Y-72.39
X100.965Y-79.375
X102.235Y-71.12
X102.235Y-73.66
X102.235Y-78.105
X102.235Y-80.645
X103.505Y-72.39
X103.505Y-79.375
X110.04Y-58.42
X111.31Y-57.15
X111.31Y-59.69
X112.58Y-58.42
X117.475Y-58.42
X118.745Y-57.15
X118.745Y-59.69
X120.015Y-58.42
X139.097Y-52.991
X140.367Y-51.721
X140.367Y-54.261
X142.526Y-52.991
X150.654Y-55.531
X151.924Y-54.261
X151.924Y-56.801
X154.083Y-55.531
X174.44Y-57.219
X175.71Y-55.949
X175.71Y-58.489
X176.98Y-57.219
T6
X190.93Y-39.37
X190.93Y-41.91
X190.93Y-52.07
X190.93Y-54.61
X199.39Y-39.37
X199.39Y-41.91
X199.39Y-52.07
X199.39Y-54.61
T7
X173.355Y-73.501
X173.355Y-81.439
X175.895Y-73.501
X175.895Y-81.439
X178.435Y-73.501
X178.435Y-81.439
X180.975Y-73.501
X180.975Y-81.439
T8
X125.73Y-65.405
X128.27Y-65.405
X130.81Y-65.405
T9
X60.325Y-57.51
X60.325Y-63.5
X61.595Y-56.24
X61.595Y-62.23
X62.865Y-57.51
X62.865Y-63.5
X95.885Y-73.66
X95.885Y-76.2
X102.235Y-53.065
X103.505Y-53.065
X104.775Y-53.065
X110.49Y-52.705
X111.76Y-52.705
X113.03Y-52.705
X120.375Y-96.52
X120.375Y-97.79
X120.375Y-99.06
X140.335Y-46.99
X141.605Y-45.085
X141.605Y-48.768
X145.161Y-46.99
X145.415Y-53.34
X146.431Y-45.085
X146.431Y-48.768
X146.685Y-52.07
X146.685Y-54.61
X149.987Y-46.99
X151.257Y-45.085
X151.257Y-48.768
X153.395Y-97.79
X153.395Y-99.06
X153.395Y-100.33
X159.745Y-93.345
X159.745Y-95.885
X186.055Y-78.465
X187.325Y-78.465
X188.595Y-78.465
T10
X83.82Y-38.1
X83.82Y-45.72
X86.36Y-38.1
X86.36Y-45.72
X96.52Y-38.1
X96.52Y-45.72
X99.06Y-38.1
X99.06Y-45.72
T11
X107.632Y-82.55
X107.632Y-85.09
X107.632Y-87.63
X107.632Y-90.17
X107.632Y-92.71
X107.632Y-95.25
X107.632Y-97.79
X115.887Y-82.55
X115.887Y-85.09
X115.887Y-87.63
X115.887Y-90.17
X115.887Y-92.71
X115.887Y-95.25
X115.887Y-97.79
T12
X88.94Y-100.965
X93.94Y-100.965
X95.565Y-55.245
X97.565Y-55.245
X98.505Y-100.965
X103.505Y-100.965
X108.585Y-66.755
X108.585Y-71.755
X108.665Y-74.93
X108.665Y-78.105
X113.03Y-66.715
X113.03Y-71.715
X113.665Y-74.93
X113.665Y-78.105
X121.285Y-88.305
X121.285Y-93.305
X123.19Y-72.47
X123.19Y-82.47
X129.54Y-72.39
X129.54Y-82.39
X134.3Y-47.625
X134.62Y-76.875
X134.62Y-81.875
X136.3Y-47.625
X139.38Y-66.04
X141.38Y-66.04
X143.51Y-76.835
X143.51Y-81.835
X158.115Y-45.725
X158.115Y-50.805
X170.815Y-92.71
X172.125Y-69.85
X172.815Y-92.71
X177.125Y-69.85
X181.015Y-69.85
X184.19Y-73.025
X184.785Y-83.82
X184.785Y-85.82
X186.015Y-69.85
X189.19Y-73.025
X189.545Y-86.36
X191.545Y-86.36
X203.835Y-71.16
X203.835Y-76.16
X206.69Y-62.23
X208.69Y-62.23
X220.98Y-90.845
X220.98Y-95.845
X229.235Y-90.845
X229.235Y-95.845
X242.57Y-60.96
X242.57Y-63.5
X242.57Y-66.04
X242.57Y-68.58
X242.57Y-71.12
X242.57Y-73.66
X242.57Y-76.2
X242.57Y-78.74
X242.57Y-81.28
X250.19Y-60.96
X250.19Y-63.5
X250.19Y-66.04
X250.19Y-68.58
X250.19Y-71.12
X250.19Y-73.66
X250.19Y-76.2
X250.19Y-78.74
X250.19Y-81.28
T13
X163.83Y-44.45
X163.83Y-67.31
X170.18Y-44.45
X170.18Y-48.26
X170.18Y-54.229
X170.18Y-58.039
X193.04Y-60.96
X193.04Y-64.77
X198.12Y-60.96
X198.12Y-64.77
X205.105Y-39.37
X205.105Y-43.18
X205.105Y-51.435
X205.105Y-55.245
T14
X43.815Y-81.34
X43.815Y-88.84
X43.875Y-62.865
X48.895Y-71.12
X48.895Y-76.2
X49.455Y-39.115
X49.455Y-44.195
X51.375Y-62.865
X51.435Y-71.12
X51.435Y-76.2
X51.435Y-81.28
X51.435Y-88.78
X51.995Y-39.115
X51.995Y-44.195
X53.975Y-71.12
X53.975Y-76.2
X54.535Y-39.115
X54.535Y-44.195
X59.055Y-71.12
X59.055Y-76.2
X59.615Y-39.115
X59.615Y-44.195
X66.735Y-41.275
X70.485Y-64.77
X70.485Y-69.85
X70.485Y-72.39
X70.485Y-74.93
X73.66Y-59.69
X74.235Y-41.275
X75.565Y-64.77
X75.565Y-69.85
X75.565Y-72.39
X75.565Y-74.93
X78.74Y-36.83
X80.645Y-67.955
X80.645Y-71.755
X80.645Y-80.02
X80.645Y-83.82
X142.24Y-71.12
X157.48Y-56.515
X169.545Y-77.47
X177.165Y-90.805
X202.565Y-66.675
X218.44Y-60.325
X224.79Y-78.867
X252.73Y-85.09
X257.175Y-77.47
X262.89Y-59.055
X262.89Y-61.595
X262.89Y-64.135
X262.89Y-66.675
X262.89Y-69.215
X262.89Y-71.755
X262.89Y-74.295
X262.89Y-76.835
X265.43Y-59.055
X265.43Y-61.595
X265.43Y-64.135
X265.43Y-66.675
X265.43Y-69.215
X265.43Y-71.755
X265.43Y-74.295
X265.43Y-76.835
T15
X34.925Y-50.165
X34.925Y-52.705
X34.925Y-55.245
X34.925Y-57.785
X34.925Y-60.325
X34.925Y-62.865
X34.925Y-67.945
X34.925Y-70.485
X34.925Y-73.025
X34.945Y-80.01
X34.945Y-82.55
X34.945Y-85.09
X34.945Y-87.63
X154.94Y-86.36
X165.1Y-86.36
T16
X45.085Y-50.8
X65.405Y-50.8
X84.455Y-50.165
X97.155Y-50.165
X168.91Y-97.79
X168.91Y-102.235
X181.61Y-97.79
X181.61Y-102.235
T17
X57.15Y-91.44
X57.15Y-99.06
X62.23Y-91.44
X62.23Y-99.06
X67.31Y-91.44
X67.31Y-99.06
X72.39Y-91.44
X72.39Y-99.06
X77.47Y-91.44
X77.47Y-99.06
X82.55Y-91.44
X82.55Y-99.06
M30
