%TF.GenerationSoftware,KiCad,Pcbnew,9.0.8*%
%TF.CreationDate,2026-03-24T18:17:10+01:00*%
%TF.ProjectId,Datron 1281 Widerstand Option,44617472-6f6e-4203-9132-383120576964,1*%
%TF.SameCoordinates,Original*%
%TF.FileFunction,Soldermask,Bot*%
%TF.FilePolarity,Negative*%
%FSLAX46Y46*%
G04 Gerber Fmt 4.6, Leading zero omitted, Abs format (unit mm)*
G04 Created by KiCad (PCBNEW 9.0.8) date 2026-03-24 18:17:10*
%MOMM*%
%LPD*%
G01*
G04 APERTURE LIST*
G04 Aperture macros list*
%AMRoundRect*
0 Rectangle with rounded corners*
0 $1 Rounding radius*
0 $2 $3 $4 $5 $6 $7 $8 $9 X,Y pos of 4 corners*
0 Add a 4 corners polygon primitive as box body*
4,1,4,$2,$3,$4,$5,$6,$7,$8,$9,$2,$3,0*
0 Add four circle primitives for the rounded corners*
1,1,$1+$1,$2,$3*
1,1,$1+$1,$4,$5*
1,1,$1+$1,$6,$7*
1,1,$1+$1,$8,$9*
0 Add four rect primitives between the rounded corners*
20,1,$1+$1,$2,$3,$4,$5,0*
20,1,$1+$1,$4,$5,$6,$7,0*
20,1,$1+$1,$6,$7,$8,$9,0*
20,1,$1+$1,$8,$9,$2,$3,0*%
G04 Aperture macros list end*
%ADD10C,0.100000*%
%ADD11C,2.000000*%
%ADD12RoundRect,0.250000X-0.550000X-0.550000X0.550000X-0.550000X0.550000X0.550000X-0.550000X0.550000X0*%
%ADD13C,1.600000*%
%ADD14R,1.500000X1.050000*%
%ADD15O,1.500000X1.050000*%
%ADD16R,1.133000X1.133000*%
%ADD17C,1.133000*%
%ADD18RoundRect,0.249999X-0.850001X-0.850001X0.850001X-0.850001X0.850001X0.850001X-0.850001X0.850001X0*%
%ADD19C,2.200000*%
%ADD20C,1.365000*%
%ADD21C,1.550000*%
%ADD22O,1.600000X1.200000*%
%ADD23C,1.200000*%
%ADD24R,1.050000X1.500000*%
%ADD25O,1.050000X1.500000*%
%ADD26R,1.650000X1.650000*%
%ADD27C,1.650000*%
%ADD28R,1.295400X1.295400*%
%ADD29C,1.295400*%
%ADD30RoundRect,0.250001X-0.949999X-0.949999X0.949999X-0.949999X0.949999X0.949999X-0.949999X0.949999X0*%
%ADD31C,2.400000*%
%ADD32R,1.300000X1.300000*%
%ADD33C,1.300000*%
%ADD34O,2.000000X1.400000*%
%ADD35R,1.200000X1.200000*%
%ADD36R,1.950000X1.950000*%
%ADD37C,1.950000*%
%ADD38RoundRect,0.250000X0.950000X0.550000X-0.950000X0.550000X-0.950000X-0.550000X0.950000X-0.550000X0*%
%ADD39O,2.400000X1.600000*%
%ADD40RoundRect,0.250000X-0.550000X0.550000X-0.550000X-0.550000X0.550000X-0.550000X0.550000X0.550000X0*%
%ADD41O,1.200000X1.600000*%
%ADD42RoundRect,0.250000X-0.600000X-0.600000X0.600000X-0.600000X0.600000X0.600000X-0.600000X0.600000X0*%
%ADD43C,1.700000*%
G04 APERTURE END LIST*
D10*
X102639733Y-76305360D02*
X102639733Y-76344241D01*
X102628721Y-76360721D01*
X102601121Y-76388321D01*
X102584640Y-76399333D01*
X102545760Y-76399333D01*
X102518267Y-76371840D01*
X102518267Y-76332960D01*
X102529279Y-76316479D01*
X102556879Y-76288879D01*
X102573359Y-76277867D01*
X102612240Y-76277867D01*
X102639733Y-76305360D01*
X107668421Y-87594079D02*
X108567921Y-88493579D01*
X108578933Y-88510059D01*
X108578933Y-88510060D01*
X108582800Y-88529500D01*
X108582800Y-94350500D01*
X108578933Y-94369940D01*
X108578933Y-94369941D01*
X108567921Y-94386421D01*
X107668421Y-95285921D01*
X107651940Y-95296933D01*
X107613060Y-95296933D01*
X107585567Y-95269440D01*
X107585567Y-95230560D01*
X107596579Y-95214079D01*
X108481200Y-94329458D01*
X108481200Y-88550542D01*
X107596579Y-87665921D01*
X107585567Y-87649440D01*
X107585567Y-87610560D01*
X107613060Y-87583067D01*
X107651940Y-87583067D01*
X107668421Y-87594079D01*
G36*
X107668421Y-87594079D02*
G01*
X108567921Y-88493579D01*
X108578933Y-88510059D01*
X108578933Y-88510060D01*
X108582800Y-88529500D01*
X108582800Y-94350500D01*
X108578933Y-94369940D01*
X108578933Y-94369941D01*
X108567921Y-94386421D01*
X107668421Y-95285921D01*
X107651940Y-95296933D01*
X107613060Y-95296933D01*
X107585567Y-95269440D01*
X107585567Y-95230560D01*
X107596579Y-95214079D01*
X108481200Y-94329458D01*
X108481200Y-88550542D01*
X107596579Y-87665921D01*
X107585567Y-87649440D01*
X107585567Y-87610560D01*
X107613060Y-87583067D01*
X107651940Y-87583067D01*
X107668421Y-87594079D01*
G37*
X107679433Y-87610560D02*
X107679433Y-87649441D01*
X107668421Y-87665921D01*
X106783800Y-88550542D01*
X106783800Y-94316758D01*
X107668421Y-95201379D01*
X107679433Y-95217859D01*
X107679433Y-95217860D01*
X107683300Y-95237300D01*
X107683300Y-95250000D01*
X107679433Y-95269440D01*
X107651940Y-95296933D01*
X107613060Y-95296933D01*
X107585567Y-95269440D01*
X107583771Y-95260413D01*
X106697079Y-94373721D01*
X106686067Y-94357240D01*
X106682200Y-94337800D01*
X106682200Y-88529500D01*
X106686067Y-88510060D01*
X106697079Y-88493579D01*
X107596579Y-87594079D01*
X107613059Y-87583067D01*
X107651940Y-87583067D01*
X107679433Y-87610560D01*
G36*
X107679433Y-87610560D02*
G01*
X107679433Y-87649441D01*
X107668421Y-87665921D01*
X106783800Y-88550542D01*
X106783800Y-94316758D01*
X107668421Y-95201379D01*
X107679433Y-95217859D01*
X107679433Y-95217860D01*
X107683300Y-95237300D01*
X107683300Y-95250000D01*
X107679433Y-95269440D01*
X107651940Y-95296933D01*
X107613060Y-95296933D01*
X107585567Y-95269440D01*
X107583771Y-95260413D01*
X106697079Y-94373721D01*
X106686067Y-94357240D01*
X106682200Y-94337800D01*
X106682200Y-88529500D01*
X106686067Y-88510060D01*
X106697079Y-88493579D01*
X107596579Y-87594079D01*
X107613059Y-87583067D01*
X107651940Y-87583067D01*
X107679433Y-87610560D01*
G37*
X35427040Y-69320467D02*
X35443521Y-69331479D01*
X36103921Y-69991879D01*
X36114933Y-70008360D01*
X36118800Y-70027800D01*
X36118800Y-70942200D01*
X36114933Y-70961640D01*
X36103921Y-70978121D01*
X35418121Y-71663921D01*
X35401640Y-71674933D01*
X35382200Y-71678800D01*
X34467800Y-71678800D01*
X34448360Y-71674933D01*
X34431879Y-71663921D01*
X33746079Y-70978121D01*
X33735067Y-70961640D01*
X33731200Y-70942200D01*
X33731200Y-70921158D01*
X33832800Y-70921158D01*
X34488842Y-71577200D01*
X35361158Y-71577200D01*
X36017200Y-70921158D01*
X36017200Y-70048842D01*
X35386558Y-69418200D01*
X34412642Y-69418200D01*
X33832800Y-69998042D01*
X33832800Y-70921158D01*
X33731200Y-70921158D01*
X33731200Y-69998042D01*
X33731200Y-69977000D01*
X33735067Y-69957560D01*
X33746079Y-69941079D01*
X34355679Y-69331479D01*
X34372160Y-69320467D01*
X34391600Y-69316600D01*
X35407600Y-69316600D01*
X35427040Y-69320467D01*
X88707268Y-79641267D02*
X88723749Y-79652279D01*
X89222721Y-80151251D01*
X89233733Y-80167732D01*
X89237600Y-80187172D01*
X89237600Y-80891600D01*
X89233733Y-80911040D01*
X89222721Y-80927521D01*
X88707321Y-81442921D01*
X88690840Y-81453933D01*
X88671400Y-81457800D01*
X87997372Y-81457800D01*
X87977932Y-81453933D01*
X87961451Y-81442921D01*
X87447279Y-80928749D01*
X87436267Y-80912268D01*
X87432400Y-80892828D01*
X87432400Y-80871786D01*
X87534000Y-80871786D01*
X88018414Y-81356200D01*
X88650358Y-81356200D01*
X89136000Y-80870558D01*
X89136000Y-80208214D01*
X88666786Y-79739000D01*
X88003214Y-79739000D01*
X87534000Y-80208214D01*
X87534000Y-80871786D01*
X87432400Y-80871786D01*
X87432400Y-80208214D01*
X87432400Y-80187172D01*
X87436267Y-80167732D01*
X87447279Y-80151251D01*
X87946251Y-79652279D01*
X87962732Y-79641267D01*
X87982172Y-79637400D01*
X88687828Y-79637400D01*
X88707268Y-79641267D01*
G36*
X88707268Y-79641267D02*
G01*
X88723749Y-79652279D01*
X89222721Y-80151251D01*
X89233733Y-80167732D01*
X89237600Y-80187172D01*
X89237600Y-80891600D01*
X89233733Y-80911040D01*
X89222721Y-80927521D01*
X88707321Y-81442921D01*
X88690840Y-81453933D01*
X88671400Y-81457800D01*
X87997372Y-81457800D01*
X87977932Y-81453933D01*
X87961451Y-81442921D01*
X87447279Y-80928749D01*
X87436267Y-80912268D01*
X87432400Y-80892828D01*
X87432400Y-80871786D01*
X87534000Y-80871786D01*
X88018414Y-81356200D01*
X88650358Y-81356200D01*
X89136000Y-80870558D01*
X89136000Y-80208214D01*
X88666786Y-79739000D01*
X88003214Y-79739000D01*
X87534000Y-80208214D01*
X87534000Y-80871786D01*
X87432400Y-80871786D01*
X87432400Y-80208214D01*
X87432400Y-80187172D01*
X87436267Y-80167732D01*
X87447279Y-80151251D01*
X87946251Y-79652279D01*
X87962732Y-79641267D01*
X87982172Y-79637400D01*
X88687828Y-79637400D01*
X88707268Y-79641267D01*
G37*
X140739307Y-50822306D02*
X140755788Y-50833318D01*
X141259921Y-51337451D01*
X141270933Y-51353932D01*
X141274800Y-51373372D01*
X141274800Y-52068706D01*
X141270933Y-52088146D01*
X141259921Y-52104627D01*
X140755788Y-52608760D01*
X140739307Y-52619772D01*
X140719867Y-52623639D01*
X140014211Y-52623639D01*
X139994771Y-52619772D01*
X139978290Y-52608760D01*
X139410079Y-52040549D01*
X139399067Y-52024068D01*
X139395200Y-52004628D01*
X139395200Y-51983586D01*
X139496800Y-51983586D01*
X140035253Y-52522039D01*
X140698825Y-52522039D01*
X141173200Y-52047664D01*
X141173200Y-51394414D01*
X140698825Y-50920039D01*
X140032803Y-50920039D01*
X139496800Y-51456042D01*
X139496800Y-51983586D01*
X139395200Y-51983586D01*
X139395200Y-51456042D01*
X139395200Y-51435000D01*
X139399067Y-51415560D01*
X139410079Y-51399079D01*
X139975840Y-50833318D01*
X139992321Y-50822306D01*
X140011761Y-50818439D01*
X140719867Y-50818439D01*
X140739307Y-50822306D01*
G36*
X140739307Y-50822306D02*
G01*
X140755788Y-50833318D01*
X141259921Y-51337451D01*
X141270933Y-51353932D01*
X141274800Y-51373372D01*
X141274800Y-52068706D01*
X141270933Y-52088146D01*
X141259921Y-52104627D01*
X140755788Y-52608760D01*
X140739307Y-52619772D01*
X140719867Y-52623639D01*
X140014211Y-52623639D01*
X139994771Y-52619772D01*
X139978290Y-52608760D01*
X139410079Y-52040549D01*
X139399067Y-52024068D01*
X139395200Y-52004628D01*
X139395200Y-51983586D01*
X139496800Y-51983586D01*
X140035253Y-52522039D01*
X140698825Y-52522039D01*
X141173200Y-52047664D01*
X141173200Y-51394414D01*
X140698825Y-50920039D01*
X140032803Y-50920039D01*
X139496800Y-51456042D01*
X139496800Y-51983586D01*
X139395200Y-51983586D01*
X139395200Y-51456042D01*
X139395200Y-51435000D01*
X139399067Y-51415560D01*
X139410079Y-51399079D01*
X139975840Y-50833318D01*
X139992321Y-50822306D01*
X140011761Y-50818439D01*
X140719867Y-50818439D01*
X140739307Y-50822306D01*
G37*
X178793391Y-72635767D02*
X178809872Y-72646779D01*
X179289221Y-73126128D01*
X179300233Y-73142609D01*
X179304100Y-73162049D01*
X179304100Y-74238700D01*
X179300233Y-74258140D01*
X179289221Y-74274621D01*
X178597921Y-74965921D01*
X178581440Y-74976933D01*
X178562000Y-74980800D01*
X175641000Y-74980800D01*
X175621560Y-74976933D01*
X175605079Y-74965921D01*
X175040779Y-74401621D01*
X175029767Y-74385140D01*
X175025900Y-74365700D01*
X175025900Y-74344658D01*
X175127500Y-74344658D01*
X175662042Y-74879200D01*
X178540958Y-74879200D01*
X179202500Y-74217658D01*
X179202500Y-73183091D01*
X178752909Y-72733500D01*
X175577091Y-72733500D01*
X175127500Y-73183091D01*
X175127500Y-74344658D01*
X175025900Y-74344658D01*
X175025900Y-73183091D01*
X175025900Y-73162049D01*
X175029767Y-73142609D01*
X175040779Y-73126128D01*
X175520128Y-72646779D01*
X175536609Y-72635767D01*
X175556049Y-72631900D01*
X178773951Y-72631900D01*
X178793391Y-72635767D01*
G36*
X178793391Y-72635767D02*
G01*
X178809872Y-72646779D01*
X179289221Y-73126128D01*
X179300233Y-73142609D01*
X179304100Y-73162049D01*
X179304100Y-74238700D01*
X179300233Y-74258140D01*
X179289221Y-74274621D01*
X178597921Y-74965921D01*
X178581440Y-74976933D01*
X178562000Y-74980800D01*
X175641000Y-74980800D01*
X175621560Y-74976933D01*
X175605079Y-74965921D01*
X175040779Y-74401621D01*
X175029767Y-74385140D01*
X175025900Y-74365700D01*
X175025900Y-74344658D01*
X175127500Y-74344658D01*
X175662042Y-74879200D01*
X178540958Y-74879200D01*
X179202500Y-74217658D01*
X179202500Y-73183091D01*
X178752909Y-72733500D01*
X175577091Y-72733500D01*
X175127500Y-73183091D01*
X175127500Y-74344658D01*
X175025900Y-74344658D01*
X175025900Y-73183091D01*
X175025900Y-73162049D01*
X175029767Y-73142609D01*
X175040779Y-73126128D01*
X175520128Y-72646779D01*
X175536609Y-72635767D01*
X175556049Y-72631900D01*
X178773951Y-72631900D01*
X178793391Y-72635767D01*
G37*
X70929755Y-71316267D02*
X70946236Y-71327279D01*
X71587721Y-71968764D01*
X71598733Y-71985245D01*
X71602600Y-72004685D01*
X71602600Y-72775315D01*
X71598733Y-72794755D01*
X71598733Y-72794756D01*
X71587721Y-72811236D01*
X70931636Y-73467321D01*
X70915155Y-73478333D01*
X70895715Y-73482200D01*
X70074285Y-73482200D01*
X70054845Y-73478333D01*
X70038364Y-73467321D01*
X69422279Y-72851236D01*
X69411267Y-72834755D01*
X69407400Y-72815315D01*
X69407400Y-72794273D01*
X69509000Y-72794273D01*
X70095327Y-73380600D01*
X70874673Y-73380600D01*
X71501000Y-72754273D01*
X71501000Y-72025727D01*
X70889273Y-71414000D01*
X70080727Y-71414000D01*
X69509000Y-71985727D01*
X69509000Y-72794273D01*
X69407400Y-72794273D01*
X69407400Y-71985727D01*
X69407400Y-71964685D01*
X69411267Y-71945245D01*
X69422279Y-71928764D01*
X70023764Y-71327279D01*
X70040244Y-71316267D01*
X70040245Y-71316267D01*
X70059685Y-71312400D01*
X70910315Y-71312400D01*
X70929755Y-71316267D01*
X178342440Y-68751267D02*
X178358921Y-68762279D01*
X178775721Y-69179079D01*
X178786733Y-69195559D01*
X178786733Y-69195560D01*
X178790600Y-69215000D01*
X178790600Y-69722670D01*
X178786733Y-69742110D01*
X178775721Y-69758591D01*
X177596591Y-70937721D01*
X177580110Y-70948733D01*
X177560670Y-70952600D01*
X176689330Y-70952600D01*
X176669890Y-70948733D01*
X176669889Y-70948733D01*
X176653409Y-70937721D01*
X176037279Y-70321591D01*
X176026267Y-70305110D01*
X176022400Y-70285670D01*
X176022400Y-70264628D01*
X176124000Y-70264628D01*
X176710372Y-70851000D01*
X177539628Y-70851000D01*
X178689000Y-69701628D01*
X178689000Y-69236042D01*
X178301958Y-68849000D01*
X176710372Y-68849000D01*
X176124000Y-69435372D01*
X176124000Y-70264628D01*
X176022400Y-70264628D01*
X176022400Y-69435372D01*
X176022400Y-69414330D01*
X176026267Y-69394890D01*
X176037279Y-69378409D01*
X176653409Y-68762279D01*
X176669889Y-68751267D01*
X176669890Y-68751267D01*
X176689330Y-68747400D01*
X178323000Y-68747400D01*
X178342440Y-68751267D01*
G36*
X178342440Y-68751267D02*
G01*
X178358921Y-68762279D01*
X178775721Y-69179079D01*
X178786733Y-69195559D01*
X178786733Y-69195560D01*
X178790600Y-69215000D01*
X178790600Y-69722670D01*
X178786733Y-69742110D01*
X178775721Y-69758591D01*
X177596591Y-70937721D01*
X177580110Y-70948733D01*
X177560670Y-70952600D01*
X176689330Y-70952600D01*
X176669890Y-70948733D01*
X176669889Y-70948733D01*
X176653409Y-70937721D01*
X176037279Y-70321591D01*
X176026267Y-70305110D01*
X176022400Y-70285670D01*
X176022400Y-70264628D01*
X176124000Y-70264628D01*
X176710372Y-70851000D01*
X177539628Y-70851000D01*
X178689000Y-69701628D01*
X178689000Y-69236042D01*
X178301958Y-68849000D01*
X176710372Y-68849000D01*
X176124000Y-69435372D01*
X176124000Y-70264628D01*
X176022400Y-70264628D01*
X176022400Y-69435372D01*
X176022400Y-69414330D01*
X176026267Y-69394890D01*
X176037279Y-69378409D01*
X176653409Y-68762279D01*
X176669889Y-68751267D01*
X176669890Y-68751267D01*
X176689330Y-68747400D01*
X178323000Y-68747400D01*
X178342440Y-68751267D01*
G37*
X204413640Y-75061267D02*
X204430121Y-75072279D01*
X204922721Y-75564879D01*
X204933733Y-75581360D01*
X204937600Y-75600800D01*
X204937600Y-76595670D01*
X204933733Y-76615110D01*
X204933733Y-76615111D01*
X204922721Y-76631591D01*
X204302391Y-77251921D01*
X204285910Y-77262933D01*
X204266470Y-77266800D01*
X203403530Y-77266800D01*
X203384090Y-77262933D01*
X203384089Y-77262933D01*
X203367609Y-77251921D01*
X202747279Y-76631591D01*
X202736267Y-76615110D01*
X202732400Y-76595670D01*
X202732400Y-76574628D01*
X202834000Y-76574628D01*
X203424572Y-77165200D01*
X204245428Y-77165200D01*
X204836000Y-76574628D01*
X204836000Y-75621842D01*
X204373158Y-75159000D01*
X203420372Y-75159000D01*
X202834000Y-75745372D01*
X202834000Y-76574628D01*
X202732400Y-76574628D01*
X202732400Y-75745372D01*
X202732400Y-75724330D01*
X202736267Y-75704890D01*
X202747279Y-75688409D01*
X203363409Y-75072279D01*
X203379889Y-75061267D01*
X203379890Y-75061267D01*
X203399330Y-75057400D01*
X204394200Y-75057400D01*
X204413640Y-75061267D01*
G36*
X204413640Y-75061267D02*
G01*
X204430121Y-75072279D01*
X204922721Y-75564879D01*
X204933733Y-75581360D01*
X204937600Y-75600800D01*
X204937600Y-76595670D01*
X204933733Y-76615110D01*
X204933733Y-76615111D01*
X204922721Y-76631591D01*
X204302391Y-77251921D01*
X204285910Y-77262933D01*
X204266470Y-77266800D01*
X203403530Y-77266800D01*
X203384090Y-77262933D01*
X203384089Y-77262933D01*
X203367609Y-77251921D01*
X202747279Y-76631591D01*
X202736267Y-76615110D01*
X202732400Y-76595670D01*
X202732400Y-76574628D01*
X202834000Y-76574628D01*
X203424572Y-77165200D01*
X204245428Y-77165200D01*
X204836000Y-76574628D01*
X204836000Y-75621842D01*
X204373158Y-75159000D01*
X203420372Y-75159000D01*
X202834000Y-75745372D01*
X202834000Y-76574628D01*
X202732400Y-76574628D01*
X202732400Y-75745372D01*
X202732400Y-75724330D01*
X202736267Y-75704890D01*
X202747279Y-75688409D01*
X203363409Y-75072279D01*
X203379889Y-75061267D01*
X203379890Y-75061267D01*
X203399330Y-75057400D01*
X204394200Y-75057400D01*
X204413640Y-75061267D01*
G37*
X76009755Y-68776267D02*
X76026236Y-68787279D01*
X76627721Y-69388764D01*
X76638733Y-69405244D01*
X76638733Y-69405245D01*
X76642600Y-69424685D01*
X76642600Y-70275315D01*
X76638733Y-70294755D01*
X76638733Y-70294756D01*
X76627721Y-70311236D01*
X76026236Y-70912721D01*
X76009755Y-70923733D01*
X75990315Y-70927600D01*
X75118600Y-70927600D01*
X75099160Y-70923733D01*
X75082679Y-70912721D01*
X74502279Y-70332321D01*
X74491267Y-70315840D01*
X74487400Y-70296400D01*
X74487400Y-70275358D01*
X74589000Y-70275358D01*
X75139642Y-70826000D01*
X75969273Y-70826000D01*
X76541000Y-70254273D01*
X76541000Y-69445727D01*
X75969273Y-68874000D01*
X75160727Y-68874000D01*
X74589000Y-69445727D01*
X74589000Y-70275358D01*
X74487400Y-70275358D01*
X74487400Y-69445727D01*
X74487400Y-69424685D01*
X74491267Y-69405245D01*
X74491268Y-69405244D01*
X74502279Y-69388764D01*
X75103764Y-68787279D01*
X75120244Y-68776267D01*
X75120245Y-68776267D01*
X75139685Y-68772400D01*
X75990315Y-68772400D01*
X76009755Y-68776267D01*
X81182953Y-70456267D02*
X81199434Y-70467279D01*
X81932721Y-71200566D01*
X81943733Y-71217046D01*
X81943733Y-71217047D01*
X81947600Y-71236487D01*
X81947600Y-84338513D01*
X81943733Y-84357953D01*
X81943733Y-84357954D01*
X81932721Y-84374434D01*
X81199434Y-85107721D01*
X81182953Y-85118733D01*
X81163513Y-85122600D01*
X80126487Y-85122600D01*
X80107047Y-85118733D01*
X80107046Y-85118733D01*
X80090566Y-85107721D01*
X79313679Y-84330834D01*
X79302667Y-84314353D01*
X79298800Y-84294913D01*
X79298800Y-84273871D01*
X79400400Y-84273871D01*
X80147529Y-85021000D01*
X81142471Y-85021000D01*
X81846000Y-84317471D01*
X81846000Y-71257529D01*
X81142471Y-70554000D01*
X80147529Y-70554000D01*
X79400400Y-71301129D01*
X79400400Y-84273871D01*
X79298800Y-84273871D01*
X79298800Y-71301129D01*
X79298800Y-71280087D01*
X79302667Y-71260647D01*
X79313679Y-71244166D01*
X80090566Y-70467279D01*
X80107046Y-70456267D01*
X80107047Y-70456267D01*
X80126487Y-70452400D01*
X81163513Y-70452400D01*
X81182953Y-70456267D01*
G36*
X81182953Y-70456267D02*
G01*
X81199434Y-70467279D01*
X81932721Y-71200566D01*
X81943733Y-71217046D01*
X81943733Y-71217047D01*
X81947600Y-71236487D01*
X81947600Y-84338513D01*
X81943733Y-84357953D01*
X81943733Y-84357954D01*
X81932721Y-84374434D01*
X81199434Y-85107721D01*
X81182953Y-85118733D01*
X81163513Y-85122600D01*
X80126487Y-85122600D01*
X80107047Y-85118733D01*
X80107046Y-85118733D01*
X80090566Y-85107721D01*
X79313679Y-84330834D01*
X79302667Y-84314353D01*
X79298800Y-84294913D01*
X79298800Y-84273871D01*
X79400400Y-84273871D01*
X80147529Y-85021000D01*
X81142471Y-85021000D01*
X81846000Y-84317471D01*
X81846000Y-71257529D01*
X81142471Y-70554000D01*
X80147529Y-70554000D01*
X79400400Y-71301129D01*
X79400400Y-84273871D01*
X79298800Y-84273871D01*
X79298800Y-71301129D01*
X79298800Y-71280087D01*
X79302667Y-71260647D01*
X79313679Y-71244166D01*
X80090566Y-70467279D01*
X80107046Y-70456267D01*
X80107047Y-70456267D01*
X80126487Y-70452400D01*
X81163513Y-70452400D01*
X81182953Y-70456267D01*
G37*
X88186991Y-57898543D02*
X88203472Y-57909555D01*
X88707321Y-58413404D01*
X88718333Y-58429884D01*
X88718333Y-58429885D01*
X88722200Y-58449325D01*
X88722200Y-59545227D01*
X88718333Y-59564667D01*
X88718333Y-59564668D01*
X88707321Y-59581148D01*
X88203472Y-60084997D01*
X88186991Y-60096009D01*
X88167551Y-60099876D01*
X87461897Y-60099876D01*
X87442457Y-60096009D01*
X87442456Y-60096009D01*
X87425976Y-60084997D01*
X86908279Y-59567300D01*
X86897267Y-59550819D01*
X86893400Y-59531379D01*
X86893400Y-59510337D01*
X86995000Y-59510337D01*
X87482939Y-59998276D01*
X88146509Y-59998276D01*
X88620600Y-59524185D01*
X88620600Y-58470367D01*
X88146509Y-57996276D01*
X87482939Y-57996276D01*
X86995000Y-58484215D01*
X86995000Y-59510337D01*
X86893400Y-59510337D01*
X86893400Y-58484215D01*
X86893400Y-58463173D01*
X86897267Y-58443733D01*
X86908279Y-58427252D01*
X87425976Y-57909555D01*
X87442456Y-57898543D01*
X87442457Y-57898543D01*
X87461897Y-57894676D01*
X88167551Y-57894676D01*
X88186991Y-57898543D01*
X98960110Y-99866267D02*
X98976591Y-99877279D01*
X99592721Y-100493409D01*
X99603733Y-100509889D01*
X99603733Y-100509890D01*
X99607600Y-100529330D01*
X99607600Y-101400670D01*
X99603733Y-101420110D01*
X99603733Y-101420111D01*
X99592721Y-101436591D01*
X98976591Y-102052721D01*
X98960110Y-102063733D01*
X98940670Y-102067600D01*
X98069400Y-102067600D01*
X98049960Y-102063733D01*
X98049959Y-102063733D01*
X98033479Y-102052721D01*
X97417279Y-101436521D01*
X97406267Y-101420040D01*
X97402400Y-101400600D01*
X97402400Y-101379558D01*
X97504000Y-101379558D01*
X98090442Y-101966000D01*
X98919628Y-101966000D01*
X99506000Y-101379628D01*
X99506000Y-100550372D01*
X98919628Y-99964000D01*
X98090372Y-99964000D01*
X97504000Y-100550372D01*
X97504000Y-101379558D01*
X97402400Y-101379558D01*
X97402400Y-100550372D01*
X97402400Y-100529330D01*
X97406267Y-100509890D01*
X97406268Y-100509889D01*
X97417279Y-100493409D01*
X98033409Y-99877279D01*
X98049889Y-99866267D01*
X98049890Y-99866267D01*
X98069330Y-99862400D01*
X98940670Y-99862400D01*
X98960110Y-99866267D01*
G36*
X98960110Y-99866267D02*
G01*
X98976591Y-99877279D01*
X99592721Y-100493409D01*
X99603733Y-100509889D01*
X99603733Y-100509890D01*
X99607600Y-100529330D01*
X99607600Y-101400670D01*
X99603733Y-101420110D01*
X99603733Y-101420111D01*
X99592721Y-101436591D01*
X98976591Y-102052721D01*
X98960110Y-102063733D01*
X98940670Y-102067600D01*
X98069400Y-102067600D01*
X98049960Y-102063733D01*
X98049959Y-102063733D01*
X98033479Y-102052721D01*
X97417279Y-101436521D01*
X97406267Y-101420040D01*
X97402400Y-101400600D01*
X97402400Y-101379558D01*
X97504000Y-101379558D01*
X98090442Y-101966000D01*
X98919628Y-101966000D01*
X99506000Y-101379628D01*
X99506000Y-100550372D01*
X98919628Y-99964000D01*
X98090372Y-99964000D01*
X97504000Y-100550372D01*
X97504000Y-101379558D01*
X97402400Y-101379558D01*
X97402400Y-100550372D01*
X97402400Y-100529330D01*
X97406267Y-100509890D01*
X97406268Y-100509889D01*
X97417279Y-100493409D01*
X98033409Y-99877279D01*
X98049889Y-99866267D01*
X98049890Y-99866267D01*
X98069330Y-99862400D01*
X98940670Y-99862400D01*
X98960110Y-99866267D01*
G37*
X164236440Y-66328767D02*
X164252921Y-66339779D01*
X164800221Y-66887079D01*
X164811233Y-66903559D01*
X164811233Y-66903560D01*
X164815100Y-66923000D01*
X164815100Y-67697000D01*
X164811233Y-67716440D01*
X164811233Y-67716441D01*
X164800221Y-67732921D01*
X164252921Y-68280221D01*
X164236440Y-68291233D01*
X164217000Y-68295100D01*
X163443000Y-68295100D01*
X163423560Y-68291233D01*
X163423559Y-68291233D01*
X163407079Y-68280221D01*
X162859779Y-67732921D01*
X162848767Y-67716440D01*
X162844900Y-67697000D01*
X162844900Y-67675958D01*
X162946500Y-67675958D01*
X163464042Y-68193500D01*
X164195958Y-68193500D01*
X164713500Y-67675958D01*
X164713500Y-66944042D01*
X164195958Y-66426500D01*
X163464042Y-66426500D01*
X162946500Y-66944042D01*
X162946500Y-67675958D01*
X162844900Y-67675958D01*
X162844900Y-66944042D01*
X162844900Y-66923000D01*
X162848767Y-66903560D01*
X162848768Y-66903559D01*
X162859779Y-66887079D01*
X163407079Y-66339779D01*
X163423559Y-66328767D01*
X163423560Y-66328767D01*
X163443000Y-66324900D01*
X164217000Y-66324900D01*
X164236440Y-66328767D01*
G36*
X164236440Y-66328767D02*
G01*
X164252921Y-66339779D01*
X164800221Y-66887079D01*
X164811233Y-66903559D01*
X164811233Y-66903560D01*
X164815100Y-66923000D01*
X164815100Y-67697000D01*
X164811233Y-67716440D01*
X164811233Y-67716441D01*
X164800221Y-67732921D01*
X164252921Y-68280221D01*
X164236440Y-68291233D01*
X164217000Y-68295100D01*
X163443000Y-68295100D01*
X163423560Y-68291233D01*
X163423559Y-68291233D01*
X163407079Y-68280221D01*
X162859779Y-67732921D01*
X162848767Y-67716440D01*
X162844900Y-67697000D01*
X162844900Y-67675958D01*
X162946500Y-67675958D01*
X163464042Y-68193500D01*
X164195958Y-68193500D01*
X164713500Y-67675958D01*
X164713500Y-66944042D01*
X164195958Y-66426500D01*
X163464042Y-66426500D01*
X162946500Y-66944042D01*
X162946500Y-67675958D01*
X162844900Y-67675958D01*
X162844900Y-66944042D01*
X162844900Y-66923000D01*
X162848767Y-66903560D01*
X162848768Y-66903559D01*
X162859779Y-66887079D01*
X163407079Y-66339779D01*
X163423559Y-66328767D01*
X163423560Y-66328767D01*
X163443000Y-66324900D01*
X164217000Y-66324900D01*
X164236440Y-66328767D01*
G37*
X169659232Y-75897739D02*
X169672000Y-75895200D01*
X170307000Y-75895200D01*
X170326440Y-75899067D01*
X170342921Y-75910079D01*
X171104921Y-76672079D01*
X171115933Y-76688560D01*
X171119800Y-76708000D01*
X171119800Y-78105000D01*
X171115933Y-78124440D01*
X171104921Y-78140921D01*
X170215921Y-79029921D01*
X170199440Y-79040933D01*
X170180000Y-79044800D01*
X168910000Y-79044800D01*
X168890560Y-79040933D01*
X168874079Y-79029921D01*
X167985079Y-78140921D01*
X167974067Y-78124440D01*
X167970200Y-78105000D01*
X167970200Y-78083958D01*
X168071800Y-78083958D01*
X168931042Y-78943200D01*
X170158958Y-78943200D01*
X171018200Y-78083958D01*
X171018200Y-76729042D01*
X170285958Y-75996800D01*
X169672000Y-75996800D01*
X169659232Y-75994260D01*
X169646464Y-75996800D01*
X168931042Y-75996800D01*
X168071800Y-76856042D01*
X168071800Y-78083958D01*
X167970200Y-78083958D01*
X167970200Y-76856042D01*
X167970200Y-76835000D01*
X167974067Y-76815560D01*
X167985079Y-76799079D01*
X168874079Y-75910079D01*
X168890560Y-75899067D01*
X168910000Y-75895200D01*
X169646464Y-75895200D01*
X169659232Y-75897739D01*
G36*
X169659232Y-75897739D02*
G01*
X169672000Y-75895200D01*
X170307000Y-75895200D01*
X170326440Y-75899067D01*
X170342921Y-75910079D01*
X171104921Y-76672079D01*
X171115933Y-76688560D01*
X171119800Y-76708000D01*
X171119800Y-78105000D01*
X171115933Y-78124440D01*
X171104921Y-78140921D01*
X170215921Y-79029921D01*
X170199440Y-79040933D01*
X170180000Y-79044800D01*
X168910000Y-79044800D01*
X168890560Y-79040933D01*
X168874079Y-79029921D01*
X167985079Y-78140921D01*
X167974067Y-78124440D01*
X167970200Y-78105000D01*
X167970200Y-78083958D01*
X168071800Y-78083958D01*
X168931042Y-78943200D01*
X170158958Y-78943200D01*
X171018200Y-78083958D01*
X171018200Y-76729042D01*
X170285958Y-75996800D01*
X169672000Y-75996800D01*
X169659232Y-75994260D01*
X169646464Y-75996800D01*
X168931042Y-75996800D01*
X168071800Y-76856042D01*
X168071800Y-78083958D01*
X167970200Y-78083958D01*
X167970200Y-76856042D01*
X167970200Y-76835000D01*
X167974067Y-76815560D01*
X167985079Y-76799079D01*
X168874079Y-75910079D01*
X168890560Y-75899067D01*
X168910000Y-75895200D01*
X169646464Y-75895200D01*
X169659232Y-75897739D01*
G37*
X63257978Y-56561267D02*
X63274459Y-56572279D01*
X63802721Y-57100541D01*
X63813733Y-57117022D01*
X63817600Y-57136462D01*
X63817600Y-57883538D01*
X63813733Y-57902978D01*
X63813733Y-57902979D01*
X63802721Y-57919459D01*
X63274459Y-58447721D01*
X63257978Y-58458733D01*
X63238538Y-58462600D01*
X62491462Y-58462600D01*
X62472022Y-58458733D01*
X62472021Y-58458733D01*
X62455541Y-58447721D01*
X61927279Y-57919459D01*
X61916267Y-57902978D01*
X61912400Y-57883538D01*
X61912400Y-57862496D01*
X62014000Y-57862496D01*
X62512504Y-58361000D01*
X63217496Y-58361000D01*
X63716000Y-57862496D01*
X63716000Y-57157504D01*
X63390706Y-56832210D01*
X63387879Y-56830321D01*
X63311679Y-56754121D01*
X63309790Y-56751294D01*
X63217496Y-56659000D01*
X62512504Y-56659000D01*
X62014000Y-57157504D01*
X62014000Y-57862496D01*
X61912400Y-57862496D01*
X61912400Y-57157504D01*
X61912400Y-57136462D01*
X61916267Y-57117022D01*
X61927279Y-57100541D01*
X62455541Y-56572279D01*
X62472021Y-56561267D01*
X62472022Y-56561267D01*
X62491462Y-56557400D01*
X63238538Y-56557400D01*
X63257978Y-56561267D01*
G36*
X63257978Y-56561267D02*
G01*
X63274459Y-56572279D01*
X63802721Y-57100541D01*
X63813733Y-57117022D01*
X63817600Y-57136462D01*
X63817600Y-57883538D01*
X63813733Y-57902978D01*
X63813733Y-57902979D01*
X63802721Y-57919459D01*
X63274459Y-58447721D01*
X63257978Y-58458733D01*
X63238538Y-58462600D01*
X62491462Y-58462600D01*
X62472022Y-58458733D01*
X62472021Y-58458733D01*
X62455541Y-58447721D01*
X61927279Y-57919459D01*
X61916267Y-57902978D01*
X61912400Y-57883538D01*
X61912400Y-57862496D01*
X62014000Y-57862496D01*
X62512504Y-58361000D01*
X63217496Y-58361000D01*
X63716000Y-57862496D01*
X63716000Y-57157504D01*
X63390706Y-56832210D01*
X63387879Y-56830321D01*
X63311679Y-56754121D01*
X63309790Y-56751294D01*
X63217496Y-56659000D01*
X62512504Y-56659000D01*
X62014000Y-57157504D01*
X62014000Y-57862496D01*
X61912400Y-57862496D01*
X61912400Y-57157504D01*
X61912400Y-57136462D01*
X61916267Y-57117022D01*
X61927279Y-57100541D01*
X62455541Y-56572279D01*
X62472021Y-56561267D01*
X62472022Y-56561267D01*
X62491462Y-56557400D01*
X63238538Y-56557400D01*
X63257978Y-56561267D01*
G37*
X81197840Y-66653467D02*
X81214321Y-66664479D01*
X81932721Y-67382879D01*
X81943733Y-67399359D01*
X81943733Y-67399360D01*
X81947600Y-67418800D01*
X81947600Y-68473513D01*
X81943733Y-68492953D01*
X81943733Y-68492954D01*
X81932721Y-68509434D01*
X81199434Y-69242721D01*
X81182953Y-69253733D01*
X81163513Y-69257600D01*
X80126487Y-69257600D01*
X80107047Y-69253733D01*
X80107046Y-69253733D01*
X80090566Y-69242721D01*
X79339079Y-68491234D01*
X79328067Y-68474753D01*
X79324200Y-68455313D01*
X79324200Y-68434271D01*
X79425800Y-68434271D01*
X80147529Y-69156000D01*
X81142471Y-69156000D01*
X81846000Y-68452471D01*
X81846000Y-67439842D01*
X81157358Y-66751200D01*
X80659076Y-66751200D01*
X80645000Y-66754000D01*
X80129842Y-66754000D01*
X79425800Y-67458042D01*
X79425800Y-68434271D01*
X79324200Y-68434271D01*
X79324200Y-67458042D01*
X79324200Y-67437000D01*
X79328067Y-67417560D01*
X79339079Y-67401079D01*
X80072879Y-66667279D01*
X80089360Y-66656267D01*
X80108800Y-66652400D01*
X80630924Y-66652400D01*
X80645000Y-66649600D01*
X81178400Y-66649600D01*
X81197840Y-66653467D01*
X97775796Y-48666267D02*
X97792277Y-48677279D01*
X98642721Y-49527723D01*
X98653732Y-49544203D01*
X98653733Y-49544204D01*
X98657600Y-49563644D01*
X98657600Y-50292000D01*
X98653733Y-50311440D01*
X98653600Y-50311573D01*
X98653600Y-50770356D01*
X98649733Y-50789796D01*
X98638721Y-50806277D01*
X97792277Y-51652721D01*
X97775796Y-51663733D01*
X97756356Y-51667600D01*
X96553644Y-51667600D01*
X96534204Y-51663733D01*
X96517723Y-51652721D01*
X95645879Y-50780877D01*
X95634867Y-50764396D01*
X95631000Y-50744956D01*
X95631000Y-50723914D01*
X95732600Y-50723914D01*
X96574686Y-51566000D01*
X97735314Y-51566000D01*
X98552000Y-50749314D01*
X98552000Y-50266600D01*
X98555867Y-50247160D01*
X98556000Y-50247027D01*
X98556000Y-49584686D01*
X97735314Y-48764000D01*
X96574686Y-48764000D01*
X95732600Y-49606086D01*
X95732600Y-50723914D01*
X95631000Y-50723914D01*
X95631000Y-49606086D01*
X95631000Y-49585044D01*
X95634867Y-49565604D01*
X95645879Y-49549123D01*
X96517723Y-48677279D01*
X96534204Y-48666267D01*
X96553644Y-48662400D01*
X97756356Y-48662400D01*
X97775796Y-48666267D01*
G36*
X97775796Y-48666267D02*
G01*
X97792277Y-48677279D01*
X98642721Y-49527723D01*
X98653732Y-49544203D01*
X98653733Y-49544204D01*
X98657600Y-49563644D01*
X98657600Y-50292000D01*
X98653733Y-50311440D01*
X98653600Y-50311573D01*
X98653600Y-50770356D01*
X98649733Y-50789796D01*
X98638721Y-50806277D01*
X97792277Y-51652721D01*
X97775796Y-51663733D01*
X97756356Y-51667600D01*
X96553644Y-51667600D01*
X96534204Y-51663733D01*
X96517723Y-51652721D01*
X95645879Y-50780877D01*
X95634867Y-50764396D01*
X95631000Y-50744956D01*
X95631000Y-50723914D01*
X95732600Y-50723914D01*
X96574686Y-51566000D01*
X97735314Y-51566000D01*
X98552000Y-50749314D01*
X98552000Y-50266600D01*
X98555867Y-50247160D01*
X98556000Y-50247027D01*
X98556000Y-49584686D01*
X97735314Y-48764000D01*
X96574686Y-48764000D01*
X95732600Y-49606086D01*
X95732600Y-50723914D01*
X95631000Y-50723914D01*
X95631000Y-49606086D01*
X95631000Y-49585044D01*
X95634867Y-49565604D01*
X95645879Y-49549123D01*
X96517723Y-48677279D01*
X96534204Y-48666267D01*
X96553644Y-48662400D01*
X97756356Y-48662400D01*
X97775796Y-48666267D01*
G37*
X89395110Y-99866267D02*
X89411591Y-99877279D01*
X90028121Y-100493809D01*
X90039133Y-100510289D01*
X90039133Y-100510290D01*
X90043000Y-100529730D01*
X90043000Y-101015800D01*
X90042600Y-101017810D01*
X90042600Y-101400670D01*
X90038733Y-101420110D01*
X90038733Y-101420111D01*
X90027721Y-101436591D01*
X89411591Y-102052721D01*
X89395110Y-102063733D01*
X89375670Y-102067600D01*
X88504330Y-102067600D01*
X88484890Y-102063733D01*
X88484889Y-102063733D01*
X88468409Y-102052721D01*
X87848079Y-101432391D01*
X87837067Y-101415910D01*
X87833200Y-101396470D01*
X87833200Y-101375428D01*
X87934800Y-101375428D01*
X88525372Y-101966000D01*
X89354628Y-101966000D01*
X89941000Y-101379628D01*
X89941000Y-100990400D01*
X89941400Y-100988389D01*
X89941400Y-100550772D01*
X89354628Y-99964000D01*
X88525372Y-99964000D01*
X87934800Y-100554572D01*
X87934800Y-101375428D01*
X87833200Y-101375428D01*
X87833200Y-100554572D01*
X87833200Y-100533530D01*
X87837067Y-100514090D01*
X87848079Y-100497609D01*
X88468409Y-99877279D01*
X88484889Y-99866267D01*
X88484890Y-99866267D01*
X88504330Y-99862400D01*
X89375670Y-99862400D01*
X89395110Y-99866267D01*
G36*
X89395110Y-99866267D02*
G01*
X89411591Y-99877279D01*
X90028121Y-100493809D01*
X90039133Y-100510289D01*
X90039133Y-100510290D01*
X90043000Y-100529730D01*
X90043000Y-101015800D01*
X90042600Y-101017810D01*
X90042600Y-101400670D01*
X90038733Y-101420110D01*
X90038733Y-101420111D01*
X90027721Y-101436591D01*
X89411591Y-102052721D01*
X89395110Y-102063733D01*
X89375670Y-102067600D01*
X88504330Y-102067600D01*
X88484890Y-102063733D01*
X88484889Y-102063733D01*
X88468409Y-102052721D01*
X87848079Y-101432391D01*
X87837067Y-101415910D01*
X87833200Y-101396470D01*
X87833200Y-101375428D01*
X87934800Y-101375428D01*
X88525372Y-101966000D01*
X89354628Y-101966000D01*
X89941000Y-101379628D01*
X89941000Y-100990400D01*
X89941400Y-100988389D01*
X89941400Y-100550772D01*
X89354628Y-99964000D01*
X88525372Y-99964000D01*
X87934800Y-100554572D01*
X87934800Y-101375428D01*
X87833200Y-101375428D01*
X87833200Y-100554572D01*
X87833200Y-100533530D01*
X87837067Y-100514090D01*
X87848079Y-100497609D01*
X88468409Y-99877279D01*
X88484889Y-99866267D01*
X88484890Y-99866267D01*
X88504330Y-99862400D01*
X89375670Y-99862400D01*
X89395110Y-99866267D01*
G37*
X99773688Y-37101267D02*
X99790169Y-37112279D01*
X100347721Y-37669831D01*
X100358733Y-37686312D01*
X100362600Y-37705752D01*
X100362600Y-38494248D01*
X100358733Y-38513688D01*
X100358733Y-38513689D01*
X100347721Y-38530169D01*
X100084045Y-38793845D01*
X100082560Y-38794836D01*
X100081569Y-38796321D01*
X99790169Y-39087721D01*
X99773688Y-39098733D01*
X99754248Y-39102600D01*
X98365752Y-39102600D01*
X98346312Y-39098733D01*
X98329831Y-39087721D01*
X97772279Y-38530169D01*
X97761267Y-38513688D01*
X97757400Y-38494248D01*
X97757400Y-38473206D01*
X97859000Y-38473206D01*
X98386794Y-39001000D01*
X99733206Y-39001000D01*
X100009727Y-38724479D01*
X100011211Y-38723487D01*
X100012203Y-38722003D01*
X100261000Y-38473206D01*
X100261000Y-37726794D01*
X99733206Y-37199000D01*
X98381842Y-37199000D01*
X97859000Y-37721842D01*
X97859000Y-38473206D01*
X97757400Y-38473206D01*
X97757400Y-37721842D01*
X97757400Y-37700800D01*
X97761267Y-37681360D01*
X97772279Y-37664879D01*
X98324879Y-37112279D01*
X98341359Y-37101267D01*
X98341360Y-37101267D01*
X98360800Y-37097400D01*
X99754248Y-37097400D01*
X99773688Y-37101267D01*
G36*
X99773688Y-37101267D02*
G01*
X99790169Y-37112279D01*
X100347721Y-37669831D01*
X100358733Y-37686312D01*
X100362600Y-37705752D01*
X100362600Y-38494248D01*
X100358733Y-38513688D01*
X100358733Y-38513689D01*
X100347721Y-38530169D01*
X100084045Y-38793845D01*
X100082560Y-38794836D01*
X100081569Y-38796321D01*
X99790169Y-39087721D01*
X99773688Y-39098733D01*
X99754248Y-39102600D01*
X98365752Y-39102600D01*
X98346312Y-39098733D01*
X98329831Y-39087721D01*
X97772279Y-38530169D01*
X97761267Y-38513688D01*
X97757400Y-38494248D01*
X97757400Y-38473206D01*
X97859000Y-38473206D01*
X98386794Y-39001000D01*
X99733206Y-39001000D01*
X100009727Y-38724479D01*
X100011211Y-38723487D01*
X100012203Y-38722003D01*
X100261000Y-38473206D01*
X100261000Y-37726794D01*
X99733206Y-37199000D01*
X98381842Y-37199000D01*
X97859000Y-37721842D01*
X97859000Y-38473206D01*
X97757400Y-38473206D01*
X97757400Y-37721842D01*
X97757400Y-37700800D01*
X97761267Y-37681360D01*
X97772279Y-37664879D01*
X98324879Y-37112279D01*
X98341359Y-37101267D01*
X98341360Y-37101267D01*
X98360800Y-37097400D01*
X99754248Y-37097400D01*
X99773688Y-37101267D01*
G37*
X76009755Y-73856267D02*
X76026236Y-73867279D01*
X76627721Y-74468764D01*
X76638733Y-74485244D01*
X76638733Y-74485245D01*
X76642600Y-74504685D01*
X76642600Y-75355315D01*
X76638733Y-75374755D01*
X76638733Y-75374756D01*
X76627721Y-75391236D01*
X76026236Y-75992721D01*
X76009755Y-76003733D01*
X75990315Y-76007600D01*
X72974200Y-76007600D01*
X72968800Y-76006525D01*
X72963400Y-76007600D01*
X70059685Y-76007600D01*
X70040245Y-76003733D01*
X70040244Y-76003733D01*
X70023764Y-75992721D01*
X69422279Y-75391236D01*
X69411267Y-75374755D01*
X69407400Y-75355315D01*
X69407400Y-75334273D01*
X69509000Y-75334273D01*
X70080727Y-75906000D01*
X72963400Y-75906000D01*
X72968800Y-75907074D01*
X72974200Y-75906000D01*
X75969273Y-75906000D01*
X76541000Y-75334273D01*
X76541000Y-74525727D01*
X75969273Y-73954000D01*
X70080727Y-73954000D01*
X69509000Y-74525727D01*
X69509000Y-75334273D01*
X69407400Y-75334273D01*
X69407400Y-74525727D01*
X69407400Y-74504685D01*
X69411267Y-74485245D01*
X69411268Y-74485244D01*
X69422279Y-74468764D01*
X70023764Y-73867279D01*
X70040244Y-73856267D01*
X70040245Y-73856267D01*
X70059685Y-73852400D01*
X75990315Y-73852400D01*
X76009755Y-73856267D01*
G36*
X76009755Y-73856267D02*
G01*
X76026236Y-73867279D01*
X76627721Y-74468764D01*
X76638733Y-74485244D01*
X76638733Y-74485245D01*
X76642600Y-74504685D01*
X76642600Y-75355315D01*
X76638733Y-75374755D01*
X76638733Y-75374756D01*
X76627721Y-75391236D01*
X76026236Y-75992721D01*
X76009755Y-76003733D01*
X75990315Y-76007600D01*
X72974200Y-76007600D01*
X72968800Y-76006525D01*
X72963400Y-76007600D01*
X70059685Y-76007600D01*
X70040245Y-76003733D01*
X70040244Y-76003733D01*
X70023764Y-75992721D01*
X69422279Y-75391236D01*
X69411267Y-75374755D01*
X69407400Y-75355315D01*
X69407400Y-75334273D01*
X69509000Y-75334273D01*
X70080727Y-75906000D01*
X72963400Y-75906000D01*
X72968800Y-75907074D01*
X72974200Y-75906000D01*
X75969273Y-75906000D01*
X76541000Y-75334273D01*
X76541000Y-74525727D01*
X75969273Y-73954000D01*
X70080727Y-73954000D01*
X69509000Y-74525727D01*
X69509000Y-75334273D01*
X69407400Y-75334273D01*
X69407400Y-74525727D01*
X69407400Y-74504685D01*
X69411267Y-74485245D01*
X69411268Y-74485244D01*
X69422279Y-74468764D01*
X70023764Y-73867279D01*
X70040244Y-73856267D01*
X70040245Y-73856267D01*
X70059685Y-73852400D01*
X75990315Y-73852400D01*
X76009755Y-73856267D01*
G37*
X103473640Y-78476267D02*
X103479600Y-78482227D01*
X103485560Y-78476267D01*
X103505000Y-78472400D01*
X103857828Y-78472400D01*
X103877268Y-78476267D01*
X103893749Y-78487279D01*
X104392721Y-78986251D01*
X104403733Y-79002732D01*
X104407600Y-79022172D01*
X104407600Y-79727828D01*
X104403733Y-79747268D01*
X104392721Y-79763749D01*
X103893749Y-80262721D01*
X103877268Y-80273733D01*
X103857828Y-80277600D01*
X103152172Y-80277600D01*
X103132732Y-80273733D01*
X103116251Y-80262721D01*
X102617279Y-79763749D01*
X102606267Y-79747268D01*
X102602400Y-79727828D01*
X102602400Y-79706786D01*
X102704000Y-79706786D01*
X103173214Y-80176000D01*
X103836786Y-80176000D01*
X104306000Y-79706786D01*
X104306000Y-79043214D01*
X103836786Y-78574000D01*
X103505000Y-78574000D01*
X103485560Y-78570133D01*
X103479600Y-78564173D01*
X103473640Y-78570133D01*
X103454200Y-78574000D01*
X103158642Y-78574000D01*
X102704000Y-79028642D01*
X102704000Y-79706786D01*
X102602400Y-79706786D01*
X102602400Y-79028642D01*
X102602400Y-79007600D01*
X102606267Y-78988160D01*
X102617279Y-78971679D01*
X103101679Y-78487279D01*
X103118159Y-78476267D01*
X103118160Y-78476267D01*
X103137600Y-78472400D01*
X103454200Y-78472400D01*
X103473640Y-78476267D01*
G36*
X103473640Y-78476267D02*
G01*
X103479600Y-78482227D01*
X103485560Y-78476267D01*
X103505000Y-78472400D01*
X103857828Y-78472400D01*
X103877268Y-78476267D01*
X103893749Y-78487279D01*
X104392721Y-78986251D01*
X104403733Y-79002732D01*
X104407600Y-79022172D01*
X104407600Y-79727828D01*
X104403733Y-79747268D01*
X104392721Y-79763749D01*
X103893749Y-80262721D01*
X103877268Y-80273733D01*
X103857828Y-80277600D01*
X103152172Y-80277600D01*
X103132732Y-80273733D01*
X103116251Y-80262721D01*
X102617279Y-79763749D01*
X102606267Y-79747268D01*
X102602400Y-79727828D01*
X102602400Y-79706786D01*
X102704000Y-79706786D01*
X103173214Y-80176000D01*
X103836786Y-80176000D01*
X104306000Y-79706786D01*
X104306000Y-79043214D01*
X103836786Y-78574000D01*
X103505000Y-78574000D01*
X103485560Y-78570133D01*
X103479600Y-78564173D01*
X103473640Y-78570133D01*
X103454200Y-78574000D01*
X103158642Y-78574000D01*
X102704000Y-79028642D01*
X102704000Y-79706786D01*
X102602400Y-79706786D01*
X102602400Y-79028642D01*
X102602400Y-79007600D01*
X102606267Y-78988160D01*
X102617279Y-78971679D01*
X103101679Y-78487279D01*
X103118159Y-78476267D01*
X103118160Y-78476267D01*
X103137600Y-78472400D01*
X103454200Y-78472400D01*
X103473640Y-78476267D01*
G37*
X74772953Y-39976267D02*
X74789434Y-39987279D01*
X75522721Y-40720566D01*
X75533733Y-40737046D01*
X75533733Y-40737047D01*
X75537600Y-40756487D01*
X75537600Y-41793513D01*
X75533733Y-41812953D01*
X75533733Y-41812954D01*
X75522721Y-41829434D01*
X74789434Y-42562721D01*
X74772953Y-42573733D01*
X74753513Y-42577600D01*
X70355373Y-42577600D01*
X70352040Y-42580933D01*
X70313159Y-42580933D01*
X70308171Y-42577600D01*
X66216487Y-42577600D01*
X66197047Y-42573733D01*
X66197046Y-42573733D01*
X66180566Y-42562721D01*
X65447279Y-41829434D01*
X65436267Y-41812953D01*
X65432400Y-41793513D01*
X65432400Y-41772471D01*
X65534000Y-41772471D01*
X66237529Y-42476000D01*
X70325400Y-42476000D01*
X70329000Y-42476716D01*
X70332600Y-42476000D01*
X74732471Y-42476000D01*
X75436000Y-41772471D01*
X75436000Y-40777529D01*
X74732471Y-40074000D01*
X66237529Y-40074000D01*
X65534000Y-40777529D01*
X65534000Y-41772471D01*
X65432400Y-41772471D01*
X65432400Y-40777529D01*
X65432400Y-40756487D01*
X65436267Y-40737047D01*
X65436268Y-40737046D01*
X65447279Y-40720566D01*
X66180566Y-39987279D01*
X66197046Y-39976267D01*
X66197047Y-39976267D01*
X66216487Y-39972400D01*
X74753513Y-39972400D01*
X74772953Y-39976267D01*
G36*
X74772953Y-39976267D02*
G01*
X74789434Y-39987279D01*
X75522721Y-40720566D01*
X75533733Y-40737046D01*
X75533733Y-40737047D01*
X75537600Y-40756487D01*
X75537600Y-41793513D01*
X75533733Y-41812953D01*
X75533733Y-41812954D01*
X75522721Y-41829434D01*
X74789434Y-42562721D01*
X74772953Y-42573733D01*
X74753513Y-42577600D01*
X70355373Y-42577600D01*
X70352040Y-42580933D01*
X70313159Y-42580933D01*
X70308171Y-42577600D01*
X66216487Y-42577600D01*
X66197047Y-42573733D01*
X66197046Y-42573733D01*
X66180566Y-42562721D01*
X65447279Y-41829434D01*
X65436267Y-41812953D01*
X65432400Y-41793513D01*
X65432400Y-41772471D01*
X65534000Y-41772471D01*
X66237529Y-42476000D01*
X70325400Y-42476000D01*
X70329000Y-42476716D01*
X70332600Y-42476000D01*
X74732471Y-42476000D01*
X75436000Y-41772471D01*
X75436000Y-40777529D01*
X74732471Y-40074000D01*
X66237529Y-40074000D01*
X65534000Y-40777529D01*
X65534000Y-41772471D01*
X65432400Y-41772471D01*
X65432400Y-40777529D01*
X65432400Y-40756487D01*
X65436267Y-40737047D01*
X65436268Y-40737046D01*
X65447279Y-40720566D01*
X66180566Y-39987279D01*
X66197046Y-39976267D01*
X66197047Y-39976267D01*
X66216487Y-39972400D01*
X74753513Y-39972400D01*
X74772953Y-39976267D01*
G37*
X140748240Y-46041267D02*
X140764721Y-46052279D01*
X142656921Y-47944479D01*
X142667933Y-47960960D01*
X142671800Y-47980400D01*
X142671800Y-49657000D01*
X142667933Y-49676440D01*
X142667933Y-49676441D01*
X142656921Y-49692921D01*
X142529921Y-49819921D01*
X142513440Y-49830933D01*
X142494000Y-49834800D01*
X141176120Y-49834800D01*
X141156680Y-49830933D01*
X141156679Y-49830933D01*
X141155341Y-49830039D01*
X140711239Y-49830039D01*
X140691799Y-49826172D01*
X140691798Y-49826172D01*
X140675318Y-49815160D01*
X140553079Y-49692921D01*
X140542067Y-49676440D01*
X140538200Y-49657000D01*
X140538200Y-48662042D01*
X139397279Y-47521121D01*
X139386267Y-47504640D01*
X139382400Y-47485200D01*
X139382400Y-47464158D01*
X139484000Y-47464158D01*
X140624921Y-48605079D01*
X140635933Y-48621559D01*
X140635933Y-48621560D01*
X140639800Y-48641000D01*
X140639800Y-49635958D01*
X140732281Y-49728439D01*
X141171359Y-49728439D01*
X141190799Y-49732306D01*
X141192137Y-49733200D01*
X142472958Y-49733200D01*
X142570200Y-49635958D01*
X142570200Y-48001442D01*
X140707758Y-46139000D01*
X139982504Y-46139000D01*
X139484000Y-46637504D01*
X139484000Y-47464158D01*
X139382400Y-47464158D01*
X139382400Y-46637504D01*
X139382400Y-46616462D01*
X139386267Y-46597022D01*
X139397279Y-46580541D01*
X139925541Y-46052279D01*
X139942022Y-46041267D01*
X139961462Y-46037400D01*
X140728800Y-46037400D01*
X140748240Y-46041267D01*
G36*
X140748240Y-46041267D02*
G01*
X140764721Y-46052279D01*
X142656921Y-47944479D01*
X142667933Y-47960960D01*
X142671800Y-47980400D01*
X142671800Y-49657000D01*
X142667933Y-49676440D01*
X142667933Y-49676441D01*
X142656921Y-49692921D01*
X142529921Y-49819921D01*
X142513440Y-49830933D01*
X142494000Y-49834800D01*
X141176120Y-49834800D01*
X141156680Y-49830933D01*
X141156679Y-49830933D01*
X141155341Y-49830039D01*
X140711239Y-49830039D01*
X140691799Y-49826172D01*
X140691798Y-49826172D01*
X140675318Y-49815160D01*
X140553079Y-49692921D01*
X140542067Y-49676440D01*
X140538200Y-49657000D01*
X140538200Y-48662042D01*
X139397279Y-47521121D01*
X139386267Y-47504640D01*
X139382400Y-47485200D01*
X139382400Y-47464158D01*
X139484000Y-47464158D01*
X140624921Y-48605079D01*
X140635933Y-48621559D01*
X140635933Y-48621560D01*
X140639800Y-48641000D01*
X140639800Y-49635958D01*
X140732281Y-49728439D01*
X141171359Y-49728439D01*
X141190799Y-49732306D01*
X141192137Y-49733200D01*
X142472958Y-49733200D01*
X142570200Y-49635958D01*
X142570200Y-48001442D01*
X140707758Y-46139000D01*
X139982504Y-46139000D01*
X139484000Y-46637504D01*
X139484000Y-47464158D01*
X139382400Y-47464158D01*
X139382400Y-46637504D01*
X139382400Y-46616462D01*
X139386267Y-46597022D01*
X139397279Y-46580541D01*
X139925541Y-46052279D01*
X139942022Y-46041267D01*
X139961462Y-46037400D01*
X140728800Y-46037400D01*
X140748240Y-46041267D01*
G37*
X61987978Y-61281267D02*
X62004459Y-61292279D01*
X62532721Y-61820541D01*
X62543733Y-61837021D01*
X62543733Y-61837022D01*
X62547600Y-61856462D01*
X62547600Y-62603538D01*
X62543733Y-62622978D01*
X62543733Y-62622979D01*
X62532721Y-62639459D01*
X62004459Y-63167721D01*
X61988372Y-63178469D01*
X61986521Y-63180321D01*
X61970040Y-63191333D01*
X61950600Y-63195200D01*
X61438242Y-63195200D01*
X61277600Y-63355842D01*
X61277600Y-64401800D01*
X61273733Y-64421240D01*
X61246240Y-64448733D01*
X61226800Y-64452600D01*
X59423200Y-64452600D01*
X59403760Y-64448733D01*
X59376267Y-64421240D01*
X59372400Y-64401800D01*
X59372400Y-64351000D01*
X59474000Y-64351000D01*
X61176000Y-64351000D01*
X61176000Y-63334800D01*
X61179867Y-63315360D01*
X61190879Y-63298879D01*
X61381279Y-63108479D01*
X61397759Y-63097467D01*
X61397760Y-63097467D01*
X61417200Y-63093600D01*
X61930690Y-63093600D01*
X61943367Y-63085128D01*
X62446000Y-62582496D01*
X62446000Y-61877504D01*
X61947496Y-61379000D01*
X61242504Y-61379000D01*
X60731400Y-61890104D01*
X60731400Y-62433200D01*
X60727533Y-62452640D01*
X60727533Y-62452641D01*
X60716521Y-62469121D01*
X60551521Y-62634121D01*
X60535040Y-62645133D01*
X60515600Y-62649000D01*
X59474000Y-62649000D01*
X59474000Y-64351000D01*
X59372400Y-64351000D01*
X59372400Y-62649000D01*
X59372400Y-62598200D01*
X59376267Y-62578760D01*
X59403760Y-62551267D01*
X59423200Y-62547400D01*
X60494558Y-62547400D01*
X60629800Y-62412158D01*
X60629800Y-61869062D01*
X60633667Y-61849622D01*
X60644679Y-61833141D01*
X61185541Y-61292279D01*
X61202021Y-61281267D01*
X61202022Y-61281267D01*
X61221462Y-61277400D01*
X61968538Y-61277400D01*
X61987978Y-61281267D01*
G36*
X61987978Y-61281267D02*
G01*
X62004459Y-61292279D01*
X62532721Y-61820541D01*
X62543733Y-61837021D01*
X62543733Y-61837022D01*
X62547600Y-61856462D01*
X62547600Y-62603538D01*
X62543733Y-62622978D01*
X62543733Y-62622979D01*
X62532721Y-62639459D01*
X62004459Y-63167721D01*
X61988372Y-63178469D01*
X61986521Y-63180321D01*
X61970040Y-63191333D01*
X61950600Y-63195200D01*
X61438242Y-63195200D01*
X61277600Y-63355842D01*
X61277600Y-64401800D01*
X61273733Y-64421240D01*
X61246240Y-64448733D01*
X61226800Y-64452600D01*
X59423200Y-64452600D01*
X59403760Y-64448733D01*
X59376267Y-64421240D01*
X59372400Y-64401800D01*
X59372400Y-64351000D01*
X59474000Y-64351000D01*
X61176000Y-64351000D01*
X61176000Y-63334800D01*
X61179867Y-63315360D01*
X61190879Y-63298879D01*
X61381279Y-63108479D01*
X61397759Y-63097467D01*
X61397760Y-63097467D01*
X61417200Y-63093600D01*
X61930690Y-63093600D01*
X61943367Y-63085128D01*
X62446000Y-62582496D01*
X62446000Y-61877504D01*
X61947496Y-61379000D01*
X61242504Y-61379000D01*
X60731400Y-61890104D01*
X60731400Y-62433200D01*
X60727533Y-62452640D01*
X60727533Y-62452641D01*
X60716521Y-62469121D01*
X60551521Y-62634121D01*
X60535040Y-62645133D01*
X60515600Y-62649000D01*
X59474000Y-62649000D01*
X59474000Y-64351000D01*
X59372400Y-64351000D01*
X59372400Y-62649000D01*
X59372400Y-62598200D01*
X59376267Y-62578760D01*
X59403760Y-62551267D01*
X59423200Y-62547400D01*
X60494558Y-62547400D01*
X60629800Y-62412158D01*
X60629800Y-61869062D01*
X60633667Y-61849622D01*
X60644679Y-61833141D01*
X61185541Y-61292279D01*
X61202021Y-61281267D01*
X61202022Y-61281267D01*
X61221462Y-61277400D01*
X61968538Y-61277400D01*
X61987978Y-61281267D01*
G37*
X55137821Y-74703352D02*
X55174446Y-74718523D01*
X55202477Y-74746554D01*
X55217648Y-74783179D01*
X55219600Y-74803000D01*
X55219600Y-89941400D01*
X63627000Y-89941400D01*
X63646821Y-89943352D01*
X63683446Y-89958523D01*
X63711477Y-89986554D01*
X63726648Y-90023179D01*
X63728600Y-90043000D01*
X63728600Y-91948000D01*
X63726648Y-91967821D01*
X63711477Y-92004446D01*
X63698842Y-92019842D01*
X59634842Y-96083842D01*
X59619446Y-96096477D01*
X59582821Y-96111648D01*
X59563000Y-96113600D01*
X49022000Y-96113600D01*
X49002179Y-96111648D01*
X48965554Y-96096478D01*
X48950158Y-96083842D01*
X42121916Y-89255600D01*
X31750000Y-89255600D01*
X31730179Y-89253648D01*
X31693554Y-89238477D01*
X31665523Y-89210446D01*
X31650352Y-89173821D01*
X31648400Y-89154000D01*
X31648400Y-89052400D01*
X31851600Y-89052400D01*
X42164000Y-89052400D01*
X42183821Y-89054352D01*
X42220446Y-89069523D01*
X42235842Y-89082158D01*
X49064084Y-95910400D01*
X59520916Y-95910400D01*
X63525400Y-91905916D01*
X63525400Y-90144600D01*
X55118000Y-90144600D01*
X55098179Y-90142648D01*
X55061554Y-90127477D01*
X55033523Y-90099446D01*
X55018352Y-90062821D01*
X55016400Y-90043000D01*
X55016400Y-74904600D01*
X44365084Y-74904600D01*
X40838842Y-78430842D01*
X40823446Y-78443477D01*
X40786821Y-78458648D01*
X40767000Y-78460600D01*
X31851600Y-78460600D01*
X31851600Y-89052400D01*
X31648400Y-89052400D01*
X31648400Y-78460600D01*
X31648400Y-78359000D01*
X31650352Y-78339179D01*
X31665523Y-78302554D01*
X31693554Y-78274523D01*
X31730179Y-78259352D01*
X31750000Y-78257400D01*
X40724916Y-78257400D01*
X44251158Y-74731158D01*
X44266553Y-74718523D01*
X44277280Y-74714079D01*
X44303179Y-74703352D01*
X44323000Y-74701400D01*
X55118000Y-74701400D01*
X55137821Y-74703352D01*
G36*
X55137821Y-74703352D02*
G01*
X55174446Y-74718523D01*
X55202477Y-74746554D01*
X55217648Y-74783179D01*
X55219600Y-74803000D01*
X55219600Y-89941400D01*
X63627000Y-89941400D01*
X63646821Y-89943352D01*
X63683446Y-89958523D01*
X63711477Y-89986554D01*
X63726648Y-90023179D01*
X63728600Y-90043000D01*
X63728600Y-91948000D01*
X63726648Y-91967821D01*
X63711477Y-92004446D01*
X63698842Y-92019842D01*
X59634842Y-96083842D01*
X59619446Y-96096477D01*
X59582821Y-96111648D01*
X59563000Y-96113600D01*
X49022000Y-96113600D01*
X49002179Y-96111648D01*
X48965554Y-96096478D01*
X48950158Y-96083842D01*
X42121916Y-89255600D01*
X31750000Y-89255600D01*
X31730179Y-89253648D01*
X31693554Y-89238477D01*
X31665523Y-89210446D01*
X31650352Y-89173821D01*
X31648400Y-89154000D01*
X31648400Y-89052400D01*
X31851600Y-89052400D01*
X42164000Y-89052400D01*
X42183821Y-89054352D01*
X42220446Y-89069523D01*
X42235842Y-89082158D01*
X49064084Y-95910400D01*
X59520916Y-95910400D01*
X63525400Y-91905916D01*
X63525400Y-90144600D01*
X55118000Y-90144600D01*
X55098179Y-90142648D01*
X55061554Y-90127477D01*
X55033523Y-90099446D01*
X55018352Y-90062821D01*
X55016400Y-90043000D01*
X55016400Y-74904600D01*
X44365084Y-74904600D01*
X40838842Y-78430842D01*
X40823446Y-78443477D01*
X40786821Y-78458648D01*
X40767000Y-78460600D01*
X31851600Y-78460600D01*
X31851600Y-89052400D01*
X31648400Y-89052400D01*
X31648400Y-78460600D01*
X31648400Y-78359000D01*
X31650352Y-78339179D01*
X31665523Y-78302554D01*
X31693554Y-78274523D01*
X31730179Y-78259352D01*
X31750000Y-78257400D01*
X40724916Y-78257400D01*
X44251158Y-74731158D01*
X44266553Y-74718523D01*
X44277280Y-74714079D01*
X44303179Y-74703352D01*
X44323000Y-74701400D01*
X55118000Y-74701400D01*
X55137821Y-74703352D01*
G37*
X113485110Y-65616267D02*
X113501591Y-65627279D01*
X114117721Y-66243409D01*
X114128733Y-66259889D01*
X114128733Y-66259890D01*
X114132600Y-66279330D01*
X114132600Y-67150670D01*
X114128733Y-67170110D01*
X114128733Y-67170111D01*
X114117721Y-67186591D01*
X113501591Y-67802721D01*
X113485110Y-67813733D01*
X113465670Y-67817600D01*
X109141600Y-67817600D01*
X109141600Y-69551510D01*
X109137733Y-69570950D01*
X109126721Y-69587431D01*
X104103830Y-74610321D01*
X104087349Y-74621333D01*
X104067909Y-74625200D01*
X102971600Y-74625200D01*
X102960540Y-74623000D01*
X102612773Y-74623000D01*
X102612240Y-74623533D01*
X102598980Y-74623533D01*
X102590600Y-74625200D01*
X101490773Y-74625200D01*
X101471333Y-74621333D01*
X101471332Y-74621333D01*
X101454852Y-74610321D01*
X99623279Y-72778748D01*
X99612267Y-72762267D01*
X99608400Y-72742827D01*
X99608400Y-72721785D01*
X99710000Y-72721785D01*
X101511815Y-74523600D01*
X102556340Y-74523600D01*
X102567400Y-74521400D01*
X102969400Y-74521400D01*
X102980460Y-74523600D01*
X104046867Y-74523600D01*
X109040000Y-69530467D01*
X109040000Y-67766800D01*
X109043867Y-67747360D01*
X109071360Y-67719867D01*
X109090800Y-67716000D01*
X113444628Y-67716000D01*
X114031000Y-67129628D01*
X114031000Y-66300372D01*
X113444628Y-65714000D01*
X108210372Y-65714000D01*
X107584000Y-66340372D01*
X107584000Y-69678490D01*
X107580133Y-69697930D01*
X107580133Y-69697931D01*
X107569121Y-69714411D01*
X103943211Y-73340321D01*
X103926730Y-73351333D01*
X103907290Y-73355200D01*
X103086800Y-73355200D01*
X103081295Y-73354105D01*
X103067359Y-73354105D01*
X103050879Y-73343093D01*
X101296786Y-71589000D01*
X100179215Y-71589000D01*
X99710000Y-72058215D01*
X99710000Y-72721785D01*
X99608400Y-72721785D01*
X99608400Y-72058215D01*
X99608400Y-72037173D01*
X99612267Y-72017733D01*
X99623279Y-72001252D01*
X100122252Y-71502279D01*
X100138732Y-71491267D01*
X100138733Y-71491267D01*
X100158173Y-71487400D01*
X101317828Y-71487400D01*
X101337268Y-71491267D01*
X101353749Y-71502279D01*
X103105070Y-73253600D01*
X103886248Y-73253600D01*
X107482400Y-69657448D01*
X107482400Y-66319330D01*
X107486267Y-66299890D01*
X107497279Y-66283409D01*
X108153409Y-65627279D01*
X108169890Y-65616267D01*
X108189330Y-65612400D01*
X113465670Y-65612400D01*
X113485110Y-65616267D01*
G36*
X113485110Y-65616267D02*
G01*
X113501591Y-65627279D01*
X114117721Y-66243409D01*
X114128733Y-66259889D01*
X114128733Y-66259890D01*
X114132600Y-66279330D01*
X114132600Y-67150670D01*
X114128733Y-67170110D01*
X114128733Y-67170111D01*
X114117721Y-67186591D01*
X113501591Y-67802721D01*
X113485110Y-67813733D01*
X113465670Y-67817600D01*
X109141600Y-67817600D01*
X109141600Y-69551510D01*
X109137733Y-69570950D01*
X109126721Y-69587431D01*
X104103830Y-74610321D01*
X104087349Y-74621333D01*
X104067909Y-74625200D01*
X102971600Y-74625200D01*
X102960540Y-74623000D01*
X102612773Y-74623000D01*
X102612240Y-74623533D01*
X102598980Y-74623533D01*
X102590600Y-74625200D01*
X101490773Y-74625200D01*
X101471333Y-74621333D01*
X101471332Y-74621333D01*
X101454852Y-74610321D01*
X99623279Y-72778748D01*
X99612267Y-72762267D01*
X99608400Y-72742827D01*
X99608400Y-72721785D01*
X99710000Y-72721785D01*
X101511815Y-74523600D01*
X102556340Y-74523600D01*
X102567400Y-74521400D01*
X102969400Y-74521400D01*
X102980460Y-74523600D01*
X104046867Y-74523600D01*
X109040000Y-69530467D01*
X109040000Y-67766800D01*
X109043867Y-67747360D01*
X109071360Y-67719867D01*
X109090800Y-67716000D01*
X113444628Y-67716000D01*
X114031000Y-67129628D01*
X114031000Y-66300372D01*
X113444628Y-65714000D01*
X108210372Y-65714000D01*
X107584000Y-66340372D01*
X107584000Y-69678490D01*
X107580133Y-69697930D01*
X107580133Y-69697931D01*
X107569121Y-69714411D01*
X103943211Y-73340321D01*
X103926730Y-73351333D01*
X103907290Y-73355200D01*
X103086800Y-73355200D01*
X103081295Y-73354105D01*
X103067359Y-73354105D01*
X103050879Y-73343093D01*
X101296786Y-71589000D01*
X100179215Y-71589000D01*
X99710000Y-72058215D01*
X99710000Y-72721785D01*
X99608400Y-72721785D01*
X99608400Y-72058215D01*
X99608400Y-72037173D01*
X99612267Y-72017733D01*
X99623279Y-72001252D01*
X100122252Y-71502279D01*
X100138732Y-71491267D01*
X100138733Y-71491267D01*
X100158173Y-71487400D01*
X101317828Y-71487400D01*
X101337268Y-71491267D01*
X101353749Y-71502279D01*
X103105070Y-73253600D01*
X103886248Y-73253600D01*
X107482400Y-69657448D01*
X107482400Y-66319330D01*
X107486267Y-66299890D01*
X107497279Y-66283409D01*
X108153409Y-65627279D01*
X108169890Y-65616267D01*
X108189330Y-65612400D01*
X113465670Y-65612400D01*
X113485110Y-65616267D01*
G37*
X54738755Y-42880052D02*
X54755236Y-42891064D01*
X55839721Y-43975549D01*
X55850733Y-43992029D01*
X55850733Y-43992030D01*
X55854600Y-44011470D01*
X55854600Y-46689558D01*
X57475842Y-48310800D01*
X65019756Y-48310800D01*
X65039196Y-48314667D01*
X65055677Y-48325679D01*
X66939521Y-50209523D01*
X66950533Y-50226004D01*
X66954400Y-50245444D01*
X66954400Y-53162200D01*
X66950533Y-53181640D01*
X66923040Y-53209133D01*
X66903600Y-53213000D01*
X55647042Y-53213000D01*
X52730400Y-56129642D01*
X52730400Y-60253158D01*
X55037721Y-62560479D01*
X55048733Y-62576960D01*
X55052600Y-62596400D01*
X55052600Y-71545315D01*
X55048733Y-71564755D01*
X55037721Y-71581236D01*
X54193036Y-72425921D01*
X54176555Y-72436933D01*
X54157115Y-72440800D01*
X48387000Y-72440800D01*
X48367560Y-72436933D01*
X48351079Y-72425921D01*
X47589079Y-71663921D01*
X47578067Y-71647440D01*
X47574200Y-71628000D01*
X47574200Y-64211200D01*
X32054800Y-64211200D01*
X32035360Y-64207333D01*
X32007867Y-64179840D01*
X32004000Y-64160400D01*
X32004000Y-64109600D01*
X32105600Y-64109600D01*
X47625000Y-64109600D01*
X47644440Y-64113467D01*
X47671933Y-64140960D01*
X47675800Y-64160400D01*
X47675800Y-71606958D01*
X48408042Y-72339200D01*
X54136073Y-72339200D01*
X54951000Y-71524273D01*
X54951000Y-62617442D01*
X52643679Y-60310121D01*
X52632667Y-60293640D01*
X52628800Y-60274200D01*
X52628800Y-56108600D01*
X52632667Y-56089160D01*
X52643679Y-56072679D01*
X55590079Y-53126279D01*
X55606560Y-53115267D01*
X55626000Y-53111400D01*
X66852800Y-53111400D01*
X66852800Y-50266486D01*
X64998714Y-48412400D01*
X57454800Y-48412400D01*
X57435360Y-48408533D01*
X57418879Y-48397521D01*
X55767879Y-46746521D01*
X55756867Y-46730040D01*
X55753000Y-46710600D01*
X55753000Y-44032512D01*
X54698273Y-42977785D01*
X48950902Y-42977785D01*
X48183800Y-43744887D01*
X48183800Y-45720000D01*
X48179933Y-45739440D01*
X48152440Y-45766933D01*
X48133000Y-45770800D01*
X48077842Y-45770800D01*
X39659921Y-54188721D01*
X39643440Y-54199733D01*
X39624000Y-54203600D01*
X32105600Y-54203600D01*
X32105600Y-64109600D01*
X32004000Y-64109600D01*
X32004000Y-54203600D01*
X32004000Y-54152800D01*
X32007867Y-54133360D01*
X32035360Y-54105867D01*
X32054800Y-54102000D01*
X39602958Y-54102000D01*
X48020879Y-45684079D01*
X48037359Y-45673067D01*
X48037360Y-45673067D01*
X48056800Y-45669200D01*
X48082200Y-45669200D01*
X48082200Y-43723845D01*
X48086067Y-43704405D01*
X48097079Y-43687924D01*
X48893939Y-42891064D01*
X48910419Y-42880052D01*
X48910420Y-42880052D01*
X48929860Y-42876185D01*
X54719315Y-42876185D01*
X54738755Y-42880052D01*
G36*
X54738755Y-42880052D02*
G01*
X54755236Y-42891064D01*
X55839721Y-43975549D01*
X55850733Y-43992029D01*
X55850733Y-43992030D01*
X55854600Y-44011470D01*
X55854600Y-46689558D01*
X57475842Y-48310800D01*
X65019756Y-48310800D01*
X65039196Y-48314667D01*
X65055677Y-48325679D01*
X66939521Y-50209523D01*
X66950533Y-50226004D01*
X66954400Y-50245444D01*
X66954400Y-53162200D01*
X66950533Y-53181640D01*
X66923040Y-53209133D01*
X66903600Y-53213000D01*
X55647042Y-53213000D01*
X52730400Y-56129642D01*
X52730400Y-60253158D01*
X55037721Y-62560479D01*
X55048733Y-62576960D01*
X55052600Y-62596400D01*
X55052600Y-71545315D01*
X55048733Y-71564755D01*
X55037721Y-71581236D01*
X54193036Y-72425921D01*
X54176555Y-72436933D01*
X54157115Y-72440800D01*
X48387000Y-72440800D01*
X48367560Y-72436933D01*
X48351079Y-72425921D01*
X47589079Y-71663921D01*
X47578067Y-71647440D01*
X47574200Y-71628000D01*
X47574200Y-64211200D01*
X32054800Y-64211200D01*
X32035360Y-64207333D01*
X32007867Y-64179840D01*
X32004000Y-64160400D01*
X32004000Y-64109600D01*
X32105600Y-64109600D01*
X47625000Y-64109600D01*
X47644440Y-64113467D01*
X47671933Y-64140960D01*
X47675800Y-64160400D01*
X47675800Y-71606958D01*
X48408042Y-72339200D01*
X54136073Y-72339200D01*
X54951000Y-71524273D01*
X54951000Y-62617442D01*
X52643679Y-60310121D01*
X52632667Y-60293640D01*
X52628800Y-60274200D01*
X52628800Y-56108600D01*
X52632667Y-56089160D01*
X52643679Y-56072679D01*
X55590079Y-53126279D01*
X55606560Y-53115267D01*
X55626000Y-53111400D01*
X66852800Y-53111400D01*
X66852800Y-50266486D01*
X64998714Y-48412400D01*
X57454800Y-48412400D01*
X57435360Y-48408533D01*
X57418879Y-48397521D01*
X55767879Y-46746521D01*
X55756867Y-46730040D01*
X55753000Y-46710600D01*
X55753000Y-44032512D01*
X54698273Y-42977785D01*
X48950902Y-42977785D01*
X48183800Y-43744887D01*
X48183800Y-45720000D01*
X48179933Y-45739440D01*
X48152440Y-45766933D01*
X48133000Y-45770800D01*
X48077842Y-45770800D01*
X39659921Y-54188721D01*
X39643440Y-54199733D01*
X39624000Y-54203600D01*
X32105600Y-54203600D01*
X32105600Y-64109600D01*
X32004000Y-64109600D01*
X32004000Y-54203600D01*
X32004000Y-54152800D01*
X32007867Y-54133360D01*
X32035360Y-54105867D01*
X32054800Y-54102000D01*
X39602958Y-54102000D01*
X48020879Y-45684079D01*
X48037359Y-45673067D01*
X48037360Y-45673067D01*
X48056800Y-45669200D01*
X48082200Y-45669200D01*
X48082200Y-43723845D01*
X48086067Y-43704405D01*
X48097079Y-43687924D01*
X48893939Y-42891064D01*
X48910419Y-42880052D01*
X48910420Y-42880052D01*
X48929860Y-42876185D01*
X54719315Y-42876185D01*
X54738755Y-42880052D01*
G37*
X79277953Y-35531267D02*
X79294434Y-35542279D01*
X80045921Y-36293766D01*
X80056933Y-36310246D01*
X80056933Y-36310247D01*
X80060800Y-36329687D01*
X80060800Y-37335800D01*
X80056933Y-37355240D01*
X80045921Y-37371721D01*
X79296600Y-38121042D01*
X79296600Y-49934448D01*
X81256552Y-51894400D01*
X87331510Y-51894400D01*
X87350950Y-51898267D01*
X87367431Y-51909279D01*
X90330721Y-54872569D01*
X90341733Y-54889050D01*
X90345600Y-54908490D01*
X90345600Y-56597509D01*
X90341733Y-56616949D01*
X90341732Y-56616950D01*
X90330721Y-56633430D01*
X89987324Y-56976827D01*
X89987324Y-57318104D01*
X89983457Y-57337544D01*
X89972445Y-57354025D01*
X89473473Y-57852997D01*
X89456992Y-57864009D01*
X89437552Y-57867876D01*
X88731896Y-57867876D01*
X88712456Y-57864009D01*
X88695975Y-57852997D01*
X88197003Y-57354025D01*
X88185991Y-57337544D01*
X88182124Y-57318104D01*
X88182124Y-56612448D01*
X88185991Y-56593008D01*
X88197003Y-56576527D01*
X88746775Y-56026755D01*
X88763256Y-56015743D01*
X88782696Y-56011876D01*
X89230200Y-56011876D01*
X89230200Y-55367642D01*
X86897758Y-53035200D01*
X80822800Y-53035200D01*
X80803360Y-53031333D01*
X80803359Y-53031333D01*
X80786879Y-53020321D01*
X78198279Y-50431721D01*
X78187267Y-50415240D01*
X78183400Y-50395800D01*
X78183400Y-38115555D01*
X77452279Y-37384434D01*
X77441267Y-37367953D01*
X77437400Y-37348513D01*
X77437400Y-37327471D01*
X77539000Y-37327471D01*
X78244597Y-38033068D01*
X78253640Y-38034867D01*
X78281133Y-38062360D01*
X78285000Y-38081800D01*
X78285000Y-50374758D01*
X80843842Y-52933600D01*
X86918800Y-52933600D01*
X86938240Y-52937467D01*
X86954721Y-52948479D01*
X89316921Y-55310679D01*
X89327933Y-55327159D01*
X89327933Y-55327160D01*
X89331800Y-55346600D01*
X89331800Y-56062676D01*
X89327933Y-56082116D01*
X89300440Y-56109609D01*
X89281000Y-56113476D01*
X88803738Y-56113476D01*
X88283724Y-56633490D01*
X88283724Y-57297062D01*
X88752938Y-57766276D01*
X89416510Y-57766276D01*
X89885724Y-57297062D01*
X89885724Y-56955786D01*
X89889591Y-56936346D01*
X89900603Y-56919865D01*
X90244000Y-56576467D01*
X90244000Y-54929532D01*
X87310468Y-51996000D01*
X81235510Y-51996000D01*
X81216070Y-51992133D01*
X81199589Y-51981121D01*
X79209879Y-49991411D01*
X79198867Y-49974930D01*
X79195000Y-49955490D01*
X79195000Y-38100000D01*
X79198867Y-38080560D01*
X79209879Y-38064079D01*
X79959200Y-37314758D01*
X79959200Y-36350729D01*
X79237471Y-35629000D01*
X78242529Y-35629000D01*
X77539000Y-36332529D01*
X77539000Y-37327471D01*
X77437400Y-37327471D01*
X77437400Y-36332529D01*
X77437400Y-36311487D01*
X77441267Y-36292047D01*
X77452279Y-36275566D01*
X78185566Y-35542279D01*
X78202046Y-35531267D01*
X78202047Y-35531267D01*
X78221487Y-35527400D01*
X79258513Y-35527400D01*
X79277953Y-35531267D01*
X127813150Y-34575467D02*
X127829631Y-34586479D01*
X131802552Y-38559400D01*
X143846510Y-38559400D01*
X143865950Y-38563267D01*
X143882431Y-38574279D01*
X146972721Y-41664570D01*
X146983733Y-41681051D01*
X146987600Y-41700491D01*
X146987600Y-44119800D01*
X158048070Y-44119800D01*
X158067510Y-44123667D01*
X158083991Y-44134679D01*
X159202721Y-45253409D01*
X159213733Y-45269889D01*
X159213733Y-45269890D01*
X159217600Y-45289330D01*
X159217600Y-46160670D01*
X159213733Y-46180110D01*
X159213733Y-46180111D01*
X159202721Y-46196591D01*
X158586591Y-46812721D01*
X158570110Y-46823733D01*
X158550670Y-46827600D01*
X153904242Y-46827600D01*
X152958800Y-47773042D01*
X152958800Y-52095400D01*
X189670828Y-52095400D01*
X189690268Y-52099267D01*
X189706749Y-52110279D01*
X191817721Y-54221251D01*
X191828733Y-54237731D01*
X191828733Y-54237732D01*
X191832600Y-54257172D01*
X191832600Y-54962828D01*
X191828733Y-54982268D01*
X191817721Y-54998749D01*
X191318749Y-55497721D01*
X191302268Y-55508733D01*
X191282828Y-55512600D01*
X190566600Y-55512600D01*
X190547160Y-55508733D01*
X190530679Y-55497721D01*
X188243758Y-53210800D01*
X154190700Y-53210800D01*
X154190700Y-54550858D01*
X154199042Y-54559200D01*
X157353000Y-54559200D01*
X157372440Y-54563067D01*
X157388921Y-54574079D01*
X158785921Y-55971079D01*
X158796933Y-55987559D01*
X158796933Y-55987560D01*
X158800800Y-56007000D01*
X158800800Y-57015313D01*
X158796933Y-57034753D01*
X158796933Y-57034754D01*
X158785921Y-57051234D01*
X158034434Y-57802721D01*
X158017953Y-57813733D01*
X157998513Y-57817600D01*
X156961487Y-57817600D01*
X156942047Y-57813733D01*
X156925566Y-57802721D01*
X155561645Y-56438800D01*
X152781000Y-56438800D01*
X152761560Y-56434933D01*
X152745079Y-56423921D01*
X150967079Y-54645921D01*
X150956067Y-54629440D01*
X150952200Y-54610000D01*
X150952200Y-53488042D01*
X150674958Y-53210800D01*
X149980691Y-53210800D01*
X149961251Y-53206933D01*
X149944770Y-53195921D01*
X146583648Y-49834800D01*
X145674338Y-49834800D01*
X145654898Y-49830933D01*
X145654897Y-49830933D01*
X145638417Y-49819921D01*
X145539096Y-49720600D01*
X145529200Y-49720600D01*
X145509760Y-49716733D01*
X145482267Y-49689240D01*
X145478400Y-49669800D01*
X145478400Y-49659904D01*
X144109079Y-48290583D01*
X144098067Y-48274102D01*
X144094200Y-48254662D01*
X144094200Y-41804042D01*
X142807672Y-40517514D01*
X126140157Y-40517514D01*
X126028036Y-40629635D01*
X126011555Y-40640647D01*
X125992115Y-40644514D01*
X125467885Y-40644514D01*
X125448445Y-40640647D01*
X125431964Y-40629635D01*
X125061279Y-40258950D01*
X125050267Y-40242469D01*
X125046400Y-40223029D01*
X125046400Y-39698799D01*
X125050267Y-39679359D01*
X125061279Y-39662878D01*
X125431964Y-39292193D01*
X125448445Y-39281181D01*
X125467885Y-39277314D01*
X125992115Y-39277314D01*
X126011555Y-39281181D01*
X126028036Y-39292193D01*
X126140157Y-39404314D01*
X131073162Y-39404314D01*
X127355848Y-35687000D01*
X115087151Y-35687000D01*
X114291430Y-36482721D01*
X114274949Y-36493733D01*
X114255509Y-36497600D01*
X86209552Y-36497600D01*
X85122600Y-37584552D01*
X85122600Y-46114248D01*
X85118733Y-46133688D01*
X85107721Y-46150169D01*
X84550169Y-46707721D01*
X84533688Y-46718733D01*
X84514248Y-46722600D01*
X83125752Y-46722600D01*
X83106312Y-46718733D01*
X83106311Y-46718733D01*
X83089831Y-46707721D01*
X82514079Y-46131969D01*
X82503067Y-46115488D01*
X82499200Y-46096048D01*
X82499200Y-46075006D01*
X82600800Y-46075006D01*
X83146794Y-46621000D01*
X84493206Y-46621000D01*
X85021000Y-46093206D01*
X85021000Y-37563510D01*
X85024867Y-37544070D01*
X85035879Y-37527589D01*
X86152589Y-36410879D01*
X86169069Y-36399868D01*
X86169070Y-36399867D01*
X86188510Y-36396000D01*
X114234467Y-36396000D01*
X115030188Y-35600279D01*
X115046669Y-35589267D01*
X115066109Y-35585400D01*
X127376890Y-35585400D01*
X127396330Y-35589267D01*
X127412811Y-35600279D01*
X131231725Y-39419193D01*
X131242737Y-39435674D01*
X131242737Y-39474555D01*
X131215245Y-39502047D01*
X131215244Y-39502047D01*
X131195804Y-39505914D01*
X126119115Y-39505914D01*
X126099675Y-39502047D01*
X126099674Y-39502047D01*
X126083194Y-39491035D01*
X125971073Y-39378914D01*
X125488927Y-39378914D01*
X125148000Y-39719841D01*
X125148000Y-40201987D01*
X125488927Y-40542914D01*
X125971073Y-40542914D01*
X126083194Y-40430793D01*
X126099674Y-40419781D01*
X126099675Y-40419781D01*
X126119115Y-40415914D01*
X142828714Y-40415914D01*
X142848154Y-40419781D01*
X142864635Y-40430793D01*
X144180921Y-41747079D01*
X144191933Y-41763560D01*
X144195800Y-41783000D01*
X144195800Y-48233620D01*
X145565121Y-49602941D01*
X145576133Y-49619421D01*
X145576133Y-49619422D01*
X145576704Y-49622295D01*
X145579578Y-49622867D01*
X145596059Y-49633879D01*
X145695380Y-49733200D01*
X146604690Y-49733200D01*
X146624130Y-49737067D01*
X146640611Y-49748079D01*
X150001733Y-53109200D01*
X150696000Y-53109200D01*
X150715440Y-53113067D01*
X150731921Y-53124079D01*
X151038921Y-53431079D01*
X151049933Y-53447560D01*
X151053800Y-53467000D01*
X151053800Y-54588958D01*
X152802042Y-56337200D01*
X155582687Y-56337200D01*
X155602127Y-56341067D01*
X155618608Y-56352079D01*
X156982529Y-57716000D01*
X157977471Y-57716000D01*
X158699200Y-56994271D01*
X158699200Y-56028042D01*
X157331958Y-54660800D01*
X154178000Y-54660800D01*
X154158560Y-54656933D01*
X154142079Y-54645921D01*
X154103979Y-54607821D01*
X154092967Y-54591340D01*
X154089100Y-54571900D01*
X154089100Y-53160000D01*
X154092967Y-53140560D01*
X154120460Y-53113067D01*
X154139900Y-53109200D01*
X188264800Y-53109200D01*
X188284240Y-53113067D01*
X188300721Y-53124079D01*
X190587642Y-55411000D01*
X191261786Y-55411000D01*
X191731000Y-54941786D01*
X191731000Y-54278214D01*
X189649786Y-52197000D01*
X152908000Y-52197000D01*
X152888560Y-52193133D01*
X152861067Y-52165640D01*
X152857200Y-52146200D01*
X152857200Y-47752000D01*
X152861067Y-47732560D01*
X152872079Y-47716079D01*
X153847279Y-46740879D01*
X153863759Y-46729867D01*
X153863760Y-46729867D01*
X153883200Y-46726000D01*
X158529628Y-46726000D01*
X159116000Y-46139628D01*
X159116000Y-45310372D01*
X158027028Y-44221400D01*
X146936800Y-44221400D01*
X146917360Y-44217533D01*
X146889867Y-44190040D01*
X146886000Y-44170600D01*
X146886000Y-41721532D01*
X143825468Y-38661000D01*
X131781510Y-38661000D01*
X131762070Y-38657133D01*
X131745589Y-38646121D01*
X127772668Y-34673200D01*
X114670333Y-34673200D01*
X113872411Y-35471121D01*
X113855930Y-35482133D01*
X113836490Y-35486000D01*
X85790533Y-35486000D01*
X84133266Y-37143266D01*
X84116785Y-37154278D01*
X84097345Y-37158145D01*
X83187649Y-37158145D01*
X82600800Y-37744994D01*
X82600800Y-46075006D01*
X82499200Y-46075006D01*
X82499200Y-37744994D01*
X82499200Y-37723952D01*
X82503067Y-37704512D01*
X82514079Y-37688031D01*
X83130686Y-37071424D01*
X83147167Y-37060412D01*
X83166607Y-37056545D01*
X84076303Y-37056545D01*
X85733570Y-35399279D01*
X85750051Y-35388267D01*
X85769491Y-35384400D01*
X113815448Y-35384400D01*
X114613370Y-34586479D01*
X114629850Y-34575468D01*
X114629851Y-34575467D01*
X114649291Y-34571600D01*
X127793710Y-34571600D01*
X127813150Y-34575467D01*
G36*
X127813150Y-34575467D02*
G01*
X127829631Y-34586479D01*
X131802552Y-38559400D01*
X143846510Y-38559400D01*
X143865950Y-38563267D01*
X143882431Y-38574279D01*
X146972721Y-41664570D01*
X146983733Y-41681051D01*
X146987600Y-41700491D01*
X146987600Y-44119800D01*
X158048070Y-44119800D01*
X158067510Y-44123667D01*
X158083991Y-44134679D01*
X159202721Y-45253409D01*
X159213733Y-45269889D01*
X159213733Y-45269890D01*
X159217600Y-45289330D01*
X159217600Y-46160670D01*
X159213733Y-46180110D01*
X159213733Y-46180111D01*
X159202721Y-46196591D01*
X158586591Y-46812721D01*
X158570110Y-46823733D01*
X158550670Y-46827600D01*
X153904242Y-46827600D01*
X152958800Y-47773042D01*
X152958800Y-52095400D01*
X189670828Y-52095400D01*
X189690268Y-52099267D01*
X189706749Y-52110279D01*
X191817721Y-54221251D01*
X191828733Y-54237731D01*
X191828733Y-54237732D01*
X191832600Y-54257172D01*
X191832600Y-54962828D01*
X191828733Y-54982268D01*
X191817721Y-54998749D01*
X191318749Y-55497721D01*
X191302268Y-55508733D01*
X191282828Y-55512600D01*
X190566600Y-55512600D01*
X190547160Y-55508733D01*
X190530679Y-55497721D01*
X188243758Y-53210800D01*
X154190700Y-53210800D01*
X154190700Y-54550858D01*
X154199042Y-54559200D01*
X157353000Y-54559200D01*
X157372440Y-54563067D01*
X157388921Y-54574079D01*
X158785921Y-55971079D01*
X158796933Y-55987559D01*
X158796933Y-55987560D01*
X158800800Y-56007000D01*
X158800800Y-57015313D01*
X158796933Y-57034753D01*
X158796933Y-57034754D01*
X158785921Y-57051234D01*
X158034434Y-57802721D01*
X158017953Y-57813733D01*
X157998513Y-57817600D01*
X156961487Y-57817600D01*
X156942047Y-57813733D01*
X156925566Y-57802721D01*
X155561645Y-56438800D01*
X152781000Y-56438800D01*
X152761560Y-56434933D01*
X152745079Y-56423921D01*
X150967079Y-54645921D01*
X150956067Y-54629440D01*
X150952200Y-54610000D01*
X150952200Y-53488042D01*
X150674958Y-53210800D01*
X149980691Y-53210800D01*
X149961251Y-53206933D01*
X149944770Y-53195921D01*
X146583648Y-49834800D01*
X145674338Y-49834800D01*
X145654898Y-49830933D01*
X145654897Y-49830933D01*
X145638417Y-49819921D01*
X145539096Y-49720600D01*
X145529200Y-49720600D01*
X145509760Y-49716733D01*
X145482267Y-49689240D01*
X145478400Y-49669800D01*
X145478400Y-49659904D01*
X144109079Y-48290583D01*
X144098067Y-48274102D01*
X144094200Y-48254662D01*
X144094200Y-41804042D01*
X142807672Y-40517514D01*
X126140157Y-40517514D01*
X126028036Y-40629635D01*
X126011555Y-40640647D01*
X125992115Y-40644514D01*
X125467885Y-40644514D01*
X125448445Y-40640647D01*
X125431964Y-40629635D01*
X125061279Y-40258950D01*
X125050267Y-40242469D01*
X125046400Y-40223029D01*
X125046400Y-39698799D01*
X125050267Y-39679359D01*
X125061279Y-39662878D01*
X125431964Y-39292193D01*
X125448445Y-39281181D01*
X125467885Y-39277314D01*
X125992115Y-39277314D01*
X126011555Y-39281181D01*
X126028036Y-39292193D01*
X126140157Y-39404314D01*
X131073162Y-39404314D01*
X127355848Y-35687000D01*
X115087151Y-35687000D01*
X114291430Y-36482721D01*
X114274949Y-36493733D01*
X114255509Y-36497600D01*
X86209552Y-36497600D01*
X85122600Y-37584552D01*
X85122600Y-46114248D01*
X85118733Y-46133688D01*
X85107721Y-46150169D01*
X84550169Y-46707721D01*
X84533688Y-46718733D01*
X84514248Y-46722600D01*
X83125752Y-46722600D01*
X83106312Y-46718733D01*
X83106311Y-46718733D01*
X83089831Y-46707721D01*
X82514079Y-46131969D01*
X82503067Y-46115488D01*
X82499200Y-46096048D01*
X82499200Y-46075006D01*
X82600800Y-46075006D01*
X83146794Y-46621000D01*
X84493206Y-46621000D01*
X85021000Y-46093206D01*
X85021000Y-37563510D01*
X85024867Y-37544070D01*
X85035879Y-37527589D01*
X86152589Y-36410879D01*
X86169069Y-36399868D01*
X86169070Y-36399867D01*
X86188510Y-36396000D01*
X114234467Y-36396000D01*
X115030188Y-35600279D01*
X115046669Y-35589267D01*
X115066109Y-35585400D01*
X127376890Y-35585400D01*
X127396330Y-35589267D01*
X127412811Y-35600279D01*
X131231725Y-39419193D01*
X131242737Y-39435674D01*
X131242737Y-39474555D01*
X131215245Y-39502047D01*
X131215244Y-39502047D01*
X131195804Y-39505914D01*
X126119115Y-39505914D01*
X126099675Y-39502047D01*
X126099674Y-39502047D01*
X126083194Y-39491035D01*
X125971073Y-39378914D01*
X125488927Y-39378914D01*
X125148000Y-39719841D01*
X125148000Y-40201987D01*
X125488927Y-40542914D01*
X125971073Y-40542914D01*
X126083194Y-40430793D01*
X126099674Y-40419781D01*
X126099675Y-40419781D01*
X126119115Y-40415914D01*
X142828714Y-40415914D01*
X142848154Y-40419781D01*
X142864635Y-40430793D01*
X144180921Y-41747079D01*
X144191933Y-41763560D01*
X144195800Y-41783000D01*
X144195800Y-48233620D01*
X145565121Y-49602941D01*
X145576133Y-49619421D01*
X145576133Y-49619422D01*
X145576704Y-49622295D01*
X145579578Y-49622867D01*
X145596059Y-49633879D01*
X145695380Y-49733200D01*
X146604690Y-49733200D01*
X146624130Y-49737067D01*
X146640611Y-49748079D01*
X150001733Y-53109200D01*
X150696000Y-53109200D01*
X150715440Y-53113067D01*
X150731921Y-53124079D01*
X151038921Y-53431079D01*
X151049933Y-53447560D01*
X151053800Y-53467000D01*
X151053800Y-54588958D01*
X152802042Y-56337200D01*
X155582687Y-56337200D01*
X155602127Y-56341067D01*
X155618608Y-56352079D01*
X156982529Y-57716000D01*
X157977471Y-57716000D01*
X158699200Y-56994271D01*
X158699200Y-56028042D01*
X157331958Y-54660800D01*
X154178000Y-54660800D01*
X154158560Y-54656933D01*
X154142079Y-54645921D01*
X154103979Y-54607821D01*
X154092967Y-54591340D01*
X154089100Y-54571900D01*
X154089100Y-53160000D01*
X154092967Y-53140560D01*
X154120460Y-53113067D01*
X154139900Y-53109200D01*
X188264800Y-53109200D01*
X188284240Y-53113067D01*
X188300721Y-53124079D01*
X190587642Y-55411000D01*
X191261786Y-55411000D01*
X191731000Y-54941786D01*
X191731000Y-54278214D01*
X189649786Y-52197000D01*
X152908000Y-52197000D01*
X152888560Y-52193133D01*
X152861067Y-52165640D01*
X152857200Y-52146200D01*
X152857200Y-47752000D01*
X152861067Y-47732560D01*
X152872079Y-47716079D01*
X153847279Y-46740879D01*
X153863759Y-46729867D01*
X153863760Y-46729867D01*
X153883200Y-46726000D01*
X158529628Y-46726000D01*
X159116000Y-46139628D01*
X159116000Y-45310372D01*
X158027028Y-44221400D01*
X146936800Y-44221400D01*
X146917360Y-44217533D01*
X146889867Y-44190040D01*
X146886000Y-44170600D01*
X146886000Y-41721532D01*
X143825468Y-38661000D01*
X131781510Y-38661000D01*
X131762070Y-38657133D01*
X131745589Y-38646121D01*
X127772668Y-34673200D01*
X114670333Y-34673200D01*
X113872411Y-35471121D01*
X113855930Y-35482133D01*
X113836490Y-35486000D01*
X85790533Y-35486000D01*
X84133266Y-37143266D01*
X84116785Y-37154278D01*
X84097345Y-37158145D01*
X83187649Y-37158145D01*
X82600800Y-37744994D01*
X82600800Y-46075006D01*
X82499200Y-46075006D01*
X82499200Y-37744994D01*
X82499200Y-37723952D01*
X82503067Y-37704512D01*
X82514079Y-37688031D01*
X83130686Y-37071424D01*
X83147167Y-37060412D01*
X83166607Y-37056545D01*
X84076303Y-37056545D01*
X85733570Y-35399279D01*
X85750051Y-35388267D01*
X85769491Y-35384400D01*
X113815448Y-35384400D01*
X114613370Y-34586479D01*
X114629850Y-34575468D01*
X114629851Y-34575467D01*
X114649291Y-34571600D01*
X127793710Y-34571600D01*
X127813150Y-34575467D01*
G37*
D11*
%TO.C,TP103*%
X73660000Y-59690000D03*
%TD*%
D12*
%TO.C,C2*%
X206689888Y-62230000D03*
D13*
X208689888Y-62230000D03*
%TD*%
D14*
%TO.C,D14*%
X95885000Y-73660000D03*
D15*
X95885000Y-76200000D03*
%TD*%
D11*
%TO.C,TH1*%
X51435000Y-88780000D03*
X51435000Y-81280000D03*
%TD*%
D16*
%TO.C,IC1*%
X180975000Y-73501000D03*
D17*
X178435000Y-73501000D03*
X175895000Y-73501000D03*
X173355000Y-73501000D03*
X173355000Y-81439000D03*
X175895000Y-81439000D03*
X178435000Y-81439000D03*
X180975000Y-81439000D03*
%TD*%
D18*
%TO.C,D20*%
X154940000Y-86360000D03*
D19*
X165100000Y-86360000D03*
%TD*%
D20*
%TO.C,R40*%
X170180000Y-58039000D03*
X170180000Y-54229000D03*
%TD*%
D12*
%TO.C,C5*%
X134299888Y-47625000D03*
D13*
X136299888Y-47625000D03*
%TD*%
%TO.C,C37*%
X113665000Y-74930000D03*
X108665000Y-74930000D03*
%TD*%
D21*
%TO.C,RL105*%
X70485000Y-64770000D03*
X70485000Y-69850000D03*
X70485000Y-72390000D03*
X70485000Y-74930000D03*
X75565000Y-74930000D03*
X75565000Y-72390000D03*
X75565000Y-69850000D03*
X75565000Y-64770000D03*
%TD*%
D22*
%TO.C,Q19*%
X100965000Y-79375000D03*
D23*
X102235000Y-80645000D03*
X103505000Y-79375000D03*
X102235000Y-78105000D03*
%TD*%
D20*
%TO.C,R1*%
X193040000Y-64770000D03*
X193040000Y-60960000D03*
%TD*%
D13*
%TO.C,C29*%
X203835000Y-76160000D03*
X203835000Y-71160000D03*
%TD*%
D24*
%TO.C,Q6*%
X110490000Y-52705000D03*
D25*
X111760000Y-52705000D03*
X113030000Y-52705000D03*
%TD*%
D26*
%TO.C,J41*%
X34925000Y-67945000D03*
D27*
X34925000Y-70485000D03*
X34925000Y-73025000D03*
%TD*%
D28*
%TO.C,U8*%
X107632500Y-82550000D03*
D29*
X107632500Y-85090000D03*
X107632500Y-87630000D03*
X107632500Y-90170000D03*
X107632500Y-92710000D03*
X107632500Y-95250000D03*
X107632500Y-97790000D03*
X115887500Y-97790000D03*
X115887500Y-95250000D03*
X115887500Y-92710000D03*
X115887500Y-90170000D03*
X115887500Y-87630000D03*
X115887500Y-85090000D03*
X115887500Y-82550000D03*
%TD*%
D30*
%TO.C,D18*%
X168910000Y-97790000D03*
D31*
X181610000Y-97790000D03*
%TD*%
D13*
%TO.C,C45*%
X129540000Y-72390000D03*
X129540000Y-82390000D03*
%TD*%
D32*
%TO.C,Q9*%
X141605000Y-48768000D03*
D33*
X140335000Y-46990000D03*
X141605000Y-45085000D03*
%TD*%
D13*
%TO.C,C40*%
X121285000Y-93305000D03*
X121285000Y-88305000D03*
%TD*%
D30*
%TO.C,D19*%
X168910000Y-102235000D03*
D31*
X181610000Y-102235000D03*
%TD*%
D24*
%TO.C,Q20*%
X102235000Y-53065000D03*
D25*
X103505000Y-53065000D03*
X104775000Y-53065000D03*
%TD*%
D32*
%TO.C,Q15*%
X60325000Y-57510000D03*
D33*
X61595000Y-56240000D03*
X62865000Y-57510000D03*
%TD*%
D11*
%TO.C,TP203*%
X169545000Y-77470000D03*
%TD*%
D30*
%TO.C,D11*%
X84455000Y-50165000D03*
D31*
X97155000Y-50165000D03*
%TD*%
D23*
%TO.C,Q5*%
X88335000Y-76940000D03*
X87835000Y-78740000D03*
X88335000Y-80540000D03*
X90735000Y-80540000D03*
X91235000Y-78740000D03*
X90735000Y-76940000D03*
%TD*%
D11*
%TO.C,TP304*%
X252730000Y-85090000D03*
%TD*%
D14*
%TO.C,Q23*%
X153395000Y-100330000D03*
D15*
X153395000Y-99060000D03*
X153395000Y-97790000D03*
%TD*%
D11*
%TO.C,TH3*%
X74235000Y-41275000D03*
X66735000Y-41275000D03*
%TD*%
D13*
%TO.C,C28*%
X220980000Y-95845000D03*
X220980000Y-90845000D03*
%TD*%
D20*
%TO.C,R39*%
X163830000Y-67310000D03*
X163830000Y-44450000D03*
%TD*%
D32*
%TO.C,Q12*%
X146685000Y-54610000D03*
D33*
X145415000Y-53340000D03*
X146685000Y-52070000D03*
%TD*%
D13*
%TO.C,C24*%
X186015000Y-69850000D03*
X181015000Y-69850000D03*
%TD*%
%TO.C,C36*%
X113665000Y-78105000D03*
X108665000Y-78105000D03*
%TD*%
D12*
%TO.C,C3*%
X189544888Y-86360000D03*
D13*
X191544888Y-86360000D03*
%TD*%
D12*
%TO.C,C1*%
X170815000Y-92710000D03*
D13*
X172815000Y-92710000D03*
%TD*%
D34*
%TO.C,RL104*%
X99060000Y-38100000D03*
X96520000Y-38100000D03*
X86360000Y-38100000D03*
X83820000Y-38100000D03*
X83820000Y-45720000D03*
X86360000Y-45720000D03*
X96520000Y-45720000D03*
X99060000Y-45720000D03*
%TD*%
D13*
%TO.C,C43*%
X143510000Y-81835000D03*
X143510000Y-76835000D03*
%TD*%
D21*
%TO.C,RL101*%
X59055000Y-71120000D03*
X53975000Y-71120000D03*
X51435000Y-71120000D03*
X48895000Y-71120000D03*
X48895000Y-76200000D03*
X51435000Y-76200000D03*
X53975000Y-76200000D03*
X59055000Y-76200000D03*
%TD*%
D26*
%TO.C,J40*%
X34925000Y-50165000D03*
D27*
X34925000Y-52705000D03*
X34925000Y-55245000D03*
X34925000Y-57785000D03*
X34925000Y-60325000D03*
X34925000Y-62865000D03*
%TD*%
D11*
%TO.C,R70*%
X80645000Y-83820000D03*
X80645000Y-80020000D03*
%TD*%
D22*
%TO.C,Q18*%
X100711000Y-72390000D03*
D23*
X102235000Y-73660000D03*
X103505000Y-72390000D03*
X102235000Y-71120000D03*
%TD*%
D32*
%TO.C,Q16*%
X60325000Y-63500000D03*
D33*
X61595000Y-62230000D03*
X62865000Y-63500000D03*
%TD*%
D11*
%TO.C,TP303*%
X142240000Y-71120000D03*
%TD*%
%TO.C,TP202*%
X157480000Y-56515000D03*
%TD*%
%TO.C,TP201*%
X224790000Y-78867000D03*
%TD*%
D13*
%TO.C,C46*%
X123190000Y-72470000D03*
X123190000Y-82470000D03*
%TD*%
D22*
%TO.C,Q13*%
X142526039Y-52991039D03*
D23*
X140367039Y-51721039D03*
X139097039Y-52991039D03*
X140367039Y-54261039D03*
%TD*%
D24*
%TO.C,Q3*%
X186055000Y-78465000D03*
D25*
X187325000Y-78465000D03*
X188595000Y-78465000D03*
%TD*%
D11*
%TO.C,TP305*%
X218440000Y-60325000D03*
%TD*%
D20*
%TO.C,R38*%
X205105000Y-39370000D03*
X205105000Y-43180000D03*
%TD*%
D12*
%TO.C,C7*%
X95564888Y-55245000D03*
D13*
X97564888Y-55245000D03*
%TD*%
D26*
%TO.C,J42*%
X34945000Y-80010000D03*
D27*
X34945000Y-82550000D03*
X34945000Y-85090000D03*
X34945000Y-87630000D03*
%TD*%
D13*
%TO.C,C44*%
X134620000Y-76875000D03*
X134620000Y-81875000D03*
%TD*%
D21*
%TO.C,RL103*%
X59615000Y-39114785D03*
X54535000Y-39114785D03*
X51995000Y-39114785D03*
X49455000Y-39114785D03*
X49455000Y-44194785D03*
X51995000Y-44194785D03*
X54535000Y-44194785D03*
X59615000Y-44194785D03*
%TD*%
D11*
%TO.C,TP302*%
X202565000Y-66675000D03*
%TD*%
D32*
%TO.C,Q10*%
X151257000Y-48768000D03*
D33*
X149987000Y-46990000D03*
X151257000Y-45085000D03*
%TD*%
D11*
%TO.C,TP301*%
X257175000Y-77470000D03*
%TD*%
D13*
%TO.C,C38*%
X88940000Y-100965000D03*
X93940000Y-100965000D03*
%TD*%
D22*
%TO.C,Q7*%
X154083039Y-55531039D03*
D23*
X151924039Y-54261039D03*
X150654039Y-55531039D03*
X151924039Y-56801039D03*
%TD*%
D35*
%TO.C,RL201*%
X190930000Y-39370000D03*
D23*
X190930000Y-41910000D03*
X190930000Y-52070000D03*
X190930000Y-54610000D03*
X199390000Y-54610000D03*
X199390000Y-52070000D03*
X199390000Y-41910000D03*
X199390000Y-39370000D03*
%TD*%
D14*
%TO.C,Q4*%
X120375000Y-99060000D03*
D15*
X120375000Y-97790000D03*
X120375000Y-96520000D03*
%TD*%
D36*
%TO.C,RL102*%
X82550000Y-91440000D03*
D37*
X77470000Y-91440000D03*
X72390000Y-91440000D03*
X67310000Y-91440000D03*
X62230000Y-91440000D03*
X57150000Y-91440000D03*
X57150000Y-99060000D03*
X62230000Y-99060000D03*
X67310000Y-99060000D03*
X72390000Y-99060000D03*
X77470000Y-99060000D03*
X82550000Y-99060000D03*
%TD*%
D22*
%TO.C,Q17*%
X110039724Y-58420000D03*
D23*
X111309724Y-59690000D03*
X112579724Y-58420000D03*
X111309724Y-57150000D03*
%TD*%
D13*
%TO.C,C47*%
X108585000Y-66755000D03*
X108585000Y-71755000D03*
%TD*%
D11*
%TO.C,TP102*%
X177165000Y-90805000D03*
%TD*%
D20*
%TO.C,R3*%
X205105000Y-51435000D03*
X205105000Y-55245000D03*
%TD*%
D13*
%TO.C,C25*%
X189190000Y-73025000D03*
X184190000Y-73025000D03*
%TD*%
D14*
%TO.C,D21*%
X159745000Y-95885000D03*
D15*
X159745000Y-93345000D03*
%TD*%
D20*
%TO.C,R2*%
X198120000Y-64770000D03*
X198120000Y-60960000D03*
%TD*%
D38*
%TO.C,U7*%
X250190000Y-81280000D03*
D39*
X250190000Y-78740000D03*
X250190000Y-76200000D03*
X250190000Y-73660000D03*
X250190000Y-71120000D03*
X250190000Y-68580000D03*
X250190000Y-66040000D03*
X250190000Y-63500000D03*
X250190000Y-60960000D03*
X242570000Y-60960000D03*
X242570000Y-63500000D03*
X242570000Y-66040000D03*
X242570000Y-68580000D03*
X242570000Y-71120000D03*
X242570000Y-73660000D03*
X242570000Y-76200000D03*
X242570000Y-78740000D03*
X242570000Y-81280000D03*
%TD*%
D13*
%TO.C,R9*%
X158115000Y-45725000D03*
X158115000Y-50805000D03*
%TD*%
%TO.C,C27*%
X229235000Y-90845000D03*
X229235000Y-95845000D03*
%TD*%
D23*
%TO.C,VR1*%
X130810000Y-65405000D03*
X128270000Y-65405000D03*
X125730000Y-65405000D03*
%TD*%
D13*
%TO.C,C26*%
X177125000Y-69850000D03*
X172125000Y-69850000D03*
%TD*%
D11*
%TO.C,TP101*%
X78740000Y-36830000D03*
%TD*%
D40*
%TO.C,C4*%
X184785000Y-83820000D03*
D13*
X184785000Y-85820000D03*
%TD*%
D41*
%TO.C,Q14*%
X87814724Y-58997276D03*
D23*
X89084724Y-56965276D03*
X87814724Y-55695276D03*
X86544724Y-56965276D03*
%TD*%
D11*
%TO.C,TH2*%
X43815000Y-81340000D03*
X43815000Y-88840000D03*
%TD*%
%TO.C,R69*%
X80645000Y-71755000D03*
X80645000Y-67955000D03*
%TD*%
%TO.C,TH4*%
X43875000Y-62865000D03*
X51375000Y-62865000D03*
%TD*%
D31*
%TO.C,R66*%
X65405000Y-50800000D03*
X45085000Y-50800000D03*
%TD*%
D13*
%TO.C,C48*%
X113030000Y-66715000D03*
X113030000Y-71715000D03*
%TD*%
%TO.C,C39*%
X98505000Y-100965000D03*
X103505000Y-100965000D03*
%TD*%
D22*
%TO.C,Q21*%
X117475000Y-58420000D03*
D23*
X118745000Y-59690000D03*
X120015000Y-58420000D03*
X118745000Y-57150000D03*
%TD*%
D22*
%TO.C,Q8*%
X176980276Y-57219276D03*
D23*
X175710276Y-55949276D03*
X174440276Y-57219276D03*
X175710276Y-58489276D03*
%TD*%
D32*
%TO.C,Q11*%
X146431000Y-48768000D03*
D33*
X145161000Y-46990000D03*
X146431000Y-45085000D03*
%TD*%
D42*
%TO.C,J53*%
X262890000Y-59055000D03*
D43*
X265430000Y-59055000D03*
X262890000Y-61595000D03*
X265430000Y-61595000D03*
X262890000Y-64135000D03*
X265430000Y-64135000D03*
X262890000Y-66675000D03*
X265430000Y-66675000D03*
X262890000Y-69215000D03*
X265430000Y-69215000D03*
X262890000Y-71755000D03*
X265430000Y-71755000D03*
X262890000Y-74295000D03*
X265430000Y-74295000D03*
X262890000Y-76835000D03*
X265430000Y-76835000D03*
%TD*%
D12*
%TO.C,C6*%
X139379888Y-66040000D03*
D13*
X141379888Y-66040000D03*
%TD*%
D20*
%TO.C,R41*%
X170180000Y-44450000D03*
X170180000Y-48260000D03*
%TD*%
M02*
