%TF.GenerationSoftware,KiCad,Pcbnew,9.0.8*%
%TF.CreationDate,2026-03-24T18:17:10+01:00*%
%TF.ProjectId,Datron 1281 Widerstand Option,44617472-6f6e-4203-9132-383120576964,1*%
%TF.SameCoordinates,Original*%
%TF.FileFunction,Legend,Top*%
%TF.FilePolarity,Positive*%
%FSLAX46Y46*%
G04 Gerber Fmt 4.6, Leading zero omitted, Abs format (unit mm)*
G04 Created by KiCad (PCBNEW 9.0.8) date 2026-03-24 18:17:10*
%MOMM*%
%LPD*%
G01*
G04 APERTURE LIST*
%ADD10C,0.100000*%
%ADD11C,0.150000*%
%ADD12C,0.127000*%
%ADD13C,0.200000*%
%ADD14C,0.120000*%
%ADD15C,0.152400*%
G04 APERTURE END LIST*
D10*
X88467284Y-63556131D02*
X88467284Y-62556131D01*
X88467284Y-62556131D02*
X88705379Y-62556131D01*
X88705379Y-62556131D02*
X88848236Y-62603750D01*
X88848236Y-62603750D02*
X88943474Y-62698988D01*
X88943474Y-62698988D02*
X88991093Y-62794226D01*
X88991093Y-62794226D02*
X89038712Y-62984702D01*
X89038712Y-62984702D02*
X89038712Y-63127559D01*
X89038712Y-63127559D02*
X88991093Y-63318035D01*
X88991093Y-63318035D02*
X88943474Y-63413273D01*
X88943474Y-63413273D02*
X88848236Y-63508512D01*
X88848236Y-63508512D02*
X88705379Y-63556131D01*
X88705379Y-63556131D02*
X88467284Y-63556131D01*
X89895855Y-63556131D02*
X89895855Y-63032321D01*
X89895855Y-63032321D02*
X89848236Y-62937083D01*
X89848236Y-62937083D02*
X89752998Y-62889464D01*
X89752998Y-62889464D02*
X89562522Y-62889464D01*
X89562522Y-62889464D02*
X89467284Y-62937083D01*
X89895855Y-63508512D02*
X89800617Y-63556131D01*
X89800617Y-63556131D02*
X89562522Y-63556131D01*
X89562522Y-63556131D02*
X89467284Y-63508512D01*
X89467284Y-63508512D02*
X89419665Y-63413273D01*
X89419665Y-63413273D02*
X89419665Y-63318035D01*
X89419665Y-63318035D02*
X89467284Y-63222797D01*
X89467284Y-63222797D02*
X89562522Y-63175178D01*
X89562522Y-63175178D02*
X89800617Y-63175178D01*
X89800617Y-63175178D02*
X89895855Y-63127559D01*
X90229189Y-62889464D02*
X90610141Y-62889464D01*
X90372046Y-62556131D02*
X90372046Y-63413273D01*
X90372046Y-63413273D02*
X90419665Y-63508512D01*
X90419665Y-63508512D02*
X90514903Y-63556131D01*
X90514903Y-63556131D02*
X90610141Y-63556131D01*
X90943475Y-63556131D02*
X90943475Y-62889464D01*
X90943475Y-63079940D02*
X90991094Y-62984702D01*
X90991094Y-62984702D02*
X91038713Y-62937083D01*
X91038713Y-62937083D02*
X91133951Y-62889464D01*
X91133951Y-62889464D02*
X91229189Y-62889464D01*
X91705380Y-63556131D02*
X91610142Y-63508512D01*
X91610142Y-63508512D02*
X91562523Y-63460892D01*
X91562523Y-63460892D02*
X91514904Y-63365654D01*
X91514904Y-63365654D02*
X91514904Y-63079940D01*
X91514904Y-63079940D02*
X91562523Y-62984702D01*
X91562523Y-62984702D02*
X91610142Y-62937083D01*
X91610142Y-62937083D02*
X91705380Y-62889464D01*
X91705380Y-62889464D02*
X91848237Y-62889464D01*
X91848237Y-62889464D02*
X91943475Y-62937083D01*
X91943475Y-62937083D02*
X91991094Y-62984702D01*
X91991094Y-62984702D02*
X92038713Y-63079940D01*
X92038713Y-63079940D02*
X92038713Y-63365654D01*
X92038713Y-63365654D02*
X91991094Y-63460892D01*
X91991094Y-63460892D02*
X91943475Y-63508512D01*
X91943475Y-63508512D02*
X91848237Y-63556131D01*
X91848237Y-63556131D02*
X91705380Y-63556131D01*
X92467285Y-62889464D02*
X92467285Y-63556131D01*
X92467285Y-62984702D02*
X92514904Y-62937083D01*
X92514904Y-62937083D02*
X92610142Y-62889464D01*
X92610142Y-62889464D02*
X92752999Y-62889464D01*
X92752999Y-62889464D02*
X92848237Y-62937083D01*
X92848237Y-62937083D02*
X92895856Y-63032321D01*
X92895856Y-63032321D02*
X92895856Y-63556131D01*
X94657761Y-63556131D02*
X94086333Y-63556131D01*
X94372047Y-63556131D02*
X94372047Y-62556131D01*
X94372047Y-62556131D02*
X94276809Y-62698988D01*
X94276809Y-62698988D02*
X94181571Y-62794226D01*
X94181571Y-62794226D02*
X94086333Y-62841845D01*
X95038714Y-62651369D02*
X95086333Y-62603750D01*
X95086333Y-62603750D02*
X95181571Y-62556131D01*
X95181571Y-62556131D02*
X95419666Y-62556131D01*
X95419666Y-62556131D02*
X95514904Y-62603750D01*
X95514904Y-62603750D02*
X95562523Y-62651369D01*
X95562523Y-62651369D02*
X95610142Y-62746607D01*
X95610142Y-62746607D02*
X95610142Y-62841845D01*
X95610142Y-62841845D02*
X95562523Y-62984702D01*
X95562523Y-62984702D02*
X94991095Y-63556131D01*
X94991095Y-63556131D02*
X95610142Y-63556131D01*
X96181571Y-62984702D02*
X96086333Y-62937083D01*
X96086333Y-62937083D02*
X96038714Y-62889464D01*
X96038714Y-62889464D02*
X95991095Y-62794226D01*
X95991095Y-62794226D02*
X95991095Y-62746607D01*
X95991095Y-62746607D02*
X96038714Y-62651369D01*
X96038714Y-62651369D02*
X96086333Y-62603750D01*
X96086333Y-62603750D02*
X96181571Y-62556131D01*
X96181571Y-62556131D02*
X96372047Y-62556131D01*
X96372047Y-62556131D02*
X96467285Y-62603750D01*
X96467285Y-62603750D02*
X96514904Y-62651369D01*
X96514904Y-62651369D02*
X96562523Y-62746607D01*
X96562523Y-62746607D02*
X96562523Y-62794226D01*
X96562523Y-62794226D02*
X96514904Y-62889464D01*
X96514904Y-62889464D02*
X96467285Y-62937083D01*
X96467285Y-62937083D02*
X96372047Y-62984702D01*
X96372047Y-62984702D02*
X96181571Y-62984702D01*
X96181571Y-62984702D02*
X96086333Y-63032321D01*
X96086333Y-63032321D02*
X96038714Y-63079940D01*
X96038714Y-63079940D02*
X95991095Y-63175178D01*
X95991095Y-63175178D02*
X95991095Y-63365654D01*
X95991095Y-63365654D02*
X96038714Y-63460892D01*
X96038714Y-63460892D02*
X96086333Y-63508512D01*
X96086333Y-63508512D02*
X96181571Y-63556131D01*
X96181571Y-63556131D02*
X96372047Y-63556131D01*
X96372047Y-63556131D02*
X96467285Y-63508512D01*
X96467285Y-63508512D02*
X96514904Y-63460892D01*
X96514904Y-63460892D02*
X96562523Y-63365654D01*
X96562523Y-63365654D02*
X96562523Y-63175178D01*
X96562523Y-63175178D02*
X96514904Y-63079940D01*
X96514904Y-63079940D02*
X96467285Y-63032321D01*
X96467285Y-63032321D02*
X96372047Y-62984702D01*
X97514904Y-63556131D02*
X96943476Y-63556131D01*
X97229190Y-63556131D02*
X97229190Y-62556131D01*
X97229190Y-62556131D02*
X97133952Y-62698988D01*
X97133952Y-62698988D02*
X97038714Y-62794226D01*
X97038714Y-62794226D02*
X96943476Y-62841845D01*
X98895857Y-62556131D02*
X99086333Y-62556131D01*
X99086333Y-62556131D02*
X99181571Y-62603750D01*
X99181571Y-62603750D02*
X99276809Y-62698988D01*
X99276809Y-62698988D02*
X99324428Y-62889464D01*
X99324428Y-62889464D02*
X99324428Y-63222797D01*
X99324428Y-63222797D02*
X99276809Y-63413273D01*
X99276809Y-63413273D02*
X99181571Y-63508512D01*
X99181571Y-63508512D02*
X99086333Y-63556131D01*
X99086333Y-63556131D02*
X98895857Y-63556131D01*
X98895857Y-63556131D02*
X98800619Y-63508512D01*
X98800619Y-63508512D02*
X98705381Y-63413273D01*
X98705381Y-63413273D02*
X98657762Y-63222797D01*
X98657762Y-63222797D02*
X98657762Y-62889464D01*
X98657762Y-62889464D02*
X98705381Y-62698988D01*
X98705381Y-62698988D02*
X98800619Y-62603750D01*
X98800619Y-62603750D02*
X98895857Y-62556131D01*
X99753000Y-62889464D02*
X99753000Y-63889464D01*
X99753000Y-62937083D02*
X99848238Y-62889464D01*
X99848238Y-62889464D02*
X100038714Y-62889464D01*
X100038714Y-62889464D02*
X100133952Y-62937083D01*
X100133952Y-62937083D02*
X100181571Y-62984702D01*
X100181571Y-62984702D02*
X100229190Y-63079940D01*
X100229190Y-63079940D02*
X100229190Y-63365654D01*
X100229190Y-63365654D02*
X100181571Y-63460892D01*
X100181571Y-63460892D02*
X100133952Y-63508512D01*
X100133952Y-63508512D02*
X100038714Y-63556131D01*
X100038714Y-63556131D02*
X99848238Y-63556131D01*
X99848238Y-63556131D02*
X99753000Y-63508512D01*
X100514905Y-62889464D02*
X100895857Y-62889464D01*
X100657762Y-62556131D02*
X100657762Y-63413273D01*
X100657762Y-63413273D02*
X100705381Y-63508512D01*
X100705381Y-63508512D02*
X100800619Y-63556131D01*
X100800619Y-63556131D02*
X100895857Y-63556131D01*
X101229191Y-63556131D02*
X101229191Y-62889464D01*
X101229191Y-62556131D02*
X101181572Y-62603750D01*
X101181572Y-62603750D02*
X101229191Y-62651369D01*
X101229191Y-62651369D02*
X101276810Y-62603750D01*
X101276810Y-62603750D02*
X101229191Y-62556131D01*
X101229191Y-62556131D02*
X101229191Y-62651369D01*
X101848238Y-63556131D02*
X101753000Y-63508512D01*
X101753000Y-63508512D02*
X101705381Y-63460892D01*
X101705381Y-63460892D02*
X101657762Y-63365654D01*
X101657762Y-63365654D02*
X101657762Y-63079940D01*
X101657762Y-63079940D02*
X101705381Y-62984702D01*
X101705381Y-62984702D02*
X101753000Y-62937083D01*
X101753000Y-62937083D02*
X101848238Y-62889464D01*
X101848238Y-62889464D02*
X101991095Y-62889464D01*
X101991095Y-62889464D02*
X102086333Y-62937083D01*
X102086333Y-62937083D02*
X102133952Y-62984702D01*
X102133952Y-62984702D02*
X102181571Y-63079940D01*
X102181571Y-63079940D02*
X102181571Y-63365654D01*
X102181571Y-63365654D02*
X102133952Y-63460892D01*
X102133952Y-63460892D02*
X102086333Y-63508512D01*
X102086333Y-63508512D02*
X101991095Y-63556131D01*
X101991095Y-63556131D02*
X101848238Y-63556131D01*
X102610143Y-62889464D02*
X102610143Y-63556131D01*
X102610143Y-62984702D02*
X102657762Y-62937083D01*
X102657762Y-62937083D02*
X102753000Y-62889464D01*
X102753000Y-62889464D02*
X102895857Y-62889464D01*
X102895857Y-62889464D02*
X102991095Y-62937083D01*
X102991095Y-62937083D02*
X103038714Y-63032321D01*
X103038714Y-63032321D02*
X103038714Y-63556131D01*
X104229191Y-62651369D02*
X104276810Y-62603750D01*
X104276810Y-62603750D02*
X104372048Y-62556131D01*
X104372048Y-62556131D02*
X104610143Y-62556131D01*
X104610143Y-62556131D02*
X104705381Y-62603750D01*
X104705381Y-62603750D02*
X104753000Y-62651369D01*
X104753000Y-62651369D02*
X104800619Y-62746607D01*
X104800619Y-62746607D02*
X104800619Y-62841845D01*
X104800619Y-62841845D02*
X104753000Y-62984702D01*
X104753000Y-62984702D02*
X104181572Y-63556131D01*
X104181572Y-63556131D02*
X104800619Y-63556131D01*
X105419667Y-62556131D02*
X105514905Y-62556131D01*
X105514905Y-62556131D02*
X105610143Y-62603750D01*
X105610143Y-62603750D02*
X105657762Y-62651369D01*
X105657762Y-62651369D02*
X105705381Y-62746607D01*
X105705381Y-62746607D02*
X105753000Y-62937083D01*
X105753000Y-62937083D02*
X105753000Y-63175178D01*
X105753000Y-63175178D02*
X105705381Y-63365654D01*
X105705381Y-63365654D02*
X105657762Y-63460892D01*
X105657762Y-63460892D02*
X105610143Y-63508512D01*
X105610143Y-63508512D02*
X105514905Y-63556131D01*
X105514905Y-63556131D02*
X105419667Y-63556131D01*
X105419667Y-63556131D02*
X105324429Y-63508512D01*
X105324429Y-63508512D02*
X105276810Y-63460892D01*
X105276810Y-63460892D02*
X105229191Y-63365654D01*
X105229191Y-63365654D02*
X105181572Y-63175178D01*
X105181572Y-63175178D02*
X105181572Y-62937083D01*
X105181572Y-62937083D02*
X105229191Y-62746607D01*
X105229191Y-62746607D02*
X105276810Y-62651369D01*
X105276810Y-62651369D02*
X105324429Y-62603750D01*
X105324429Y-62603750D02*
X105419667Y-62556131D01*
X88657760Y-64166075D02*
X88848236Y-64166075D01*
X88848236Y-64166075D02*
X88943474Y-64213694D01*
X88943474Y-64213694D02*
X89038712Y-64308932D01*
X89038712Y-64308932D02*
X89086331Y-64499408D01*
X89086331Y-64499408D02*
X89086331Y-64832741D01*
X89086331Y-64832741D02*
X89038712Y-65023217D01*
X89038712Y-65023217D02*
X88943474Y-65118456D01*
X88943474Y-65118456D02*
X88848236Y-65166075D01*
X88848236Y-65166075D02*
X88657760Y-65166075D01*
X88657760Y-65166075D02*
X88562522Y-65118456D01*
X88562522Y-65118456D02*
X88467284Y-65023217D01*
X88467284Y-65023217D02*
X88419665Y-64832741D01*
X88419665Y-64832741D02*
X88419665Y-64499408D01*
X88419665Y-64499408D02*
X88467284Y-64308932D01*
X88467284Y-64308932D02*
X88562522Y-64213694D01*
X88562522Y-64213694D02*
X88657760Y-64166075D01*
X89514903Y-65166075D02*
X89514903Y-64166075D01*
X89943474Y-65166075D02*
X89943474Y-64642265D01*
X89943474Y-64642265D02*
X89895855Y-64547027D01*
X89895855Y-64547027D02*
X89800617Y-64499408D01*
X89800617Y-64499408D02*
X89657760Y-64499408D01*
X89657760Y-64499408D02*
X89562522Y-64547027D01*
X89562522Y-64547027D02*
X89514903Y-64594646D01*
X90419665Y-65166075D02*
X90419665Y-64499408D01*
X90419665Y-64594646D02*
X90467284Y-64547027D01*
X90467284Y-64547027D02*
X90562522Y-64499408D01*
X90562522Y-64499408D02*
X90705379Y-64499408D01*
X90705379Y-64499408D02*
X90800617Y-64547027D01*
X90800617Y-64547027D02*
X90848236Y-64642265D01*
X90848236Y-64642265D02*
X90848236Y-65166075D01*
X90848236Y-64642265D02*
X90895855Y-64547027D01*
X90895855Y-64547027D02*
X90991093Y-64499408D01*
X90991093Y-64499408D02*
X91133950Y-64499408D01*
X91133950Y-64499408D02*
X91229189Y-64547027D01*
X91229189Y-64547027D02*
X91276808Y-64642265D01*
X91276808Y-64642265D02*
X91276808Y-65166075D01*
X93086331Y-65070836D02*
X93038712Y-65118456D01*
X93038712Y-65118456D02*
X92895855Y-65166075D01*
X92895855Y-65166075D02*
X92800617Y-65166075D01*
X92800617Y-65166075D02*
X92657760Y-65118456D01*
X92657760Y-65118456D02*
X92562522Y-65023217D01*
X92562522Y-65023217D02*
X92514903Y-64927979D01*
X92514903Y-64927979D02*
X92467284Y-64737503D01*
X92467284Y-64737503D02*
X92467284Y-64594646D01*
X92467284Y-64594646D02*
X92514903Y-64404170D01*
X92514903Y-64404170D02*
X92562522Y-64308932D01*
X92562522Y-64308932D02*
X92657760Y-64213694D01*
X92657760Y-64213694D02*
X92800617Y-64166075D01*
X92800617Y-64166075D02*
X92895855Y-64166075D01*
X92895855Y-64166075D02*
X93038712Y-64213694D01*
X93038712Y-64213694D02*
X93086331Y-64261313D01*
X93657760Y-65166075D02*
X93562522Y-65118456D01*
X93562522Y-65118456D02*
X93514903Y-65070836D01*
X93514903Y-65070836D02*
X93467284Y-64975598D01*
X93467284Y-64975598D02*
X93467284Y-64689884D01*
X93467284Y-64689884D02*
X93514903Y-64594646D01*
X93514903Y-64594646D02*
X93562522Y-64547027D01*
X93562522Y-64547027D02*
X93657760Y-64499408D01*
X93657760Y-64499408D02*
X93800617Y-64499408D01*
X93800617Y-64499408D02*
X93895855Y-64547027D01*
X93895855Y-64547027D02*
X93943474Y-64594646D01*
X93943474Y-64594646D02*
X93991093Y-64689884D01*
X93991093Y-64689884D02*
X93991093Y-64975598D01*
X93991093Y-64975598D02*
X93943474Y-65070836D01*
X93943474Y-65070836D02*
X93895855Y-65118456D01*
X93895855Y-65118456D02*
X93800617Y-65166075D01*
X93800617Y-65166075D02*
X93657760Y-65166075D01*
X94419665Y-64499408D02*
X94419665Y-65166075D01*
X94419665Y-64594646D02*
X94467284Y-64547027D01*
X94467284Y-64547027D02*
X94562522Y-64499408D01*
X94562522Y-64499408D02*
X94705379Y-64499408D01*
X94705379Y-64499408D02*
X94800617Y-64547027D01*
X94800617Y-64547027D02*
X94848236Y-64642265D01*
X94848236Y-64642265D02*
X94848236Y-65166075D01*
X95229189Y-64499408D02*
X95467284Y-65166075D01*
X95467284Y-65166075D02*
X95705379Y-64499408D01*
X96467284Y-65118456D02*
X96372046Y-65166075D01*
X96372046Y-65166075D02*
X96181570Y-65166075D01*
X96181570Y-65166075D02*
X96086332Y-65118456D01*
X96086332Y-65118456D02*
X96038713Y-65023217D01*
X96038713Y-65023217D02*
X96038713Y-64642265D01*
X96038713Y-64642265D02*
X96086332Y-64547027D01*
X96086332Y-64547027D02*
X96181570Y-64499408D01*
X96181570Y-64499408D02*
X96372046Y-64499408D01*
X96372046Y-64499408D02*
X96467284Y-64547027D01*
X96467284Y-64547027D02*
X96514903Y-64642265D01*
X96514903Y-64642265D02*
X96514903Y-64737503D01*
X96514903Y-64737503D02*
X96038713Y-64832741D01*
X96943475Y-65166075D02*
X96943475Y-64499408D01*
X96943475Y-64689884D02*
X96991094Y-64594646D01*
X96991094Y-64594646D02*
X97038713Y-64547027D01*
X97038713Y-64547027D02*
X97133951Y-64499408D01*
X97133951Y-64499408D02*
X97229189Y-64499408D01*
X97419666Y-64499408D02*
X97800618Y-64499408D01*
X97562523Y-64166075D02*
X97562523Y-65023217D01*
X97562523Y-65023217D02*
X97610142Y-65118456D01*
X97610142Y-65118456D02*
X97705380Y-65166075D01*
X97705380Y-65166075D02*
X97800618Y-65166075D01*
X98514904Y-65118456D02*
X98419666Y-65166075D01*
X98419666Y-65166075D02*
X98229190Y-65166075D01*
X98229190Y-65166075D02*
X98133952Y-65118456D01*
X98133952Y-65118456D02*
X98086333Y-65023217D01*
X98086333Y-65023217D02*
X98086333Y-64642265D01*
X98086333Y-64642265D02*
X98133952Y-64547027D01*
X98133952Y-64547027D02*
X98229190Y-64499408D01*
X98229190Y-64499408D02*
X98419666Y-64499408D01*
X98419666Y-64499408D02*
X98514904Y-64547027D01*
X98514904Y-64547027D02*
X98562523Y-64642265D01*
X98562523Y-64642265D02*
X98562523Y-64737503D01*
X98562523Y-64737503D02*
X98086333Y-64832741D01*
X98991095Y-65166075D02*
X98991095Y-64499408D01*
X98991095Y-64689884D02*
X99038714Y-64594646D01*
X99038714Y-64594646D02*
X99086333Y-64547027D01*
X99086333Y-64547027D02*
X99181571Y-64499408D01*
X99181571Y-64499408D02*
X99276809Y-64499408D01*
X88943474Y-66776019D02*
X88467284Y-66776019D01*
X88467284Y-66776019D02*
X88467284Y-65776019D01*
X89705379Y-66109352D02*
X89705379Y-66776019D01*
X89276808Y-66109352D02*
X89276808Y-66633161D01*
X89276808Y-66633161D02*
X89324427Y-66728400D01*
X89324427Y-66728400D02*
X89419665Y-66776019D01*
X89419665Y-66776019D02*
X89562522Y-66776019D01*
X89562522Y-66776019D02*
X89657760Y-66728400D01*
X89657760Y-66728400D02*
X89705379Y-66680780D01*
X90610141Y-66728400D02*
X90514903Y-66776019D01*
X90514903Y-66776019D02*
X90324427Y-66776019D01*
X90324427Y-66776019D02*
X90229189Y-66728400D01*
X90229189Y-66728400D02*
X90181570Y-66680780D01*
X90181570Y-66680780D02*
X90133951Y-66585542D01*
X90133951Y-66585542D02*
X90133951Y-66299828D01*
X90133951Y-66299828D02*
X90181570Y-66204590D01*
X90181570Y-66204590D02*
X90229189Y-66156971D01*
X90229189Y-66156971D02*
X90324427Y-66109352D01*
X90324427Y-66109352D02*
X90514903Y-66109352D01*
X90514903Y-66109352D02*
X90610141Y-66156971D01*
X91467284Y-66776019D02*
X91467284Y-66252209D01*
X91467284Y-66252209D02*
X91419665Y-66156971D01*
X91419665Y-66156971D02*
X91324427Y-66109352D01*
X91324427Y-66109352D02*
X91133951Y-66109352D01*
X91133951Y-66109352D02*
X91038713Y-66156971D01*
X91467284Y-66728400D02*
X91372046Y-66776019D01*
X91372046Y-66776019D02*
X91133951Y-66776019D01*
X91133951Y-66776019D02*
X91038713Y-66728400D01*
X91038713Y-66728400D02*
X90991094Y-66633161D01*
X90991094Y-66633161D02*
X90991094Y-66537923D01*
X90991094Y-66537923D02*
X91038713Y-66442685D01*
X91038713Y-66442685D02*
X91133951Y-66395066D01*
X91133951Y-66395066D02*
X91372046Y-66395066D01*
X91372046Y-66395066D02*
X91467284Y-66347447D01*
X91895856Y-66728400D02*
X91991094Y-66776019D01*
X91991094Y-66776019D02*
X92181570Y-66776019D01*
X92181570Y-66776019D02*
X92276808Y-66728400D01*
X92276808Y-66728400D02*
X92324427Y-66633161D01*
X92324427Y-66633161D02*
X92324427Y-66585542D01*
X92324427Y-66585542D02*
X92276808Y-66490304D01*
X92276808Y-66490304D02*
X92181570Y-66442685D01*
X92181570Y-66442685D02*
X92038713Y-66442685D01*
X92038713Y-66442685D02*
X91943475Y-66395066D01*
X91943475Y-66395066D02*
X91895856Y-66299828D01*
X91895856Y-66299828D02*
X91895856Y-66252209D01*
X91895856Y-66252209D02*
X91943475Y-66156971D01*
X91943475Y-66156971D02*
X92038713Y-66109352D01*
X92038713Y-66109352D02*
X92181570Y-66109352D01*
X92181570Y-66109352D02*
X92276808Y-66156971D01*
X93467285Y-66728400D02*
X93610142Y-66776019D01*
X93610142Y-66776019D02*
X93848237Y-66776019D01*
X93848237Y-66776019D02*
X93943475Y-66728400D01*
X93943475Y-66728400D02*
X93991094Y-66680780D01*
X93991094Y-66680780D02*
X94038713Y-66585542D01*
X94038713Y-66585542D02*
X94038713Y-66490304D01*
X94038713Y-66490304D02*
X93991094Y-66395066D01*
X93991094Y-66395066D02*
X93943475Y-66347447D01*
X93943475Y-66347447D02*
X93848237Y-66299828D01*
X93848237Y-66299828D02*
X93657761Y-66252209D01*
X93657761Y-66252209D02*
X93562523Y-66204590D01*
X93562523Y-66204590D02*
X93514904Y-66156971D01*
X93514904Y-66156971D02*
X93467285Y-66061733D01*
X93467285Y-66061733D02*
X93467285Y-65966495D01*
X93467285Y-65966495D02*
X93514904Y-65871257D01*
X93514904Y-65871257D02*
X93562523Y-65823638D01*
X93562523Y-65823638D02*
X93657761Y-65776019D01*
X93657761Y-65776019D02*
X93895856Y-65776019D01*
X93895856Y-65776019D02*
X94038713Y-65823638D01*
X94467285Y-66109352D02*
X94467285Y-67109352D01*
X94467285Y-66156971D02*
X94562523Y-66109352D01*
X94562523Y-66109352D02*
X94752999Y-66109352D01*
X94752999Y-66109352D02*
X94848237Y-66156971D01*
X94848237Y-66156971D02*
X94895856Y-66204590D01*
X94895856Y-66204590D02*
X94943475Y-66299828D01*
X94943475Y-66299828D02*
X94943475Y-66585542D01*
X94943475Y-66585542D02*
X94895856Y-66680780D01*
X94895856Y-66680780D02*
X94848237Y-66728400D01*
X94848237Y-66728400D02*
X94752999Y-66776019D01*
X94752999Y-66776019D02*
X94562523Y-66776019D01*
X94562523Y-66776019D02*
X94467285Y-66728400D01*
X95372047Y-66776019D02*
X95372047Y-66109352D01*
X95372047Y-65776019D02*
X95324428Y-65823638D01*
X95324428Y-65823638D02*
X95372047Y-65871257D01*
X95372047Y-65871257D02*
X95419666Y-65823638D01*
X95419666Y-65823638D02*
X95372047Y-65776019D01*
X95372047Y-65776019D02*
X95372047Y-65871257D01*
X95705380Y-66109352D02*
X96086332Y-66109352D01*
X95848237Y-65776019D02*
X95848237Y-66633161D01*
X95848237Y-66633161D02*
X95895856Y-66728400D01*
X95895856Y-66728400D02*
X95991094Y-66776019D01*
X95991094Y-66776019D02*
X96086332Y-66776019D01*
X96324428Y-66109352D02*
X96848237Y-66109352D01*
X96848237Y-66109352D02*
X96324428Y-66776019D01*
X96324428Y-66776019D02*
X96848237Y-66776019D01*
X97229190Y-66776019D02*
X97229190Y-65776019D01*
X97324428Y-66395066D02*
X97610142Y-66776019D01*
X97610142Y-66109352D02*
X97229190Y-66490304D01*
X98181571Y-66776019D02*
X98086333Y-66728400D01*
X98086333Y-66728400D02*
X98038714Y-66680780D01*
X98038714Y-66680780D02*
X97991095Y-66585542D01*
X97991095Y-66585542D02*
X97991095Y-66299828D01*
X97991095Y-66299828D02*
X98038714Y-66204590D01*
X98038714Y-66204590D02*
X98086333Y-66156971D01*
X98086333Y-66156971D02*
X98181571Y-66109352D01*
X98181571Y-66109352D02*
X98324428Y-66109352D01*
X98324428Y-66109352D02*
X98419666Y-66156971D01*
X98419666Y-66156971D02*
X98467285Y-66204590D01*
X98467285Y-66204590D02*
X98514904Y-66299828D01*
X98514904Y-66299828D02*
X98514904Y-66585542D01*
X98514904Y-66585542D02*
X98467285Y-66680780D01*
X98467285Y-66680780D02*
X98419666Y-66728400D01*
X98419666Y-66728400D02*
X98324428Y-66776019D01*
X98324428Y-66776019D02*
X98181571Y-66776019D01*
X98943476Y-66109352D02*
X98943476Y-67109352D01*
X98943476Y-66156971D02*
X99038714Y-66109352D01*
X99038714Y-66109352D02*
X99229190Y-66109352D01*
X99229190Y-66109352D02*
X99324428Y-66156971D01*
X99324428Y-66156971D02*
X99372047Y-66204590D01*
X99372047Y-66204590D02*
X99419666Y-66299828D01*
X99419666Y-66299828D02*
X99419666Y-66585542D01*
X99419666Y-66585542D02*
X99372047Y-66680780D01*
X99372047Y-66680780D02*
X99324428Y-66728400D01*
X99324428Y-66728400D02*
X99229190Y-66776019D01*
X99229190Y-66776019D02*
X99038714Y-66776019D01*
X99038714Y-66776019D02*
X98943476Y-66728400D01*
X99705381Y-66109352D02*
X100086333Y-66109352D01*
X99848238Y-66776019D02*
X99848238Y-65918876D01*
X99848238Y-65918876D02*
X99895857Y-65823638D01*
X99895857Y-65823638D02*
X99991095Y-65776019D01*
X99991095Y-65776019D02*
X100086333Y-65776019D01*
D11*
X71445714Y-55969819D02*
X72017142Y-55969819D01*
X71731428Y-56969819D02*
X71731428Y-55969819D01*
X72350476Y-56969819D02*
X72350476Y-55969819D01*
X72350476Y-55969819D02*
X72731428Y-55969819D01*
X72731428Y-55969819D02*
X72826666Y-56017438D01*
X72826666Y-56017438D02*
X72874285Y-56065057D01*
X72874285Y-56065057D02*
X72921904Y-56160295D01*
X72921904Y-56160295D02*
X72921904Y-56303152D01*
X72921904Y-56303152D02*
X72874285Y-56398390D01*
X72874285Y-56398390D02*
X72826666Y-56446009D01*
X72826666Y-56446009D02*
X72731428Y-56493628D01*
X72731428Y-56493628D02*
X72350476Y-56493628D01*
X73874285Y-56969819D02*
X73302857Y-56969819D01*
X73588571Y-56969819D02*
X73588571Y-55969819D01*
X73588571Y-55969819D02*
X73493333Y-56112676D01*
X73493333Y-56112676D02*
X73398095Y-56207914D01*
X73398095Y-56207914D02*
X73302857Y-56255533D01*
X74493333Y-55969819D02*
X74588571Y-55969819D01*
X74588571Y-55969819D02*
X74683809Y-56017438D01*
X74683809Y-56017438D02*
X74731428Y-56065057D01*
X74731428Y-56065057D02*
X74779047Y-56160295D01*
X74779047Y-56160295D02*
X74826666Y-56350771D01*
X74826666Y-56350771D02*
X74826666Y-56588866D01*
X74826666Y-56588866D02*
X74779047Y-56779342D01*
X74779047Y-56779342D02*
X74731428Y-56874580D01*
X74731428Y-56874580D02*
X74683809Y-56922200D01*
X74683809Y-56922200D02*
X74588571Y-56969819D01*
X74588571Y-56969819D02*
X74493333Y-56969819D01*
X74493333Y-56969819D02*
X74398095Y-56922200D01*
X74398095Y-56922200D02*
X74350476Y-56874580D01*
X74350476Y-56874580D02*
X74302857Y-56779342D01*
X74302857Y-56779342D02*
X74255238Y-56588866D01*
X74255238Y-56588866D02*
X74255238Y-56350771D01*
X74255238Y-56350771D02*
X74302857Y-56160295D01*
X74302857Y-56160295D02*
X74350476Y-56065057D01*
X74350476Y-56065057D02*
X74398095Y-56017438D01*
X74398095Y-56017438D02*
X74493333Y-55969819D01*
X75160000Y-55969819D02*
X75779047Y-55969819D01*
X75779047Y-55969819D02*
X75445714Y-56350771D01*
X75445714Y-56350771D02*
X75588571Y-56350771D01*
X75588571Y-56350771D02*
X75683809Y-56398390D01*
X75683809Y-56398390D02*
X75731428Y-56446009D01*
X75731428Y-56446009D02*
X75779047Y-56541247D01*
X75779047Y-56541247D02*
X75779047Y-56779342D01*
X75779047Y-56779342D02*
X75731428Y-56874580D01*
X75731428Y-56874580D02*
X75683809Y-56922200D01*
X75683809Y-56922200D02*
X75588571Y-56969819D01*
X75588571Y-56969819D02*
X75302857Y-56969819D01*
X75302857Y-56969819D02*
X75207619Y-56922200D01*
X75207619Y-56922200D02*
X75160000Y-56874580D01*
X154678095Y-84714819D02*
X154678095Y-83714819D01*
X155249523Y-84714819D02*
X154820952Y-84143390D01*
X155249523Y-83714819D02*
X154678095Y-84286247D01*
X107632500Y-80595119D02*
X107632500Y-80833214D01*
X107394405Y-80737976D02*
X107632500Y-80833214D01*
X107632500Y-80833214D02*
X107870595Y-80737976D01*
X107489643Y-81023690D02*
X107632500Y-80833214D01*
X107632500Y-80833214D02*
X107775357Y-81023690D01*
X167330714Y-79424819D02*
X167902142Y-79424819D01*
X167616428Y-80424819D02*
X167616428Y-79424819D01*
X168235476Y-80424819D02*
X168235476Y-79424819D01*
X168235476Y-79424819D02*
X168616428Y-79424819D01*
X168616428Y-79424819D02*
X168711666Y-79472438D01*
X168711666Y-79472438D02*
X168759285Y-79520057D01*
X168759285Y-79520057D02*
X168806904Y-79615295D01*
X168806904Y-79615295D02*
X168806904Y-79758152D01*
X168806904Y-79758152D02*
X168759285Y-79853390D01*
X168759285Y-79853390D02*
X168711666Y-79901009D01*
X168711666Y-79901009D02*
X168616428Y-79948628D01*
X168616428Y-79948628D02*
X168235476Y-79948628D01*
X169187857Y-79520057D02*
X169235476Y-79472438D01*
X169235476Y-79472438D02*
X169330714Y-79424819D01*
X169330714Y-79424819D02*
X169568809Y-79424819D01*
X169568809Y-79424819D02*
X169664047Y-79472438D01*
X169664047Y-79472438D02*
X169711666Y-79520057D01*
X169711666Y-79520057D02*
X169759285Y-79615295D01*
X169759285Y-79615295D02*
X169759285Y-79710533D01*
X169759285Y-79710533D02*
X169711666Y-79853390D01*
X169711666Y-79853390D02*
X169140238Y-80424819D01*
X169140238Y-80424819D02*
X169759285Y-80424819D01*
X170378333Y-79424819D02*
X170473571Y-79424819D01*
X170473571Y-79424819D02*
X170568809Y-79472438D01*
X170568809Y-79472438D02*
X170616428Y-79520057D01*
X170616428Y-79520057D02*
X170664047Y-79615295D01*
X170664047Y-79615295D02*
X170711666Y-79805771D01*
X170711666Y-79805771D02*
X170711666Y-80043866D01*
X170711666Y-80043866D02*
X170664047Y-80234342D01*
X170664047Y-80234342D02*
X170616428Y-80329580D01*
X170616428Y-80329580D02*
X170568809Y-80377200D01*
X170568809Y-80377200D02*
X170473571Y-80424819D01*
X170473571Y-80424819D02*
X170378333Y-80424819D01*
X170378333Y-80424819D02*
X170283095Y-80377200D01*
X170283095Y-80377200D02*
X170235476Y-80329580D01*
X170235476Y-80329580D02*
X170187857Y-80234342D01*
X170187857Y-80234342D02*
X170140238Y-80043866D01*
X170140238Y-80043866D02*
X170140238Y-79805771D01*
X170140238Y-79805771D02*
X170187857Y-79615295D01*
X170187857Y-79615295D02*
X170235476Y-79520057D01*
X170235476Y-79520057D02*
X170283095Y-79472438D01*
X170283095Y-79472438D02*
X170378333Y-79424819D01*
X171045000Y-79424819D02*
X171664047Y-79424819D01*
X171664047Y-79424819D02*
X171330714Y-79805771D01*
X171330714Y-79805771D02*
X171473571Y-79805771D01*
X171473571Y-79805771D02*
X171568809Y-79853390D01*
X171568809Y-79853390D02*
X171616428Y-79901009D01*
X171616428Y-79901009D02*
X171664047Y-79996247D01*
X171664047Y-79996247D02*
X171664047Y-80234342D01*
X171664047Y-80234342D02*
X171616428Y-80329580D01*
X171616428Y-80329580D02*
X171568809Y-80377200D01*
X171568809Y-80377200D02*
X171473571Y-80424819D01*
X171473571Y-80424819D02*
X171187857Y-80424819D01*
X171187857Y-80424819D02*
X171092619Y-80377200D01*
X171092619Y-80377200D02*
X171045000Y-80329580D01*
X254960714Y-84544819D02*
X255532142Y-84544819D01*
X255246428Y-85544819D02*
X255246428Y-84544819D01*
X255865476Y-85544819D02*
X255865476Y-84544819D01*
X255865476Y-84544819D02*
X256246428Y-84544819D01*
X256246428Y-84544819D02*
X256341666Y-84592438D01*
X256341666Y-84592438D02*
X256389285Y-84640057D01*
X256389285Y-84640057D02*
X256436904Y-84735295D01*
X256436904Y-84735295D02*
X256436904Y-84878152D01*
X256436904Y-84878152D02*
X256389285Y-84973390D01*
X256389285Y-84973390D02*
X256341666Y-85021009D01*
X256341666Y-85021009D02*
X256246428Y-85068628D01*
X256246428Y-85068628D02*
X255865476Y-85068628D01*
X256770238Y-84544819D02*
X257389285Y-84544819D01*
X257389285Y-84544819D02*
X257055952Y-84925771D01*
X257055952Y-84925771D02*
X257198809Y-84925771D01*
X257198809Y-84925771D02*
X257294047Y-84973390D01*
X257294047Y-84973390D02*
X257341666Y-85021009D01*
X257341666Y-85021009D02*
X257389285Y-85116247D01*
X257389285Y-85116247D02*
X257389285Y-85354342D01*
X257389285Y-85354342D02*
X257341666Y-85449580D01*
X257341666Y-85449580D02*
X257294047Y-85497200D01*
X257294047Y-85497200D02*
X257198809Y-85544819D01*
X257198809Y-85544819D02*
X256913095Y-85544819D01*
X256913095Y-85544819D02*
X256817857Y-85497200D01*
X256817857Y-85497200D02*
X256770238Y-85449580D01*
X258008333Y-84544819D02*
X258103571Y-84544819D01*
X258103571Y-84544819D02*
X258198809Y-84592438D01*
X258198809Y-84592438D02*
X258246428Y-84640057D01*
X258246428Y-84640057D02*
X258294047Y-84735295D01*
X258294047Y-84735295D02*
X258341666Y-84925771D01*
X258341666Y-84925771D02*
X258341666Y-85163866D01*
X258341666Y-85163866D02*
X258294047Y-85354342D01*
X258294047Y-85354342D02*
X258246428Y-85449580D01*
X258246428Y-85449580D02*
X258198809Y-85497200D01*
X258198809Y-85497200D02*
X258103571Y-85544819D01*
X258103571Y-85544819D02*
X258008333Y-85544819D01*
X258008333Y-85544819D02*
X257913095Y-85497200D01*
X257913095Y-85497200D02*
X257865476Y-85449580D01*
X257865476Y-85449580D02*
X257817857Y-85354342D01*
X257817857Y-85354342D02*
X257770238Y-85163866D01*
X257770238Y-85163866D02*
X257770238Y-84925771D01*
X257770238Y-84925771D02*
X257817857Y-84735295D01*
X257817857Y-84735295D02*
X257865476Y-84640057D01*
X257865476Y-84640057D02*
X257913095Y-84592438D01*
X257913095Y-84592438D02*
X258008333Y-84544819D01*
X259198809Y-84878152D02*
X259198809Y-85544819D01*
X258960714Y-84497200D02*
X258722619Y-85211485D01*
X258722619Y-85211485D02*
X259341666Y-85211485D01*
X135580714Y-71844819D02*
X136152142Y-71844819D01*
X135866428Y-72844819D02*
X135866428Y-71844819D01*
X136485476Y-72844819D02*
X136485476Y-71844819D01*
X136485476Y-71844819D02*
X136866428Y-71844819D01*
X136866428Y-71844819D02*
X136961666Y-71892438D01*
X136961666Y-71892438D02*
X137009285Y-71940057D01*
X137009285Y-71940057D02*
X137056904Y-72035295D01*
X137056904Y-72035295D02*
X137056904Y-72178152D01*
X137056904Y-72178152D02*
X137009285Y-72273390D01*
X137009285Y-72273390D02*
X136961666Y-72321009D01*
X136961666Y-72321009D02*
X136866428Y-72368628D01*
X136866428Y-72368628D02*
X136485476Y-72368628D01*
X137390238Y-71844819D02*
X138009285Y-71844819D01*
X138009285Y-71844819D02*
X137675952Y-72225771D01*
X137675952Y-72225771D02*
X137818809Y-72225771D01*
X137818809Y-72225771D02*
X137914047Y-72273390D01*
X137914047Y-72273390D02*
X137961666Y-72321009D01*
X137961666Y-72321009D02*
X138009285Y-72416247D01*
X138009285Y-72416247D02*
X138009285Y-72654342D01*
X138009285Y-72654342D02*
X137961666Y-72749580D01*
X137961666Y-72749580D02*
X137914047Y-72797200D01*
X137914047Y-72797200D02*
X137818809Y-72844819D01*
X137818809Y-72844819D02*
X137533095Y-72844819D01*
X137533095Y-72844819D02*
X137437857Y-72797200D01*
X137437857Y-72797200D02*
X137390238Y-72749580D01*
X138628333Y-71844819D02*
X138723571Y-71844819D01*
X138723571Y-71844819D02*
X138818809Y-71892438D01*
X138818809Y-71892438D02*
X138866428Y-71940057D01*
X138866428Y-71940057D02*
X138914047Y-72035295D01*
X138914047Y-72035295D02*
X138961666Y-72225771D01*
X138961666Y-72225771D02*
X138961666Y-72463866D01*
X138961666Y-72463866D02*
X138914047Y-72654342D01*
X138914047Y-72654342D02*
X138866428Y-72749580D01*
X138866428Y-72749580D02*
X138818809Y-72797200D01*
X138818809Y-72797200D02*
X138723571Y-72844819D01*
X138723571Y-72844819D02*
X138628333Y-72844819D01*
X138628333Y-72844819D02*
X138533095Y-72797200D01*
X138533095Y-72797200D02*
X138485476Y-72749580D01*
X138485476Y-72749580D02*
X138437857Y-72654342D01*
X138437857Y-72654342D02*
X138390238Y-72463866D01*
X138390238Y-72463866D02*
X138390238Y-72225771D01*
X138390238Y-72225771D02*
X138437857Y-72035295D01*
X138437857Y-72035295D02*
X138485476Y-71940057D01*
X138485476Y-71940057D02*
X138533095Y-71892438D01*
X138533095Y-71892438D02*
X138628333Y-71844819D01*
X139295000Y-71844819D02*
X139914047Y-71844819D01*
X139914047Y-71844819D02*
X139580714Y-72225771D01*
X139580714Y-72225771D02*
X139723571Y-72225771D01*
X139723571Y-72225771D02*
X139818809Y-72273390D01*
X139818809Y-72273390D02*
X139866428Y-72321009D01*
X139866428Y-72321009D02*
X139914047Y-72416247D01*
X139914047Y-72416247D02*
X139914047Y-72654342D01*
X139914047Y-72654342D02*
X139866428Y-72749580D01*
X139866428Y-72749580D02*
X139818809Y-72797200D01*
X139818809Y-72797200D02*
X139723571Y-72844819D01*
X139723571Y-72844819D02*
X139437857Y-72844819D01*
X139437857Y-72844819D02*
X139342619Y-72797200D01*
X139342619Y-72797200D02*
X139295000Y-72749580D01*
X154376714Y-59398819D02*
X154948142Y-59398819D01*
X154662428Y-60398819D02*
X154662428Y-59398819D01*
X155281476Y-60398819D02*
X155281476Y-59398819D01*
X155281476Y-59398819D02*
X155662428Y-59398819D01*
X155662428Y-59398819D02*
X155757666Y-59446438D01*
X155757666Y-59446438D02*
X155805285Y-59494057D01*
X155805285Y-59494057D02*
X155852904Y-59589295D01*
X155852904Y-59589295D02*
X155852904Y-59732152D01*
X155852904Y-59732152D02*
X155805285Y-59827390D01*
X155805285Y-59827390D02*
X155757666Y-59875009D01*
X155757666Y-59875009D02*
X155662428Y-59922628D01*
X155662428Y-59922628D02*
X155281476Y-59922628D01*
X156233857Y-59494057D02*
X156281476Y-59446438D01*
X156281476Y-59446438D02*
X156376714Y-59398819D01*
X156376714Y-59398819D02*
X156614809Y-59398819D01*
X156614809Y-59398819D02*
X156710047Y-59446438D01*
X156710047Y-59446438D02*
X156757666Y-59494057D01*
X156757666Y-59494057D02*
X156805285Y-59589295D01*
X156805285Y-59589295D02*
X156805285Y-59684533D01*
X156805285Y-59684533D02*
X156757666Y-59827390D01*
X156757666Y-59827390D02*
X156186238Y-60398819D01*
X156186238Y-60398819D02*
X156805285Y-60398819D01*
X157424333Y-59398819D02*
X157519571Y-59398819D01*
X157519571Y-59398819D02*
X157614809Y-59446438D01*
X157614809Y-59446438D02*
X157662428Y-59494057D01*
X157662428Y-59494057D02*
X157710047Y-59589295D01*
X157710047Y-59589295D02*
X157757666Y-59779771D01*
X157757666Y-59779771D02*
X157757666Y-60017866D01*
X157757666Y-60017866D02*
X157710047Y-60208342D01*
X157710047Y-60208342D02*
X157662428Y-60303580D01*
X157662428Y-60303580D02*
X157614809Y-60351200D01*
X157614809Y-60351200D02*
X157519571Y-60398819D01*
X157519571Y-60398819D02*
X157424333Y-60398819D01*
X157424333Y-60398819D02*
X157329095Y-60351200D01*
X157329095Y-60351200D02*
X157281476Y-60303580D01*
X157281476Y-60303580D02*
X157233857Y-60208342D01*
X157233857Y-60208342D02*
X157186238Y-60017866D01*
X157186238Y-60017866D02*
X157186238Y-59779771D01*
X157186238Y-59779771D02*
X157233857Y-59589295D01*
X157233857Y-59589295D02*
X157281476Y-59494057D01*
X157281476Y-59494057D02*
X157329095Y-59446438D01*
X157329095Y-59446438D02*
X157424333Y-59398819D01*
X158138619Y-59494057D02*
X158186238Y-59446438D01*
X158186238Y-59446438D02*
X158281476Y-59398819D01*
X158281476Y-59398819D02*
X158519571Y-59398819D01*
X158519571Y-59398819D02*
X158614809Y-59446438D01*
X158614809Y-59446438D02*
X158662428Y-59494057D01*
X158662428Y-59494057D02*
X158710047Y-59589295D01*
X158710047Y-59589295D02*
X158710047Y-59684533D01*
X158710047Y-59684533D02*
X158662428Y-59827390D01*
X158662428Y-59827390D02*
X158091000Y-60398819D01*
X158091000Y-60398819D02*
X158710047Y-60398819D01*
X222575714Y-81496819D02*
X223147142Y-81496819D01*
X222861428Y-82496819D02*
X222861428Y-81496819D01*
X223480476Y-82496819D02*
X223480476Y-81496819D01*
X223480476Y-81496819D02*
X223861428Y-81496819D01*
X223861428Y-81496819D02*
X223956666Y-81544438D01*
X223956666Y-81544438D02*
X224004285Y-81592057D01*
X224004285Y-81592057D02*
X224051904Y-81687295D01*
X224051904Y-81687295D02*
X224051904Y-81830152D01*
X224051904Y-81830152D02*
X224004285Y-81925390D01*
X224004285Y-81925390D02*
X223956666Y-81973009D01*
X223956666Y-81973009D02*
X223861428Y-82020628D01*
X223861428Y-82020628D02*
X223480476Y-82020628D01*
X224432857Y-81592057D02*
X224480476Y-81544438D01*
X224480476Y-81544438D02*
X224575714Y-81496819D01*
X224575714Y-81496819D02*
X224813809Y-81496819D01*
X224813809Y-81496819D02*
X224909047Y-81544438D01*
X224909047Y-81544438D02*
X224956666Y-81592057D01*
X224956666Y-81592057D02*
X225004285Y-81687295D01*
X225004285Y-81687295D02*
X225004285Y-81782533D01*
X225004285Y-81782533D02*
X224956666Y-81925390D01*
X224956666Y-81925390D02*
X224385238Y-82496819D01*
X224385238Y-82496819D02*
X225004285Y-82496819D01*
X225623333Y-81496819D02*
X225718571Y-81496819D01*
X225718571Y-81496819D02*
X225813809Y-81544438D01*
X225813809Y-81544438D02*
X225861428Y-81592057D01*
X225861428Y-81592057D02*
X225909047Y-81687295D01*
X225909047Y-81687295D02*
X225956666Y-81877771D01*
X225956666Y-81877771D02*
X225956666Y-82115866D01*
X225956666Y-82115866D02*
X225909047Y-82306342D01*
X225909047Y-82306342D02*
X225861428Y-82401580D01*
X225861428Y-82401580D02*
X225813809Y-82449200D01*
X225813809Y-82449200D02*
X225718571Y-82496819D01*
X225718571Y-82496819D02*
X225623333Y-82496819D01*
X225623333Y-82496819D02*
X225528095Y-82449200D01*
X225528095Y-82449200D02*
X225480476Y-82401580D01*
X225480476Y-82401580D02*
X225432857Y-82306342D01*
X225432857Y-82306342D02*
X225385238Y-82115866D01*
X225385238Y-82115866D02*
X225385238Y-81877771D01*
X225385238Y-81877771D02*
X225432857Y-81687295D01*
X225432857Y-81687295D02*
X225480476Y-81592057D01*
X225480476Y-81592057D02*
X225528095Y-81544438D01*
X225528095Y-81544438D02*
X225623333Y-81496819D01*
X226909047Y-82496819D02*
X226337619Y-82496819D01*
X226623333Y-82496819D02*
X226623333Y-81496819D01*
X226623333Y-81496819D02*
X226528095Y-81639676D01*
X226528095Y-81639676D02*
X226432857Y-81734914D01*
X226432857Y-81734914D02*
X226337619Y-81782533D01*
X211780714Y-60414819D02*
X212352142Y-60414819D01*
X212066428Y-61414819D02*
X212066428Y-60414819D01*
X212685476Y-61414819D02*
X212685476Y-60414819D01*
X212685476Y-60414819D02*
X213066428Y-60414819D01*
X213066428Y-60414819D02*
X213161666Y-60462438D01*
X213161666Y-60462438D02*
X213209285Y-60510057D01*
X213209285Y-60510057D02*
X213256904Y-60605295D01*
X213256904Y-60605295D02*
X213256904Y-60748152D01*
X213256904Y-60748152D02*
X213209285Y-60843390D01*
X213209285Y-60843390D02*
X213161666Y-60891009D01*
X213161666Y-60891009D02*
X213066428Y-60938628D01*
X213066428Y-60938628D02*
X212685476Y-60938628D01*
X213590238Y-60414819D02*
X214209285Y-60414819D01*
X214209285Y-60414819D02*
X213875952Y-60795771D01*
X213875952Y-60795771D02*
X214018809Y-60795771D01*
X214018809Y-60795771D02*
X214114047Y-60843390D01*
X214114047Y-60843390D02*
X214161666Y-60891009D01*
X214161666Y-60891009D02*
X214209285Y-60986247D01*
X214209285Y-60986247D02*
X214209285Y-61224342D01*
X214209285Y-61224342D02*
X214161666Y-61319580D01*
X214161666Y-61319580D02*
X214114047Y-61367200D01*
X214114047Y-61367200D02*
X214018809Y-61414819D01*
X214018809Y-61414819D02*
X213733095Y-61414819D01*
X213733095Y-61414819D02*
X213637857Y-61367200D01*
X213637857Y-61367200D02*
X213590238Y-61319580D01*
X214828333Y-60414819D02*
X214923571Y-60414819D01*
X214923571Y-60414819D02*
X215018809Y-60462438D01*
X215018809Y-60462438D02*
X215066428Y-60510057D01*
X215066428Y-60510057D02*
X215114047Y-60605295D01*
X215114047Y-60605295D02*
X215161666Y-60795771D01*
X215161666Y-60795771D02*
X215161666Y-61033866D01*
X215161666Y-61033866D02*
X215114047Y-61224342D01*
X215114047Y-61224342D02*
X215066428Y-61319580D01*
X215066428Y-61319580D02*
X215018809Y-61367200D01*
X215018809Y-61367200D02*
X214923571Y-61414819D01*
X214923571Y-61414819D02*
X214828333Y-61414819D01*
X214828333Y-61414819D02*
X214733095Y-61367200D01*
X214733095Y-61367200D02*
X214685476Y-61319580D01*
X214685476Y-61319580D02*
X214637857Y-61224342D01*
X214637857Y-61224342D02*
X214590238Y-61033866D01*
X214590238Y-61033866D02*
X214590238Y-60795771D01*
X214590238Y-60795771D02*
X214637857Y-60605295D01*
X214637857Y-60605295D02*
X214685476Y-60510057D01*
X214685476Y-60510057D02*
X214733095Y-60462438D01*
X214733095Y-60462438D02*
X214828333Y-60414819D01*
X216066428Y-60414819D02*
X215590238Y-60414819D01*
X215590238Y-60414819D02*
X215542619Y-60891009D01*
X215542619Y-60891009D02*
X215590238Y-60843390D01*
X215590238Y-60843390D02*
X215685476Y-60795771D01*
X215685476Y-60795771D02*
X215923571Y-60795771D01*
X215923571Y-60795771D02*
X216018809Y-60843390D01*
X216018809Y-60843390D02*
X216066428Y-60891009D01*
X216066428Y-60891009D02*
X216114047Y-60986247D01*
X216114047Y-60986247D02*
X216114047Y-61224342D01*
X216114047Y-61224342D02*
X216066428Y-61319580D01*
X216066428Y-61319580D02*
X216018809Y-61367200D01*
X216018809Y-61367200D02*
X215923571Y-61414819D01*
X215923571Y-61414819D02*
X215685476Y-61414819D01*
X215685476Y-61414819D02*
X215590238Y-61367200D01*
X215590238Y-61367200D02*
X215542619Y-61319580D01*
X200350714Y-63589819D02*
X200922142Y-63589819D01*
X200636428Y-64589819D02*
X200636428Y-63589819D01*
X201255476Y-64589819D02*
X201255476Y-63589819D01*
X201255476Y-63589819D02*
X201636428Y-63589819D01*
X201636428Y-63589819D02*
X201731666Y-63637438D01*
X201731666Y-63637438D02*
X201779285Y-63685057D01*
X201779285Y-63685057D02*
X201826904Y-63780295D01*
X201826904Y-63780295D02*
X201826904Y-63923152D01*
X201826904Y-63923152D02*
X201779285Y-64018390D01*
X201779285Y-64018390D02*
X201731666Y-64066009D01*
X201731666Y-64066009D02*
X201636428Y-64113628D01*
X201636428Y-64113628D02*
X201255476Y-64113628D01*
X202160238Y-63589819D02*
X202779285Y-63589819D01*
X202779285Y-63589819D02*
X202445952Y-63970771D01*
X202445952Y-63970771D02*
X202588809Y-63970771D01*
X202588809Y-63970771D02*
X202684047Y-64018390D01*
X202684047Y-64018390D02*
X202731666Y-64066009D01*
X202731666Y-64066009D02*
X202779285Y-64161247D01*
X202779285Y-64161247D02*
X202779285Y-64399342D01*
X202779285Y-64399342D02*
X202731666Y-64494580D01*
X202731666Y-64494580D02*
X202684047Y-64542200D01*
X202684047Y-64542200D02*
X202588809Y-64589819D01*
X202588809Y-64589819D02*
X202303095Y-64589819D01*
X202303095Y-64589819D02*
X202207857Y-64542200D01*
X202207857Y-64542200D02*
X202160238Y-64494580D01*
X203398333Y-63589819D02*
X203493571Y-63589819D01*
X203493571Y-63589819D02*
X203588809Y-63637438D01*
X203588809Y-63637438D02*
X203636428Y-63685057D01*
X203636428Y-63685057D02*
X203684047Y-63780295D01*
X203684047Y-63780295D02*
X203731666Y-63970771D01*
X203731666Y-63970771D02*
X203731666Y-64208866D01*
X203731666Y-64208866D02*
X203684047Y-64399342D01*
X203684047Y-64399342D02*
X203636428Y-64494580D01*
X203636428Y-64494580D02*
X203588809Y-64542200D01*
X203588809Y-64542200D02*
X203493571Y-64589819D01*
X203493571Y-64589819D02*
X203398333Y-64589819D01*
X203398333Y-64589819D02*
X203303095Y-64542200D01*
X203303095Y-64542200D02*
X203255476Y-64494580D01*
X203255476Y-64494580D02*
X203207857Y-64399342D01*
X203207857Y-64399342D02*
X203160238Y-64208866D01*
X203160238Y-64208866D02*
X203160238Y-63970771D01*
X203160238Y-63970771D02*
X203207857Y-63780295D01*
X203207857Y-63780295D02*
X203255476Y-63685057D01*
X203255476Y-63685057D02*
X203303095Y-63637438D01*
X203303095Y-63637438D02*
X203398333Y-63589819D01*
X204112619Y-63685057D02*
X204160238Y-63637438D01*
X204160238Y-63637438D02*
X204255476Y-63589819D01*
X204255476Y-63589819D02*
X204493571Y-63589819D01*
X204493571Y-63589819D02*
X204588809Y-63637438D01*
X204588809Y-63637438D02*
X204636428Y-63685057D01*
X204636428Y-63685057D02*
X204684047Y-63780295D01*
X204684047Y-63780295D02*
X204684047Y-63875533D01*
X204684047Y-63875533D02*
X204636428Y-64018390D01*
X204636428Y-64018390D02*
X204065000Y-64589819D01*
X204065000Y-64589819D02*
X204684047Y-64589819D01*
X256629819Y-75239285D02*
X256629819Y-74667857D01*
X257629819Y-74953571D02*
X256629819Y-74953571D01*
X257629819Y-74334523D02*
X256629819Y-74334523D01*
X256629819Y-74334523D02*
X256629819Y-73953571D01*
X256629819Y-73953571D02*
X256677438Y-73858333D01*
X256677438Y-73858333D02*
X256725057Y-73810714D01*
X256725057Y-73810714D02*
X256820295Y-73763095D01*
X256820295Y-73763095D02*
X256963152Y-73763095D01*
X256963152Y-73763095D02*
X257058390Y-73810714D01*
X257058390Y-73810714D02*
X257106009Y-73858333D01*
X257106009Y-73858333D02*
X257153628Y-73953571D01*
X257153628Y-73953571D02*
X257153628Y-74334523D01*
X256629819Y-73429761D02*
X256629819Y-72810714D01*
X256629819Y-72810714D02*
X257010771Y-73144047D01*
X257010771Y-73144047D02*
X257010771Y-73001190D01*
X257010771Y-73001190D02*
X257058390Y-72905952D01*
X257058390Y-72905952D02*
X257106009Y-72858333D01*
X257106009Y-72858333D02*
X257201247Y-72810714D01*
X257201247Y-72810714D02*
X257439342Y-72810714D01*
X257439342Y-72810714D02*
X257534580Y-72858333D01*
X257534580Y-72858333D02*
X257582200Y-72905952D01*
X257582200Y-72905952D02*
X257629819Y-73001190D01*
X257629819Y-73001190D02*
X257629819Y-73286904D01*
X257629819Y-73286904D02*
X257582200Y-73382142D01*
X257582200Y-73382142D02*
X257534580Y-73429761D01*
X256629819Y-72191666D02*
X256629819Y-72096428D01*
X256629819Y-72096428D02*
X256677438Y-72001190D01*
X256677438Y-72001190D02*
X256725057Y-71953571D01*
X256725057Y-71953571D02*
X256820295Y-71905952D01*
X256820295Y-71905952D02*
X257010771Y-71858333D01*
X257010771Y-71858333D02*
X257248866Y-71858333D01*
X257248866Y-71858333D02*
X257439342Y-71905952D01*
X257439342Y-71905952D02*
X257534580Y-71953571D01*
X257534580Y-71953571D02*
X257582200Y-72001190D01*
X257582200Y-72001190D02*
X257629819Y-72096428D01*
X257629819Y-72096428D02*
X257629819Y-72191666D01*
X257629819Y-72191666D02*
X257582200Y-72286904D01*
X257582200Y-72286904D02*
X257534580Y-72334523D01*
X257534580Y-72334523D02*
X257439342Y-72382142D01*
X257439342Y-72382142D02*
X257248866Y-72429761D01*
X257248866Y-72429761D02*
X257010771Y-72429761D01*
X257010771Y-72429761D02*
X256820295Y-72382142D01*
X256820295Y-72382142D02*
X256725057Y-72334523D01*
X256725057Y-72334523D02*
X256677438Y-72286904D01*
X256677438Y-72286904D02*
X256629819Y-72191666D01*
X257629819Y-70905952D02*
X257629819Y-71477380D01*
X257629819Y-71191666D02*
X256629819Y-71191666D01*
X256629819Y-71191666D02*
X256772676Y-71286904D01*
X256772676Y-71286904D02*
X256867914Y-71382142D01*
X256867914Y-71382142D02*
X256915533Y-71477380D01*
X179395714Y-90259819D02*
X179967142Y-90259819D01*
X179681428Y-91259819D02*
X179681428Y-90259819D01*
X180300476Y-91259819D02*
X180300476Y-90259819D01*
X180300476Y-90259819D02*
X180681428Y-90259819D01*
X180681428Y-90259819D02*
X180776666Y-90307438D01*
X180776666Y-90307438D02*
X180824285Y-90355057D01*
X180824285Y-90355057D02*
X180871904Y-90450295D01*
X180871904Y-90450295D02*
X180871904Y-90593152D01*
X180871904Y-90593152D02*
X180824285Y-90688390D01*
X180824285Y-90688390D02*
X180776666Y-90736009D01*
X180776666Y-90736009D02*
X180681428Y-90783628D01*
X180681428Y-90783628D02*
X180300476Y-90783628D01*
X181824285Y-91259819D02*
X181252857Y-91259819D01*
X181538571Y-91259819D02*
X181538571Y-90259819D01*
X181538571Y-90259819D02*
X181443333Y-90402676D01*
X181443333Y-90402676D02*
X181348095Y-90497914D01*
X181348095Y-90497914D02*
X181252857Y-90545533D01*
X182443333Y-90259819D02*
X182538571Y-90259819D01*
X182538571Y-90259819D02*
X182633809Y-90307438D01*
X182633809Y-90307438D02*
X182681428Y-90355057D01*
X182681428Y-90355057D02*
X182729047Y-90450295D01*
X182729047Y-90450295D02*
X182776666Y-90640771D01*
X182776666Y-90640771D02*
X182776666Y-90878866D01*
X182776666Y-90878866D02*
X182729047Y-91069342D01*
X182729047Y-91069342D02*
X182681428Y-91164580D01*
X182681428Y-91164580D02*
X182633809Y-91212200D01*
X182633809Y-91212200D02*
X182538571Y-91259819D01*
X182538571Y-91259819D02*
X182443333Y-91259819D01*
X182443333Y-91259819D02*
X182348095Y-91212200D01*
X182348095Y-91212200D02*
X182300476Y-91164580D01*
X182300476Y-91164580D02*
X182252857Y-91069342D01*
X182252857Y-91069342D02*
X182205238Y-90878866D01*
X182205238Y-90878866D02*
X182205238Y-90640771D01*
X182205238Y-90640771D02*
X182252857Y-90450295D01*
X182252857Y-90450295D02*
X182300476Y-90355057D01*
X182300476Y-90355057D02*
X182348095Y-90307438D01*
X182348095Y-90307438D02*
X182443333Y-90259819D01*
X183157619Y-90355057D02*
X183205238Y-90307438D01*
X183205238Y-90307438D02*
X183300476Y-90259819D01*
X183300476Y-90259819D02*
X183538571Y-90259819D01*
X183538571Y-90259819D02*
X183633809Y-90307438D01*
X183633809Y-90307438D02*
X183681428Y-90355057D01*
X183681428Y-90355057D02*
X183729047Y-90450295D01*
X183729047Y-90450295D02*
X183729047Y-90545533D01*
X183729047Y-90545533D02*
X183681428Y-90688390D01*
X183681428Y-90688390D02*
X183110000Y-91259819D01*
X183110000Y-91259819D02*
X183729047Y-91259819D01*
X71318714Y-36284819D02*
X71890142Y-36284819D01*
X71604428Y-37284819D02*
X71604428Y-36284819D01*
X72223476Y-37284819D02*
X72223476Y-36284819D01*
X72223476Y-36284819D02*
X72604428Y-36284819D01*
X72604428Y-36284819D02*
X72699666Y-36332438D01*
X72699666Y-36332438D02*
X72747285Y-36380057D01*
X72747285Y-36380057D02*
X72794904Y-36475295D01*
X72794904Y-36475295D02*
X72794904Y-36618152D01*
X72794904Y-36618152D02*
X72747285Y-36713390D01*
X72747285Y-36713390D02*
X72699666Y-36761009D01*
X72699666Y-36761009D02*
X72604428Y-36808628D01*
X72604428Y-36808628D02*
X72223476Y-36808628D01*
X73747285Y-37284819D02*
X73175857Y-37284819D01*
X73461571Y-37284819D02*
X73461571Y-36284819D01*
X73461571Y-36284819D02*
X73366333Y-36427676D01*
X73366333Y-36427676D02*
X73271095Y-36522914D01*
X73271095Y-36522914D02*
X73175857Y-36570533D01*
X74366333Y-36284819D02*
X74461571Y-36284819D01*
X74461571Y-36284819D02*
X74556809Y-36332438D01*
X74556809Y-36332438D02*
X74604428Y-36380057D01*
X74604428Y-36380057D02*
X74652047Y-36475295D01*
X74652047Y-36475295D02*
X74699666Y-36665771D01*
X74699666Y-36665771D02*
X74699666Y-36903866D01*
X74699666Y-36903866D02*
X74652047Y-37094342D01*
X74652047Y-37094342D02*
X74604428Y-37189580D01*
X74604428Y-37189580D02*
X74556809Y-37237200D01*
X74556809Y-37237200D02*
X74461571Y-37284819D01*
X74461571Y-37284819D02*
X74366333Y-37284819D01*
X74366333Y-37284819D02*
X74271095Y-37237200D01*
X74271095Y-37237200D02*
X74223476Y-37189580D01*
X74223476Y-37189580D02*
X74175857Y-37094342D01*
X74175857Y-37094342D02*
X74128238Y-36903866D01*
X74128238Y-36903866D02*
X74128238Y-36665771D01*
X74128238Y-36665771D02*
X74175857Y-36475295D01*
X74175857Y-36475295D02*
X74223476Y-36380057D01*
X74223476Y-36380057D02*
X74271095Y-36332438D01*
X74271095Y-36332438D02*
X74366333Y-36284819D01*
X75652047Y-37284819D02*
X75080619Y-37284819D01*
X75366333Y-37284819D02*
X75366333Y-36284819D01*
X75366333Y-36284819D02*
X75271095Y-36427676D01*
X75271095Y-36427676D02*
X75175857Y-36522914D01*
X75175857Y-36522914D02*
X75080619Y-36570533D01*
D12*
%TO.C,M202*%
X179025000Y-40655000D02*
X182925000Y-40655000D01*
X179025000Y-50785000D02*
X182925000Y-50785000D01*
D13*
X176930000Y-40775000D02*
G75*
G02*
X176730000Y-40775000I-100000J0D01*
G01*
X176730000Y-40775000D02*
G75*
G02*
X176930000Y-40775000I100000J0D01*
G01*
D14*
%TO.C,R62*%
X140107936Y-42445000D02*
X140562064Y-42445000D01*
X140107936Y-43915000D02*
X140562064Y-43915000D01*
%TO.C,D12*%
X127930000Y-50940000D02*
X127930000Y-56750000D01*
X127930000Y-56750000D02*
X131150000Y-56750000D01*
X131150000Y-56750000D02*
X131150000Y-50940000D01*
%TO.C,R20*%
X167359064Y-91975000D02*
X166904936Y-91975000D01*
X167359064Y-93445000D02*
X166904936Y-93445000D01*
%TO.C,C2*%
X204885113Y-60755000D02*
X205385113Y-60755000D01*
X205135113Y-60505000D02*
X205135113Y-61005000D01*
X207689888Y-59650000D02*
X207689888Y-61190000D01*
X207689888Y-63270000D02*
X207689888Y-64810000D01*
X207729888Y-59650000D02*
X207729888Y-61190000D01*
X207729888Y-63270000D02*
X207729888Y-64810000D01*
X207769888Y-59651000D02*
X207769888Y-61190000D01*
X207769888Y-63270000D02*
X207769888Y-64809000D01*
X207809888Y-59653000D02*
X207809888Y-61190000D01*
X207809888Y-63270000D02*
X207809888Y-64807000D01*
X207849888Y-59655000D02*
X207849888Y-61190000D01*
X207849888Y-63270000D02*
X207849888Y-64805000D01*
X207889888Y-59658000D02*
X207889888Y-61190000D01*
X207889888Y-63270000D02*
X207889888Y-64802000D01*
X207929888Y-59661000D02*
X207929888Y-61190000D01*
X207929888Y-63270000D02*
X207929888Y-64799000D01*
X207969888Y-59665000D02*
X207969888Y-61190000D01*
X207969888Y-63270000D02*
X207969888Y-64795000D01*
X208009888Y-59670000D02*
X208009888Y-61190000D01*
X208009888Y-63270000D02*
X208009888Y-64790000D01*
X208049888Y-59675000D02*
X208049888Y-61190000D01*
X208049888Y-63270000D02*
X208049888Y-64785000D01*
X208089888Y-59681000D02*
X208089888Y-61190000D01*
X208089888Y-63270000D02*
X208089888Y-64779000D01*
X208129888Y-59687000D02*
X208129888Y-61190000D01*
X208129888Y-63270000D02*
X208129888Y-64773000D01*
X208169888Y-59694000D02*
X208169888Y-61190000D01*
X208169888Y-63270000D02*
X208169888Y-64766000D01*
X208209888Y-59702000D02*
X208209888Y-61190000D01*
X208209888Y-63270000D02*
X208209888Y-64758000D01*
X208249888Y-59711000D02*
X208249888Y-61190000D01*
X208249888Y-63270000D02*
X208249888Y-64749000D01*
X208289888Y-59720000D02*
X208289888Y-61190000D01*
X208289888Y-63270000D02*
X208289888Y-64740000D01*
X208329888Y-59729000D02*
X208329888Y-61190000D01*
X208329888Y-63270000D02*
X208329888Y-64731000D01*
X208369888Y-59740000D02*
X208369888Y-61190000D01*
X208369888Y-63270000D02*
X208369888Y-64720000D01*
X208409888Y-59751000D02*
X208409888Y-61190000D01*
X208409888Y-63270000D02*
X208409888Y-64709000D01*
X208449888Y-59763000D02*
X208449888Y-61190000D01*
X208449888Y-63270000D02*
X208449888Y-64697000D01*
X208489888Y-59775000D02*
X208489888Y-61190000D01*
X208489888Y-63270000D02*
X208489888Y-64685000D01*
X208529888Y-59788000D02*
X208529888Y-61190000D01*
X208529888Y-63270000D02*
X208529888Y-64672000D01*
X208569888Y-59802000D02*
X208569888Y-61190000D01*
X208569888Y-63270000D02*
X208569888Y-64658000D01*
X208609888Y-59817000D02*
X208609888Y-61190000D01*
X208609888Y-63270000D02*
X208609888Y-64643000D01*
X208649888Y-59832000D02*
X208649888Y-61190000D01*
X208649888Y-63270000D02*
X208649888Y-64628000D01*
X208689888Y-59848000D02*
X208689888Y-61190000D01*
X208689888Y-63270000D02*
X208689888Y-64612000D01*
X208729888Y-59865000D02*
X208729888Y-61190000D01*
X208729888Y-63270000D02*
X208729888Y-64595000D01*
X208769888Y-59883000D02*
X208769888Y-61190000D01*
X208769888Y-63270000D02*
X208769888Y-64577000D01*
X208809888Y-59901000D02*
X208809888Y-61190000D01*
X208809888Y-63270000D02*
X208809888Y-64559000D01*
X208849888Y-59921000D02*
X208849888Y-61190000D01*
X208849888Y-63270000D02*
X208849888Y-64539000D01*
X208889888Y-59941000D02*
X208889888Y-61190000D01*
X208889888Y-63270000D02*
X208889888Y-64519000D01*
X208929888Y-59962000D02*
X208929888Y-61190000D01*
X208929888Y-63270000D02*
X208929888Y-64498000D01*
X208969888Y-59984000D02*
X208969888Y-61190000D01*
X208969888Y-63270000D02*
X208969888Y-64476000D01*
X209009888Y-60007000D02*
X209009888Y-61190000D01*
X209009888Y-63270000D02*
X209009888Y-64453000D01*
X209049888Y-60031000D02*
X209049888Y-61190000D01*
X209049888Y-63270000D02*
X209049888Y-64429000D01*
X209089888Y-60055000D02*
X209089888Y-61190000D01*
X209089888Y-63270000D02*
X209089888Y-64405000D01*
X209129888Y-60081000D02*
X209129888Y-61190000D01*
X209129888Y-63270000D02*
X209129888Y-64379000D01*
X209169888Y-60108000D02*
X209169888Y-61190000D01*
X209169888Y-63270000D02*
X209169888Y-64352000D01*
X209209888Y-60136000D02*
X209209888Y-61190000D01*
X209209888Y-63270000D02*
X209209888Y-64324000D01*
X209249888Y-60165000D02*
X209249888Y-61190000D01*
X209249888Y-63270000D02*
X209249888Y-64295000D01*
X209289888Y-60195000D02*
X209289888Y-61190000D01*
X209289888Y-63270000D02*
X209289888Y-64265000D01*
X209329888Y-60227000D02*
X209329888Y-61190000D01*
X209329888Y-63270000D02*
X209329888Y-64233000D01*
X209369888Y-60260000D02*
X209369888Y-61190000D01*
X209369888Y-63270000D02*
X209369888Y-64200000D01*
X209409888Y-60294000D02*
X209409888Y-61190000D01*
X209409888Y-63270000D02*
X209409888Y-64166000D01*
X209449888Y-60329000D02*
X209449888Y-61190000D01*
X209449888Y-63270000D02*
X209449888Y-64131000D01*
X209489888Y-60366000D02*
X209489888Y-61190000D01*
X209489888Y-63270000D02*
X209489888Y-64094000D01*
X209529888Y-60405000D02*
X209529888Y-61190000D01*
X209529888Y-63270000D02*
X209529888Y-64055000D01*
X209569888Y-60445000D02*
X209569888Y-61190000D01*
X209569888Y-63270000D02*
X209569888Y-64015000D01*
X209609888Y-60487000D02*
X209609888Y-61190000D01*
X209609888Y-63270000D02*
X209609888Y-63973000D01*
X209649888Y-60531000D02*
X209649888Y-61190000D01*
X209649888Y-63270000D02*
X209649888Y-63929000D01*
X209689888Y-60578000D02*
X209689888Y-61190000D01*
X209689888Y-63270000D02*
X209689888Y-63882000D01*
X209729888Y-60626000D02*
X209729888Y-63834000D01*
X209769888Y-60677000D02*
X209769888Y-63783000D01*
X209809888Y-60731000D02*
X209809888Y-63729000D01*
X209849888Y-60787000D02*
X209849888Y-63673000D01*
X209889888Y-60847000D02*
X209889888Y-63613000D01*
X209929888Y-60911000D02*
X209929888Y-63549000D01*
X209969888Y-60979000D02*
X209969888Y-63481000D01*
X210009888Y-61053000D02*
X210009888Y-63407000D01*
X210049888Y-61132000D02*
X210049888Y-63328000D01*
X210089888Y-61219000D02*
X210089888Y-63241000D01*
X210129888Y-61316000D02*
X210129888Y-63144000D01*
X210169888Y-61425000D02*
X210169888Y-63035000D01*
X210209888Y-61553000D02*
X210209888Y-62907000D01*
X210249888Y-61713000D02*
X210249888Y-62747000D01*
X210289888Y-61947000D02*
X210289888Y-62513000D01*
X210309888Y-62230000D02*
G75*
G02*
X205069888Y-62230000I-2620000J0D01*
G01*
X205069888Y-62230000D02*
G75*
G02*
X210309888Y-62230000I2620000J0D01*
G01*
%TO.C,D14*%
X94035000Y-73130000D02*
X94035000Y-76730000D01*
X94046522Y-73091522D02*
G75*
G02*
X98485001Y-74930000I1838478J-1838478D01*
G01*
X98485000Y-74930000D02*
G75*
G02*
X94046522Y-76768478I-2600000J0D01*
G01*
%TO.C,D20*%
X156280000Y-86360000D02*
X157300000Y-86360000D01*
X158080000Y-84890000D02*
X158080000Y-87830000D01*
X158200000Y-84890000D02*
X158200000Y-87830000D01*
X158320000Y-84890000D02*
X158320000Y-87830000D01*
X163760000Y-86360000D02*
X162740000Y-86360000D01*
X157300000Y-84890000D02*
X162740000Y-84890000D01*
X162740000Y-87830000D01*
X157300000Y-87830000D01*
X157300000Y-84890000D01*
%TO.C,D10*%
X132369000Y-42070000D02*
X132369000Y-44290000D01*
X132369000Y-44290000D02*
X136779000Y-44290000D01*
X136779000Y-42070000D02*
X132369000Y-42070000D01*
D10*
%TO.C,R40*%
X168845000Y-52324000D02*
X171515000Y-52324000D01*
X168845000Y-59944000D02*
X168845000Y-52324000D01*
X171515000Y-52324000D02*
X171515000Y-59944000D01*
X171515000Y-59944000D02*
X168845000Y-59944000D01*
D14*
%TO.C,C5*%
X132495113Y-46150000D02*
X132995113Y-46150000D01*
X132745113Y-45900000D02*
X132745113Y-46400000D01*
X135299888Y-45045000D02*
X135299888Y-46585000D01*
X135299888Y-48665000D02*
X135299888Y-50205000D01*
X135339888Y-45045000D02*
X135339888Y-46585000D01*
X135339888Y-48665000D02*
X135339888Y-50205000D01*
X135379888Y-45046000D02*
X135379888Y-46585000D01*
X135379888Y-48665000D02*
X135379888Y-50204000D01*
X135419888Y-45048000D02*
X135419888Y-46585000D01*
X135419888Y-48665000D02*
X135419888Y-50202000D01*
X135459888Y-45050000D02*
X135459888Y-46585000D01*
X135459888Y-48665000D02*
X135459888Y-50200000D01*
X135499888Y-45053000D02*
X135499888Y-46585000D01*
X135499888Y-48665000D02*
X135499888Y-50197000D01*
X135539888Y-45056000D02*
X135539888Y-46585000D01*
X135539888Y-48665000D02*
X135539888Y-50194000D01*
X135579888Y-45060000D02*
X135579888Y-46585000D01*
X135579888Y-48665000D02*
X135579888Y-50190000D01*
X135619888Y-45065000D02*
X135619888Y-46585000D01*
X135619888Y-48665000D02*
X135619888Y-50185000D01*
X135659888Y-45070000D02*
X135659888Y-46585000D01*
X135659888Y-48665000D02*
X135659888Y-50180000D01*
X135699888Y-45076000D02*
X135699888Y-46585000D01*
X135699888Y-48665000D02*
X135699888Y-50174000D01*
X135739888Y-45082000D02*
X135739888Y-46585000D01*
X135739888Y-48665000D02*
X135739888Y-50168000D01*
X135779888Y-45089000D02*
X135779888Y-46585000D01*
X135779888Y-48665000D02*
X135779888Y-50161000D01*
X135819888Y-45097000D02*
X135819888Y-46585000D01*
X135819888Y-48665000D02*
X135819888Y-50153000D01*
X135859888Y-45106000D02*
X135859888Y-46585000D01*
X135859888Y-48665000D02*
X135859888Y-50144000D01*
X135899888Y-45115000D02*
X135899888Y-46585000D01*
X135899888Y-48665000D02*
X135899888Y-50135000D01*
X135939888Y-45124000D02*
X135939888Y-46585000D01*
X135939888Y-48665000D02*
X135939888Y-50126000D01*
X135979888Y-45135000D02*
X135979888Y-46585000D01*
X135979888Y-48665000D02*
X135979888Y-50115000D01*
X136019888Y-45146000D02*
X136019888Y-46585000D01*
X136019888Y-48665000D02*
X136019888Y-50104000D01*
X136059888Y-45158000D02*
X136059888Y-46585000D01*
X136059888Y-48665000D02*
X136059888Y-50092000D01*
X136099888Y-45170000D02*
X136099888Y-46585000D01*
X136099888Y-48665000D02*
X136099888Y-50080000D01*
X136139888Y-45183000D02*
X136139888Y-46585000D01*
X136139888Y-48665000D02*
X136139888Y-50067000D01*
X136179888Y-45197000D02*
X136179888Y-46585000D01*
X136179888Y-48665000D02*
X136179888Y-50053000D01*
X136219888Y-45212000D02*
X136219888Y-46585000D01*
X136219888Y-48665000D02*
X136219888Y-50038000D01*
X136259888Y-45227000D02*
X136259888Y-46585000D01*
X136259888Y-48665000D02*
X136259888Y-50023000D01*
X136299888Y-45243000D02*
X136299888Y-46585000D01*
X136299888Y-48665000D02*
X136299888Y-50007000D01*
X136339888Y-45260000D02*
X136339888Y-46585000D01*
X136339888Y-48665000D02*
X136339888Y-49990000D01*
X136379888Y-45278000D02*
X136379888Y-46585000D01*
X136379888Y-48665000D02*
X136379888Y-49972000D01*
X136419888Y-45296000D02*
X136419888Y-46585000D01*
X136419888Y-48665000D02*
X136419888Y-49954000D01*
X136459888Y-45316000D02*
X136459888Y-46585000D01*
X136459888Y-48665000D02*
X136459888Y-49934000D01*
X136499888Y-45336000D02*
X136499888Y-46585000D01*
X136499888Y-48665000D02*
X136499888Y-49914000D01*
X136539888Y-45357000D02*
X136539888Y-46585000D01*
X136539888Y-48665000D02*
X136539888Y-49893000D01*
X136579888Y-45379000D02*
X136579888Y-46585000D01*
X136579888Y-48665000D02*
X136579888Y-49871000D01*
X136619888Y-45402000D02*
X136619888Y-46585000D01*
X136619888Y-48665000D02*
X136619888Y-49848000D01*
X136659888Y-45426000D02*
X136659888Y-46585000D01*
X136659888Y-48665000D02*
X136659888Y-49824000D01*
X136699888Y-45450000D02*
X136699888Y-46585000D01*
X136699888Y-48665000D02*
X136699888Y-49800000D01*
X136739888Y-45476000D02*
X136739888Y-46585000D01*
X136739888Y-48665000D02*
X136739888Y-49774000D01*
X136779888Y-45503000D02*
X136779888Y-46585000D01*
X136779888Y-48665000D02*
X136779888Y-49747000D01*
X136819888Y-45531000D02*
X136819888Y-46585000D01*
X136819888Y-48665000D02*
X136819888Y-49719000D01*
X136859888Y-45560000D02*
X136859888Y-46585000D01*
X136859888Y-48665000D02*
X136859888Y-49690000D01*
X136899888Y-45590000D02*
X136899888Y-46585000D01*
X136899888Y-48665000D02*
X136899888Y-49660000D01*
X136939888Y-45622000D02*
X136939888Y-46585000D01*
X136939888Y-48665000D02*
X136939888Y-49628000D01*
X136979888Y-45655000D02*
X136979888Y-46585000D01*
X136979888Y-48665000D02*
X136979888Y-49595000D01*
X137019888Y-45689000D02*
X137019888Y-46585000D01*
X137019888Y-48665000D02*
X137019888Y-49561000D01*
X137059888Y-45724000D02*
X137059888Y-46585000D01*
X137059888Y-48665000D02*
X137059888Y-49526000D01*
X137099888Y-45761000D02*
X137099888Y-46585000D01*
X137099888Y-48665000D02*
X137099888Y-49489000D01*
X137139888Y-45800000D02*
X137139888Y-46585000D01*
X137139888Y-48665000D02*
X137139888Y-49450000D01*
X137179888Y-45840000D02*
X137179888Y-46585000D01*
X137179888Y-48665000D02*
X137179888Y-49410000D01*
X137219888Y-45882000D02*
X137219888Y-46585000D01*
X137219888Y-48665000D02*
X137219888Y-49368000D01*
X137259888Y-45926000D02*
X137259888Y-46585000D01*
X137259888Y-48665000D02*
X137259888Y-49324000D01*
X137299888Y-45973000D02*
X137299888Y-46585000D01*
X137299888Y-48665000D02*
X137299888Y-49277000D01*
X137339888Y-46021000D02*
X137339888Y-49229000D01*
X137379888Y-46072000D02*
X137379888Y-49178000D01*
X137419888Y-46126000D02*
X137419888Y-49124000D01*
X137459888Y-46182000D02*
X137459888Y-49068000D01*
X137499888Y-46242000D02*
X137499888Y-49008000D01*
X137539888Y-46306000D02*
X137539888Y-48944000D01*
X137579888Y-46374000D02*
X137579888Y-48876000D01*
X137619888Y-46448000D02*
X137619888Y-48802000D01*
X137659888Y-46527000D02*
X137659888Y-48723000D01*
X137699888Y-46614000D02*
X137699888Y-48636000D01*
X137739888Y-46711000D02*
X137739888Y-48539000D01*
X137779888Y-46820000D02*
X137779888Y-48430000D01*
X137819888Y-46948000D02*
X137819888Y-48302000D01*
X137859888Y-47108000D02*
X137859888Y-48142000D01*
X137899888Y-47342000D02*
X137899888Y-47908000D01*
X137919888Y-47625000D02*
G75*
G02*
X132679888Y-47625000I-2620000J0D01*
G01*
X132679888Y-47625000D02*
G75*
G02*
X137919888Y-47625000I2620000J0D01*
G01*
%TO.C,U10*%
X140315000Y-90650000D02*
X140410000Y-90650000D01*
X140315000Y-94770000D02*
X140315000Y-90650000D01*
X140410000Y-94770000D02*
X140315000Y-94770000D01*
X145340000Y-90650000D02*
X145435000Y-90650000D01*
X145435000Y-90650000D02*
X145435000Y-94770000D01*
X145435000Y-94770000D02*
X145340000Y-94770000D01*
X145675000Y-90350000D02*
X145345000Y-90110000D01*
X145675000Y-89870000D01*
X145675000Y-90350000D01*
G36*
X145675000Y-90350000D02*
G01*
X145345000Y-90110000D01*
X145675000Y-89870000D01*
X145675000Y-90350000D01*
G37*
D13*
%TO.C,RL105*%
X70358000Y-62858000D02*
G75*
G02*
X70104000Y-62858000I-127000J0D01*
G01*
X70104000Y-62858000D02*
G75*
G02*
X70358000Y-62858000I127000J0D01*
G01*
D14*
%TO.C,R65*%
X136932936Y-69115000D02*
X137387064Y-69115000D01*
X136932936Y-70585000D02*
X137387064Y-70585000D01*
%TO.C,Q19*%
X98834892Y-76950699D02*
X99675382Y-77791189D01*
X99810699Y-75974892D02*
X98834892Y-76950699D01*
X100651189Y-76815382D02*
X99810699Y-75974892D01*
%TO.C,C13*%
X206275000Y-101338748D02*
X206275000Y-101861252D01*
X207745000Y-101338748D02*
X207745000Y-101861252D01*
%TO.C,C14*%
X116740000Y-46728748D02*
X116740000Y-47251252D01*
X118210000Y-46728748D02*
X118210000Y-47251252D01*
D10*
%TO.C,R1*%
X191705000Y-59055000D02*
X194375000Y-59055000D01*
X191705000Y-66675000D02*
X191705000Y-59055000D01*
X194375000Y-59055000D02*
X194375000Y-66675000D01*
X194375000Y-66675000D02*
X191705000Y-66675000D01*
D14*
%TO.C,R47*%
X205894000Y-67029064D02*
X205894000Y-66574936D01*
X207364000Y-67029064D02*
X207364000Y-66574936D01*
%TO.C,Q6*%
X109960000Y-54555000D02*
X113560000Y-54555000D01*
X109921522Y-54543478D02*
G75*
G02*
X111760000Y-50104999I1838478J1838478D01*
G01*
X111760000Y-50105000D02*
G75*
G02*
X113598478Y-54543478I0J-2600000D01*
G01*
%TO.C,R76*%
X100737936Y-91975000D02*
X101192064Y-91975000D01*
X100737936Y-93445000D02*
X101192064Y-93445000D01*
%TO.C,R22*%
X267870000Y-45947064D02*
X267870000Y-45492936D01*
X269340000Y-45947064D02*
X269340000Y-45492936D01*
%TO.C,C22*%
X175521252Y-44350000D02*
X174998748Y-44350000D01*
X175521252Y-45820000D02*
X174998748Y-45820000D01*
%TO.C,U3*%
X264575000Y-88910000D02*
X268695000Y-88910000D01*
X264575000Y-88975000D02*
X264575000Y-88910000D01*
X264575000Y-97780000D02*
X264575000Y-97715000D01*
X268695000Y-88910000D02*
X268695000Y-88975000D01*
X268695000Y-97715000D02*
X268695000Y-97780000D01*
X268695000Y-97780000D02*
X264575000Y-97780000D01*
X264035000Y-88975000D02*
X263795000Y-88645000D01*
X264275000Y-88645000D01*
X264035000Y-88975000D01*
G36*
X264035000Y-88975000D02*
G01*
X263795000Y-88645000D01*
X264275000Y-88645000D01*
X264035000Y-88975000D01*
G37*
%TO.C,C21*%
X186428748Y-43080000D02*
X186951252Y-43080000D01*
X186428748Y-44550000D02*
X186951252Y-44550000D01*
D15*
%TO.C,U8*%
X108204000Y-80264000D02*
X108204000Y-81569560D01*
X108204000Y-98586649D02*
X108204000Y-100076000D01*
X108204000Y-100076000D02*
X115316000Y-100076000D01*
X115316000Y-80264000D02*
X108204000Y-80264000D01*
X115316000Y-81753351D02*
X115316000Y-80264000D01*
X115316000Y-100076000D02*
X115316000Y-98586649D01*
D14*
%TO.C,D18*%
X172480000Y-95870000D02*
X172480000Y-99710000D01*
X172600000Y-95870000D02*
X172600000Y-99710000D01*
X172720000Y-95870000D02*
X172720000Y-99710000D01*
%TO.C,C8*%
X253626252Y-73433000D02*
X253103748Y-73433000D01*
X253626252Y-74903000D02*
X253103748Y-74903000D01*
%TO.C,R53*%
X253137936Y-78005000D02*
X253592064Y-78005000D01*
X253137936Y-79475000D02*
X253592064Y-79475000D01*
D12*
%TO.C,M201*%
X214585000Y-67325000D02*
X218485000Y-67325000D01*
X214585000Y-77455000D02*
X218485000Y-77455000D01*
D13*
X212490000Y-67445000D02*
G75*
G02*
X212290000Y-67445000I-100000J0D01*
G01*
X212290000Y-67445000D02*
G75*
G02*
X212490000Y-67445000I100000J0D01*
G01*
D14*
%TO.C,R74*%
X124360000Y-95022936D02*
X124360000Y-95477064D01*
X125830000Y-95022936D02*
X125830000Y-95477064D01*
%TO.C,C45*%
X126620000Y-71520000D02*
X128970000Y-71520000D01*
X126620000Y-83260000D02*
X126620000Y-71520000D01*
X128970000Y-83260000D02*
X126620000Y-83260000D01*
X130110000Y-71520000D02*
X132460000Y-71520000D01*
X132460000Y-71520000D02*
X132460000Y-83260000D01*
X132460000Y-83260000D02*
X130110000Y-83260000D01*
%TO.C,R71*%
X85498000Y-85317064D02*
X85498000Y-84862936D01*
X86968000Y-85317064D02*
X86968000Y-84862936D01*
%TO.C,R24*%
X220880000Y-40232064D02*
X220880000Y-39777936D01*
X222350000Y-40232064D02*
X222350000Y-39777936D01*
%TO.C,C23*%
X191035000Y-79113748D02*
X191035000Y-79636252D01*
X192505000Y-79113748D02*
X192505000Y-79636252D01*
%TO.C,R48*%
X207926000Y-67029064D02*
X207926000Y-66574936D01*
X209396000Y-67029064D02*
X209396000Y-66574936D01*
%TO.C,D19*%
X172480000Y-100315000D02*
X172480000Y-104155000D01*
X172600000Y-100315000D02*
X172600000Y-104155000D01*
X172720000Y-100315000D02*
X172720000Y-104155000D01*
%TO.C,C19*%
X211081252Y-71020000D02*
X210558748Y-71020000D01*
X211081252Y-72490000D02*
X210558748Y-72490000D01*
%TO.C,D7*%
X197145000Y-71260000D02*
X197145000Y-77070000D01*
X197145000Y-77070000D02*
X200365000Y-77070000D01*
X200365000Y-77070000D02*
X200365000Y-71260000D01*
%TO.C,Q20*%
X101705000Y-54915000D02*
X105305000Y-54915000D01*
X101666522Y-54903478D02*
G75*
G02*
X103505000Y-50464999I1838478J1838478D01*
G01*
X103505000Y-50465000D02*
G75*
G02*
X105343478Y-54903478I0J-2600000D01*
G01*
%TO.C,D11*%
X88025000Y-48245000D02*
X88025000Y-52085000D01*
X88145000Y-48245000D02*
X88145000Y-52085000D01*
X88265000Y-48245000D02*
X88265000Y-52085000D01*
%TO.C,C20*%
X186428748Y-45620000D02*
X186951252Y-45620000D01*
X186428748Y-47090000D02*
X186951252Y-47090000D01*
%TO.C,R87*%
X124359936Y-69623000D02*
X124814064Y-69623000D01*
X124359936Y-71093000D02*
X124814064Y-71093000D01*
%TO.C,R89*%
X105310000Y-66902064D02*
X105310000Y-66447936D01*
X106780000Y-66902064D02*
X106780000Y-66447936D01*
%TO.C,R37*%
X105637064Y-36730000D02*
X105182936Y-36730000D01*
X105637064Y-38200000D02*
X105182936Y-38200000D01*
%TO.C,Q5*%
X89035000Y-75240000D02*
X90035000Y-75240000D01*
X90035000Y-75840000D01*
X89035000Y-75840000D01*
X89035000Y-75240000D01*
%TO.C,D13*%
X134153000Y-61995000D02*
X134153000Y-67805000D01*
X137373000Y-61995000D02*
X134153000Y-61995000D01*
X137373000Y-67805000D02*
X137373000Y-61995000D01*
%TO.C,R35*%
X205640000Y-88492064D02*
X205640000Y-88037936D01*
X207110000Y-88492064D02*
X207110000Y-88037936D01*
%TO.C,R86*%
X120931000Y-69696064D02*
X120931000Y-69241936D01*
X122401000Y-69696064D02*
X122401000Y-69241936D01*
%TO.C,D4*%
X261125000Y-39710000D02*
X266935000Y-39710000D01*
X266935000Y-36490000D02*
X261125000Y-36490000D01*
X266935000Y-39710000D02*
X266935000Y-36490000D01*
%TO.C,Q23*%
X155245000Y-100860000D02*
X155245000Y-97260000D01*
X150795000Y-99060000D02*
G75*
G02*
X155233478Y-97221522I2600000J0D01*
G01*
X155233478Y-100898478D02*
G75*
G02*
X150794999Y-99060000I-1838478J1838478D01*
G01*
%TO.C,R12*%
X242797064Y-46255000D02*
X242342936Y-46255000D01*
X242797064Y-47725000D02*
X242342936Y-47725000D01*
%TO.C,D8*%
X193970000Y-93110000D02*
X193970000Y-98920000D01*
X197190000Y-93110000D02*
X193970000Y-93110000D01*
X197190000Y-98920000D02*
X197190000Y-93110000D01*
%TO.C,R34*%
X207545000Y-88492064D02*
X207545000Y-88037936D01*
X209015000Y-88492064D02*
X209015000Y-88037936D01*
%TO.C,C28*%
X218110000Y-89625000D02*
X223850000Y-89625000D01*
X218110000Y-97065000D02*
X218110000Y-89625000D01*
X223850000Y-89625000D02*
X223850000Y-97065000D01*
X223850000Y-97065000D02*
X218110000Y-97065000D01*
%TO.C,R83*%
X90705000Y-72339564D02*
X90705000Y-71885436D01*
X92175000Y-72339564D02*
X92175000Y-71885436D01*
%TO.C,C35*%
X169283748Y-72925000D02*
X169806252Y-72925000D01*
X169283748Y-74395000D02*
X169806252Y-74395000D01*
%TO.C,C51*%
X147982000Y-89161252D02*
X147982000Y-88638748D01*
X149452000Y-89161252D02*
X149452000Y-88638748D01*
%TO.C,R43*%
X175160000Y-84682064D02*
X175160000Y-84227936D01*
X176630000Y-84682064D02*
X176630000Y-84227936D01*
%TO.C,R77*%
X100737936Y-89435000D02*
X101192064Y-89435000D01*
X100737936Y-90905000D02*
X101192064Y-90905000D01*
%TO.C,C9*%
X268231252Y-86895000D02*
X267708748Y-86895000D01*
X268231252Y-88365000D02*
X267708748Y-88365000D01*
%TO.C,D5*%
X260015000Y-42165000D02*
X260015000Y-45465000D01*
X260015000Y-42165000D02*
X265525000Y-42165000D01*
X260015000Y-45465000D02*
X265525000Y-45465000D01*
%TO.C,R50*%
X253592064Y-67845000D02*
X253137936Y-67845000D01*
X253592064Y-69315000D02*
X253137936Y-69315000D01*
%TO.C,C33*%
X104675000Y-96258748D02*
X104675000Y-96781252D01*
X106145000Y-96258748D02*
X106145000Y-96781252D01*
%TO.C,C3*%
X187740113Y-84885000D02*
X188240113Y-84885000D01*
X187990113Y-84635000D02*
X187990113Y-85135000D01*
X190544888Y-83780000D02*
X190544888Y-85320000D01*
X190544888Y-87400000D02*
X190544888Y-88940000D01*
X190584888Y-83780000D02*
X190584888Y-85320000D01*
X190584888Y-87400000D02*
X190584888Y-88940000D01*
X190624888Y-83781000D02*
X190624888Y-85320000D01*
X190624888Y-87400000D02*
X190624888Y-88939000D01*
X190664888Y-83783000D02*
X190664888Y-85320000D01*
X190664888Y-87400000D02*
X190664888Y-88937000D01*
X190704888Y-83785000D02*
X190704888Y-85320000D01*
X190704888Y-87400000D02*
X190704888Y-88935000D01*
X190744888Y-83788000D02*
X190744888Y-85320000D01*
X190744888Y-87400000D02*
X190744888Y-88932000D01*
X190784888Y-83791000D02*
X190784888Y-85320000D01*
X190784888Y-87400000D02*
X190784888Y-88929000D01*
X190824888Y-83795000D02*
X190824888Y-85320000D01*
X190824888Y-87400000D02*
X190824888Y-88925000D01*
X190864888Y-83800000D02*
X190864888Y-85320000D01*
X190864888Y-87400000D02*
X190864888Y-88920000D01*
X190904888Y-83805000D02*
X190904888Y-85320000D01*
X190904888Y-87400000D02*
X190904888Y-88915000D01*
X190944888Y-83811000D02*
X190944888Y-85320000D01*
X190944888Y-87400000D02*
X190944888Y-88909000D01*
X190984888Y-83817000D02*
X190984888Y-85320000D01*
X190984888Y-87400000D02*
X190984888Y-88903000D01*
X191024888Y-83824000D02*
X191024888Y-85320000D01*
X191024888Y-87400000D02*
X191024888Y-88896000D01*
X191064888Y-83832000D02*
X191064888Y-85320000D01*
X191064888Y-87400000D02*
X191064888Y-88888000D01*
X191104888Y-83841000D02*
X191104888Y-85320000D01*
X191104888Y-87400000D02*
X191104888Y-88879000D01*
X191144888Y-83850000D02*
X191144888Y-85320000D01*
X191144888Y-87400000D02*
X191144888Y-88870000D01*
X191184888Y-83859000D02*
X191184888Y-85320000D01*
X191184888Y-87400000D02*
X191184888Y-88861000D01*
X191224888Y-83870000D02*
X191224888Y-85320000D01*
X191224888Y-87400000D02*
X191224888Y-88850000D01*
X191264888Y-83881000D02*
X191264888Y-85320000D01*
X191264888Y-87400000D02*
X191264888Y-88839000D01*
X191304888Y-83893000D02*
X191304888Y-85320000D01*
X191304888Y-87400000D02*
X191304888Y-88827000D01*
X191344888Y-83905000D02*
X191344888Y-85320000D01*
X191344888Y-87400000D02*
X191344888Y-88815000D01*
X191384888Y-83918000D02*
X191384888Y-85320000D01*
X191384888Y-87400000D02*
X191384888Y-88802000D01*
X191424888Y-83932000D02*
X191424888Y-85320000D01*
X191424888Y-87400000D02*
X191424888Y-88788000D01*
X191464888Y-83947000D02*
X191464888Y-85320000D01*
X191464888Y-87400000D02*
X191464888Y-88773000D01*
X191504888Y-83962000D02*
X191504888Y-85320000D01*
X191504888Y-87400000D02*
X191504888Y-88758000D01*
X191544888Y-83978000D02*
X191544888Y-85320000D01*
X191544888Y-87400000D02*
X191544888Y-88742000D01*
X191584888Y-83995000D02*
X191584888Y-85320000D01*
X191584888Y-87400000D02*
X191584888Y-88725000D01*
X191624888Y-84013000D02*
X191624888Y-85320000D01*
X191624888Y-87400000D02*
X191624888Y-88707000D01*
X191664888Y-84031000D02*
X191664888Y-85320000D01*
X191664888Y-87400000D02*
X191664888Y-88689000D01*
X191704888Y-84051000D02*
X191704888Y-85320000D01*
X191704888Y-87400000D02*
X191704888Y-88669000D01*
X191744888Y-84071000D02*
X191744888Y-85320000D01*
X191744888Y-87400000D02*
X191744888Y-88649000D01*
X191784888Y-84092000D02*
X191784888Y-85320000D01*
X191784888Y-87400000D02*
X191784888Y-88628000D01*
X191824888Y-84114000D02*
X191824888Y-85320000D01*
X191824888Y-87400000D02*
X191824888Y-88606000D01*
X191864888Y-84137000D02*
X191864888Y-85320000D01*
X191864888Y-87400000D02*
X191864888Y-88583000D01*
X191904888Y-84161000D02*
X191904888Y-85320000D01*
X191904888Y-87400000D02*
X191904888Y-88559000D01*
X191944888Y-84185000D02*
X191944888Y-85320000D01*
X191944888Y-87400000D02*
X191944888Y-88535000D01*
X191984888Y-84211000D02*
X191984888Y-85320000D01*
X191984888Y-87400000D02*
X191984888Y-88509000D01*
X192024888Y-84238000D02*
X192024888Y-85320000D01*
X192024888Y-87400000D02*
X192024888Y-88482000D01*
X192064888Y-84266000D02*
X192064888Y-85320000D01*
X192064888Y-87400000D02*
X192064888Y-88454000D01*
X192104888Y-84295000D02*
X192104888Y-85320000D01*
X192104888Y-87400000D02*
X192104888Y-88425000D01*
X192144888Y-84325000D02*
X192144888Y-85320000D01*
X192144888Y-87400000D02*
X192144888Y-88395000D01*
X192184888Y-84357000D02*
X192184888Y-85320000D01*
X192184888Y-87400000D02*
X192184888Y-88363000D01*
X192224888Y-84390000D02*
X192224888Y-85320000D01*
X192224888Y-87400000D02*
X192224888Y-88330000D01*
X192264888Y-84424000D02*
X192264888Y-85320000D01*
X192264888Y-87400000D02*
X192264888Y-88296000D01*
X192304888Y-84459000D02*
X192304888Y-85320000D01*
X192304888Y-87400000D02*
X192304888Y-88261000D01*
X192344888Y-84496000D02*
X192344888Y-85320000D01*
X192344888Y-87400000D02*
X192344888Y-88224000D01*
X192384888Y-84535000D02*
X192384888Y-85320000D01*
X192384888Y-87400000D02*
X192384888Y-88185000D01*
X192424888Y-84575000D02*
X192424888Y-85320000D01*
X192424888Y-87400000D02*
X192424888Y-88145000D01*
X192464888Y-84617000D02*
X192464888Y-85320000D01*
X192464888Y-87400000D02*
X192464888Y-88103000D01*
X192504888Y-84661000D02*
X192504888Y-85320000D01*
X192504888Y-87400000D02*
X192504888Y-88059000D01*
X192544888Y-84708000D02*
X192544888Y-85320000D01*
X192544888Y-87400000D02*
X192544888Y-88012000D01*
X192584888Y-84756000D02*
X192584888Y-87964000D01*
X192624888Y-84807000D02*
X192624888Y-87913000D01*
X192664888Y-84861000D02*
X192664888Y-87859000D01*
X192704888Y-84917000D02*
X192704888Y-87803000D01*
X192744888Y-84977000D02*
X192744888Y-87743000D01*
X192784888Y-85041000D02*
X192784888Y-87679000D01*
X192824888Y-85109000D02*
X192824888Y-87611000D01*
X192864888Y-85183000D02*
X192864888Y-87537000D01*
X192904888Y-85262000D02*
X192904888Y-87458000D01*
X192944888Y-85349000D02*
X192944888Y-87371000D01*
X192984888Y-85446000D02*
X192984888Y-87274000D01*
X193024888Y-85555000D02*
X193024888Y-87165000D01*
X193064888Y-85683000D02*
X193064888Y-87037000D01*
X193104888Y-85843000D02*
X193104888Y-86877000D01*
X193144888Y-86077000D02*
X193144888Y-86643000D01*
X193164888Y-86360000D02*
G75*
G02*
X187924888Y-86360000I-2620000J0D01*
G01*
X187924888Y-86360000D02*
G75*
G02*
X193164888Y-86360000I2620000J0D01*
G01*
%TO.C,C1*%
X169010225Y-91235000D02*
X169510225Y-91235000D01*
X169260225Y-90985000D02*
X169260225Y-91485000D01*
X171815000Y-90130000D02*
X171815000Y-91670000D01*
X171815000Y-93750000D02*
X171815000Y-95290000D01*
X171855000Y-90130000D02*
X171855000Y-91670000D01*
X171855000Y-93750000D02*
X171855000Y-95290000D01*
X171895000Y-90131000D02*
X171895000Y-91670000D01*
X171895000Y-93750000D02*
X171895000Y-95289000D01*
X171935000Y-90133000D02*
X171935000Y-91670000D01*
X171935000Y-93750000D02*
X171935000Y-95287000D01*
X171975000Y-90135000D02*
X171975000Y-91670000D01*
X171975000Y-93750000D02*
X171975000Y-95285000D01*
X172015000Y-90138000D02*
X172015000Y-91670000D01*
X172015000Y-93750000D02*
X172015000Y-95282000D01*
X172055000Y-90141000D02*
X172055000Y-91670000D01*
X172055000Y-93750000D02*
X172055000Y-95279000D01*
X172095000Y-90145000D02*
X172095000Y-91670000D01*
X172095000Y-93750000D02*
X172095000Y-95275000D01*
X172135000Y-90150000D02*
X172135000Y-91670000D01*
X172135000Y-93750000D02*
X172135000Y-95270000D01*
X172175000Y-90155000D02*
X172175000Y-91670000D01*
X172175000Y-93750000D02*
X172175000Y-95265000D01*
X172215000Y-90161000D02*
X172215000Y-91670000D01*
X172215000Y-93750000D02*
X172215000Y-95259000D01*
X172255000Y-90167000D02*
X172255000Y-91670000D01*
X172255000Y-93750000D02*
X172255000Y-95253000D01*
X172295000Y-90174000D02*
X172295000Y-91670000D01*
X172295000Y-93750000D02*
X172295000Y-95246000D01*
X172335000Y-90182000D02*
X172335000Y-91670000D01*
X172335000Y-93750000D02*
X172335000Y-95238000D01*
X172375000Y-90191000D02*
X172375000Y-91670000D01*
X172375000Y-93750000D02*
X172375000Y-95229000D01*
X172415000Y-90200000D02*
X172415000Y-91670000D01*
X172415000Y-93750000D02*
X172415000Y-95220000D01*
X172455000Y-90209000D02*
X172455000Y-91670000D01*
X172455000Y-93750000D02*
X172455000Y-95211000D01*
X172495000Y-90220000D02*
X172495000Y-91670000D01*
X172495000Y-93750000D02*
X172495000Y-95200000D01*
X172535000Y-90231000D02*
X172535000Y-91670000D01*
X172535000Y-93750000D02*
X172535000Y-95189000D01*
X172575000Y-90243000D02*
X172575000Y-91670000D01*
X172575000Y-93750000D02*
X172575000Y-95177000D01*
X172615000Y-90255000D02*
X172615000Y-91670000D01*
X172615000Y-93750000D02*
X172615000Y-95165000D01*
X172655000Y-90268000D02*
X172655000Y-91670000D01*
X172655000Y-93750000D02*
X172655000Y-95152000D01*
X172695000Y-90282000D02*
X172695000Y-91670000D01*
X172695000Y-93750000D02*
X172695000Y-95138000D01*
X172735000Y-90297000D02*
X172735000Y-91670000D01*
X172735000Y-93750000D02*
X172735000Y-95123000D01*
X172775000Y-90312000D02*
X172775000Y-91670000D01*
X172775000Y-93750000D02*
X172775000Y-95108000D01*
X172815000Y-90328000D02*
X172815000Y-91670000D01*
X172815000Y-93750000D02*
X172815000Y-95092000D01*
X172855000Y-90345000D02*
X172855000Y-91670000D01*
X172855000Y-93750000D02*
X172855000Y-95075000D01*
X172895000Y-90363000D02*
X172895000Y-91670000D01*
X172895000Y-93750000D02*
X172895000Y-95057000D01*
X172935000Y-90381000D02*
X172935000Y-91670000D01*
X172935000Y-93750000D02*
X172935000Y-95039000D01*
X172975000Y-90401000D02*
X172975000Y-91670000D01*
X172975000Y-93750000D02*
X172975000Y-95019000D01*
X173015000Y-90421000D02*
X173015000Y-91670000D01*
X173015000Y-93750000D02*
X173015000Y-94999000D01*
X173055000Y-90442000D02*
X173055000Y-91670000D01*
X173055000Y-93750000D02*
X173055000Y-94978000D01*
X173095000Y-90464000D02*
X173095000Y-91670000D01*
X173095000Y-93750000D02*
X173095000Y-94956000D01*
X173135000Y-90487000D02*
X173135000Y-91670000D01*
X173135000Y-93750000D02*
X173135000Y-94933000D01*
X173175000Y-90511000D02*
X173175000Y-91670000D01*
X173175000Y-93750000D02*
X173175000Y-94909000D01*
X173215000Y-90535000D02*
X173215000Y-91670000D01*
X173215000Y-93750000D02*
X173215000Y-94885000D01*
X173255000Y-90561000D02*
X173255000Y-91670000D01*
X173255000Y-93750000D02*
X173255000Y-94859000D01*
X173295000Y-90588000D02*
X173295000Y-91670000D01*
X173295000Y-93750000D02*
X173295000Y-94832000D01*
X173335000Y-90616000D02*
X173335000Y-91670000D01*
X173335000Y-93750000D02*
X173335000Y-94804000D01*
X173375000Y-90645000D02*
X173375000Y-91670000D01*
X173375000Y-93750000D02*
X173375000Y-94775000D01*
X173415000Y-90675000D02*
X173415000Y-91670000D01*
X173415000Y-93750000D02*
X173415000Y-94745000D01*
X173455000Y-90707000D02*
X173455000Y-91670000D01*
X173455000Y-93750000D02*
X173455000Y-94713000D01*
X173495000Y-90740000D02*
X173495000Y-91670000D01*
X173495000Y-93750000D02*
X173495000Y-94680000D01*
X173535000Y-90774000D02*
X173535000Y-91670000D01*
X173535000Y-93750000D02*
X173535000Y-94646000D01*
X173575000Y-90809000D02*
X173575000Y-91670000D01*
X173575000Y-93750000D02*
X173575000Y-94611000D01*
X173615000Y-90846000D02*
X173615000Y-91670000D01*
X173615000Y-93750000D02*
X173615000Y-94574000D01*
X173655000Y-90885000D02*
X173655000Y-91670000D01*
X173655000Y-93750000D02*
X173655000Y-94535000D01*
X173695000Y-90925000D02*
X173695000Y-91670000D01*
X173695000Y-93750000D02*
X173695000Y-94495000D01*
X173735000Y-90967000D02*
X173735000Y-91670000D01*
X173735000Y-93750000D02*
X173735000Y-94453000D01*
X173775000Y-91011000D02*
X173775000Y-91670000D01*
X173775000Y-93750000D02*
X173775000Y-94409000D01*
X173815000Y-91058000D02*
X173815000Y-91670000D01*
X173815000Y-93750000D02*
X173815000Y-94362000D01*
X173855000Y-91106000D02*
X173855000Y-94314000D01*
X173895000Y-91157000D02*
X173895000Y-94263000D01*
X173935000Y-91211000D02*
X173935000Y-94209000D01*
X173975000Y-91267000D02*
X173975000Y-94153000D01*
X174015000Y-91327000D02*
X174015000Y-94093000D01*
X174055000Y-91391000D02*
X174055000Y-94029000D01*
X174095000Y-91459000D02*
X174095000Y-93961000D01*
X174135000Y-91533000D02*
X174135000Y-93887000D01*
X174175000Y-91612000D02*
X174175000Y-93808000D01*
X174215000Y-91699000D02*
X174215000Y-93721000D01*
X174255000Y-91796000D02*
X174255000Y-93624000D01*
X174295000Y-91905000D02*
X174295000Y-93515000D01*
X174335000Y-92033000D02*
X174335000Y-93387000D01*
X174375000Y-92193000D02*
X174375000Y-93227000D01*
X174415000Y-92427000D02*
X174415000Y-92993000D01*
X174435000Y-92710000D02*
G75*
G02*
X169195000Y-92710000I-2620000J0D01*
G01*
X169195000Y-92710000D02*
G75*
G02*
X174435000Y-92710000I2620000J0D01*
G01*
D13*
%TO.C,RL104*%
X99060000Y-36500000D02*
X99060000Y-36500000D01*
X99060000Y-36700000D02*
X99060000Y-36700000D01*
X99060000Y-36500000D02*
G75*
G02*
X99060000Y-36700000I0J-100000D01*
G01*
X99060000Y-36700000D02*
G75*
G02*
X99060000Y-36500000I0J100000D01*
G01*
D14*
%TO.C,R36*%
X203735000Y-88492064D02*
X203735000Y-88037936D01*
X205205000Y-88492064D02*
X205205000Y-88037936D01*
%TO.C,U4*%
X240575000Y-89545000D02*
X244695000Y-89545000D01*
X240575000Y-89610000D02*
X240575000Y-89545000D01*
X240575000Y-98415000D02*
X240575000Y-98350000D01*
X244695000Y-89545000D02*
X244695000Y-89610000D01*
X244695000Y-98350000D02*
X244695000Y-98415000D01*
X244695000Y-98415000D02*
X240575000Y-98415000D01*
X240035000Y-89610000D02*
X239795000Y-89280000D01*
X240275000Y-89280000D01*
X240035000Y-89610000D01*
G36*
X240035000Y-89610000D02*
G01*
X239795000Y-89280000D01*
X240275000Y-89280000D01*
X240035000Y-89610000D01*
G37*
D13*
%TO.C,RL101*%
X59117570Y-69255000D02*
G75*
G02*
X59008430Y-69255000I-54570J0D01*
G01*
X59008430Y-69255000D02*
G75*
G02*
X59117570Y-69255000I54570J0D01*
G01*
D14*
%TO.C,R99*%
X141505000Y-87222064D02*
X141505000Y-86767936D01*
X142975000Y-87222064D02*
X142975000Y-86767936D01*
%TO.C,Q18*%
X98834892Y-69965699D02*
X99675382Y-70806189D01*
X99810699Y-68989892D02*
X98834892Y-69965699D01*
X100651189Y-69830382D02*
X99810699Y-68989892D01*
%TO.C,R23*%
X238532936Y-44350000D02*
X238987064Y-44350000D01*
X238532936Y-45820000D02*
X238987064Y-45820000D01*
%TO.C,R80*%
X124867936Y-85625000D02*
X125322064Y-85625000D01*
X124867936Y-87095000D02*
X125322064Y-87095000D01*
%TO.C,C42*%
X150395000Y-77843748D02*
X150395000Y-78366252D01*
X151865000Y-77843748D02*
X151865000Y-78366252D01*
%TO.C,C16*%
X118010000Y-35821252D02*
X118010000Y-35298748D01*
X119480000Y-35821252D02*
X119480000Y-35298748D01*
%TO.C,C18*%
X221988748Y-69750000D02*
X222511252Y-69750000D01*
X221988748Y-71220000D02*
X222511252Y-71220000D01*
%TO.C,U6*%
X229715000Y-64145000D02*
X233835000Y-64145000D01*
X229715000Y-64210000D02*
X229715000Y-64145000D01*
X229715000Y-73015000D02*
X229715000Y-72950000D01*
X233835000Y-64145000D02*
X233835000Y-64210000D01*
X233835000Y-72950000D02*
X233835000Y-73015000D01*
X233835000Y-73015000D02*
X229715000Y-73015000D01*
X229175000Y-64210000D02*
X228935000Y-63880000D01*
X229415000Y-63880000D01*
X229175000Y-64210000D01*
G36*
X229175000Y-64210000D02*
G01*
X228935000Y-63880000D01*
X229415000Y-63880000D01*
X229175000Y-64210000D01*
G37*
%TO.C,R57*%
X194210000Y-70077064D02*
X194210000Y-69622936D01*
X195680000Y-70077064D02*
X195680000Y-69622936D01*
%TO.C,R26*%
X238532936Y-48160000D02*
X238987064Y-48160000D01*
X238532936Y-49630000D02*
X238987064Y-49630000D01*
%TO.C,C32*%
X117375000Y-89481252D02*
X117375000Y-88958748D01*
X118845000Y-89481252D02*
X118845000Y-88958748D01*
%TO.C,R73*%
X104547936Y-91975000D02*
X105002064Y-91975000D01*
X104547936Y-93445000D02*
X105002064Y-93445000D01*
%TO.C,C46*%
X120270000Y-71600000D02*
X122620000Y-71600000D01*
X120270000Y-83340000D02*
X120270000Y-71600000D01*
X122620000Y-83340000D02*
X120270000Y-83340000D01*
X123760000Y-71600000D02*
X126110000Y-71600000D01*
X126110000Y-71600000D02*
X126110000Y-83340000D01*
X126110000Y-83340000D02*
X123760000Y-83340000D01*
%TO.C,R15*%
X242797064Y-51970000D02*
X242342936Y-51970000D01*
X242797064Y-53440000D02*
X242342936Y-53440000D01*
%TO.C,Q13*%
X141950850Y-55550657D02*
X142791340Y-56391147D01*
X142791340Y-56391147D02*
X143767147Y-55415340D01*
X143767147Y-55415340D02*
X142926657Y-54574850D01*
%TO.C,R59*%
X188187064Y-93245000D02*
X187732936Y-93245000D01*
X188187064Y-94715000D02*
X187732936Y-94715000D01*
%TO.C,C15*%
X119280000Y-46728748D02*
X119280000Y-47251252D01*
X120750000Y-46728748D02*
X120750000Y-47251252D01*
%TO.C,R7*%
X253137936Y-62765000D02*
X253592064Y-62765000D01*
X253137936Y-64235000D02*
X253592064Y-64235000D01*
%TO.C,U5*%
X201305000Y-93825000D02*
X201370000Y-93825000D01*
X201305000Y-97945000D02*
X201305000Y-93825000D01*
X201370000Y-97945000D02*
X201305000Y-97945000D01*
X210110000Y-93825000D02*
X210175000Y-93825000D01*
X210175000Y-93825000D02*
X210175000Y-97945000D01*
X210175000Y-97945000D02*
X210110000Y-97945000D01*
X210440000Y-93525000D02*
X210110000Y-93285000D01*
X210440000Y-93045000D01*
X210440000Y-93525000D01*
G36*
X210440000Y-93525000D02*
G01*
X210110000Y-93285000D01*
X210440000Y-93045000D01*
X210440000Y-93525000D01*
G37*
%TO.C,R78*%
X96927936Y-89435000D02*
X97382064Y-89435000D01*
X96927936Y-90905000D02*
X97382064Y-90905000D01*
%TO.C,R91*%
X116105000Y-70712064D02*
X116105000Y-70257936D01*
X117575000Y-70712064D02*
X117575000Y-70257936D01*
%TO.C,C41*%
X159123748Y-81180000D02*
X159646252Y-81180000D01*
X159123748Y-82650000D02*
X159646252Y-82650000D01*
%TO.C,R16*%
X236627936Y-96420000D02*
X237082064Y-96420000D01*
X236627936Y-97890000D02*
X237082064Y-97890000D01*
%TO.C,R11*%
X242797064Y-44350000D02*
X242342936Y-44350000D01*
X242797064Y-45820000D02*
X242342936Y-45820000D01*
%TO.C,R32*%
X201830000Y-101827064D02*
X201830000Y-101372936D01*
X203300000Y-101827064D02*
X203300000Y-101372936D01*
%TO.C,R18*%
X241200000Y-100557064D02*
X241200000Y-100102936D01*
X242670000Y-100557064D02*
X242670000Y-100102936D01*
%TO.C,Q2*%
X103342000Y-42293000D02*
X103392000Y-42293000D01*
X103342000Y-43813000D02*
X103342000Y-42293000D01*
X104342000Y-43813000D02*
X103342000Y-43813000D01*
X104512000Y-42293000D02*
X105292000Y-42293000D01*
X106412000Y-42293000D02*
X106462000Y-42293000D01*
X106462000Y-42293000D02*
X106462000Y-43813000D01*
X106462000Y-43813000D02*
X105462000Y-43813000D01*
X105282000Y-41753000D02*
X104952000Y-41993000D01*
X104952000Y-41513000D01*
X105282000Y-41753000D01*
G36*
X105282000Y-41753000D02*
G01*
X104952000Y-41993000D01*
X104952000Y-41513000D01*
X105282000Y-41753000D01*
G37*
%TO.C,R85*%
X87530000Y-85317064D02*
X87530000Y-84862936D01*
X89000000Y-85317064D02*
X89000000Y-84862936D01*
D10*
%TO.C,R38*%
X203770000Y-37465000D02*
X206440000Y-37465000D01*
X203770000Y-45085000D02*
X203770000Y-37465000D01*
X206440000Y-37465000D02*
X206440000Y-45085000D01*
X206440000Y-45085000D02*
X203770000Y-45085000D01*
D14*
%TO.C,R33*%
X211355000Y-88492064D02*
X211355000Y-88037936D01*
X212825000Y-88492064D02*
X212825000Y-88037936D01*
%TO.C,R30*%
X209450000Y-88492064D02*
X209450000Y-88037936D01*
X210920000Y-88492064D02*
X210920000Y-88037936D01*
%TO.C,U1*%
X221955000Y-42415000D02*
X227475000Y-42415000D01*
X221955000Y-42620000D02*
X221955000Y-42415000D01*
X221955000Y-52835000D02*
X221955000Y-52630000D01*
X227475000Y-42415000D02*
X227475000Y-42620000D01*
X227475000Y-52630000D02*
X227475000Y-52835000D01*
X227475000Y-52835000D02*
X221955000Y-52835000D01*
X221315000Y-42615000D02*
X220975000Y-42145000D01*
X221655000Y-42145000D01*
X221315000Y-42615000D01*
G36*
X221315000Y-42615000D02*
G01*
X220975000Y-42145000D01*
X221655000Y-42145000D01*
X221315000Y-42615000D01*
G37*
%TO.C,C7*%
X93760113Y-53770000D02*
X94260113Y-53770000D01*
X94010113Y-53520000D02*
X94010113Y-54020000D01*
X96564888Y-52665000D02*
X96564888Y-54205000D01*
X96564888Y-56285000D02*
X96564888Y-57825000D01*
X96604888Y-52665000D02*
X96604888Y-54205000D01*
X96604888Y-56285000D02*
X96604888Y-57825000D01*
X96644888Y-52666000D02*
X96644888Y-54205000D01*
X96644888Y-56285000D02*
X96644888Y-57824000D01*
X96684888Y-52668000D02*
X96684888Y-54205000D01*
X96684888Y-56285000D02*
X96684888Y-57822000D01*
X96724888Y-52670000D02*
X96724888Y-54205000D01*
X96724888Y-56285000D02*
X96724888Y-57820000D01*
X96764888Y-52673000D02*
X96764888Y-54205000D01*
X96764888Y-56285000D02*
X96764888Y-57817000D01*
X96804888Y-52676000D02*
X96804888Y-54205000D01*
X96804888Y-56285000D02*
X96804888Y-57814000D01*
X96844888Y-52680000D02*
X96844888Y-54205000D01*
X96844888Y-56285000D02*
X96844888Y-57810000D01*
X96884888Y-52685000D02*
X96884888Y-54205000D01*
X96884888Y-56285000D02*
X96884888Y-57805000D01*
X96924888Y-52690000D02*
X96924888Y-54205000D01*
X96924888Y-56285000D02*
X96924888Y-57800000D01*
X96964888Y-52696000D02*
X96964888Y-54205000D01*
X96964888Y-56285000D02*
X96964888Y-57794000D01*
X97004888Y-52702000D02*
X97004888Y-54205000D01*
X97004888Y-56285000D02*
X97004888Y-57788000D01*
X97044888Y-52709000D02*
X97044888Y-54205000D01*
X97044888Y-56285000D02*
X97044888Y-57781000D01*
X97084888Y-52717000D02*
X97084888Y-54205000D01*
X97084888Y-56285000D02*
X97084888Y-57773000D01*
X97124888Y-52726000D02*
X97124888Y-54205000D01*
X97124888Y-56285000D02*
X97124888Y-57764000D01*
X97164888Y-52735000D02*
X97164888Y-54205000D01*
X97164888Y-56285000D02*
X97164888Y-57755000D01*
X97204888Y-52744000D02*
X97204888Y-54205000D01*
X97204888Y-56285000D02*
X97204888Y-57746000D01*
X97244888Y-52755000D02*
X97244888Y-54205000D01*
X97244888Y-56285000D02*
X97244888Y-57735000D01*
X97284888Y-52766000D02*
X97284888Y-54205000D01*
X97284888Y-56285000D02*
X97284888Y-57724000D01*
X97324888Y-52778000D02*
X97324888Y-54205000D01*
X97324888Y-56285000D02*
X97324888Y-57712000D01*
X97364888Y-52790000D02*
X97364888Y-54205000D01*
X97364888Y-56285000D02*
X97364888Y-57700000D01*
X97404888Y-52803000D02*
X97404888Y-54205000D01*
X97404888Y-56285000D02*
X97404888Y-57687000D01*
X97444888Y-52817000D02*
X97444888Y-54205000D01*
X97444888Y-56285000D02*
X97444888Y-57673000D01*
X97484888Y-52832000D02*
X97484888Y-54205000D01*
X97484888Y-56285000D02*
X97484888Y-57658000D01*
X97524888Y-52847000D02*
X97524888Y-54205000D01*
X97524888Y-56285000D02*
X97524888Y-57643000D01*
X97564888Y-52863000D02*
X97564888Y-54205000D01*
X97564888Y-56285000D02*
X97564888Y-57627000D01*
X97604888Y-52880000D02*
X97604888Y-54205000D01*
X97604888Y-56285000D02*
X97604888Y-57610000D01*
X97644888Y-52898000D02*
X97644888Y-54205000D01*
X97644888Y-56285000D02*
X97644888Y-57592000D01*
X97684888Y-52916000D02*
X97684888Y-54205000D01*
X97684888Y-56285000D02*
X97684888Y-57574000D01*
X97724888Y-52936000D02*
X97724888Y-54205000D01*
X97724888Y-56285000D02*
X97724888Y-57554000D01*
X97764888Y-52956000D02*
X97764888Y-54205000D01*
X97764888Y-56285000D02*
X97764888Y-57534000D01*
X97804888Y-52977000D02*
X97804888Y-54205000D01*
X97804888Y-56285000D02*
X97804888Y-57513000D01*
X97844888Y-52999000D02*
X97844888Y-54205000D01*
X97844888Y-56285000D02*
X97844888Y-57491000D01*
X97884888Y-53022000D02*
X97884888Y-54205000D01*
X97884888Y-56285000D02*
X97884888Y-57468000D01*
X97924888Y-53046000D02*
X97924888Y-54205000D01*
X97924888Y-56285000D02*
X97924888Y-57444000D01*
X97964888Y-53070000D02*
X97964888Y-54205000D01*
X97964888Y-56285000D02*
X97964888Y-57420000D01*
X98004888Y-53096000D02*
X98004888Y-54205000D01*
X98004888Y-56285000D02*
X98004888Y-57394000D01*
X98044888Y-53123000D02*
X98044888Y-54205000D01*
X98044888Y-56285000D02*
X98044888Y-57367000D01*
X98084888Y-53151000D02*
X98084888Y-54205000D01*
X98084888Y-56285000D02*
X98084888Y-57339000D01*
X98124888Y-53180000D02*
X98124888Y-54205000D01*
X98124888Y-56285000D02*
X98124888Y-57310000D01*
X98164888Y-53210000D02*
X98164888Y-54205000D01*
X98164888Y-56285000D02*
X98164888Y-57280000D01*
X98204888Y-53242000D02*
X98204888Y-54205000D01*
X98204888Y-56285000D02*
X98204888Y-57248000D01*
X98244888Y-53275000D02*
X98244888Y-54205000D01*
X98244888Y-56285000D02*
X98244888Y-57215000D01*
X98284888Y-53309000D02*
X98284888Y-54205000D01*
X98284888Y-56285000D02*
X98284888Y-57181000D01*
X98324888Y-53344000D02*
X98324888Y-54205000D01*
X98324888Y-56285000D02*
X98324888Y-57146000D01*
X98364888Y-53381000D02*
X98364888Y-54205000D01*
X98364888Y-56285000D02*
X98364888Y-57109000D01*
X98404888Y-53420000D02*
X98404888Y-54205000D01*
X98404888Y-56285000D02*
X98404888Y-57070000D01*
X98444888Y-53460000D02*
X98444888Y-54205000D01*
X98444888Y-56285000D02*
X98444888Y-57030000D01*
X98484888Y-53502000D02*
X98484888Y-54205000D01*
X98484888Y-56285000D02*
X98484888Y-56988000D01*
X98524888Y-53546000D02*
X98524888Y-54205000D01*
X98524888Y-56285000D02*
X98524888Y-56944000D01*
X98564888Y-53593000D02*
X98564888Y-54205000D01*
X98564888Y-56285000D02*
X98564888Y-56897000D01*
X98604888Y-53641000D02*
X98604888Y-56849000D01*
X98644888Y-53692000D02*
X98644888Y-56798000D01*
X98684888Y-53746000D02*
X98684888Y-56744000D01*
X98724888Y-53802000D02*
X98724888Y-56688000D01*
X98764888Y-53862000D02*
X98764888Y-56628000D01*
X98804888Y-53926000D02*
X98804888Y-56564000D01*
X98844888Y-53994000D02*
X98844888Y-56496000D01*
X98884888Y-54068000D02*
X98884888Y-56422000D01*
X98924888Y-54147000D02*
X98924888Y-56343000D01*
X98964888Y-54234000D02*
X98964888Y-56256000D01*
X99004888Y-54331000D02*
X99004888Y-56159000D01*
X99044888Y-54440000D02*
X99044888Y-56050000D01*
X99084888Y-54568000D02*
X99084888Y-55922000D01*
X99124888Y-54728000D02*
X99124888Y-55762000D01*
X99164888Y-54962000D02*
X99164888Y-55528000D01*
X99184888Y-55245000D02*
G75*
G02*
X93944888Y-55245000I-2620000J0D01*
G01*
X93944888Y-55245000D02*
G75*
G02*
X99184888Y-55245000I2620000J0D01*
G01*
%TO.C,U2*%
X210730000Y-42565000D02*
X214850000Y-42565000D01*
X210730000Y-42620000D02*
X210730000Y-42565000D01*
X210730000Y-52685000D02*
X210730000Y-52630000D01*
X214850000Y-42565000D02*
X214850000Y-42620000D01*
X214850000Y-52630000D02*
X214850000Y-52685000D01*
X214850000Y-52685000D02*
X210730000Y-52685000D01*
X210190000Y-42615000D02*
X209950000Y-42285000D01*
X210430000Y-42285000D01*
X210190000Y-42615000D01*
G36*
X210190000Y-42615000D02*
G01*
X209950000Y-42285000D01*
X210430000Y-42285000D01*
X210190000Y-42615000D01*
G37*
%TO.C,R6*%
X253137936Y-65305000D02*
X253592064Y-65305000D01*
X253137936Y-66775000D02*
X253592064Y-66775000D01*
%TO.C,R17*%
X236627936Y-94515000D02*
X237082064Y-94515000D01*
X236627936Y-95985000D02*
X237082064Y-95985000D01*
%TO.C,R44*%
X179477936Y-85625000D02*
X179932064Y-85625000D01*
X179477936Y-87095000D02*
X179932064Y-87095000D01*
%TO.C,R64*%
X128805000Y-58647064D02*
X128805000Y-58192936D01*
X130275000Y-58647064D02*
X130275000Y-58192936D01*
%TO.C,C31*%
X225798748Y-63654000D02*
X226321252Y-63654000D01*
X225798748Y-65124000D02*
X226321252Y-65124000D01*
%TO.C,R97*%
X121185000Y-50669564D02*
X121185000Y-50215436D01*
X122655000Y-50669564D02*
X122655000Y-50215436D01*
%TO.C,R96*%
X120519564Y-62130000D02*
X120065436Y-62130000D01*
X120519564Y-63600000D02*
X120065436Y-63600000D01*
D13*
%TO.C,RL103*%
X59677570Y-37249785D02*
G75*
G02*
X59568430Y-37249785I-54570J0D01*
G01*
X59568430Y-37249785D02*
G75*
G02*
X59677570Y-37249785I54570J0D01*
G01*
D14*
%TO.C,R28*%
X231367064Y-42445000D02*
X230912936Y-42445000D01*
X231367064Y-43915000D02*
X230912936Y-43915000D01*
%TO.C,C12*%
X211828748Y-93880000D02*
X212351252Y-93880000D01*
X211828748Y-95350000D02*
X212351252Y-95350000D01*
D12*
%TO.C,M101*%
X113045000Y-39325000D02*
X113045000Y-43225000D01*
D13*
X123155000Y-37130000D02*
G75*
G02*
X122955000Y-37130000I-100000J0D01*
G01*
X122955000Y-37130000D02*
G75*
G02*
X123155000Y-37130000I100000J0D01*
G01*
D14*
%TO.C,R51*%
X239167936Y-60225000D02*
X239622064Y-60225000D01*
X239167936Y-61695000D02*
X239622064Y-61695000D01*
%TO.C,D15*%
X123096000Y-52204000D02*
X123096000Y-56614000D01*
X125316000Y-52204000D02*
X123096000Y-52204000D01*
X125316000Y-56614000D02*
X125316000Y-52204000D01*
%TO.C,R27*%
X238532936Y-51970000D02*
X238987064Y-51970000D01*
X238532936Y-53440000D02*
X238987064Y-53440000D01*
%TO.C,C30*%
X233306252Y-62130000D02*
X232783748Y-62130000D01*
X233306252Y-63600000D02*
X232783748Y-63600000D01*
%TO.C,R13*%
X242797064Y-48160000D02*
X242342936Y-48160000D01*
X242797064Y-49630000D02*
X242342936Y-49630000D01*
%TO.C,Q7*%
X153507850Y-58090657D02*
X154348340Y-58931147D01*
X154348340Y-58931147D02*
X155324147Y-57955340D01*
X155324147Y-57955340D02*
X154483657Y-57114850D01*
%TO.C,R8*%
X253137936Y-60225000D02*
X253592064Y-60225000D01*
X253137936Y-61695000D02*
X253592064Y-61695000D01*
%TO.C,R90*%
X112167936Y-62130000D02*
X112622064Y-62130000D01*
X112167936Y-63600000D02*
X112622064Y-63600000D01*
%TO.C,C49*%
X147901252Y-95023000D02*
X147378748Y-95023000D01*
X147901252Y-96493000D02*
X147378748Y-96493000D01*
%TO.C,R4*%
X257402064Y-62765000D02*
X256947936Y-62765000D01*
X257402064Y-64235000D02*
X256947936Y-64235000D01*
D10*
%TO.C,RL201*%
X190930000Y-36870000D02*
X190930000Y-36870000D01*
X190930000Y-36970000D02*
X190930000Y-36970000D01*
D13*
X191735000Y-37150000D02*
X191735000Y-38290000D01*
X191735000Y-51190000D02*
X191735000Y-42790000D01*
X191735000Y-56830000D02*
X191735000Y-55390000D01*
X198585000Y-37150000D02*
X191735000Y-37150000D01*
X198585000Y-38290000D02*
X198585000Y-37150000D01*
X198585000Y-42790000D02*
X198585000Y-51190000D01*
X198585000Y-55390000D02*
X198585000Y-56890000D01*
X198585000Y-56890000D02*
X191735000Y-56830000D01*
D10*
X190930000Y-36870000D02*
G75*
G02*
X190930000Y-36970000I0J-50000D01*
G01*
X190930000Y-36970000D02*
G75*
G02*
X190930000Y-36870000I0J50000D01*
G01*
D14*
%TO.C,Q4*%
X122225000Y-99590000D02*
X122225000Y-95990000D01*
X117775000Y-97790000D02*
G75*
G02*
X122213478Y-95951522I2600000J0D01*
G01*
X122213478Y-99628478D02*
G75*
G02*
X117774999Y-97790000I-1838478J1838478D01*
G01*
%TO.C,R103*%
X147450436Y-100865000D02*
X147904564Y-100865000D01*
X147450436Y-102335000D02*
X147904564Y-102335000D01*
D13*
%TO.C,RL102*%
X83850000Y-89250000D02*
X83850000Y-93750000D01*
X83850000Y-93750000D02*
X84350000Y-93750000D01*
X83850000Y-96750000D02*
X83850000Y-101250000D01*
X84350000Y-93750000D02*
X84350000Y-96750000D01*
X84350000Y-96750000D02*
X83850000Y-96750000D01*
D10*
X84650000Y-91440000D02*
X84650000Y-91440000D01*
X84750000Y-91440000D02*
X84750000Y-91440000D01*
X84650000Y-91440000D02*
G75*
G02*
X84750000Y-91440000I50000J0D01*
G01*
X84750000Y-91440000D02*
G75*
G02*
X84650000Y-91440000I-50000J0D01*
G01*
D14*
%TO.C,R31*%
X203735000Y-101372936D02*
X203735000Y-101827064D01*
X205205000Y-101372936D02*
X205205000Y-101827064D01*
%TO.C,R60*%
X174016936Y-52351000D02*
X174471064Y-52351000D01*
X174016936Y-53821000D02*
X174471064Y-53821000D01*
%TO.C,R5*%
X253592064Y-75465000D02*
X253137936Y-75465000D01*
X253592064Y-76935000D02*
X253137936Y-76935000D01*
%TO.C,Q17*%
X107909616Y-55995699D02*
X108750106Y-56836189D01*
X108885423Y-55019892D02*
X107909616Y-55995699D01*
X109725913Y-55860382D02*
X108885423Y-55019892D01*
X109725913Y-55860382D02*
G75*
G02*
X108750106Y-56836189I1583811J-2559618D01*
G01*
%TO.C,R79*%
X125322064Y-87530000D02*
X124867936Y-87530000D01*
X125322064Y-89000000D02*
X124867936Y-89000000D01*
D10*
%TO.C,R3*%
X203770000Y-49530000D02*
X206440000Y-49530000D01*
X203770000Y-57150000D02*
X203770000Y-49530000D01*
X206440000Y-49530000D02*
X206440000Y-57150000D01*
X206440000Y-57150000D02*
X203770000Y-57150000D01*
D14*
%TO.C,R92*%
X114835000Y-51842936D02*
X114835000Y-52297064D01*
X116305000Y-51842936D02*
X116305000Y-52297064D01*
%TO.C,C17*%
X221988748Y-72290000D02*
X222511252Y-72290000D01*
X221988748Y-73760000D02*
X222511252Y-73760000D01*
%TO.C,D21*%
X161595000Y-96415000D02*
X161595000Y-92815000D01*
X157145000Y-94615000D02*
G75*
G02*
X161583478Y-92776522I2600000J0D01*
G01*
X161583478Y-96453478D02*
G75*
G02*
X157144999Y-94615000I-1838478J1838478D01*
G01*
%TO.C,R10*%
X242797064Y-42445000D02*
X242342936Y-42445000D01*
X242797064Y-43915000D02*
X242342936Y-43915000D01*
D10*
%TO.C,R2*%
X196785000Y-59055000D02*
X199455000Y-59055000D01*
X196785000Y-66675000D02*
X196785000Y-59055000D01*
X199455000Y-59055000D02*
X199455000Y-66675000D01*
X199455000Y-66675000D02*
X196785000Y-66675000D01*
D14*
%TO.C,D6*%
X103025000Y-41115000D02*
X107435000Y-41115000D01*
X107435000Y-38895000D02*
X103025000Y-38895000D01*
X107435000Y-41115000D02*
X107435000Y-38895000D01*
%TO.C,D1*%
X179357000Y-56162000D02*
X179357000Y-60572000D01*
X179357000Y-60572000D02*
X181577000Y-60572000D01*
X181577000Y-60572000D02*
X181577000Y-56162000D01*
%TO.C,U7*%
X244130000Y-59630000D02*
X244130000Y-82610000D01*
X244130000Y-82610000D02*
X245380000Y-82610000D01*
X247380000Y-82610000D02*
X248630000Y-82610000D01*
X248630000Y-59630000D02*
X244130000Y-59630000D01*
X248630000Y-82610000D02*
X248630000Y-59630000D01*
X245380000Y-82610000D02*
G75*
G02*
X247380000Y-82610000I1000000J0D01*
G01*
%TO.C,C27*%
X226365000Y-89625000D02*
X232105000Y-89625000D01*
X226365000Y-97065000D02*
X226365000Y-89625000D01*
X232105000Y-89625000D02*
X232105000Y-97065000D01*
X232105000Y-97065000D02*
X226365000Y-97065000D01*
%TO.C,R52*%
X243105000Y-100557064D02*
X243105000Y-100102936D01*
X244575000Y-100557064D02*
X244575000Y-100102936D01*
%TO.C,R101*%
X145950000Y-88672936D02*
X145950000Y-89127064D01*
X147420000Y-88672936D02*
X147420000Y-89127064D01*
D13*
%TO.C,VR1*%
X123700000Y-62995000D02*
X132594000Y-62995000D01*
X123700000Y-67794000D02*
X123700000Y-62995000D01*
X130710000Y-62254000D02*
X130710000Y-62254000D01*
X130910000Y-62254000D02*
X130910000Y-62254000D01*
X132594000Y-62995000D02*
X132594000Y-67794000D01*
X132594000Y-67794000D02*
X123700000Y-67794000D01*
X130710000Y-62254000D02*
G75*
G02*
X130910000Y-62254000I100000J0D01*
G01*
X130910000Y-62254000D02*
G75*
G02*
X130710000Y-62254000I-100000J0D01*
G01*
D14*
%TO.C,R72*%
X104547936Y-89435000D02*
X105002064Y-89435000D01*
X104547936Y-90905000D02*
X105002064Y-90905000D01*
%TO.C,C4*%
X183745000Y-84820000D02*
X182205000Y-84820000D01*
X183745000Y-84860000D02*
X182205000Y-84860000D01*
X183745000Y-84900000D02*
X182206000Y-84900000D01*
X183745000Y-84940000D02*
X182208000Y-84940000D01*
X183745000Y-84980000D02*
X182210000Y-84980000D01*
X183745000Y-85020000D02*
X182213000Y-85020000D01*
X183745000Y-85060000D02*
X182216000Y-85060000D01*
X183745000Y-85100000D02*
X182220000Y-85100000D01*
X183745000Y-85140000D02*
X182225000Y-85140000D01*
X183745000Y-85180000D02*
X182230000Y-85180000D01*
X183745000Y-85220000D02*
X182236000Y-85220000D01*
X183745000Y-85260000D02*
X182242000Y-85260000D01*
X183745000Y-85300000D02*
X182249000Y-85300000D01*
X183745000Y-85340000D02*
X182257000Y-85340000D01*
X183745000Y-85380000D02*
X182266000Y-85380000D01*
X183745000Y-85420000D02*
X182275000Y-85420000D01*
X183745000Y-85460000D02*
X182284000Y-85460000D01*
X183745000Y-85500000D02*
X182295000Y-85500000D01*
X183745000Y-85540000D02*
X182306000Y-85540000D01*
X183745000Y-85580000D02*
X182318000Y-85580000D01*
X183745000Y-85620000D02*
X182330000Y-85620000D01*
X183745000Y-85660000D02*
X182343000Y-85660000D01*
X183745000Y-85700000D02*
X182357000Y-85700000D01*
X183745000Y-85740000D02*
X182372000Y-85740000D01*
X183745000Y-85780000D02*
X182387000Y-85780000D01*
X183745000Y-85820000D02*
X182403000Y-85820000D01*
X183745000Y-85860000D02*
X182420000Y-85860000D01*
X183745000Y-85900000D02*
X182438000Y-85900000D01*
X183745000Y-85940000D02*
X182456000Y-85940000D01*
X183745000Y-85980000D02*
X182476000Y-85980000D01*
X183745000Y-86020000D02*
X182496000Y-86020000D01*
X183745000Y-86060000D02*
X182517000Y-86060000D01*
X183745000Y-86100000D02*
X182539000Y-86100000D01*
X183745000Y-86140000D02*
X182562000Y-86140000D01*
X183745000Y-86180000D02*
X182586000Y-86180000D01*
X183745000Y-86220000D02*
X182610000Y-86220000D01*
X183745000Y-86260000D02*
X182636000Y-86260000D01*
X183745000Y-86300000D02*
X182663000Y-86300000D01*
X183745000Y-86340000D02*
X182691000Y-86340000D01*
X183745000Y-86380000D02*
X182720000Y-86380000D01*
X183745000Y-86420000D02*
X182750000Y-86420000D01*
X183745000Y-86460000D02*
X182782000Y-86460000D01*
X183745000Y-86500000D02*
X182815000Y-86500000D01*
X183745000Y-86540000D02*
X182849000Y-86540000D01*
X183745000Y-86580000D02*
X182884000Y-86580000D01*
X183745000Y-86620000D02*
X182921000Y-86620000D01*
X183745000Y-86660000D02*
X182960000Y-86660000D01*
X183745000Y-86700000D02*
X183000000Y-86700000D01*
X183745000Y-86740000D02*
X183042000Y-86740000D01*
X183745000Y-86780000D02*
X183086000Y-86780000D01*
X183745000Y-86820000D02*
X183133000Y-86820000D01*
X185068000Y-87420000D02*
X184502000Y-87420000D01*
X185302000Y-87380000D02*
X184268000Y-87380000D01*
X185462000Y-87340000D02*
X184108000Y-87340000D01*
X185590000Y-87300000D02*
X183980000Y-87300000D01*
X185699000Y-87260000D02*
X183871000Y-87260000D01*
X185796000Y-87220000D02*
X183774000Y-87220000D01*
X185883000Y-87180000D02*
X183687000Y-87180000D01*
X185962000Y-87140000D02*
X183608000Y-87140000D01*
X186036000Y-87100000D02*
X183534000Y-87100000D01*
X186104000Y-87060000D02*
X183466000Y-87060000D01*
X186168000Y-87020000D02*
X183402000Y-87020000D01*
X186228000Y-86980000D02*
X183342000Y-86980000D01*
X186260000Y-82015225D02*
X186260000Y-82515225D01*
X186284000Y-86940000D02*
X183286000Y-86940000D01*
X186338000Y-86900000D02*
X183232000Y-86900000D01*
X186389000Y-86860000D02*
X183181000Y-86860000D01*
X186437000Y-86820000D02*
X185825000Y-86820000D01*
X186484000Y-86780000D02*
X185825000Y-86780000D01*
X186510000Y-82265225D02*
X186010000Y-82265225D01*
X186528000Y-86740000D02*
X185825000Y-86740000D01*
X186570000Y-86700000D02*
X185825000Y-86700000D01*
X186610000Y-86660000D02*
X185825000Y-86660000D01*
X186649000Y-86620000D02*
X185825000Y-86620000D01*
X186686000Y-86580000D02*
X185825000Y-86580000D01*
X186721000Y-86540000D02*
X185825000Y-86540000D01*
X186755000Y-86500000D02*
X185825000Y-86500000D01*
X186788000Y-86460000D02*
X185825000Y-86460000D01*
X186820000Y-86420000D02*
X185825000Y-86420000D01*
X186850000Y-86380000D02*
X185825000Y-86380000D01*
X186879000Y-86340000D02*
X185825000Y-86340000D01*
X186907000Y-86300000D02*
X185825000Y-86300000D01*
X186934000Y-86260000D02*
X185825000Y-86260000D01*
X186960000Y-86220000D02*
X185825000Y-86220000D01*
X186984000Y-86180000D02*
X185825000Y-86180000D01*
X187008000Y-86140000D02*
X185825000Y-86140000D01*
X187031000Y-86100000D02*
X185825000Y-86100000D01*
X187053000Y-86060000D02*
X185825000Y-86060000D01*
X187074000Y-86020000D02*
X185825000Y-86020000D01*
X187094000Y-85980000D02*
X185825000Y-85980000D01*
X187114000Y-85940000D02*
X185825000Y-85940000D01*
X187132000Y-85900000D02*
X185825000Y-85900000D01*
X187150000Y-85860000D02*
X185825000Y-85860000D01*
X187167000Y-85820000D02*
X185825000Y-85820000D01*
X187183000Y-85780000D02*
X185825000Y-85780000D01*
X187198000Y-85740000D02*
X185825000Y-85740000D01*
X187213000Y-85700000D02*
X185825000Y-85700000D01*
X187227000Y-85660000D02*
X185825000Y-85660000D01*
X187240000Y-85620000D02*
X185825000Y-85620000D01*
X187252000Y-85580000D02*
X185825000Y-85580000D01*
X187264000Y-85540000D02*
X185825000Y-85540000D01*
X187275000Y-85500000D02*
X185825000Y-85500000D01*
X187286000Y-85460000D02*
X185825000Y-85460000D01*
X187295000Y-85420000D02*
X185825000Y-85420000D01*
X187304000Y-85380000D02*
X185825000Y-85380000D01*
X187313000Y-85340000D02*
X185825000Y-85340000D01*
X187321000Y-85300000D02*
X185825000Y-85300000D01*
X187328000Y-85260000D02*
X185825000Y-85260000D01*
X187334000Y-85220000D02*
X185825000Y-85220000D01*
X187340000Y-85180000D02*
X185825000Y-85180000D01*
X187345000Y-85140000D02*
X185825000Y-85140000D01*
X187350000Y-85100000D02*
X185825000Y-85100000D01*
X187354000Y-85060000D02*
X185825000Y-85060000D01*
X187357000Y-85020000D02*
X185825000Y-85020000D01*
X187360000Y-84980000D02*
X185825000Y-84980000D01*
X187362000Y-84940000D02*
X185825000Y-84940000D01*
X187364000Y-84900000D02*
X185825000Y-84900000D01*
X187365000Y-84820000D02*
X185825000Y-84820000D01*
X187365000Y-84860000D02*
X185825000Y-84860000D01*
X187405000Y-84820000D02*
G75*
G02*
X182165000Y-84820000I-2620000J0D01*
G01*
X182165000Y-84820000D02*
G75*
G02*
X187405000Y-84820000I2620000J0D01*
G01*
%TO.C,Q22*%
X117185000Y-51027500D02*
X118185000Y-51027500D01*
X117185000Y-52847500D02*
X117185000Y-51027500D01*
X117235000Y-52847500D02*
X117185000Y-52847500D01*
X119135000Y-52847500D02*
X118355000Y-52847500D01*
X119305000Y-51027500D02*
X120305000Y-51027500D01*
X120305000Y-51027500D02*
X120305000Y-52847500D01*
X120305000Y-52847500D02*
X120255000Y-52847500D01*
X118695000Y-53627500D02*
X118365000Y-53387500D01*
X118695000Y-53147500D01*
X118695000Y-53627500D01*
G36*
X118695000Y-53627500D02*
G01*
X118365000Y-53387500D01*
X118695000Y-53147500D01*
X118695000Y-53627500D01*
G37*
%TO.C,R14*%
X242797064Y-50065000D02*
X242342936Y-50065000D01*
X242797064Y-51535000D02*
X242342936Y-51535000D01*
%TO.C,R68*%
X71624564Y-86260000D02*
X71170436Y-86260000D01*
X71624564Y-87730000D02*
X71170436Y-87730000D01*
%TO.C,D17*%
X133490000Y-91780000D02*
X139300000Y-91780000D01*
X139300000Y-88560000D02*
X133490000Y-88560000D01*
X139300000Y-91780000D02*
X139300000Y-88560000D01*
%TO.C,R75*%
X114707936Y-100865000D02*
X115162064Y-100865000D01*
X114707936Y-102335000D02*
X115162064Y-102335000D01*
%TO.C,Q14*%
X84414616Y-59389577D02*
X85390423Y-60365384D01*
X85255106Y-58549087D02*
X84414616Y-59389577D01*
X85390423Y-60365384D02*
X86230913Y-59524894D01*
%TO.C,R58*%
X187732936Y-95150000D02*
X188187064Y-95150000D01*
X187732936Y-96620000D02*
X188187064Y-96620000D01*
%TO.C,C50*%
X137614252Y-86768000D02*
X137091748Y-86768000D01*
X137614252Y-88238000D02*
X137091748Y-88238000D01*
%TO.C,R25*%
X238532936Y-46255000D02*
X238987064Y-46255000D01*
X238532936Y-47725000D02*
X238987064Y-47725000D01*
%TO.C,C11*%
X214256252Y-40540000D02*
X213733748Y-40540000D01*
X214256252Y-42010000D02*
X213733748Y-42010000D01*
%TO.C,C34*%
X179443748Y-83085000D02*
X179966252Y-83085000D01*
X179443748Y-84555000D02*
X179966252Y-84555000D01*
%TO.C,R95*%
X120169000Y-65812936D02*
X120169000Y-66267064D01*
X121639000Y-65812936D02*
X121639000Y-66267064D01*
%TO.C,R67*%
X82450000Y-56287936D02*
X82450000Y-56742064D01*
X83920000Y-56287936D02*
X83920000Y-56742064D01*
%TO.C,R94*%
X117882936Y-64035000D02*
X118337064Y-64035000D01*
X117882936Y-65505000D02*
X118337064Y-65505000D01*
%TO.C,R19*%
X238532936Y-42445000D02*
X238987064Y-42445000D01*
X238532936Y-43915000D02*
X238987064Y-43915000D01*
%TO.C,R29*%
X231367064Y-44985000D02*
X230912936Y-44985000D01*
X231367064Y-46455000D02*
X230912936Y-46455000D01*
%TO.C,D16*%
X143650000Y-100035000D02*
X149460000Y-100035000D01*
X149460000Y-96815000D02*
X143650000Y-96815000D01*
X149460000Y-100035000D02*
X149460000Y-96815000D01*
%TO.C,R21*%
X270102064Y-41810000D02*
X269647936Y-41810000D01*
X270102064Y-43280000D02*
X269647936Y-43280000D01*
%TO.C,R93*%
X102770000Y-66902064D02*
X102770000Y-66447936D01*
X104240000Y-66902064D02*
X104240000Y-66447936D01*
%TO.C,R55*%
X231675000Y-74702936D02*
X231675000Y-75157064D01*
X233145000Y-74702936D02*
X233145000Y-75157064D01*
%TO.C,U9*%
X152380000Y-77380000D02*
X152475000Y-77380000D01*
X152380000Y-81500000D02*
X152380000Y-77380000D01*
X152475000Y-81500000D02*
X152380000Y-81500000D01*
X157405000Y-77380000D02*
X157500000Y-77380000D01*
X157500000Y-77380000D02*
X157500000Y-81500000D01*
X157500000Y-81500000D02*
X157405000Y-81500000D01*
X157740000Y-77080000D02*
X157410000Y-76840000D01*
X157740000Y-76600000D01*
X157740000Y-77080000D01*
G36*
X157740000Y-77080000D02*
G01*
X157410000Y-76840000D01*
X157740000Y-76600000D01*
X157740000Y-77080000D01*
G37*
%TO.C,R84*%
X86895000Y-72339564D02*
X86895000Y-71885436D01*
X88365000Y-72339564D02*
X88365000Y-71885436D01*
%TO.C,Q21*%
X115344892Y-55995699D02*
X116185382Y-56836189D01*
X116320699Y-55019892D02*
X115344892Y-55995699D01*
X117161189Y-55860382D02*
X116320699Y-55019892D01*
X117161189Y-55860382D02*
G75*
G02*
X116185382Y-56836189I1583811J-2559618D01*
G01*
%TO.C,Q8*%
X177294087Y-59778894D02*
X178134577Y-60619384D01*
X178134577Y-60619384D02*
X179110384Y-59643577D01*
X179110384Y-59643577D02*
X178269894Y-58803087D01*
X177294087Y-59778894D02*
G75*
G02*
X178269894Y-58803087I-1583811J2559618D01*
G01*
%TO.C,D3*%
X259230000Y-48650000D02*
X259230000Y-52950000D01*
X259230000Y-48650000D02*
X265040000Y-48650000D01*
X259230000Y-52950000D02*
X265040000Y-52950000D01*
%TO.C,R98*%
X115977936Y-62130000D02*
X116432064Y-62130000D01*
X115977936Y-63600000D02*
X116432064Y-63600000D01*
%TO.C,R100*%
X145950000Y-92205436D02*
X145950000Y-92659564D01*
X147420000Y-92205436D02*
X147420000Y-92659564D01*
%TO.C,Q1*%
X268315000Y-38460000D02*
X269315000Y-38460000D01*
X268315000Y-40280000D02*
X268315000Y-38460000D01*
X268365000Y-40280000D02*
X268315000Y-40280000D01*
X270265000Y-40280000D02*
X269485000Y-40280000D01*
X270435000Y-38460000D02*
X271435000Y-38460000D01*
X271435000Y-38460000D02*
X271435000Y-40280000D01*
X271435000Y-40280000D02*
X271385000Y-40280000D01*
X269825000Y-41060000D02*
X269495000Y-40820000D01*
X269825000Y-40580000D01*
X269825000Y-41060000D01*
G36*
X269825000Y-41060000D02*
G01*
X269495000Y-40820000D01*
X269825000Y-40580000D01*
X269825000Y-41060000D01*
G37*
%TO.C,J53*%
X258210000Y-58555000D02*
X258210000Y-59555000D01*
X258210000Y-59555000D02*
X259210000Y-59055000D01*
X259210000Y-59055000D02*
X258210000Y-58555000D01*
X259600000Y-53845000D02*
X268720000Y-53845000D01*
X259600000Y-65895000D02*
X260910000Y-65895000D01*
X259600000Y-82045000D02*
X259600000Y-53845000D01*
X260910000Y-55145000D02*
X267410000Y-55145000D01*
X260910000Y-65895000D02*
X260910000Y-55145000D01*
X260910000Y-69995000D02*
X259600000Y-69995000D01*
X260910000Y-80745000D02*
X260910000Y-69995000D01*
X267410000Y-55145000D02*
X267410000Y-80745000D01*
X267410000Y-80745000D02*
X260910000Y-80745000D01*
X268720000Y-53845000D02*
X268720000Y-82045000D01*
X268720000Y-82045000D02*
X259600000Y-82045000D01*
%TO.C,D2*%
X90965000Y-54765000D02*
X90965000Y-59175000D01*
X90965000Y-59175000D02*
X93185000Y-59175000D01*
X93185000Y-59175000D02*
X93185000Y-54765000D01*
%TO.C,R82*%
X140235000Y-79602064D02*
X140235000Y-79147936D01*
X141705000Y-79602064D02*
X141705000Y-79147936D01*
%TO.C,R102*%
X140870000Y-98197936D02*
X140870000Y-98652064D01*
X142340000Y-98197936D02*
X142340000Y-98652064D01*
%TO.C,R54*%
X226287064Y-65686000D02*
X225832936Y-65686000D01*
X226287064Y-67156000D02*
X225832936Y-67156000D01*
%TO.C,D9*%
X190160000Y-94120000D02*
X190160000Y-99930000D01*
X190160000Y-99930000D02*
X193380000Y-99930000D01*
X193380000Y-99930000D02*
X193380000Y-94120000D01*
%TO.C,R49*%
X228500000Y-98832936D02*
X228500000Y-99287064D01*
X229970000Y-98832936D02*
X229970000Y-99287064D01*
%TO.C,C10*%
X244101252Y-87530000D02*
X243578748Y-87530000D01*
X244101252Y-89000000D02*
X243578748Y-89000000D01*
%TO.C,R81*%
X136425000Y-79602064D02*
X136425000Y-79147936D01*
X137895000Y-79602064D02*
X137895000Y-79147936D01*
%TO.C,C6*%
X137575113Y-64565000D02*
X138075113Y-64565000D01*
X137825113Y-64315000D02*
X137825113Y-64815000D01*
X140379888Y-63460000D02*
X140379888Y-65000000D01*
X140379888Y-67080000D02*
X140379888Y-68620000D01*
X140419888Y-63460000D02*
X140419888Y-65000000D01*
X140419888Y-67080000D02*
X140419888Y-68620000D01*
X140459888Y-63461000D02*
X140459888Y-65000000D01*
X140459888Y-67080000D02*
X140459888Y-68619000D01*
X140499888Y-63463000D02*
X140499888Y-65000000D01*
X140499888Y-67080000D02*
X140499888Y-68617000D01*
X140539888Y-63465000D02*
X140539888Y-65000000D01*
X140539888Y-67080000D02*
X140539888Y-68615000D01*
X140579888Y-63468000D02*
X140579888Y-65000000D01*
X140579888Y-67080000D02*
X140579888Y-68612000D01*
X140619888Y-63471000D02*
X140619888Y-65000000D01*
X140619888Y-67080000D02*
X140619888Y-68609000D01*
X140659888Y-63475000D02*
X140659888Y-65000000D01*
X140659888Y-67080000D02*
X140659888Y-68605000D01*
X140699888Y-63480000D02*
X140699888Y-65000000D01*
X140699888Y-67080000D02*
X140699888Y-68600000D01*
X140739888Y-63485000D02*
X140739888Y-65000000D01*
X140739888Y-67080000D02*
X140739888Y-68595000D01*
X140779888Y-63491000D02*
X140779888Y-65000000D01*
X140779888Y-67080000D02*
X140779888Y-68589000D01*
X140819888Y-63497000D02*
X140819888Y-65000000D01*
X140819888Y-67080000D02*
X140819888Y-68583000D01*
X140859888Y-63504000D02*
X140859888Y-65000000D01*
X140859888Y-67080000D02*
X140859888Y-68576000D01*
X140899888Y-63512000D02*
X140899888Y-65000000D01*
X140899888Y-67080000D02*
X140899888Y-68568000D01*
X140939888Y-63521000D02*
X140939888Y-65000000D01*
X140939888Y-67080000D02*
X140939888Y-68559000D01*
X140979888Y-63530000D02*
X140979888Y-65000000D01*
X140979888Y-67080000D02*
X140979888Y-68550000D01*
X141019888Y-63539000D02*
X141019888Y-65000000D01*
X141019888Y-67080000D02*
X141019888Y-68541000D01*
X141059888Y-63550000D02*
X141059888Y-65000000D01*
X141059888Y-67080000D02*
X141059888Y-68530000D01*
X141099888Y-63561000D02*
X141099888Y-65000000D01*
X141099888Y-67080000D02*
X141099888Y-68519000D01*
X141139888Y-63573000D02*
X141139888Y-65000000D01*
X141139888Y-67080000D02*
X141139888Y-68507000D01*
X141179888Y-63585000D02*
X141179888Y-65000000D01*
X141179888Y-67080000D02*
X141179888Y-68495000D01*
X141219888Y-63598000D02*
X141219888Y-65000000D01*
X141219888Y-67080000D02*
X141219888Y-68482000D01*
X141259888Y-63612000D02*
X141259888Y-65000000D01*
X141259888Y-67080000D02*
X141259888Y-68468000D01*
X141299888Y-63627000D02*
X141299888Y-65000000D01*
X141299888Y-67080000D02*
X141299888Y-68453000D01*
X141339888Y-63642000D02*
X141339888Y-65000000D01*
X141339888Y-67080000D02*
X141339888Y-68438000D01*
X141379888Y-63658000D02*
X141379888Y-65000000D01*
X141379888Y-67080000D02*
X141379888Y-68422000D01*
X141419888Y-63675000D02*
X141419888Y-65000000D01*
X141419888Y-67080000D02*
X141419888Y-68405000D01*
X141459888Y-63693000D02*
X141459888Y-65000000D01*
X141459888Y-67080000D02*
X141459888Y-68387000D01*
X141499888Y-63711000D02*
X141499888Y-65000000D01*
X141499888Y-67080000D02*
X141499888Y-68369000D01*
X141539888Y-63731000D02*
X141539888Y-65000000D01*
X141539888Y-67080000D02*
X141539888Y-68349000D01*
X141579888Y-63751000D02*
X141579888Y-65000000D01*
X141579888Y-67080000D02*
X141579888Y-68329000D01*
X141619888Y-63772000D02*
X141619888Y-65000000D01*
X141619888Y-67080000D02*
X141619888Y-68308000D01*
X141659888Y-63794000D02*
X141659888Y-65000000D01*
X141659888Y-67080000D02*
X141659888Y-68286000D01*
X141699888Y-63817000D02*
X141699888Y-65000000D01*
X141699888Y-67080000D02*
X141699888Y-68263000D01*
X141739888Y-63841000D02*
X141739888Y-65000000D01*
X141739888Y-67080000D02*
X141739888Y-68239000D01*
X141779888Y-63865000D02*
X141779888Y-65000000D01*
X141779888Y-67080000D02*
X141779888Y-68215000D01*
X141819888Y-63891000D02*
X141819888Y-65000000D01*
X141819888Y-67080000D02*
X141819888Y-68189000D01*
X141859888Y-63918000D02*
X141859888Y-65000000D01*
X141859888Y-67080000D02*
X141859888Y-68162000D01*
X141899888Y-63946000D02*
X141899888Y-65000000D01*
X141899888Y-67080000D02*
X141899888Y-68134000D01*
X141939888Y-63975000D02*
X141939888Y-65000000D01*
X141939888Y-67080000D02*
X141939888Y-68105000D01*
X141979888Y-64005000D02*
X141979888Y-65000000D01*
X141979888Y-67080000D02*
X141979888Y-68075000D01*
X142019888Y-64037000D02*
X142019888Y-65000000D01*
X142019888Y-67080000D02*
X142019888Y-68043000D01*
X142059888Y-64070000D02*
X142059888Y-65000000D01*
X142059888Y-67080000D02*
X142059888Y-68010000D01*
X142099888Y-64104000D02*
X142099888Y-65000000D01*
X142099888Y-67080000D02*
X142099888Y-67976000D01*
X142139888Y-64139000D02*
X142139888Y-65000000D01*
X142139888Y-67080000D02*
X142139888Y-67941000D01*
X142179888Y-64176000D02*
X142179888Y-65000000D01*
X142179888Y-67080000D02*
X142179888Y-67904000D01*
X142219888Y-64215000D02*
X142219888Y-65000000D01*
X142219888Y-67080000D02*
X142219888Y-67865000D01*
X142259888Y-64255000D02*
X142259888Y-65000000D01*
X142259888Y-67080000D02*
X142259888Y-67825000D01*
X142299888Y-64297000D02*
X142299888Y-65000000D01*
X142299888Y-67080000D02*
X142299888Y-67783000D01*
X142339888Y-64341000D02*
X142339888Y-65000000D01*
X142339888Y-67080000D02*
X142339888Y-67739000D01*
X142379888Y-64388000D02*
X142379888Y-65000000D01*
X142379888Y-67080000D02*
X142379888Y-67692000D01*
X142419888Y-64436000D02*
X142419888Y-67644000D01*
X142459888Y-64487000D02*
X142459888Y-67593000D01*
X142499888Y-64541000D02*
X142499888Y-67539000D01*
X142539888Y-64597000D02*
X142539888Y-67483000D01*
X142579888Y-64657000D02*
X142579888Y-67423000D01*
X142619888Y-64721000D02*
X142619888Y-67359000D01*
X142659888Y-64789000D02*
X142659888Y-67291000D01*
X142699888Y-64863000D02*
X142699888Y-67217000D01*
X142739888Y-64942000D02*
X142739888Y-67138000D01*
X142779888Y-65029000D02*
X142779888Y-67051000D01*
X142819888Y-65126000D02*
X142819888Y-66954000D01*
X142859888Y-65235000D02*
X142859888Y-66845000D01*
X142899888Y-65363000D02*
X142899888Y-66717000D01*
X142939888Y-65523000D02*
X142939888Y-66557000D01*
X142979888Y-65757000D02*
X142979888Y-66323000D01*
X142999888Y-66040000D02*
G75*
G02*
X137759888Y-66040000I-2620000J0D01*
G01*
X137759888Y-66040000D02*
G75*
G02*
X142999888Y-66040000I2620000J0D01*
G01*
D10*
%TO.C,R41*%
X168845000Y-42545000D02*
X171515000Y-42545000D01*
X168845000Y-50165000D02*
X168845000Y-42545000D01*
X171515000Y-42545000D02*
X171515000Y-50165000D01*
X171515000Y-50165000D02*
X168845000Y-50165000D01*
%TD*%
M02*
